<?xml version="1.0" encoding="utf-8"?>
<!-- Generator: Adobe Illustrator 19.2.1, SVG Export Plug-In . SVG Version: 6.00 Build 0)  -->
<!DOCTYPE svg PUBLIC "-//W3C//DTD SVG 1.1//EN" "http://www.w3.org/Graphics/SVG/1.1/DTD/svg11.dtd">
<svg version="1.1" xmlns="http://www.w3.org/2000/svg" xmlns:xlink="http://www.w3.org/1999/xlink" x="0px" y="0px"
	 viewBox="0 0 24 24" enable-background="new 0 0 24 24" xml:space="preserve">
<g id="Layer_1">
	<path d="M12,4.8v14.3L8.8,16H2V8h6.8L12,4.8 M14,0L8,6H0v12h8l6,6V0L14,0z M24,11h-8v2h8V11z"/>
</g>
<g id="Layer_2" display="none">
	<g display="inline">
		<g>
			<path fill="#ED1C24" d="M12,4.8v14.3l-2.6-2.6L8.8,16H8H2V8h6h0.8l0.6-0.6L12,4.8 M14,0L8,6H0v12h8l6,6V0L14,0z"/>
		</g>
		<line fill="none" stroke="#ED1C24" stroke-width="2" stroke-miterlimit="10" x1="16" y1="12" x2="24" y2="12"/>
	</g>
</g>
</svg>
