<?xml version="1.0" encoding="utf-8"?>
<!-- Generator: Adobe Illustrator 19.2.1, SVG Export Plug-In . SVG Version: 6.00 Build 0)  -->
<!DOCTYPE svg PUBLIC "-//W3C//DTD SVG 1.1//EN" "http://www.w3.org/Graphics/SVG/1.1/DTD/svg11.dtd">
<svg version="1.1" xmlns="http://www.w3.org/2000/svg" xmlns:xlink="http://www.w3.org/1999/xlink" x="0px" y="0px"
	 viewBox="0 0 24 24" enable-background="new 0 0 24 24" xml:space="preserve">
<g id="Layer_1">
	<path d="M24,8V6h-4V1l-1-1l-1,1v5h-5V1l-1-1l-1,1v5H6V1L5,0L4,1v5H0v2h4v10H0v2h4v4h2v-4h5v4h2v-4h5v4h2v-4h4v-2h-4V8H24z M6,18V8
		h5v10H6z M18,18h-5V8h5V18z"/>
</g>
<g id="Layer_2" display="none">
	<line display="inline" fill="none" stroke="#ED1C24" stroke-width="2" stroke-miterlimit="10" x1="0" y1="19" x2="24" y2="19"/>
	<line display="inline" fill="none" stroke="#ED1C24" stroke-width="2" stroke-miterlimit="10" x1="0" y1="7" x2="24" y2="7"/>
	<g display="inline">
		<polygon fill="#ED1C24" points="5,0 4,1 4,24 6,24 6,1 5,0 		"/>
	</g>
	<g display="inline">
		<polygon fill="#ED1C24" points="12,0 11,1 11,24 13,24 13,1 12,0 		"/>
	</g>
	<g display="inline">
		<polygon fill="#ED1C24" points="19,0 18,1 18,24 20,24 20,1 19,0 		"/>
	</g>
</g>
</svg>
