<?xml version="1.0" encoding="utf-8"?>
<!-- Generator: Adobe Illustrator 21.0.0, SVG Export Plug-In . SVG Version: 6.00 Build 0)  -->
<!DOCTYPE svg PUBLIC "-//W3C//DTD SVG 1.1//EN" "http://www.w3.org/Graphics/SVG/1.1/DTD/svg11.dtd">
<svg version="1.1" xmlns="http://www.w3.org/2000/svg" xmlns:xlink="http://www.w3.org/1999/xlink" x="0px" y="0px"
	 viewBox="0 0 24 24" enable-background="new 0 0 24 24" xml:space="preserve">
<g id="Layer_1">
	<path d="M23,24h-8V10h-2V8h2V4c0-2.2,1.8-4,4-4s4,1.8,4,4V24z M17,22h4V4c0-1.1-0.9-2-2-2s-2,0.9-2,2V22z M10.4,9L1.7,0.3L0.3,1.7
		L7.6,9l-7.3,7.3l1.4,1.4L10.4,9z"/>
</g>
<g id="Layer_2" display="none">
	<path display="inline" fill="none" stroke="#ED1C24" stroke-width="2" stroke-miterlimit="10" d="M13,9l3,0V4c0-1.7,1.3-3,3-3
		s3,1.3,3,3v19h-6V9"/>
	<polyline display="inline" fill="none" stroke="#ED1C24" stroke-width="2" stroke-miterlimit="10" points="1,1 9,9 1,17 	"/>
</g>
</svg>
