<?xml version="1.0" encoding="utf-8"?>
<!-- Generator: Adobe Illustrator 19.2.1, SVG Export Plug-In . SVG Version: 6.00 Build 0)  -->
<!DOCTYPE svg PUBLIC "-//W3C//DTD SVG 1.1//EN" "http://www.w3.org/Graphics/SVG/1.1/DTD/svg11.dtd">
<svg version="1.1" xmlns="http://www.w3.org/2000/svg" xmlns:xlink="http://www.w3.org/1999/xlink" x="0px" y="0px"
	 viewBox="0 0 24 24" enable-background="new 0 0 24 24" xml:space="preserve">
<g id="Layer_1">
	<path d="M8.5,0L0.8,12l7.6,12H24V0H8.5z M22,22H9.5L3.2,12L9.5,2H22V22z M10.2,7.4l3.2,3.2l3.2-3.2L18,8.8L14.8,12l3.2,3.2
		l-1.4,1.4l-3.2-3.2l-3.2,3.2l-1.4-1.4L12,12L8.8,8.8L10.2,7.4z"/>
</g>
<g id="Layer_2" display="none">
	<g display="inline">
		<polygon fill="none" stroke="#ED1C24" stroke-width="2" stroke-miterlimit="10" points="9,23 23,23 23,1 9,1 2,12 		"/>
		<line fill="none" stroke="#ED1C24" stroke-width="2" stroke-miterlimit="10" x1="9.5" y1="8.1" x2="17.3" y2="15.9"/>
		<line fill="none" stroke="#ED1C24" stroke-width="2" stroke-miterlimit="10" x1="9.5" y1="15.9" x2="17.3" y2="8.1"/>
	</g>
</g>
</svg>
