<?xml version="1.0" encoding="utf-8"?>
<!-- Generator: Adobe Illustrator 20.1.0, SVG Export Plug-In . SVG Version: 6.00 Build 0)  -->
<!DOCTYPE svg PUBLIC "-//W3C//DTD SVG 1.1//EN" "http://www.w3.org/Graphics/SVG/1.1/DTD/svg11.dtd">
<svg version="1.1" xmlns="http://www.w3.org/2000/svg" xmlns:xlink="http://www.w3.org/1999/xlink" x="0px" y="0px"
	 viewBox="0 0 24 24" enable-background="new 0 0 24 24" xml:space="preserve">
<g id="Layer_1">
	<path d="M5.5,14c0-0.8,0.7-1.5,1.5-1.5s1.5,0.7,1.5,1.5S7.8,15.5,7,15.5S5.5,14.8,5.5,14z M17,15.5c0.8,0,1.5-0.7,1.5-1.5
		s-0.7-1.5-1.5-1.5s-1.5,0.7-1.5,1.5S16.2,15.5,17,15.5z M22,4v12c0,2.2-1.8,4-4,4v4h-2v-4H8v4H6v-4c-2.2,0-4-1.8-4-4V4
		c0-2.2,1.8-4,4-4h12C20.2,0,22,1.8,22,4z M20,11H4v5c0,1.1,0.9,2,2,2h12c1.1,0,2-0.9,2-2V11z M20,4c0-1.1-0.9-2-2-2H6
		C4.9,2,4,2.9,4,4v5h16V4z"/>
</g>
<g id="Layer_2" display="none">
	<line display="inline" fill="none" stroke="#00A651" stroke-width="2" stroke-miterlimit="10" x1="7" y1="19" x2="7" y2="24"/>
	<line display="inline" fill="none" stroke="#00A651" stroke-width="2" stroke-miterlimit="10" x1="17" y1="19" x2="17" y2="24"/>
	<line display="inline" fill="none" stroke="#00A651" stroke-width="2" stroke-miterlimit="10" x1="4" y1="10" x2="20" y2="10"/>
	<g display="inline">
		<path fill="#00A651" d="M7,12.5c-0.8,0-1.5,0.7-1.5,1.5s0.7,1.5,1.5,1.5s1.5-0.7,1.5-1.5S7.8,12.5,7,12.5L7,12.5z"/>
	</g>
	<g display="inline">
		<path fill="#00A651" d="M17,12.5c-0.8,0-1.5,0.7-1.5,1.5s0.7,1.5,1.5,1.5s1.5-0.7,1.5-1.5S17.8,12.5,17,12.5L17,12.5z"/>
	</g>
	<path display="inline" fill="none" stroke="#00A651" stroke-width="2" stroke-miterlimit="10" d="M18,19H6c-1.7,0-3-1.4-3-3V4
		c0-1.7,1.3-3,3-3h12c1.6,0,3,1.3,3,3v12C21,17.6,19.6,19,18,19z"/>
</g>
</svg>
