<?xml version="1.0" encoding="utf-8"?>
<!-- Generator: Adobe Illustrator 19.2.1, SVG Export Plug-In . SVG Version: 6.00 Build 0)  -->
<!DOCTYPE svg PUBLIC "-//W3C//DTD SVG 1.1//EN" "http://www.w3.org/Graphics/SVG/1.1/DTD/svg11.dtd">
<svg version="1.1" xmlns="http://www.w3.org/2000/svg" xmlns:xlink="http://www.w3.org/1999/xlink" x="0px" y="0px"
	 viewBox="0 0 24 24" enable-background="new 0 0 24 24" xml:space="preserve">
<g id="Layer_1">
	<path d="M4,11.4l-4,4v-2.8l4-4L7.4,12L6,13.4L4,11.4z M14.6,14l1.4,1.4l4-4l4,4v-2.8l-4-4L14.6,14z M22.3,0.3l-22,22l1.4,1.4l22-22
		L22.3,0.3z"/>
</g>
<g id="Layer_2" display="none">
	<g display="inline">
		<polygon fill="#ED1C24" points="6,13.4 7.4,12 4,8.6 0,12.6 0,15.4 4,11.4 		"/>
		<polygon fill="#ED1C24" points="14.6,14 16,15.4 20,11.4 24,15.4 24,12.6 20,8.6 		"/>
	</g>
	<line display="inline" fill="none" stroke="#ED1C24" stroke-width="2" stroke-miterlimit="10" x1="1" y1="23" x2="23" y2="1"/>
</g>
</svg>
