<?xml version="1.0" encoding="utf-8"?>
<!-- Generator: Adobe Illustrator 20.0.0, SVG Export Plug-In . SVG Version: 6.00 Build 0)  -->
<!DOCTYPE svg PUBLIC "-//W3C//DTD SVG 1.1//EN" "http://www.w3.org/Graphics/SVG/1.1/DTD/svg11.dtd">
<svg version="1.1" xmlns="http://www.w3.org/2000/svg" xmlns:xlink="http://www.w3.org/1999/xlink" x="0px" y="0px"
	 viewBox="0 0 24 24" enable-background="new 0 0 24 24" xml:space="preserve">
<g id="Layer_1">
	<path d="M17,0h2c0,10.5-8.5,19-19,19v-2C9.4,17,17,9.4,17,0z M14,0h-2c0,6.6-5.4,12-12,12v2C7.7,14,14,7.7,14,0z M9,0H7
		c0,3.9-3.1,7-7,7v2C5,9,9,5,9,0z M4,0H2c0,1.1-0.9,2-2,2v2C2.2,4,4,2.2,4,0z"/>
</g>
<g id="Layer_2" display="none">
	<path display="inline" fill="none" stroke="#ED1C24" stroke-width="2" stroke-miterlimit="10" d="M18,0c0,9.9-8.1,18-18,18"/>
	<path display="inline" fill="none" stroke="#ED1C24" stroke-width="2" stroke-miterlimit="10" d="M13,0c0,7.2-5.8,13-13,13"/>
	<path display="inline" fill="none" stroke="#ED1C24" stroke-width="2" stroke-miterlimit="10" d="M8,0c0,4.4-3.6,8-8,8"/>
	<path display="inline" fill="none" stroke="#ED1C24" stroke-width="2" stroke-miterlimit="10" d="M3,0c0,1.7-1.3,3-3,3"/>
</g>
</svg>
