<?xml version="1.0" encoding="utf-8"?>
<!-- Generator: Adobe Illustrator 20.0.0, SVG Export Plug-In . SVG Version: 6.00 Build 0)  -->
<!DOCTYPE svg PUBLIC "-//W3C//DTD SVG 1.1//EN" "http://www.w3.org/Graphics/SVG/1.1/DTD/svg11.dtd">
<svg version="1.1" xmlns="http://www.w3.org/2000/svg" xmlns:xlink="http://www.w3.org/1999/xlink" x="0px" y="0px"
	 viewBox="0 0 24 24" enable-background="new 0 0 24 24" xml:space="preserve">
<g id="Layer_1">
	<path d="M12,0h2c0,7.7-6.3,14-14,14v-2C6.6,12,12,6.6,12,0z M9,0H7c0,3.9-3.1,7-7,7v2C5,9,9,5,9,0z M4,0H2c0,1.1-0.9,2-2,2v2
		C2.2,4,4,2.2,4,0z"/>
</g>
<g id="Layer_2" display="none">
	<path display="inline" fill="none" stroke="#ED1C24" stroke-width="2" stroke-miterlimit="10" d="M13,0c0,7.2-5.8,13-13,13"/>
	<path display="inline" fill="none" stroke="#ED1C24" stroke-width="2" stroke-miterlimit="10" d="M8,0c0,4.4-3.6,8-8,8"/>
	<path display="inline" fill="none" stroke="#ED1C24" stroke-width="2" stroke-miterlimit="10" d="M3,0c0,1.7-1.3,3-3,3"/>
</g>
</svg>
