<?xml version="1.0" encoding="utf-8"?>
<!-- Generator: Adobe Illustrator 21.0.2, SVG Export Plug-In . SVG Version: 6.00 Build 0)  -->
<!DOCTYPE svg PUBLIC "-//W3C//DTD SVG 1.1//EN" "http://www.w3.org/Graphics/SVG/1.1/DTD/svg11.dtd">
<svg version="1.1" xmlns="http://www.w3.org/2000/svg" xmlns:xlink="http://www.w3.org/1999/xlink" x="0px" y="0px"
	 viewBox="0 0 24 24" enable-background="new 0 0 24 24" xml:space="preserve">
<g id="Layer_1">
	<g>
		<rect x="20" y="11" width="4" height="2"/>
		<rect y="11" width="4" height="2"/>
		<rect x="17.1" y="3.9" transform="matrix(0.7071 -0.7071 0.7071 0.7071 2.1007 14.9289)" width="4" height="2"/>
		<rect x="11" width="2" height="4"/>
		<rect x="3.9" y="2.9" transform="matrix(0.707 -0.7072 0.7072 0.707 -2.0415 4.9295)" width="2" height="4"/>
		<path d="M18,12c0-3.3-2.7-6-6-6s-6,2.7-6,6v6H4v6h16v-6h-2V12z M8,12c0-2.2,1.8-4,4-4s4,1.8,4,4v6H8V12z M18,22H6v-2h12V22z"/>
		<path d="M12,10v6h2v-4C14,10.9,13.1,10,12,10z"/>
	</g>
</g>
<g id="Layer_2" display="none">
</g>
</svg>
