<?xml version="1.0" encoding="utf-8"?>
<!-- Generator: Adobe Illustrator 21.0.0, SVG Export Plug-In . SVG Version: 6.00 Build 0)  -->
<!DOCTYPE svg PUBLIC "-//W3C//DTD SVG 1.1//EN" "http://www.w3.org/Graphics/SVG/1.1/DTD/svg11.dtd">
<svg version="1.1" xmlns="http://www.w3.org/2000/svg" xmlns:xlink="http://www.w3.org/1999/xlink" x="0px" y="0px"
	 viewBox="0 0 24 24" enable-background="new 0 0 24 24" xml:space="preserve">
<g id="Layer_1">
	<path d="M9,11h6v2H9V11z M18,13h6v-2h-6V13z M0,13h6v-2H0V13z M2,24h2v-8H2V24z M8,24h2v-8H8V24z M14,24h2v-8h-2V24z M20,24h2v-8
		h-2V24z M10.7,1.7L9.3,0.3l-7,7l1.4,1.4L10.7,1.7z M9.7,8.7l7-7l-1.4-1.4l-7,7L9.7,8.7z M15.7,8.7l7-7l-1.4-1.4l-7,7L15.7,8.7z
		 M20.3,7.3l1.4,1.4l2-2l-1.4-1.4L20.3,7.3z"/>
</g>
<g id="Layer_2" display="none">
	
		<line display="inline" fill="none" stroke="#ED1C24" stroke-width="2" stroke-miterlimit="10" stroke-dasharray="6,3" x1="0" y1="12" x2="24" y2="12"/>
	<rect x="2" y="16" display="inline" fill="#ED1C24" width="2" height="8"/>
	<rect x="8" y="16" display="inline" fill="#ED1C24" width="2" height="8"/>
	<rect x="14" y="16" display="inline" fill="#ED1C24" width="2" height="8"/>
	<rect x="20" y="16" display="inline" fill="#ED1C24" width="2" height="8"/>
	<line display="inline" fill="none" stroke="#ED1C24" stroke-width="2" stroke-miterlimit="10" x1="3" y1="8" x2="10" y2="1"/>
	<line display="inline" fill="none" stroke="#ED1C24" stroke-width="2" stroke-miterlimit="10" x1="9" y1="8" x2="16" y2="1"/>
	<line display="inline" fill="none" stroke="#ED1C24" stroke-width="2" stroke-miterlimit="10" x1="15" y1="8" x2="22" y2="1"/>
	<line display="inline" fill="none" stroke="#ED1C24" stroke-width="2" stroke-miterlimit="10" x1="21" y1="8" x2="23" y2="6"/>
</g>
</svg>
