<?xml version="1.0" encoding="utf-8"?>
<!-- Generator: Adobe Illustrator 19.2.1, SVG Export Plug-In . SVG Version: 6.00 Build 0)  -->
<!DOCTYPE svg PUBLIC "-//W3C//DTD SVG 1.1//EN" "http://www.w3.org/Graphics/SVG/1.1/DTD/svg11.dtd">
<svg version="1.1" xmlns="http://www.w3.org/2000/svg" xmlns:xlink="http://www.w3.org/1999/xlink" x="0px" y="0px"
	 viewBox="0 0 24 24" enable-background="new 0 0 24 24" xml:space="preserve">
<g id="Layer_1">
	<path d="M16,12.7c1.8-1.3,3-3.4,3-5.7c0-3.9-3.1-7-7-7C8.1,0,5,3.1,5,7c0,2.4,1.2,4.4,3,5.7C3.3,14.4,0,18.8,0,24h24
		C24,18.8,20.7,14.4,16,12.7z M7,7c0-2.8,2.2-5,5-5s5,2.2,5,5s-2.2,5-5,5S7,9.8,7,7z M12,14c4.8,0,8.9,3.4,9.8,8H2.2
		C3.1,17.4,7.2,14,12,14z"/>
</g>
<g id="Layer_2" display="none">
	<g display="inline">
		<path fill="#ED1C24" d="M12,2c2.8,0,5,2.2,5,5s-2.2,5-5,5S7,9.8,7,7S9.2,2,12,2 M12,0C8.1,0,5,3.1,5,7s3.1,7,7,7s7-3.1,7-7
			S15.9,0,12,0L12,0z"/>
	</g>
	<g display="inline">
		<path fill="#ED1C24" d="M12,14c4.8,0,8.9,3.4,9.8,8H2.2C3.1,17.4,7.2,14,12,14 M12,12C5.4,12,0,17.4,0,24h24
			C24,17.4,18.6,12,12,12L12,12z"/>
	</g>
</g>
</svg>
