<?xml version="1.0" encoding="utf-8"?>
<!-- Generator: Adobe Illustrator 19.2.1, SVG Export Plug-In . SVG Version: 6.00 Build 0)  -->
<!DOCTYPE svg PUBLIC "-//W3C//DTD SVG 1.1//EN" "http://www.w3.org/Graphics/SVG/1.1/DTD/svg11.dtd">
<svg version="1.1" xmlns="http://www.w3.org/2000/svg" xmlns:xlink="http://www.w3.org/1999/xlink" x="0px" y="0px"
	 viewBox="0 0 24 24" enable-background="new 0 0 24 24" xml:space="preserve">
<g id="Layer_1">
	<path d="M12,12L24,0H0L12,12z M12,9.2L4.8,2h14.3L12,9.2z M13.5,14c0,0.8-0.7,1.5-1.5,1.5s-1.5-0.7-1.5-1.5s0.7-1.5,1.5-1.5
		S13.5,13.2,13.5,14z M13.5,22c0,0.8-0.7,1.5-1.5,1.5s-1.5-0.7-1.5-1.5s0.7-1.5,1.5-1.5S13.5,21.2,13.5,22z M5.2,22
		c0,0.8-0.7,1.5-1.5,1.5S2.2,22.8,2.2,22s0.7-1.5,1.5-1.5S5.2,21.2,5.2,22z M21.5,22c0,0.8-0.7,1.5-1.5,1.5s-1.5-0.7-1.5-1.5
		s0.7-1.5,1.5-1.5S21.5,21.2,21.5,22z M9.5,18c0,0.8-0.7,1.5-1.5,1.5S6.5,18.8,6.5,18s0.7-1.5,1.5-1.5S9.5,17.2,9.5,18z M17.5,18
		c0,0.8-0.7,1.5-1.5,1.5s-1.5-0.7-1.5-1.5s0.7-1.5,1.5-1.5S17.5,17.2,17.5,18z"/>
</g>
<g id="Layer_2" display="none">
	<g display="inline">
		<path fill="#ED1C24" d="M19.2,2L12,9.2L4.8,2H19.2 M24,0H0l12,12L24,0L24,0z"/>
	</g>
	<g display="inline">
		<path fill="#ED1C24" d="M12,12.5c-0.8,0-1.5,0.7-1.5,1.5s0.7,1.5,1.5,1.5s1.5-0.7,1.5-1.5S12.8,12.5,12,12.5L12,12.5z"/>
	</g>
	<g display="inline">
		<path fill="#ED1C24" d="M12,20.5c-0.8,0-1.5,0.7-1.5,1.5s0.7,1.5,1.5,1.5s1.5-0.7,1.5-1.5S12.8,20.5,12,20.5L12,20.5z"/>
	</g>
	<g display="inline">
		<path fill="#ED1C24" d="M3.7,20.5c-0.8,0-1.5,0.7-1.5,1.5s0.7,1.5,1.5,1.5s1.5-0.7,1.5-1.5S4.5,20.5,3.7,20.5L3.7,20.5z"/>
	</g>
	<g display="inline">
		<path fill="#ED1C24" d="M20,20.5c-0.8,0-1.5,0.7-1.5,1.5s0.7,1.5,1.5,1.5s1.5-0.7,1.5-1.5S20.8,20.5,20,20.5L20,20.5z"/>
	</g>
	<g display="inline">
		<path fill="#ED1C24" d="M8,16.5c-0.8,0-1.5,0.7-1.5,1.5s0.7,1.5,1.5,1.5s1.5-0.7,1.5-1.5S8.8,16.5,8,16.5L8,16.5z"/>
	</g>
	<g display="inline">
		<path fill="#ED1C24" d="M16,16.5c-0.8,0-1.5,0.7-1.5,1.5s0.7,1.5,1.5,1.5s1.5-0.7,1.5-1.5S16.8,16.5,16,16.5L16,16.5z"/>
	</g>
</g>
</svg>
