<?xml version="1.0" encoding="utf-8"?>
<!-- Generator: Adobe Illustrator 19.2.1, SVG Export Plug-In . SVG Version: 6.00 Build 0)  -->
<!DOCTYPE svg PUBLIC "-//W3C//DTD SVG 1.1//EN" "http://www.w3.org/Graphics/SVG/1.1/DTD/svg11.dtd">
<svg version="1.1" xmlns="http://www.w3.org/2000/svg" xmlns:xlink="http://www.w3.org/1999/xlink" x="0px" y="0px"
	 viewBox="0 0 24 24" enable-background="new 0 0 24 24" xml:space="preserve">
<g id="Layer_1">
	<path d="M23.7,22.3L10.9,9.5C11.6,8.5,12,7.3,12,6c0-3.3-2.7-6-6-6v2c2.2,0,4,1.8,4,4s-1.8,4-4,4S2,8.2,2,6H0c0,3.3,2.7,6,6,6
		c1.3,0,2.5-0.4,3.5-1.1l12.8,12.8L23.7,22.3z"/>
</g>
<g id="Layer_2" display="none">
	<g display="inline">
		<line fill="none" stroke="#ED1C24" stroke-width="2" stroke-miterlimit="10" x1="23" y1="23" x2="10" y2="10"/>
		<path fill="none" stroke="#ED1C24" stroke-width="2" stroke-miterlimit="10" d="M6,1c2.8,0,5,2.2,5,5s-2.2,5-5,5S1,8.8,1,6"/>
	</g>
</g>
</svg>
