<?xml version="1.0" encoding="utf-8"?>
<!-- Generator: Adobe Illustrator 19.2.1, SVG Export Plug-In . SVG Version: 6.00 Build 0)  -->
<!DOCTYPE svg PUBLIC "-//W3C//DTD SVG 1.1//EN" "http://www.w3.org/Graphics/SVG/1.1/DTD/svg11.dtd">
<svg version="1.1" xmlns="http://www.w3.org/2000/svg" xmlns:xlink="http://www.w3.org/1999/xlink" x="0px" y="0px"
	 viewBox="0 0 24 24" enable-background="new 0 0 24 24" xml:space="preserve">
<g id="Layer_1">
	<path d="M22.9,9.3c1.5,3.7,1.5,7.8,0,11.5L21,20c1.3-3.2,1.3-6.7,0-9.9L22.9,9.3z M16,9.4c1.2,1.5,2,3.5,2,5.6c0,5-4,9-9,9
		s-9-4-9-9s4-9,9-9c2.1,0,4.1,0.7,5.6,2l7.7-7.7l1.4,1.4L16,9.4z M14.6,10.8L9,16.4l-3.7-3.7l1.4-1.4L9,13.6l4.2-4.2
		C12,8.5,10.6,8,9,8c-3.9,0-7,3.1-7,7s3.1,7,7,7s7-3.1,7-7C16,13.4,15.5,12,14.6,10.8z"/>
</g>
<g id="Layer_2" display="none">
	<circle display="inline" fill="none" stroke="#ED1C24" stroke-width="2" stroke-miterlimit="10" cx="9" cy="15" r="8"/>
	<path display="inline" fill="none" stroke="#ED1C24" stroke-width="2" stroke-miterlimit="10" d="M21.9,20.4
		c1.4-3.3,1.5-7.1,0-10.7"/>
	<polyline display="inline" fill="none" stroke="#ED1C24" stroke-width="2" stroke-miterlimit="10" points="23,1 9,15 6,12 	"/>
</g>
</svg>
