<?xml version="1.0" encoding="utf-8"?>
<!-- Generator: Adobe Illustrator 21.0.0, SVG Export Plug-In . SVG Version: 6.00 Build 0)  -->
<!DOCTYPE svg PUBLIC "-//W3C//DTD SVG 1.1//EN" "http://www.w3.org/Graphics/SVG/1.1/DTD/svg11.dtd">
<svg version="1.1" xmlns="http://www.w3.org/2000/svg" xmlns:xlink="http://www.w3.org/1999/xlink" x="0px" y="0px"
	 viewBox="0 0 24 24" enable-background="new 0 0 24 24" xml:space="preserve">
<g id="Layer_1">
	<path d="M12,18c3.3,0,6-2.7,6-6c0-1.3-0.4-2.5-1.1-3.5l6.8-6.8l-1.4-1.4l-6.8,6.8C14.5,6.4,13.3,6,12,6c-3.3,0-6,2.7-6,6
		S8.7,18,12,18z M16,12c0,2.2-1.8,4-4,4c-0.7,0-1.4-0.2-2-0.6l5.5-5.5C15.8,10.6,16,11.3,16,12z M12,8c0.7,0,1.4,0.2,2,0.6L8.6,14
		C8.2,13.4,8,12.7,8,12C8,9.8,9.8,8,12,8z M24,12c0,6.6-5.4,12-12,12S0,18.6,0,12h2c0,5.5,4.5,10,10,10s10-4.5,10-10H24z"/>
</g>
<g id="Layer_2" display="none">
	<circle display="inline" fill="none" stroke="#ED1C24" stroke-width="2" stroke-miterlimit="10" cx="12" cy="12" r="5"/>
	<path display="inline" fill="none" stroke="#ED1C24" stroke-width="2" stroke-miterlimit="10" d="M23,12c0,6.1-4.9,11-11,11
		S1,18.1,1,12"/>
	<line display="inline" fill="none" stroke="#ED1C24" stroke-width="2" stroke-miterlimit="10" x1="23" y1="1" x2="9" y2="15"/>
</g>
</svg>
