<?xml version="1.0" encoding="utf-8"?>
<!-- Generator: Adobe Illustrator 20.0.0, SVG Export Plug-In . SVG Version: 6.00 Build 0)  -->
<!DOCTYPE svg PUBLIC "-//W3C//DTD SVG 1.1//EN" "http://www.w3.org/Graphics/SVG/1.1/DTD/svg11.dtd">
<svg version="1.1" xmlns="http://www.w3.org/2000/svg" xmlns:xlink="http://www.w3.org/1999/xlink" x="0px" y="0px"
	 viewBox="0 0 24 24" enable-background="new 0 0 24 24" xml:space="preserve">
<g id="Layer_1">
	<path d="M6.9,0L0,6.9v10.1L6.9,24h10.1l6.9-6.9V6.9L17.1,0H6.9z M22,16.2L16.2,22H7.8L2,16.2V7.8L7.8,2h8.5L22,7.8V16.2z"/>
</g>
<g id="Layer_2" display="none">
	<g display="inline">
		<path fill="#ED1C24" d="M16.2,2L22,7.8v8.5L16.2,22H7.8L2,16.2V7.8L7.8,2H16.2 M17.1,0H6.9L0,6.9v10.1L6.9,24h10.1l6.9-6.9V6.9
			L17.1,0L17.1,0z"/>
	</g>
</g>
</svg>
