<?xml version="1.0" encoding="utf-8"?>
<!-- Generator: Adobe Illustrator 21.0.0, SVG Export Plug-In . SVG Version: 6.00 Build 0)  -->
<!DOCTYPE svg PUBLIC "-//W3C//DTD SVG 1.1//EN" "http://www.w3.org/Graphics/SVG/1.1/DTD/svg11.dtd">
<svg version="1.1" xmlns="http://www.w3.org/2000/svg" xmlns:xlink="http://www.w3.org/1999/xlink" x="0px" y="0px"
	 viewBox="0 0 24 24" enable-background="new 0 0 24 24" xml:space="preserve">
<g id="Layer_1">
	<path d="M21,7c-1.7,0-3-1.3-3-3c0,1.7-1.3,3-3,3s-3-1.3-3-3H0v8h4v8h2v-8h12v8h2v-8h4V4C24,5.7,22.7,7,21,7z M22,10H2V6h8.4
		C11.2,7.8,13,9,15,9c1.1,0,2.2-0.4,3-1c0.8,0.6,1.9,1,3,1c0.3,0,0.7,0,1-0.1V10z"/>
</g>
<g id="Layer_2" display="none">
	<g display="inline">
		<path fill="#ED1C24" d="M10.4,6C11.2,7.8,13,9,15,9c1.1,0,2.2-0.4,3-1c0.8,0.6,1.9,1,3,1c0.3,0,0.7,0,1-0.1V10H2V6H10.4 M24,4
			c0,1.7-1.3,3-3,3s-3-1.3-3-3c0,1.7-1.3,3-3,3s-3-1.3-3-3H0v8h24V4L24,4z"/>
	</g>
	<g display="inline">
		<line fill="none" stroke="#ED1C24" stroke-width="2" stroke-miterlimit="10" x1="5" y1="20" x2="5" y2="12"/>
	</g>
	<g display="inline">
		<line fill="none" stroke="#ED1C24" stroke-width="2" stroke-miterlimit="10" x1="19" y1="20" x2="19" y2="12"/>
	</g>
</g>
</svg>
