<?xml version="1.0" encoding="utf-8"?>
<!-- Generator: Adobe Illustrator 19.2.1, SVG Export Plug-In . SVG Version: 6.00 Build 0)  -->
<!DOCTYPE svg PUBLIC "-//W3C//DTD SVG 1.1//EN" "http://www.w3.org/Graphics/SVG/1.1/DTD/svg11.dtd">
<svg version="1.1" xmlns="http://www.w3.org/2000/svg" xmlns:xlink="http://www.w3.org/1999/xlink" x="0px" y="0px"
	 viewBox="0 0 24 24" enable-background="new 0 0 24 24" xml:space="preserve">
<g id="Layer_1">
	<path d="M18,2V0h-2v2H8V0H6v2H1v22h22V2H18z M16,7h-3V4h3V7z M11,9v3H8V9H11z M8,7V4h3v3H8z M11,14v3H8v-3H11z M11,19v3H8v-3H11z
		 M13,19h3v3h-3V19z M13,17v-3h3v3H13z M13,12V9h3v3H13z M3,4h3v3H3V4z M3,9h3v3H3V9z M3,14h3v3H3V14z M3,19h3v3H3V19z M21,22h-3v-3
		h3V22z M21,17h-3v-3h3V17z M21,12h-3V9h3V12z M18,7V4h3v3H18z"/>
</g>
<g id="Layer_2" display="none">
	<g display="inline">
		<rect x="2" y="3" fill="none" stroke="#ED1C24" stroke-width="2" stroke-miterlimit="10" width="20" height="20"/>
		<line fill="none" stroke="#ED1C24" stroke-width="2" stroke-miterlimit="10" x1="7" y1="0" x2="7" y2="4"/>
		<line fill="none" stroke="#ED1C24" stroke-width="2" stroke-miterlimit="10" x1="12" y1="3" x2="12" y2="23"/>
		<line fill="none" stroke="#ED1C24" stroke-width="2" stroke-miterlimit="10" x1="17" y1="0" x2="17" y2="4"/>
		<line fill="none" stroke="#ED1C24" stroke-width="2" stroke-miterlimit="10" x1="7" y1="3" x2="7" y2="23"/>
		<line fill="none" stroke="#ED1C24" stroke-width="2" stroke-miterlimit="10" x1="17" y1="3" x2="17" y2="23"/>
		<line fill="none" stroke="#ED1C24" stroke-width="2" stroke-miterlimit="10" x1="1" y1="13" x2="23" y2="13"/>
		<line fill="none" stroke="#ED1C24" stroke-width="2" stroke-miterlimit="10" x1="1" y1="8" x2="23" y2="8"/>
		<line fill="none" stroke="#ED1C24" stroke-width="2" stroke-miterlimit="10" x1="1" y1="18" x2="23" y2="18"/>
	</g>
</g>
</svg>
