<?xml version="1.0" encoding="utf-8"?>
<!-- Generator: Adobe Illustrator 19.2.1, SVG Export Plug-In . SVG Version: 6.00 Build 0)  -->
<!DOCTYPE svg PUBLIC "-//W3C//DTD SVG 1.1//EN" "http://www.w3.org/Graphics/SVG/1.1/DTD/svg11.dtd">
<svg version="1.1" xmlns="http://www.w3.org/2000/svg" xmlns:xlink="http://www.w3.org/1999/xlink" x="0px" y="0px"
	 viewBox="0 0 24 24" enable-background="new 0 0 24 24" xml:space="preserve">
<g id="Layer_1">
	<path d="M12,8c-3.3,0-6,2.7-6,6s2.7,6,6,6s6-2.7,6-6S15.3,8,12,8z M12,18c-2.2,0-4-1.8-4-4s1.8-4,4-4s4,1.8,4,4S14.2,18,12,18z
		 M15.4,2H8.6l-5,5H0v17h24V7h-3.6L15.4,2z M22,22H2V9h2.4l5-5h5.2l5,5H22V22z"/>
</g>
<g id="Layer_2" display="none">
	<circle display="inline" fill="none" stroke="#ED1C24" stroke-width="2" stroke-miterlimit="10" cx="12" cy="14" r="5"/>
	<polygon display="inline" fill="none" stroke="#ED1C24" stroke-width="2" stroke-miterlimit="10" points="1,23 23,23 23,8 20,8 
		15,3 9,3 4,8 1,8 	"/>
</g>
</svg>
