<?xml version="1.0" encoding="utf-8"?>
<!-- Generator: Adobe Illustrator 21.0.2, SVG Export Plug-In . SVG Version: 6.00 Build 0)  -->
<!DOCTYPE svg PUBLIC "-//W3C//DTD SVG 1.1//EN" "http://www.w3.org/Graphics/SVG/1.1/DTD/svg11.dtd">
<svg version="1.1" xmlns="http://www.w3.org/2000/svg" xmlns:xlink="http://www.w3.org/1999/xlink" x="0px" y="0px"
	 viewBox="0 0 24 24" enable-background="new 0 0 24 24" xml:space="preserve">
<g id="Layer_1">
	<path d="M16,0L8,4L0,0v20l8,4l8-4l8,4V4L16,0z M9,5.7l6-3v15.5l-6,3V5.7z M2,3.2l5,2.5v15.5l-5-2.5V3.2z M22,20.8l-5-2.5V2.7l5,2.5
		V20.8z"/>
</g>
<g id="Layer_2" display="none">
	<g display="inline">
		<path fill="#ED1C24" d="M16,2.2l6,3v15.5l-5.1-2.6L16,17.8l-0.9,0.4L8,21.8l-6-3V3.2l5.1,2.6L8,6.2l0.9-0.4L16,2.2 M16,0L8,4L0,0
			v20l8,4l8-4l8,4V4L16,0L16,0z"/>
	</g>
	<g display="inline">
		<line fill="none" stroke="#ED1C24" stroke-width="2" stroke-miterlimit="10" x1="8" y1="5" x2="8" y2="23"/>
	</g>
	<g display="inline">
		<line fill="none" stroke="#ED1C24" stroke-width="2" stroke-miterlimit="10" x1="16" y1="1" x2="16" y2="19"/>
	</g>
</g>
</svg>
