<?xml version="1.0" encoding="utf-8"?>
<!-- Generator: Adobe Illustrator 21.0.2, SVG Export Plug-In . SVG Version: 6.00 Build 0)  -->
<!DOCTYPE svg PUBLIC "-//W3C//DTD SVG 1.1//EN" "http://www.w3.org/Graphics/SVG/1.1/DTD/svg11.dtd">
<svg version="1.1" xmlns="http://www.w3.org/2000/svg" xmlns:xlink="http://www.w3.org/1999/xlink" x="0px" y="0px"
	 viewBox="0 0 24 24" enable-background="new 0 0 24 24" xml:space="preserve">
<g id="Layer_1">
	<path d="M19,1c0,1.1-0.9,2-2,2s-2-0.9-2-2V0H9.6L7,2.6L4.4,0H0v2h3.6L7,5.4l2-2L10.6,5l-4,4l5,5l-5.3,5.3l1.4,1.4l2.3-2.3l5.3,5.3
		l1.4-1.4L11.4,17l3-3l-5-5l4-4l-3-3h2.7c0.4,1.7,2,3,3.9,3s3.4-1.3,3.9-3H24V0h-5V1z"/>
</g>
<g id="Layer_2" display="none">
	<polyline display="inline" fill="none" stroke="#ED1C24" stroke-width="2" stroke-miterlimit="10" points="7,20 13,14 8,9 12,5 
		9,2 	"/>
	<line display="inline" fill="none" stroke="#ED1C24" stroke-width="2" stroke-miterlimit="10" x1="10" y1="17" x2="16" y2="23"/>
	<path display="inline" fill="none" stroke="#ED1C24" stroke-width="2" stroke-miterlimit="10" d="M0,1h4l3,3l3-3h4c0,1.7,1.3,3,3,3
		s3-1.3,3-3h4"/>
</g>
</svg>
