<?xml version="1.0" encoding="utf-8"?>
<!-- Generator: Adobe Illustrator 19.2.1, SVG Export Plug-In . SVG Version: 6.00 Build 0)  -->
<!DOCTYPE svg PUBLIC "-//W3C//DTD SVG 1.1//EN" "http://www.w3.org/Graphics/SVG/1.1/DTD/svg11.dtd">
<svg version="1.1" xmlns="http://www.w3.org/2000/svg" xmlns:xlink="http://www.w3.org/1999/xlink" x="0px" y="0px"
	 viewBox="0 0 24 24" enable-background="new 0 0 24 24" xml:space="preserve">
<g id="Layer_1">
	<path d="M12,0C7.9,0,4.2,2.1,2,5.4V2H0v8h8V8H2.8C4.4,4.4,8,2,12,2c5.5,0,10,4.5,10,10s-4.5,10-10,10S2,17.5,2,12H0
		c0,6.6,5.4,12,12,12s12-5.4,12-12S18.6,0,12,0z"/>
</g>
<g id="Layer_2" display="none">
	<g display="inline">
		<polyline fill="none" stroke="#ED1C24" stroke-width="2" stroke-miterlimit="10" points="1,2 1,9 8,9 		"/>
		<path fill="none" stroke="#ED1C24" stroke-width="2" stroke-miterlimit="10" d="M1,12c0,6.1,4.9,11,11,11s11-4.9,11-11
			S18.1,1,12,1C7,1,2.7,4.4,1.4,9"/>
	</g>
</g>
</svg>
