<?xml version="1.0" encoding="utf-8"?>
<!-- Generator: Adobe Illustrator 19.2.1, SVG Export Plug-In . SVG Version: 6.00 Build 0)  -->
<!DOCTYPE svg PUBLIC "-//W3C//DTD SVG 1.1//EN" "http://www.w3.org/Graphics/SVG/1.1/DTD/svg11.dtd">
<svg version="1.1" xmlns="http://www.w3.org/2000/svg" xmlns:xlink="http://www.w3.org/1999/xlink" x="0px" y="0px"
	 viewBox="0 0 24 24" enable-background="new 0 0 24 24" xml:space="preserve">
<g id="Layer_1">
	<path d="M16,10h8V2h-2v3.4C19.8,2.1,16.1,0,12,0C5.4,0,0,5.4,0,12s5.4,12,12,12s12-5.4,12-12h-2c0,5.5-4.5,10-10,10S2,17.5,2,12
		S6.5,2,12,2c4,0,7.6,2.4,9.2,6H16V10z"/>
</g>
<g id="Layer_2" display="none">
	<g display="inline">
		<polyline fill="none" stroke="#ED1C24" stroke-width="2" stroke-miterlimit="10" points="23,2 23,9 16,9 		"/>
		<path fill="none" stroke="#ED1C24" stroke-width="2" stroke-miterlimit="10" d="M23,12c0,6.1-4.9,11-11,11S1,18.1,1,12S5.9,1,12,1
			c5,0,9.3,3.4,10.6,8"/>
	</g>
</g>
</svg>
