<?xml version="1.0" encoding="utf-8"?>
<!-- Generator: Adobe Illustrator 21.0.0, SVG Export Plug-In . SVG Version: 6.00 Build 0)  -->
<!DOCTYPE svg PUBLIC "-//W3C//DTD SVG 1.1//EN" "http://www.w3.org/Graphics/SVG/1.1/DTD/svg11.dtd">
<svg version="1.1" xmlns="http://www.w3.org/2000/svg" xmlns:xlink="http://www.w3.org/1999/xlink" x="0px" y="0px"
	 viewBox="0 0 24 24" enable-background="new 0 0 24 24" xml:space="preserve">
<g id="Layer_1">
	<path d="M18,12v6H6v-6l6-6L18,12z M16,12.8l-4-4l-4,4V16h3v-2h2v2h3V12.8z M10,2h4V0h-4V2z M10,24h4v-2h-4V24z M22,0h-4v2h4v4h2V2
		V0H22z M22,14h2v-4h-2V14z M22,22h-4v2h4h2v-2v-4h-2V22z M0,0v2v4h2V2h4V0H2H0z M2,10H0v4h2V10z M2,18H0v4v2h2h4v-2H2V18z"/>
</g>
<g id="Layer_2" display="none">
	<path display="inline" fill="#00A651" d="M18,12v6H6v-6l6-6L18,12z M16,12.8l-4-4l-4,4V16h3v-2h2v2h3V12.8z M10,2h4V0h-4V2z M10,24
		h4v-2h-4V24z M22,0h-4v2h4v4h2V2V0H22z M22,14h2v-4h-2V14z M22,22h-4v2h4h2v-2v-4h-2V22z M0,0v2v4h2V2h4V0H2H0z M2,10H0v4h2V10z
		 M2,18H0v4v2h2h4v-2H2V18z"/>
</g>
</svg>
