<?xml version="1.0" encoding="utf-8"?>
<!-- Generator: Adobe Illustrator 19.2.1, SVG Export Plug-In . SVG Version: 6.00 Build 0)  -->
<!DOCTYPE svg PUBLIC "-//W3C//DTD SVG 1.1//EN" "http://www.w3.org/Graphics/SVG/1.1/DTD/svg11.dtd">
<svg version="1.1" xmlns="http://www.w3.org/2000/svg" xmlns:xlink="http://www.w3.org/1999/xlink" x="0px" y="0px"
	 viewBox="0 0 24 24" enable-background="new 0 0 24 24" xml:space="preserve">
<g id="Layer_1">
	<path d="M7.3,12.7L8.6,14l-4.3,4.3l0,0C3.9,18.1,3.5,18,3,18c-1.7,0-3,1.3-3,3s1.3,3,3,3s3-1.3,3-3c0-0.5-0.1-0.9-0.3-1.3l0,0
		l4.3-4.3l1.3,1.3l1.4-1.4l-4-4L7.3,12.7z M3,22c-0.6,0-1-0.4-1-1s0.4-1,1-1s1,0.4,1,1S3.6,22,3,22z M15.4,10l4.3-4.3l0,0
		C20.1,5.9,20.5,6,21,6c1.7,0,3-1.3,3-3s-1.3-3-3-3s-3,1.3-3,3c0,0.5,0.1,0.9,0.3,1.3l0,0L14,8.6l-1.3-1.3l-1.4,1.4l4,4l1.4-1.4
		L15.4,10z M21,2c0.6,0,1,0.4,1,1s-0.4,1-1,1s-1-0.4-1-1S20.4,2,21,2z M16,19h8v2h-8V19z"/>
</g>
<g id="Layer_2" display="none">
	<circle display="inline" fill="none" stroke="#ED1C24" stroke-width="2" stroke-miterlimit="10" cx="3" cy="21" r="2"/>
	<circle display="inline" fill="none" stroke="#ED1C24" stroke-width="2" stroke-miterlimit="10" cx="21" cy="3" r="2"/>
	<line display="inline" fill="none" stroke="#ED1C24" stroke-width="2" stroke-miterlimit="10" x1="14" y1="10" x2="19" y2="5"/>
	<line display="inline" fill="none" stroke="#ED1C24" stroke-width="2" stroke-miterlimit="10" x1="5" y1="19" x2="10" y2="14"/>
	<line display="inline" fill="none" stroke="#ED1C24" stroke-width="2" stroke-miterlimit="10" x1="8" y1="12" x2="12" y2="16"/>
	<line display="inline" fill="none" stroke="#ED1C24" stroke-width="2" stroke-miterlimit="10" x1="12" y1="8" x2="16" y2="12"/>
	<line display="inline" fill="none" stroke="#ED1C24" stroke-width="2" stroke-miterlimit="10" x1="24" y1="20" x2="16" y2="20"/>
</g>
</svg>
