<?xml version="1.0" encoding="utf-8"?>
<!-- Generator: Adobe Illustrator 21.0.0, SVG Export Plug-In . SVG Version: 6.00 Build 0)  -->
<!DOCTYPE svg PUBLIC "-//W3C//DTD SVG 1.1//EN" "http://www.w3.org/Graphics/SVG/1.1/DTD/svg11.dtd">
<svg version="1.1" xmlns="http://www.w3.org/2000/svg" xmlns:xlink="http://www.w3.org/1999/xlink" x="0px" y="0px"
	 viewBox="0 0 24 24" enable-background="new 0 0 24 24" xml:space="preserve">
<g id="Layer_1">
	<path d="M21,11c-1.7,0-3-1.3-3-3c0,1.7-1.3,3-3,3s-3-1.3-3-3H8c-1.1,0-2,0.9-2,2c0-1.1-0.9-2-2-2H0v2h4v4H0v2h4c1.1,0,2-0.9,2-2
		c0,1.1,0.9,2,2,2h14c1.1,0,2-0.9,2-2v-4c0-0.3-0.1-0.6-0.2-0.9C23.3,10.2,22.3,11,21,11z M22,14H8v-4h2.4c0.8,1.8,2.5,3,4.6,3
		c1.1,0,2.2-0.4,3-1c0.8,0.6,1.9,1,3,1c0.3,0,0.7,0,1-0.1V14z"/>
</g>
<g id="Layer_2" display="none">
	<path display="inline" fill="#ED1C24" d="M10.4,10c0.8,1.8,2.5,3,4.6,3c1.1,0,2.2-0.4,3-1c0.8,0.6,1.9,1,3,1c0.3,0,0.7,0,1-0.1V14
		H8v-4H10.4 M18,8c0,1.7-1.3,3-3,3s-3-1.3-3-3H8c-1.1,0-2,0.9-2,2v4c0,1.1,0.9,2,2,2h14c1.1,0,2-0.9,2-2v-4c0-0.3-0.1-0.6-0.2-0.9
		C23.3,10.2,22.3,11,21,11C19.3,11,18,9.7,18,8L18,8z"/>
	<path display="inline" fill="#ED1C24" d="M4,8H0v2h4v4H0v2h4c1.1,0,2-0.9,2-2v-4C6,8.9,5.1,8,4,8z"/>
</g>
</svg>
