<?xml version="1.0" encoding="utf-8"?>
<!-- Generator: Adobe Illustrator 21.0.0, SVG Export Plug-In . SVG Version: 6.00 Build 0)  -->
<!DOCTYPE svg PUBLIC "-//W3C//DTD SVG 1.1//EN" "http://www.w3.org/Graphics/SVG/1.1/DTD/svg11.dtd">
<svg version="1.1" xmlns="http://www.w3.org/2000/svg" xmlns:xlink="http://www.w3.org/1999/xlink" x="0px" y="0px"
	 viewBox="0 0 24 24" enable-background="new 0 0 24 24" xml:space="preserve">
<g id="Layer_1">
	<path d="M7.8,7.8l1.4-1.4l5.7,5.7c1.6,1.6,1.6,4.1,0,5.7c-1.6,1.6-4.1,1.6-5.7,0l-7.1-7.1c-2.3-2.3-2.3-6.1,0-8.5s6.1-2.3,8.5,0
		l11.3,11.3c2.3,2.3,2.3,6.1,0,8.5s-6.1,2.3-8.5,0l1.4-1.4c1.6,1.6,4.1,1.6,5.7,0s1.6-4.1,0-5.7L9.2,3.5C7.6,2,5.1,2,3.5,3.5
		S2,7.6,3.5,9.2l7.1,7.1c0.8,0.8,2,0.8,2.8,0c0.8-0.8,0.8-2,0-2.8L7.8,7.8z"/>
</g>
<g id="Layer_2" display="none">
	<path display="inline" fill="#ED1C24" d="M7.8,7.8l1.4-1.4l5.7,5.7c1.6,1.6,1.6,4.1,0,5.7c-1.6,1.6-4.1,1.6-5.7,0l-7.1-7.1
		c-2.3-2.3-2.3-6.1,0-8.5s6.1-2.3,8.5,0l11.3,11.3c2.3,2.3,2.3,6.1,0,8.5s-6.1,2.3-8.5,0l1.4-1.4c1.6,1.6,4.1,1.6,5.7,0
		s1.6-4.1,0-5.7L9.2,3.5C7.6,2,5.1,2,3.5,3.5S2,7.6,3.5,9.2l7.1,7.1c0.8,0.8,2,0.8,2.8,0c0.8-0.8,0.8-2,0-2.8L7.8,7.8z"/>
</g>
</svg>
