<?xml version="1.0" encoding="utf-8"?>
<!-- Generator: Adobe Illustrator 19.2.1, SVG Export Plug-In . SVG Version: 6.00 Build 0)  -->
<!DOCTYPE svg PUBLIC "-//W3C//DTD SVG 1.1//EN" "http://www.w3.org/Graphics/SVG/1.1/DTD/svg11.dtd">
<svg version="1.1" xmlns="http://www.w3.org/2000/svg" xmlns:xlink="http://www.w3.org/1999/xlink" x="0px" y="0px"
	 viewBox="0 0 24 24" enable-background="new 0 0 24 24" xml:space="preserve">
<g id="Layer_1">
	<path d="M12,12V2C6.5,2,2,6.5,2,12H12v12C5.4,24,0,18.6,0,12S5.4,0,12,0s12,5.4,12,12H12z M20,14h-2v4h-4v2h4v4h2v-4h4v-2h-4V14z"
		/>
</g>
<g id="Layer_2" display="none">
	<g display="inline">
		<path fill="none" stroke="#ED1C24" stroke-width="2" stroke-miterlimit="10" d="M12,23C5.9,23,1,18.1,1,12S5.9,1,12,1
			s11,4.9,11,11"/>
		<g>
			<path fill="#ED1C24" d="M12,1v11h11C23,5.9,18.1,1,12,1L12,1z"/>
		</g>
		<g>
			<path fill="#ED1C24" d="M12,12H1c0,6.1,4.9,11,11,11V12L12,12z"/>
		</g>
		<line fill="none" stroke="#ED1C24" stroke-width="2" stroke-miterlimit="10" x1="19" y1="24" x2="19" y2="14"/>
		<line fill="none" stroke="#ED1C24" stroke-width="2" stroke-miterlimit="10" x1="24" y1="19" x2="14" y2="19"/>
	</g>
</g>
</svg>
