<?xml version="1.0" encoding="utf-8"?>
<!-- Generator: Adobe Illustrator 19.2.1, SVG Export Plug-In . SVG Version: 6.00 Build 0)  -->
<!DOCTYPE svg PUBLIC "-//W3C//DTD SVG 1.1//EN" "http://www.w3.org/Graphics/SVG/1.1/DTD/svg11.dtd">
<svg version="1.1" xmlns="http://www.w3.org/2000/svg" xmlns:xlink="http://www.w3.org/1999/xlink" x="0px" y="0px"
	 viewBox="0 0 24 24" enable-background="new 0 0 24 24" xml:space="preserve">
<g id="Layer_1">
	<path d="M12,0C5.4,0,0,5.4,0,12s5.4,12,12,12h12V12C24,5.4,18.6,0,12,0z M22,22H12V12H2C2,6.5,6.5,2,12,2v10h10V22z"/>
</g>
<g id="Layer_2" display="none">
	<path display="inline" fill="none" stroke="#ED1C24" stroke-width="2" stroke-miterlimit="10" d="M23,12v11H12C5.9,23,1,18.1,1,12
		S5.9,1,12,1S23,5.9,23,12z"/>
	<g display="inline">
		<path fill="#ED1C24" d="M12,1v11h11C23,5.9,18.1,1,12,1L12,1z"/>
	</g>
	<g display="inline">
		<path fill="#ED1C24" d="M12,12H1c0,6.1,4.9,11,11,11V12L12,12z"/>
	</g>
</g>
</svg>
