<?xml version="1.0" encoding="utf-8"?>
<!-- Generator: Adobe Illustrator 21.0.2, SVG Export Plug-In . SVG Version: 6.00 Build 0)  -->
<!DOCTYPE svg PUBLIC "-//W3C//DTD SVG 1.1//EN" "http://www.w3.org/Graphics/SVG/1.1/DTD/svg11.dtd">
<svg version="1.1" xmlns="http://www.w3.org/2000/svg" xmlns:xlink="http://www.w3.org/1999/xlink" x="0px" y="0px"
	 viewBox="0 0 24 24" enable-background="new 0 0 24 24" xml:space="preserve">
<g id="Layer_1">
	<path d="M18.7,3.8C20.1,5.2,22,6,24,6v2c-2.5,0-4.9-1-6.7-2.8c-2.9-2.9-7.7-2.9-10.6,0C4.9,7,2.5,8,0,8V6c2,0,3.9-0.8,5.3-2.2
		C9,0.1,15,0.1,18.7,3.8z M5.3,17.3l1.4,1.4l4.3-4.3V24h2v-9.6l4.3,4.3l1.4-1.4L12,10.6L5.3,17.3z"/>
</g>
<g id="Layer_2" display="none">
	<path display="inline" fill="none" stroke="#ED1C24" stroke-width="2" stroke-miterlimit="10" d="M0,7c2.3,0,4.5-0.9,6-2.5
		c3.3-3.3,8.7-3.3,12,0C19.7,6.2,21.8,7,24,7"/>
	<line display="inline" fill="none" stroke="#ED1C24" stroke-width="2" stroke-miterlimit="10" x1="12" y1="24" x2="12" y2="12"/>
	<polyline display="inline" fill="none" stroke="#ED1C24" stroke-width="2" stroke-miterlimit="10" points="6,18 12,12 18,18 	"/>
</g>
</svg>
