<?xml version="1.0" encoding="utf-8"?>
<!-- Generator: Adobe Illustrator 21.0.2, SVG Export Plug-In . SVG Version: 6.00 Build 0)  -->
<!DOCTYPE svg PUBLIC "-//W3C//DTD SVG 1.1//EN" "http://www.w3.org/Graphics/SVG/1.1/DTD/svg11.dtd">
<svg version="1.1" xmlns="http://www.w3.org/2000/svg" xmlns:xlink="http://www.w3.org/1999/xlink" x="0px" y="0px"
	 viewBox="0 0 24 24" enable-background="new 0 0 24 24" xml:space="preserve">
<g id="Layer_1">
	<path d="M24,22v2c-2.5,0-4.9-1-6.7-2.8c-2.9-2.9-7.7-2.9-10.6,0C4.9,23,2.5,24,0,24v-2c2,0,3.9-0.8,5.3-2.2c3.7-3.7,9.7-3.7,13.4,0
		C20.1,21.2,22,22,24,22z M18.9,12H5.1L12,0L18.9,12z M8.5,10h6.9L12,4L8.5,10z"/>
</g>
<g id="Layer_2" display="none">
	<path display="inline" fill="none" stroke="#ED1C24" stroke-width="2" stroke-miterlimit="10" d="M0,23c2.3,0,4.5-0.9,6-2.5
		c3.3-3.3,8.7-3.3,12,0c1.7,1.7,3.8,2.5,6,2.5"/>
	<g display="inline">
		<path fill="#ED1C24" d="M12,4l3.5,6H8.5L12,4 M12,0L5.1,12h13.9L12,0L12,0z"/>
	</g>
</g>
</svg>
