<?xml version="1.0" encoding="utf-8"?>
<!-- Generator: Adobe Illustrator 21.0.0, SVG Export Plug-In . SVG Version: 6.00 Build 0)  -->
<!DOCTYPE svg PUBLIC "-//W3C//DTD SVG 1.1//EN" "http://www.w3.org/Graphics/SVG/1.1/DTD/svg11.dtd">
<svg version="1.1" xmlns="http://www.w3.org/2000/svg" xmlns:xlink="http://www.w3.org/1999/xlink" x="0px" y="0px"
	 viewBox="0 0 24 24" enable-background="new 0 0 24 24" xml:space="preserve">
<g id="Layer_1">
	<path d="M23.5,6C23.8,5.4,24,4.7,24,4c0-2.2-1.8-4-4-4c-4.1,0-7.5,3.1-7.9,7C5.3,7.5,0,13.1,0,20v4h2v-4c0-1.6,0.4-3.2,1-4.6
		c0.2,4.8,4.2,8.6,9,8.6h1v-1c0-5-4-9-9-9H3.8c1.8-2.8,4.8-4.7,8.3-5c0.5,3.9,3.9,7,7.9,7c2.2,0,4-1.8,4-4c0-0.7-0.2-1.4-0.5-2
		C23.8,9.4,24,8.7,24,8S23.8,6.6,23.5,6z M10.9,21.9c-3-0.5-5.4-2.8-5.8-5.8C8.1,16.6,10.4,18.9,10.9,21.9z M22,8c0,1.1-0.9,2-2,2
		c1.1,0,2,0.9,2,2s-0.9,2-2,2c-3.3,0-6-2.7-6-6s2.7-6,6-6c1.1,0,2,0.9,2,2s-0.9,2-2,2C21.1,6,22,6.9,22,8z"/>
</g>
<g id="Layer_2" display="none">
	<g display="inline">
		<path fill="#ED1C24" d="M20,2c1.1,0,2,0.9,2,2s-0.9,2-2,2c1.1,0,2,0.9,2,2s-0.9,2-2,2c1.1,0,2,0.9,2,2s-0.9,2-2,2
			c-3.3,0-6-2.7-6-6S16.7,2,20,2 M20,0c-4.4,0-8,3.6-8,8s3.6,8,8,8c2.2,0,4-1.8,4-4c0-0.7-0.2-1.4-0.5-2C23.8,9.4,24,8.7,24,8
			s-0.2-1.4-0.5-2C23.8,5.4,24,4.7,24,4C24,1.8,22.2,0,20,0L20,0z"/>
	</g>
	
		<path display="inline" fill-rule="evenodd" clip-rule="evenodd" fill="none" stroke="#ED1C24" stroke-width="2" stroke-miterlimit="10" d="
		M13,8C6.4,8,1,13.4,1,20v4"/>
	
		<path display="inline" fill-rule="evenodd" clip-rule="evenodd" fill="none" stroke="#ED1C24" stroke-width="2" stroke-miterlimit="10" d="
		M12,23c0-4.4-3.6-8-8-8C4,19.4,7.6,23,12,23z"/>
</g>
</svg>
