<?xml version="1.0" encoding="utf-8"?>
<!-- Generator: Adobe Illustrator 20.0.0, SVG Export Plug-In . SVG Version: 6.00 Build 0)  -->
<!DOCTYPE svg PUBLIC "-//W3C//DTD SVG 1.1//EN" "http://www.w3.org/Graphics/SVG/1.1/DTD/svg11.dtd">
<svg version="1.1" xmlns="http://www.w3.org/2000/svg" xmlns:xlink="http://www.w3.org/1999/xlink" x="0px" y="0px"
	 viewBox="0 0 24 24" enable-background="new 0 0 24 24" xml:space="preserve">
<g id="Layer_1">
	<path d="M15.6,0c1.4,4.3,0.5,9.2-3,12.6c-2.4,2.4-5.6,3.6-8.7,3.6c-1.3,0-2.7-0.2-3.9-0.6c0.6,1.7,1.6,3.4,3,4.8
		c2.4,2.4,5.6,3.6,8.7,3.6c3.2,0,6.3-1.2,8.7-3.6c4.8-4.8,4.8-12.6,0-17.4C19,1.6,17.4,0.6,15.6,0z M19,19c-1.9,1.9-4.5,3-7.3,3
		s-5.3-1.1-7.3-3c-0.2-0.2-0.5-0.5-0.7-0.7c0.1,0,0.1,0,0.2,0c3.8,0,7.4-1.5,10.1-4.2c2.8-2.8,4.3-6.5,4.2-10.3
		c0.2,0.2,0.5,0.4,0.7,0.7c1.9,1.9,3,4.5,3,7.3S20.9,17,19,19z"/>
</g>
<g id="Layer_2" display="none">
	<g display="inline">
		<path fill="#ED1C24" d="M18.3,3.7c0.2,0.2,0.5,0.4,0.7,0.7c1.9,1.9,3,4.5,3,7.3c0,2.8-1.1,5.3-3,7.3c-1.9,1.9-4.5,3-7.3,3
			c-2.8,0-5.3-1.1-7.3-3c-0.2-0.2-0.5-0.5-0.7-0.7c0.1,0,0.1,0,0.2,0c3.8,0,7.4-1.5,10.1-4.2C16.9,11.3,18.3,7.5,18.3,3.7 M15.6,0
			c1.4,4.3,0.5,9.2-3,12.6c-2.4,2.4-5.6,3.6-8.7,3.6c-1.3,0-2.7-0.2-3.9-0.6c0.6,1.7,1.6,3.4,3,4.8c2.4,2.4,5.6,3.6,8.7,3.6
			c3.2,0,6.3-1.2,8.7-3.6c4.8-4.8,4.8-12.6,0-17.4C19,1.6,17.4,0.6,15.6,0L15.6,0z"/>
	</g>
</g>
</svg>
