<?xml version="1.0" encoding="utf-8"?>
<!-- Generator: Adobe Illustrator 19.2.1, SVG Export Plug-In . SVG Version: 6.00 Build 0)  -->
<!DOCTYPE svg PUBLIC "-//W3C//DTD SVG 1.1//EN" "http://www.w3.org/Graphics/SVG/1.1/DTD/svg11.dtd">
<svg version="1.1" xmlns="http://www.w3.org/2000/svg" xmlns:xlink="http://www.w3.org/1999/xlink" x="0px" y="0px"
	 viewBox="0 0 24 24" enable-background="new 0 0 24 24" xml:space="preserve">
<g id="Layer_1">
	<path d="M13,18h-2v-1.4c0-1.7,0.7-3.4,1.9-4.6l2.3-2.3c0.8-0.9,1.3-2,1.3-3.2C16.5,4,14.5,2,12,2S7.5,4,7.5,6.5h-2
		C5.5,2.9,8.4,0,12,0s6.5,2.9,6.5,6.5c0,1.7-0.7,3.4-1.9,4.6l-2.3,2.3c-0.8,0.9-1.3,2-1.3,3.2V18z M12,20.5c-0.8,0-1.5,0.7-1.5,1.5
		s0.7,1.5,1.5,1.5s1.5-0.7,1.5-1.5S12.8,20.5,12,20.5L12,20.5z"/>
</g>
<g id="Layer_2" display="none">
	<g display="inline">
		<path fill="none" stroke="#ED1C24" stroke-width="2" stroke-miterlimit="10" d="M6.5,6.5C6.5,3.5,9,1,12,1s5.5,2.5,5.5,5.5
			c0,1.5-0.6,2.9-1.6,3.9l-2.3,2.3c-1,1-1.6,2.4-1.6,3.9V18"/>
		<g>
			<path fill="#ED1C24" d="M12,20.5c-0.8,0-1.5,0.7-1.5,1.5s0.7,1.5,1.5,1.5s1.5-0.7,1.5-1.5S12.8,20.5,12,20.5L12,20.5z"/>
		</g>
	</g>
</g>
</svg>
