<?xml version="1.0" encoding="utf-8"?>
<!-- Generator: Adobe Illustrator 21.0.0, SVG Export Plug-In . SVG Version: 6.00 Build 0)  -->
<!DOCTYPE svg PUBLIC "-//W3C//DTD SVG 1.1//EN" "http://www.w3.org/Graphics/SVG/1.1/DTD/svg11.dtd">
<svg version="1.1" xmlns="http://www.w3.org/2000/svg" xmlns:xlink="http://www.w3.org/1999/xlink" x="0px" y="0px"
	 viewBox="0 0 24 24" enable-background="new 0 0 24 24" xml:space="preserve">
<g id="Layer_1">
	<path d="M20,8l-3.7,6.4c-0.2,0.5-0.3,1-0.3,1.6c0,2.2,1.8,4,4,4s4-1.8,4-4c0-0.6-0.1-1.1-0.3-1.6L20,8z M20,18c-1.1,0-2-0.9-2-2
		c0-0.2,0-0.5,0.1-0.7L20,12l1.9,3.3C22,15.5,22,15.8,22,16C22,17.1,21.1,18,20,18z M6,0H4v11H0v2h4v11h2v-2.5l4-3V6.6l-4-4V0z
		 M8,7.4v10.1L6,19V5.4L8,7.4z M24,0v2c-1.7,0-3,1.3-3,3h-2C19,2.2,21.2,0,24,0z"/>
</g>
<g id="Layer_2" display="none">
	<g display="inline">
		<g>
			<path fill="#ED1C24" d="M20,12l1.9,3.3C22,15.5,22,15.8,22,16c0,1.1-0.9,2-2,2s-2-0.9-2-2c0-0.2,0-0.5,0.1-0.7L20,12 M20,8
				l-3.7,6.4c-0.2,0.5-0.3,1-0.3,1.6c0,2.2,1.8,4,4,4s4-1.8,4-4c0-0.6-0.1-1.1-0.3-1.6L20,8L20,8z"/>
		</g>
	</g>
	<line display="inline" fill="none" stroke="#ED1C24" stroke-width="2" stroke-miterlimit="10" x1="5" y1="0" x2="5" y2="24"/>
	<path display="inline" fill="none" stroke="#ED1C24" stroke-width="2" stroke-miterlimit="10" d="M20,5c0-2.2,1.8-4,4-4"/>
	<polyline display="inline" fill="none" stroke="#ED1C24" stroke-width="2" stroke-miterlimit="10" points="5,3 9,7 9,18 5,21 	"/>
	<line display="inline" fill="none" stroke="#ED1C24" stroke-width="2" stroke-miterlimit="10" x1="0" y1="12" x2="5" y2="12"/>
</g>
</svg>
