<?xml version="1.0" encoding="utf-8"?>
<!-- Generator: Adobe Illustrator 19.2.1, SVG Export Plug-In . SVG Version: 6.00 Build 0)  -->
<!DOCTYPE svg PUBLIC "-//W3C//DTD SVG 1.1//EN" "http://www.w3.org/Graphics/SVG/1.1/DTD/svg11.dtd">
<svg version="1.1" xmlns="http://www.w3.org/2000/svg" xmlns:xlink="http://www.w3.org/1999/xlink" x="0px" y="0px"
	 viewBox="0 0 24 24" enable-background="new 0 0 24 24" xml:space="preserve">
<g id="Layer_1">
	<path d="M20,0c-3,0-5.4,2.2-5.9,5H0v2h14.1c0.5,2.8,2.9,5,5.9,5v-2h4V8h-4V4h4V2h-4V0z M18,9.5c-1.2-0.7-2-2-2-3.5s0.8-2.8,2-3.5
		V9.5z M6,14h2v10H6v-4H2v-6h2v4h2V14z M13,14c-1.7,0-3,1.3-3,3v4c0,1.7,1.3,3,3,3s3-1.3,3-3v-4C16,15.3,14.7,14,13,14z M14,21
		c0,0.6-0.4,1-1,1s-1-0.4-1-1v-4c0-0.6,0.4-1,1-1s1,0.4,1,1V21z M21,14c-1.7,0-3,1.3-3,3v4c0,1.7,1.3,3,3,3s3-1.3,3-3v-4
		C24,15.3,22.7,14,21,14z M22,21c0,0.6-0.4,1-1,1s-1-0.4-1-1v-4c0-0.6,0.4-1,1-1s1,0.4,1,1V21z"/>
</g>
<g id="Layer_2" display="none">
	<g display="inline">
		<path fill="#ED1C24" d="M18,2.5v6.9c-1.2-0.7-2-2-2-3.5S16.8,3.2,18,2.5 M20,0c-3.3,0-6,2.7-6,6s2.7,6,6,6V0L20,0z"/>
	</g>
	<line display="inline" fill="none" stroke="#ED1C24" stroke-width="2" stroke-miterlimit="10" x1="24" y1="3" x2="20" y2="3"/>
	<line display="inline" fill="none" stroke="#ED1C24" stroke-width="2" stroke-miterlimit="10" x1="15" y1="6" x2="0" y2="6"/>
	<line display="inline" fill="none" stroke="#ED1C24" stroke-width="2" stroke-miterlimit="10" x1="24" y1="9" x2="20" y2="9"/>
	<polyline display="inline" fill="none" stroke="#ED1C24" stroke-width="2" stroke-miterlimit="10" points="7,19 3,19 3,14 	"/>
	<line display="inline" fill="none" stroke="#ED1C24" stroke-width="2" stroke-miterlimit="10" x1="7" y1="14" x2="7" y2="24"/>
	<path display="inline" fill="none" stroke="#ED1C24" stroke-width="2" stroke-miterlimit="10" d="M11,21c0,1.1,0.9,2,2,2s2-0.9,2-2
		v-4c0-1.1-0.9-2-2-2s-2,0.9-2,2V21z"/>
	<path display="inline" fill="none" stroke="#ED1C24" stroke-width="2" stroke-miterlimit="10" d="M19,21c0,1.1,0.9,2,2,2s2-0.9,2-2
		v-4c0-1.1-0.9-2-2-2s-2,0.9-2,2V21z"/>
</g>
</svg>
