<?xml version="1.0" encoding="utf-8"?>
<!-- Generator: Adobe Illustrator 19.2.1, SVG Export Plug-In . SVG Version: 6.00 Build 0)  -->
<!DOCTYPE svg PUBLIC "-//W3C//DTD SVG 1.1//EN" "http://www.w3.org/Graphics/SVG/1.1/DTD/svg11.dtd">
<svg version="1.1" xmlns="http://www.w3.org/2000/svg" xmlns:xlink="http://www.w3.org/1999/xlink" x="0px" y="0px"
	 viewBox="0 0 24 24" enable-background="new 0 0 24 24" xml:space="preserve">
<g id="Layer_1">
	<path d="M6,22h4v2H4V14h2V22z M20,18c0,2.2-1.8,4-4,4l-2-0.1V24h-2V14h4C18.2,14,20,15.8,20,18z M18,18c0-1.1-0.9-2-2-2h-2v3.9
		l2,0.1C17.1,20,18,19.1,18,18z M20,2h4v2h-4v4h4v2h-4v2c-3,0-5.4-2.2-5.9-5H0V5h14.1C14.6,2.2,17,0,20,0V2z M18,2.5
		c-1.2,0.7-2,2-2,3.5s0.8,2.8,2,3.5V2.5z"/>
</g>
<g id="Layer_2" display="none">
	<polyline display="inline" fill="none" stroke="#ED1C24" stroke-width="2" stroke-miterlimit="10" points="10,23 5,23 5,14 	"/>
	<path display="inline" fill="none" stroke="#ED1C24" stroke-width="2" stroke-miterlimit="10" d="M13,24v-9h3c1.7,0,3,1.3,3,3
		s-1.3,3-3,3l-3-0.1"/>
	<g display="inline">
		<path fill="#ED1C24" d="M18,2.5v6.9c-1.2-0.7-2-2-2-3.5S16.8,3.2,18,2.5 M20,0c-3.3,0-6,2.7-6,6s2.7,6,6,6V0L20,0z"/>
	</g>
	<line display="inline" fill="none" stroke="#ED1C24" stroke-width="2" stroke-miterlimit="10" x1="24" y1="3" x2="20" y2="3"/>
	<line display="inline" fill="none" stroke="#ED1C24" stroke-width="2" stroke-miterlimit="10" x1="15" y1="6" x2="0" y2="6"/>
	<line display="inline" fill="none" stroke="#ED1C24" stroke-width="2" stroke-miterlimit="10" x1="24" y1="9" x2="20" y2="9"/>
</g>
</svg>
