<?xml version="1.0" encoding="utf-8"?>
<!-- Generator: Adobe Illustrator 19.2.1, SVG Export Plug-In . SVG Version: 6.00 Build 0)  -->
<!DOCTYPE svg PUBLIC "-//W3C//DTD SVG 1.1//EN" "http://www.w3.org/Graphics/SVG/1.1/DTD/svg11.dtd">
<svg version="1.1" xmlns="http://www.w3.org/2000/svg" xmlns:xlink="http://www.w3.org/1999/xlink" x="0px" y="0px"
	 viewBox="0 0 24 24" enable-background="new 0 0 24 24" xml:space="preserve">
<g id="Layer_1">
	<path d="M10,6H8c0-1.1-0.9-2-2-2C3.8,4,2,2.2,2,0h2c0,1.1,0.9,2,2,2C8.2,2,10,3.8,10,6z M12,16c-1.1,0-2-0.9-2-2H8c0,2.2,1.8,4,4,4
		c1.1,0,2,0.9,2,2h2C16,17.8,14.2,16,12,16z M18,2c-1.1,0-2-0.9-2-2h-2c0,2.2,1.8,4,4,4c1.1,0,2,0.9,2,2h2C22,3.8,20.2,2,18,2z
		 M24,10H0v14h24V10z M2,12h20v10H2V12z"/>
</g>
<g id="Layer_2" display="none">
	<path display="inline" fill="none" stroke="#ED1C24" stroke-width="2" stroke-miterlimit="10" d="M3,0c0,1.7,1.3,3,3,3s3,1.3,3,3"
		/>
	<path display="inline" fill="none" stroke="#ED1C24" stroke-width="2" stroke-miterlimit="10" d="M15,20c0-1.7-1.3-3-3-3
		s-3-1.3-3-3"/>
	<path display="inline" fill="none" stroke="#ED1C24" stroke-width="2" stroke-miterlimit="10" d="M15,0c0,1.7,1.3,3,3,3s3,1.3,3,3"
		/>
	
		<rect x="1" y="11" display="inline" fill="none" stroke="#ED1C24" stroke-width="2" stroke-miterlimit="10" width="22" height="12"/>
</g>
</svg>
