<?xml version="1.0" encoding="utf-8"?>
<!-- Generator: Adobe Illustrator 19.2.1, SVG Export Plug-In . SVG Version: 6.00 Build 0)  -->
<!DOCTYPE svg PUBLIC "-//W3C//DTD SVG 1.1//EN" "http://www.w3.org/Graphics/SVG/1.1/DTD/svg11.dtd">
<svg version="1.1" xmlns="http://www.w3.org/2000/svg" xmlns:xlink="http://www.w3.org/1999/xlink" x="0px" y="0px"
	 viewBox="0 0 24 24" enable-background="new 0 0 24 24" xml:space="preserve">
<g id="Layer_1">
	<path d="M22.7,2.7l-1.4-1.4L18.6,4h-5.2l1.3-1.3l-1.4-1.4L10.6,4H0v8h2.6l-1.3,1.3l1.4,1.4L5.4,12h5.2l-1.3,1.3l1.4,1.4l2.7-2.7H24
		V4h-2.6L22.7,2.7z M2,10V6h6.6l-4,4H2z M7.4,10l4-4h5.2l-4,4H7.4z M22,6v4h-6.6l4-4H22z M1.3,16l22,6L22.7,24l-22-6L1.3,16z"/>
</g>
<g id="Layer_2" display="none">
	<rect x="1" y="5" display="inline" fill="none" stroke="#ED1C24" stroke-width="2" stroke-miterlimit="10" width="22" height="6"/>
	<line display="inline" fill="none" stroke="#ED1C24" stroke-width="2" stroke-miterlimit="10" x1="2" y1="14" x2="14" y2="2"/>
	<line display="inline" fill="none" stroke="#ED1C24" stroke-width="2" stroke-miterlimit="10" x1="10" y1="14" x2="22" y2="2"/>
	<line display="inline" fill="none" stroke="#ED1C24" stroke-width="2" stroke-miterlimit="10" x1="1" y1="17" x2="23" y2="23"/>
</g>
</svg>
