<?xml version="1.0" encoding="utf-8"?>
<!-- Generator: Adobe Illustrator 21.0.0, SVG Export Plug-In . SVG Version: 6.00 Build 0)  -->
<!DOCTYPE svg PUBLIC "-//W3C//DTD SVG 1.1//EN" "http://www.w3.org/Graphics/SVG/1.1/DTD/svg11.dtd">
<svg version="1.1" xmlns="http://www.w3.org/2000/svg" xmlns:xlink="http://www.w3.org/1999/xlink" x="0px" y="0px"
	 viewBox="0 0 24 24" enable-background="new 0 0 24 24" xml:space="preserve">
<g id="Layer_1">
	<path d="M20,8c0-4.4-3.6-8-8-8S4,3.6,4,8c0,4.1,3.1,7.4,7,7.9V24h2v-8.1C16.9,15.4,20,12.1,20,8z M12,2c1.3,0,2.5,0.4,3.5,1.1
		l-8.4,8.4C6.4,10.5,6,9.3,6,8C6,4.7,8.7,2,12,2z M12,14c-1.3,0-2.5-0.4-3.5-1.1l8.4-8.4C17.6,5.5,18,6.7,18,8
		C18,11.3,15.3,14,12,14z"/>
</g>
<g id="Layer_2" display="none">
	<circle display="inline" fill="none" stroke="#ED1C24" stroke-width="2" stroke-miterlimit="10" cx="12" cy="8" r="7"/>
	<line display="inline" fill="none" stroke="#ED1C24" stroke-width="2" stroke-miterlimit="10" x1="12" y1="24" x2="12" y2="15"/>
	<line display="inline" fill="none" stroke="#ED1C24" stroke-width="2" stroke-miterlimit="10" x1="17" y1="3" x2="7" y2="13"/>
</g>
</svg>
