<?xml version="1.0" encoding="utf-8"?>
<!-- Generator: Adobe Illustrator 21.0.0, SVG Export Plug-In . SVG Version: 6.00 Build 0)  -->
<!DOCTYPE svg PUBLIC "-//W3C//DTD SVG 1.1//EN" "http://www.w3.org/Graphics/SVG/1.1/DTD/svg11.dtd">
<svg version="1.1" xmlns="http://www.w3.org/2000/svg" xmlns:xlink="http://www.w3.org/1999/xlink" x="0px" y="0px"
	 viewBox="0 0 24 24" enable-background="new 0 0 24 24" xml:space="preserve">
<g id="Layer_1">
	<path d="M18.7,11.6l3.7,6.4H13v6h-2v-6H1.6l3.7-6.4l1.7,1l-2,3.4h13.9l-2-3.4L18.7,11.6z M5.4,7.9c0-0.1-1.1-3,1.7-5.8
		c2.7-2.7,7.2-2.7,9.9,0c2.8,2.8,1.7,5.7,1.7,5.8c-0.6,1.5-1.6,2.5-2.7,2.8c-0.2,0-0.4,0.1-0.5,0.1c-0.7,0-1.4-0.3-1.9-0.9
		c-0.8-0.8-2.1-0.8-2.8,0c-0.7,0.7-1.6,1-2.5,0.8C7,10.4,6,9.4,5.4,7.9z M7.3,7.2c0.4,1,0.9,1.4,1.3,1.5c0.1,0,0.4,0,0.6-0.3
		C10,7.6,11,7.2,12,7.2s2,0.4,2.8,1.2c0.3,0.3,0.5,0.3,0.6,0.3c0.3-0.1,0.9-0.5,1.3-1.5c0-0.1,0.6-1.9-1.2-3.7
		c-1.9-1.9-5.1-1.9-7.1,0C6.6,5.3,7.2,7.1,7.3,7.2z"/>
</g>
<g id="Layer_2" display="none">
	<polygon display="inline" fill="#ED1C24" points="17,12.6 18.9,16 5.1,16 7,12.6 5.3,11.6 1.6,18 22.4,18 18.7,11.6 	"/>
	<g display="inline">
		<line fill="none" stroke="#ED1C24" stroke-width="2" stroke-miterlimit="10" x1="12" y1="24" x2="12" y2="18"/>
	</g>
	<g display="inline">
		<path fill="none" stroke="#ED1C24" stroke-width="2" stroke-miterlimit="10" d="M9.9,9.1C11,8,13,8,14.1,9.1s2.8,0.4,3.5-1.6
			c0,0,0.9-2.4-1.4-4.7s-6.1-2.3-8.5,0S6.3,7.5,6.3,7.5C7.1,9.6,8.7,10.3,9.9,9.1z"/>
	</g>
</g>
</svg>
