<?xml version="1.0" encoding="utf-8"?>
<!-- Generator: Adobe Illustrator 21.0.0, SVG Export Plug-In . SVG Version: 6.00 Build 0)  -->
<!DOCTYPE svg PUBLIC "-//W3C//DTD SVG 1.1//EN" "http://www.w3.org/Graphics/SVG/1.1/DTD/svg11.dtd">
<svg version="1.1" xmlns="http://www.w3.org/2000/svg" xmlns:xlink="http://www.w3.org/1999/xlink" x="0px" y="0px"
	 viewBox="0 0 24 24" enable-background="new 0 0 24 24" xml:space="preserve">
<g id="Layer_1">
	<path d="M17.8,10c-0.5,0.1-1,0.2-1.6,0.2c-1.5,0-3-0.6-4.2-1.7c-1.2,1.2-2.7,1.7-4.2,1.7c-0.5,0-1.1-0.1-1.6-0.2l-4.6,8H11v6h2v-6
		h9.4L17.8,10z M11,16H5.1l2.2-3.8c0.2,0,0.4,0,0.5,0c1.5,0,3-0.4,4.2-1.2c1.2,0.8,2.7,1.2,4.2,1.2c0.2,0,0.4,0,0.5,0l2.2,3.8H13H11
		z"/>
</g>
<g id="Layer_2" display="none">
	<g display="inline">
		<line fill="none" stroke="#ED1C24" stroke-width="2" stroke-miterlimit="10" x1="12" y1="24" x2="12" y2="16"/>
	</g>
	<g display="inline">
		<path fill="#ED1C24" d="M12,11c1.2,0.8,2.7,1.2,4.2,1.2c0.2,0,0.4,0,0.5,0l2.2,3.8H5.1l2.2-3.8c0.2,0,0.4,0,0.5,0
			C9.3,12.2,10.8,11.8,12,11 M12,8.5c-1.2,1.2-2.7,1.7-4.2,1.7c-0.5,0-1.1-0.1-1.6-0.2l-4.6,8h20.8l-4.6-8c-0.5,0.1-1,0.2-1.6,0.2
			C14.7,10.2,13.2,9.6,12,8.5L12,8.5z"/>
	</g>
</g>
</svg>
