<?xml version="1.0" encoding="utf-8"?>
<!-- Generator: Adobe Illustrator 19.2.1, SVG Export Plug-In . SVG Version: 6.00 Build 0)  -->
<!DOCTYPE svg PUBLIC "-//W3C//DTD SVG 1.1//EN" "http://www.w3.org/Graphics/SVG/1.1/DTD/svg11.dtd">
<svg version="1.1" xmlns="http://www.w3.org/2000/svg" xmlns:xlink="http://www.w3.org/1999/xlink" x="0px" y="0px"
	 viewBox="0 0 24 24" enable-background="new 0 0 24 24" xml:space="preserve">
<g id="Layer_1">
	<path d="M12.5,19c0,0.8-0.7,1.5-1.5,1.5S9.5,19.8,9.5,19s0.7-1.5,1.5-1.5S12.5,18.2,12.5,19z M19,17.5c-0.8,0-1.5,0.7-1.5,1.5
		s0.7,1.5,1.5,1.5s1.5-0.7,1.5-1.5S19.8,17.5,19,17.5z M24,9v12c0,1.7-1.3,3-3,3H9c-1.7,0-3-1.3-3-3V9c0-1.7,1.3-3,3-3h12
		C22.7,6,24,7.3,24,9z M8,9v5h14V9c0-0.6-0.4-1-1-1H9C8.4,8,8,8.4,8,9z M22,21v-5H8v5c0,0.6,0.4,1,1,1h12C21.6,22,22,21.6,22,21z
		 M9,0C4,0,0,4,0,9v15h2V9c0-3.9,3.1-7,7-7h15V0H9z"/>
</g>
<g id="Layer_2" display="none">
	<g display="inline">
		<line fill="none" stroke="#ED1C24" stroke-width="2" stroke-miterlimit="10" x1="7" y1="15" x2="23" y2="15"/>
		<g>
			<path fill="#ED1C24" d="M11,17.5c-0.8,0-1.5,0.7-1.5,1.5s0.7,1.5,1.5,1.5s1.5-0.7,1.5-1.5S11.8,17.5,11,17.5L11,17.5z"/>
		</g>
		<g>
			<path fill="#ED1C24" d="M19,17.5c-0.8,0-1.5,0.7-1.5,1.5s0.7,1.5,1.5,1.5s1.5-0.7,1.5-1.5S19.8,17.5,19,17.5L19,17.5z"/>
		</g>
		<path fill="none" stroke="#ED1C24" stroke-width="2" stroke-miterlimit="10" d="M21,23H9c-1.1,0-2-0.9-2-2V9c0-1.1,0.9-2,2-2h12
			c1.1,0,2,0.9,2,2v12C23,22.1,22.1,23,21,23z"/>
		<path fill="none" stroke="#ED1C24" stroke-width="2" stroke-miterlimit="10" d="M1,24V9c0-4.4,3.6-8,8-8h15"/>
	</g>
</g>
</svg>
