<?xml version="1.0" encoding="utf-8"?>
<!-- Generator: Adobe Illustrator 21.0.0, SVG Export Plug-In . SVG Version: 6.00 Build 0)  -->
<!DOCTYPE svg PUBLIC "-//W3C//DTD SVG 1.1//EN" "http://www.w3.org/Graphics/SVG/1.1/DTD/svg11.dtd">
<svg version="1.1" xmlns="http://www.w3.org/2000/svg" xmlns:xlink="http://www.w3.org/1999/xlink" x="0px" y="0px"
	 viewBox="0 0 24 24" enable-background="new 0 0 24 24" xml:space="preserve">
<g id="Layer_1">
	<path d="M22.9,9.5l-0.5,1.9l-5.1-1.4L12,13.2l-5.3-3.1l-5.1,1.4L1.1,9.5l3.1-0.8L1.1,6.9l1-1.7l3.1,1.8L4.4,3.8l1.9-0.5l1.4,5.1
		l3.3,1.9V6.4L7.3,2.7l1.4-1.4L11,3.6V0h2v3.6l2.3-2.3l1.4,1.4L13,6.4v3.9l3.3-1.9l1.4-5.1l1.9,0.5l-0.8,3.1l3.1-1.8l1,1.7l-3.1,1.8
		L22.9,9.5z M17,12.6l2,3.4H5.1l2-3.4l-1.7-1L1.6,18H11v6h2v-6h9.4l-3.7-6.4L17,12.6z"/>
</g>
<g id="Layer_2" display="none">
	<line display="inline" fill="none" stroke="#ED1C24" stroke-width="2" stroke-miterlimit="10" x1="12" y1="12" x2="12" y2="0"/>
	<polyline display="inline" fill="none" stroke="#ED1C24" stroke-width="2" stroke-miterlimit="10" points="8,2 12,6 16,2 	"/>
	<polyline display="inline" fill="none" stroke="#ED1C24" stroke-width="2" stroke-miterlimit="10" points="18.7,3.5 17.2,9 
		22.7,10.5 	"/>
	<polyline display="inline" fill="none" stroke="#ED1C24" stroke-width="2" stroke-miterlimit="10" points="1.6,6 12,12 22.4,6 	"/>
	<polyline display="inline" fill="none" stroke="#ED1C24" stroke-width="2" stroke-miterlimit="10" points="5.3,3.5 6.8,9 1.3,10.5 
			"/>
	<polygon display="inline" fill="#ED1C24" points="17,12.6 18.9,16 5.1,16 7,12.6 5.3,11.6 1.6,18 22.4,18 18.7,11.6 	"/>
	<g display="inline">
		<line fill="none" stroke="#ED1C24" stroke-width="2" stroke-miterlimit="10" x1="12" y1="24" x2="12" y2="18"/>
	</g>
</g>
</svg>
