<?xml version="1.0" encoding="utf-8"?>
<!-- Generator: Adobe Illustrator 19.2.1, SVG Export Plug-In . SVG Version: 6.00 Build 0)  -->
<!DOCTYPE svg PUBLIC "-//W3C//DTD SVG 1.1//EN" "http://www.w3.org/Graphics/SVG/1.1/DTD/svg11.dtd">
<svg version="1.1" xmlns="http://www.w3.org/2000/svg" xmlns:xlink="http://www.w3.org/1999/xlink" x="0px" y="0px"
	 viewBox="0 0 24 24" enable-background="new 0 0 24 24" xml:space="preserve">
<g id="Layer_1">
	<path d="M15.7,3.1L14.6,2l1.9-1.9l0.8,2.6L15.7,3.1z M6.2,13.2l-1.4-1.4l-1.4,1.4l1.4,1.4L6.2,13.2z M9,10.4L7.6,9l-1.4,1.4
		l1.4,1.4L9,10.4z M11.8,7.6l-1.4-1.4L9,7.6L10.4,9L11.8,7.6z M14.6,4.8l-1.4-1.4l-1.4,1.4l1.4,1.4L14.6,4.8z M3.1,15.7L2,14.6
		l-1.9,1.9l2.6,0.8L3.1,15.7z M19.3,20.2l-2-0.6l-0.6,1.9l2,0.6L19.3,20.2z M15.3,18.9l-2-0.6l-0.6,1.9l2,0.6L15.3,18.9z M11.3,17.7
		l-2-0.6l-0.6,1.9l2,0.6L11.3,17.7z M7.3,16.5l-2-0.6l-0.6,1.9l2,0.6L7.3,16.5z M22.7,20.8l-1.5,0.4l-0.4,1.5l2.7,0.8L22.7,20.8z
		 M22.1,18.7l-0.6-2l-1.9,0.6l0.6,2L22.1,18.7z M20.9,14.7l-0.6-2l-1.9,0.6l0.6,2L20.9,14.7z M19.7,10.7l-0.6-2l-1.9,0.6l0.6,2
		L19.7,10.7z M18.5,6.7l-0.6-2l-1.9,0.6l0.6,2L18.5,6.7z"/>
</g>
<g id="Layer_2" display="none">
	<g display="inline">
		<g>
			<polyline fill="none" stroke="#ED1C24" stroke-width="2" stroke-miterlimit="10" points="16.3,3 16,2 15.3,2.7 			"/>
			
				<line fill="none" stroke="#ED1C24" stroke-width="2" stroke-miterlimit="10" stroke-dasharray="1.9777,1.9777" x1="13.9" y1="4.1" x2="3.4" y2="14.6"/>
			<polyline fill="none" stroke="#ED1C24" stroke-width="2" stroke-miterlimit="10" points="2.7,15.3 2,16 3,16.3 			"/>
			
				<line fill="none" stroke="#ED1C24" stroke-width="2" stroke-miterlimit="10" stroke-dasharray="2.0978,2.0978" x1="5" y1="16.9" x2="20" y2="21.4"/>
			<polyline fill="none" stroke="#ED1C24" stroke-width="2" stroke-miterlimit="10" points="21,21.7 22,22 21.7,21 			"/>
			
				<line fill="none" stroke="#ED1C24" stroke-width="2" stroke-miterlimit="10" stroke-dasharray="2.0978,2.0978" x1="21.1" y1="19" x2="16.6" y2="4"/>
		</g>
	</g>
</g>
</svg>
