<?xml version="1.0" encoding="utf-8"?>
<!-- Generator: Adobe Illustrator 19.2.1, SVG Export Plug-In . SVG Version: 6.00 Build 0)  -->
<!DOCTYPE svg PUBLIC "-//W3C//DTD SVG 1.1//EN" "http://www.w3.org/Graphics/SVG/1.1/DTD/svg11.dtd">
<svg version="1.1" xmlns="http://www.w3.org/2000/svg" xmlns:xlink="http://www.w3.org/1999/xlink" x="0px" y="0px"
	 viewBox="0 0 24 24" enable-background="new 0 0 24 24" xml:space="preserve">
<g id="Layer_1">
	<path d="M24,4H5V2h19V4z M3,3c0-0.8-0.7-1.5-1.5-1.5S0,2.2,0,3s0.7,1.5,1.5,1.5S3,3.8,3,3z M24,8H5v2h19V8z M3,9
		c0-0.8-0.7-1.5-1.5-1.5S0,8.2,0,9s0.7,1.5,1.5,1.5S3,9.8,3,9z M24,14H5v2h19V14z M3,15c0-0.8-0.7-1.5-1.5-1.5S0,14.2,0,15
		s0.7,1.5,1.5,1.5S3,15.8,3,15z M24,20H5v2h19V20z M3,21c0-0.8-0.7-1.5-1.5-1.5S0,20.2,0,21s0.7,1.5,1.5,1.5S3,21.8,3,21z"/>
</g>
<g id="Layer_2" display="none">
	<line display="inline" fill="none" stroke="#ED1C24" stroke-width="2" stroke-miterlimit="10" x1="24" y1="3" x2="5" y2="3"/>
	<circle display="inline" fill="none" stroke="#ED1C24" stroke-width="2" stroke-miterlimit="10" cx="1.5" cy="3" r="0.5"/>
	<line display="inline" fill="none" stroke="#ED1C24" stroke-width="2" stroke-miterlimit="10" x1="24" y1="9" x2="5" y2="9"/>
	<circle display="inline" fill="none" stroke="#ED1C24" stroke-width="2" stroke-miterlimit="10" cx="1.5" cy="9" r="0.5"/>
	<line display="inline" fill="none" stroke="#ED1C24" stroke-width="2" stroke-miterlimit="10" x1="24" y1="15" x2="5" y2="15"/>
	<circle display="inline" fill="none" stroke="#ED1C24" stroke-width="2" stroke-miterlimit="10" cx="1.5" cy="15" r="0.5"/>
	<line display="inline" fill="none" stroke="#ED1C24" stroke-width="2" stroke-miterlimit="10" x1="24" y1="21" x2="5" y2="21"/>
	<circle display="inline" fill="none" stroke="#ED1C24" stroke-width="2" stroke-miterlimit="10" cx="1.5" cy="21" r="0.5"/>
</g>
</svg>
