<?xml version="1.0" encoding="utf-8"?>
<!-- Generator: Adobe Illustrator 21.0.0, SVG Export Plug-In . SVG Version: 6.00 Build 0)  -->
<!DOCTYPE svg PUBLIC "-//W3C//DTD SVG 1.1//EN" "http://www.w3.org/Graphics/SVG/1.1/DTD/svg11.dtd">
<svg version="1.1" xmlns="http://www.w3.org/2000/svg" xmlns:xlink="http://www.w3.org/1999/xlink" x="0px" y="0px"
	 viewBox="0 0 24 24" enable-background="new 0 0 24 24" xml:space="preserve">
<g id="Layer_1">
	<path d="M24,21v3h-2v-3c0-4-2.3-7.4-5.7-9l1.5-1.5C21.5,12.5,24,16.5,24,21z M14.7,13.5l-1.6,1.6c2.8,0.5,4.9,3,4.9,5.9v3h2v-3
		C20,17.6,17.8,14.6,14.7,13.5z M23.7,1.7l-1.4-1.4l-22,22l1.4,1.4L23.7,1.7z M4.6,6H2.5c0.8,2.7,2.7,4.8,5.2,6l-1.5,1.5
		c-2.9-1.6-5-4.3-5.8-7.5H0V0h4h2v3c0,2.9,2.1,5.4,4.9,5.9l-1.6,1.6C7.1,9.7,5.5,8.1,4.6,6z M4,3V2H2v2h2V3z"/>
</g>
<g id="Layer_2" display="none">
	<rect x="1" y="1" display="inline" fill="none" stroke="#ED1C24" stroke-width="2" stroke-miterlimit="10" width="4" height="4"/>
	<path display="inline" fill="#ED1C24" d="M9.3,10.5l1.6-1.6C8.1,8.4,6,5.9,6,3V0H4v3C4,6.4,6.2,9.4,9.3,10.5z"/>
	<path display="inline" fill="#ED1C24" d="M17.8,10.5L16.3,12c3.4,1.6,5.7,5,5.7,9v3h2v-3C24,16.5,21.5,12.5,17.8,10.5z"/>
	<path display="inline" fill="#ED1C24" d="M14.7,13.5l-1.6,1.6c2.8,0.5,4.9,3,4.9,5.9v3h2v-3C20,17.6,17.8,14.6,14.7,13.5z"/>
	<line display="inline" fill="none" stroke="#ED1C24" stroke-width="2" stroke-miterlimit="10" x1="1" y1="23" x2="23" y2="1"/>
	<path display="inline" fill="#ED1C24" d="M2.2,5H0.2c0.6,3.7,2.9,6.8,6.1,8.5L7.7,12C4.9,10.7,2.9,8.1,2.2,5z"/>
</g>
</svg>
