<?xml version="1.0" encoding="utf-8"?>
<!-- Generator: Adobe Illustrator 21.0.0, SVG Export Plug-In . SVG Version: 6.00 Build 0)  -->
<!DOCTYPE svg PUBLIC "-//W3C//DTD SVG 1.1//EN" "http://www.w3.org/Graphics/SVG/1.1/DTD/svg11.dtd">
<svg version="1.1" xmlns="http://www.w3.org/2000/svg" xmlns:xlink="http://www.w3.org/1999/xlink" x="0px" y="0px"
	 viewBox="0 0 24 24" enable-background="new 0 0 24 24" xml:space="preserve">
<g id="Layer_1">
	<path d="M12,9C8.7,9,6,6.3,6,3V0H4H0v6h0.4c1.4,5.3,6.1,9,11.6,9c3.3,0,6,2.7,6,6v3h2v-3c0-4.4-3.6-8-8-8c-4.4,0-8.2-2.9-9.5-7h2.1
		c1.2,2.9,4.1,5,7.4,5c5.5,0,10,4.5,10,10v3h2v-3C24,14.4,18.6,9,12,9z M4,4H2V2h2v1V4z"/>
</g>
<g id="Layer_2" display="none">
	<rect x="1" y="1" display="inline" fill="none" stroke="#ED1C24" stroke-width="2" stroke-miterlimit="10" width="4" height="4"/>
	<path display="inline" fill="none" stroke="#ED1C24" stroke-width="2" stroke-miterlimit="10" d="M19,24v-3c0-3.9-3.1-7-7-7
		c-5.4,0-9.9-3.9-10.8-9"/>
	<path display="inline" fill="none" stroke="#ED1C24" stroke-width="2" stroke-miterlimit="10" d="M23,24v-3c0-6.1-4.9-11-11-11
		c-3.9,0-7-3.1-7-7V0"/>
</g>
</svg>
