<?xml version="1.0" encoding="utf-8"?>
<!-- Generator: Adobe Illustrator 19.2.1, SVG Export Plug-In . SVG Version: 6.00 Build 0)  -->
<!DOCTYPE svg PUBLIC "-//W3C//DTD SVG 1.1//EN" "http://www.w3.org/Graphics/SVG/1.1/DTD/svg11.dtd">
<svg version="1.1" xmlns="http://www.w3.org/2000/svg" xmlns:xlink="http://www.w3.org/1999/xlink" x="0px" y="0px"
	 viewBox="0 0 24 24" enable-background="new 0 0 24 24" xml:space="preserve">
<g id="Layer_1">
	<path d="M20,21v3h-2v-3c0-3.3-2.7-6-6-6C5.4,15,0,9.6,0,3V0h2v3c0,5.5,4.5,10,10,10C16.4,13,20,16.6,20,21z M12,9C8.7,9,6,6.3,6,3
		V0H4v3c0,4.4,3.6,8,8,8c5.5,0,10,4.5,10,10v3h2v-3C24,14.4,18.6,9,12,9z"/>
</g>
<g id="Layer_2" display="none">
	<path display="inline" fill="none" stroke="#ED1C24" stroke-width="2" stroke-miterlimit="10" d="M19,24v-3c0-3.9-3.1-7-7-7
		C5.9,14,1,9.1,1,3V0"/>
	<path display="inline" fill="none" stroke="#ED1C24" stroke-width="2" stroke-miterlimit="10" d="M23,24v-3c0-6.1-4.9-11-11-11
		c-3.9,0-7-3.1-7-7V0"/>
</g>
</svg>
