<?xml version="1.0" encoding="utf-8"?>
<!-- Generator: Adobe Illustrator 19.2.1, SVG Export Plug-In . SVG Version: 6.00 Build 0)  -->
<!DOCTYPE svg PUBLIC "-//W3C//DTD SVG 1.1//EN" "http://www.w3.org/Graphics/SVG/1.1/DTD/svg11.dtd">
<svg version="1.1" xmlns="http://www.w3.org/2000/svg" xmlns:xlink="http://www.w3.org/1999/xlink" x="0px" y="0px"
	 viewBox="0 0 24 24" enable-background="new 0 0 24 24" xml:space="preserve">
<g id="Layer_1">
	<path d="M1.1,9.5l3.1-0.8L1.1,6.9l1-1.7l3.1,1.8L4.4,3.8l1.9-0.5l1.4,5.1l2.2,1.2l-1.5,1.5l-1.7-1l-5.1,1.4L1.1,9.5z M11,8.4
		l5.7-5.7l-1.4-1.4L13,3.6V0h-2v3.6L8.7,1.3L7.3,2.7L11,6.4V8.4z M13,24v-3.6l2.3,2.3l1.4-1.4L13,17.6v-2l-5.7,5.7l1.4,1.4l2.3-2.3
		V24H13z M22.4,12.6l-5.1,1.4l-1.7-1l-1.5,1.5l2.2,1.2l1.4,5.1l1.9-0.5l-0.8-3.1l3.1,1.8l1-1.7l-3.1-1.8l3.1-0.8L22.4,12.6z
		 M23.7,1.7l-1.4-1.4l-22,22l1.4,1.4L23.7,1.7z"/>
</g>
<g id="Layer_2" display="none">
	<g display="inline">
		<polygon fill="#ED1C24" points="1.6,11.4 6.7,10.1 8.4,11.1 9.8,9.6 7.7,8.3 6.3,3.3 4.4,3.8 5.2,6.9 2.1,5.1 1.1,6.9 4.2,8.7 
			1.1,9.5 		"/>
		<polygon fill="#ED1C24" points="11,8.4 16.7,2.7 15.3,1.3 13,3.6 13,0 11,0 11,3.6 8.7,1.3 7.3,2.7 11,6.4 		"/>
		<polygon fill="#ED1C24" points="13,15.6 7.3,21.3 8.7,22.7 11,20.4 11,24 13,24 13,20.4 15.3,22.7 16.7,21.3 13,17.6 		"/>
		<polygon fill="#ED1C24" points="22.4,12.6 17.3,13.9 15.6,12.9 14.2,14.4 16.3,15.7 17.7,20.7 19.6,20.2 18.8,17.1 21.9,18.9 
			22.9,17.1 19.8,15.3 22.9,14.5 		"/>
	</g>
	<line display="inline" fill="none" stroke="#ED1C24" stroke-width="2" stroke-miterlimit="10" x1="1" y1="23" x2="23" y2="1"/>
</g>
</svg>
