<?xml version="1.0" encoding="utf-8"?>
<!-- Generator: Adobe Illustrator 21.0.0, SVG Export Plug-In . SVG Version: 6.00 Build 0)  -->
<!DOCTYPE svg PUBLIC "-//W3C//DTD SVG 1.1//EN" "http://www.w3.org/Graphics/SVG/1.1/DTD/svg11.dtd">
<svg version="1.1" xmlns="http://www.w3.org/2000/svg" xmlns:xlink="http://www.w3.org/1999/xlink" x="0px" y="0px"
	 viewBox="0 0 24 24" enable-background="new 0 0 24 24" xml:space="preserve">
<g id="Layer_1">
	<path d="M8,10H2V0h2v8h4V10z M20,0h-2v10h2V0z M0,14h24v10H0V14z M2,22h20v-6H2V22z M13,10l3-10H14l-2,6.5L10,0H8l3,10H13z"/>
</g>
<g id="Layer_2" display="none">
	<polyline display="inline" fill="none" stroke="#ED1C24" stroke-width="2" stroke-miterlimit="10" points="3,0 3,9 8,9 	"/>
	
		<polyline display="inline" fill="none" stroke="#ED1C24" stroke-width="2" stroke-linecap="square" stroke-linejoin="bevel" stroke-miterlimit="10" points="
		9,0 12,10 15,0 	"/>
	<line display="inline" fill="none" stroke="#ED1C24" stroke-width="2" stroke-miterlimit="10" x1="19" y1="0" x2="19" y2="10"/>
	
		<rect x="1" y="15" display="inline" fill="none" stroke="#ED1C24" stroke-width="2" stroke-miterlimit="10" width="22" height="8"/>
</g>
</svg>
