<?xml version="1.0" encoding="utf-8"?>
<!-- Generator: Adobe Illustrator 21.0.0, SVG Export Plug-In . SVG Version: 6.00 Build 0)  -->
<!DOCTYPE svg PUBLIC "-//W3C//DTD SVG 1.1//EN" "http://www.w3.org/Graphics/SVG/1.1/DTD/svg11.dtd">
<svg version="1.1" xmlns="http://www.w3.org/2000/svg" xmlns:xlink="http://www.w3.org/1999/xlink" x="0px" y="0px"
	 viewBox="0 0 24 24" enable-background="new 0 0 24 24" xml:space="preserve">
<g id="Layer_1">
	<path d="M9,11h6v2H9V11z M12,6c-4,0-7.5,2-9.7,5H0v2h1.1C0.4,14.5,0,16.2,0,18h2c0-1.8,0.5-3.5,1.4-5H6v-2H4.9C6.7,9.2,9.2,8,12,8
		s5.3,1.2,7.1,3H18v2h2.6c0.9,1.5,1.4,3.2,1.4,5h2c0-1.8-0.4-3.5-1.1-5H24v-2h-2.3C19.5,8,16,6,12,6z"/>
</g>
<g id="Layer_2" display="none">
	
		<line display="inline" fill="none" stroke="#ED1C24" stroke-width="2" stroke-miterlimit="10" stroke-dasharray="6,3" x1="0" y1="12" x2="24" y2="12"/>
	<path display="inline" fill="none" stroke="#ED1C24" stroke-width="2" stroke-miterlimit="10" d="M1,18C1,11.9,5.9,7,12,7
		s11,4.9,11,11"/>
</g>
</svg>
