<?xml version="1.0" encoding="utf-8"?>
<!-- Generator: Adobe Illustrator 21.0.0, SVG Export Plug-In . SVG Version: 6.00 Build 0)  -->
<!DOCTYPE svg PUBLIC "-//W3C//DTD SVG 1.1//EN" "http://www.w3.org/Graphics/SVG/1.1/DTD/svg11.dtd">
<svg version="1.1" xmlns="http://www.w3.org/2000/svg" xmlns:xlink="http://www.w3.org/1999/xlink" x="0px" y="0px"
	 viewBox="0 0 24 24" enable-background="new 0 0 24 24" xml:space="preserve">
<g id="Layer_1">
	<path d="M22.3,10.7L15,3.4l-2.3,2.3l-1.4-1.4L15,0.6l8.7,8.7L22.3,10.7z M13.7,9.3L7,2.6L0.3,9.3l1.4,1.4L7,5.4l5.3,5.3L13.7,9.3z
		 M16,10c0,2.2-1.8,4-4,4C6.5,14,2,18.5,2,24h2c0-4.4,3.6-8,8-8c1.5,0,2.9-0.6,3.9-1.5C15.7,16.5,14,18,12,18v0c-2.2,0-4,1.8-4,4v2
		h2v-2c0-1.1,0.9-2,2-2v0c3.3,0,6-2.7,6-6v-4H16z"/>
</g>
<g id="Layer_2" display="none">
	<polyline display="inline" fill="none" stroke="#00A651" stroke-width="2" stroke-miterlimit="10" points="23,10 15,2 12,5 	"/>
	<polyline display="inline" fill="none" stroke="#00A651" stroke-width="2" stroke-miterlimit="10" points="13,10 7,4 1,10 	"/>
	<path display="inline" fill="none" stroke="#00A651" stroke-width="2" stroke-miterlimit="10" d="M3,24c0-5,4-9,9-9"/>
	<path display="inline" fill="none" stroke="#00A651" stroke-width="2" stroke-miterlimit="10" d="M12,19c-1.7,0-3,1.3-3,3v2"/>
	<path display="inline" fill="none" stroke="#00A651" stroke-width="2" stroke-miterlimit="10" d="M17,10c0,2.8-2.2,5-5,5"/>
	<path display="inline" fill="none" stroke="#00A651" stroke-width="2" stroke-miterlimit="10" d="M12,19c2.8,0,5-2.2,5-5v-4"/>
</g>
</svg>
