<?xml version="1.0" encoding="utf-8"?>
<!-- Generator: Adobe Illustrator 19.2.1, SVG Export Plug-In . SVG Version: 6.00 Build 0)  -->
<!DOCTYPE svg PUBLIC "-//W3C//DTD SVG 1.1//EN" "http://www.w3.org/Graphics/SVG/1.1/DTD/svg11.dtd">
<svg version="1.1" xmlns="http://www.w3.org/2000/svg" xmlns:xlink="http://www.w3.org/1999/xlink" x="0px" y="0px"
	 viewBox="0 0 24 24" enable-background="new 0 0 24 24" xml:space="preserve">
<g id="Layer_1">
	<path d="M17,14V2h2V0H5v2h2v12H2v2h7l3,8l3-8h7v-2H17z M9,14V2h6v12H9z"/>
</g>
<g id="Layer_2" display="none">
	<g display="inline">
		<line fill="none" stroke="#ED1C24" stroke-width="2" stroke-miterlimit="10" x1="5" y1="1" x2="19" y2="1"/>
		<line fill="none" stroke="#ED1C24" stroke-width="2" stroke-miterlimit="10" x1="8" y1="15" x2="8" y2="1"/>
		<line fill="none" stroke="#ED1C24" stroke-width="2" stroke-miterlimit="10" x1="16" y1="15" x2="16" y2="1"/>
		<line fill="none" stroke="#ED1C24" stroke-width="2" stroke-miterlimit="10" x1="2" y1="15" x2="22" y2="15"/>
		<g>
			<path fill="#ED1C24" d="M12.1,18L12,18.3L11.9,18H12.1 M15,16H9l3,8L15,16L15,16z"/>
		</g>
		<g>
			<polygon fill="#ED1C24" points="13.5,16 10.5,16 12,20 13.5,16 			"/>
		</g>
	</g>
</g>
</svg>
