<?xml version="1.0" encoding="utf-8"?>
<!-- Generator: Adobe Illustrator 19.2.1, SVG Export Plug-In . SVG Version: 6.00 Build 0)  -->
<!DOCTYPE svg PUBLIC "-//W3C//DTD SVG 1.1//EN" "http://www.w3.org/Graphics/SVG/1.1/DTD/svg11.dtd">
<svg version="1.1" xmlns="http://www.w3.org/2000/svg" xmlns:xlink="http://www.w3.org/1999/xlink" x="0px" y="0px"
	 viewBox="0 0 24 24" enable-background="new 0 0 24 24" xml:space="preserve">
<g id="Layer_1">
	<path d="M24,24H0V0h24V24z M2,22h20V2H2V22z M12,4.5c-0.8,0-1.5,0.7-1.5,1.5s0.7,1.5,1.5,1.5s1.5-0.7,1.5-1.5S12.8,4.5,12,4.5
		L12,4.5z M13,10h-2v10h2V10z"/>
</g>
<g id="Layer_2" display="none">
	<g display="inline">
		<rect x="1" y="1" fill="none" stroke="#ED1C24" stroke-width="2" stroke-miterlimit="10" width="22" height="22"/>
		<g>
			<path fill="#ED1C24" d="M12,4.5c-0.8,0-1.5,0.7-1.5,1.5s0.7,1.5,1.5,1.5s1.5-0.7,1.5-1.5S12.8,4.5,12,4.5L12,4.5z"/>
		</g>
		<line fill="none" stroke="#ED1C24" stroke-width="2" stroke-miterlimit="10" x1="12" y1="10" x2="12" y2="20"/>
	</g>
</g>
</svg>
