<?xml version="1.0" encoding="utf-8"?>
<!-- Generator: Adobe Illustrator 19.2.1, SVG Export Plug-In . SVG Version: 6.00 Build 0)  -->
<!DOCTYPE svg PUBLIC "-//W3C//DTD SVG 1.1//EN" "http://www.w3.org/Graphics/SVG/1.1/DTD/svg11.dtd">
<svg version="1.1" xmlns="http://www.w3.org/2000/svg" xmlns:xlink="http://www.w3.org/1999/xlink" x="0px" y="0px"
	 viewBox="0 0 24 24" enable-background="new 0 0 24 24" xml:space="preserve">
<g id="Layer_1">
	<path d="M12,0C5.4,0,0,5.4,0,12s5.4,12,12,12s12-5.4,12-12S18.6,0,12,0z M12,22C6.5,22,2,17.5,2,12S6.5,2,12,2s10,4.5,10,10
		S17.5,22,12,22z M16,9c0-2.2-1.8-4-4-4S8,6.8,8,9c0,1.2,0.5,2.3,1.4,3C8.6,12.7,8,13.8,8,15c0,2.2,1.8,4,4,4s4-1.8,4-4
		c0-1.2-0.5-2.3-1.4-3C15.5,11.3,16,10.2,16,9z M14,15c0,1.1-0.9,2-2,2s-2-0.9-2-2s0.9-2,2-2S14,13.9,14,15z M10,9c0-1.1,0.9-2,2-2
		s2,0.9,2,2s-0.9,2-2,2S10,10.1,10,9z"/>
</g>
<g id="Layer_2" display="none">
	<circle display="inline" fill="none" stroke="#ED1C24" stroke-width="2" stroke-miterlimit="10" cx="12" cy="12" r="11"/>
	<circle display="inline" fill="none" stroke="#ED1C24" stroke-width="2" stroke-miterlimit="10" cx="12" cy="15" r="3"/>
	<circle display="inline" fill="none" stroke="#ED1C24" stroke-width="2" stroke-miterlimit="10" cx="12" cy="9" r="3"/>
</g>
</svg>
