<?xml version="1.0" encoding="utf-8"?>
<!-- Generator: Adobe Illustrator 20.0.0, SVG Export Plug-In . SVG Version: 6.00 Build 0)  -->
<!DOCTYPE svg PUBLIC "-//W3C//DTD SVG 1.1//EN" "http://www.w3.org/Graphics/SVG/1.1/DTD/svg11.dtd">
<svg version="1.1" xmlns="http://www.w3.org/2000/svg" xmlns:xlink="http://www.w3.org/1999/xlink" x="0px" y="0px"
	 viewBox="0 0 24 24" enable-background="new 0 0 24 24" xml:space="preserve">
<g id="Layer_1">
	<path d="M10.6,10.6l12.1-9.3l-9.3,12.1C13,13.8,12.5,14,12,14s-1-0.2-1.4-0.6C9.8,12.6,9.8,11.4,10.6,10.6z M20.7,7.1
		C21.5,8.6,22,10.2,22,12c0,5.5-4.5,10-10,10S2,17.5,2,12S6.5,2,12,2c1.8,0,3.4,0.5,4.9,1.3L18.6,2c-1.9-1.2-4.1-2-6.6-2
		C5.4,0,0,5.4,0,12s5.4,12,12,12s12-5.4,12-12c0-2.4-0.7-4.7-2-6.6L20.7,7.1z"/>
</g>
<g id="Layer_2" display="none">
	<g display="inline">
		<path fill="#ED1C24" d="M22.7,1.3l-12.1,9.3c-0.8,0.8-0.8,2,0,2.8C11,13.8,11.5,14,12,14c0.5,0,1-0.2,1.4-0.6L22.7,1.3L22.7,1.3z"
			/>
	</g>
	<g display="inline">
		<path fill="#ED1C24" d="M12,0C5.4,0,0,5.4,0,12s5.4,12,12,12s12-5.4,12-12c0-2.4-0.7-4.7-2-6.6l-1.3,1.7C21.5,8.6,22,10.2,22,12
			c0,5.5-4.5,10-10,10S2,17.5,2,12S6.5,2,12,2c1.8,0,3.4,0.5,4.9,1.3L18.6,2C16.7,0.7,14.4,0,12,0L12,0z"/>
	</g>
</g>
</svg>
