<?xml version="1.0" encoding="utf-8"?>
<!-- Generator: Adobe Illustrator 19.2.1, SVG Export Plug-In . SVG Version: 6.00 Build 0)  -->
<!DOCTYPE svg PUBLIC "-//W3C//DTD SVG 1.1//EN" "http://www.w3.org/Graphics/SVG/1.1/DTD/svg11.dtd">
<svg version="1.1" xmlns="http://www.w3.org/2000/svg" xmlns:xlink="http://www.w3.org/1999/xlink" x="0px" y="0px"
	 viewBox="0 0 24 24" enable-background="new 0 0 24 24" xml:space="preserve">
<g id="Layer_1">
	<polygon points="19.2,7.8 17.8,9.2 19.6,11 13,11 13,4.4 14.8,6.2 16.2,4.8 12,0.6 7.8,4.8 9.2,6.2 11,4.4 11,11 4.4,11 6.2,9.2 
		4.8,7.8 0.6,12 4.8,16.2 6.2,14.8 4.4,13 11,13 11,19.6 9.2,17.8 7.8,19.2 12,23.4 16.2,19.2 14.8,17.8 13,19.6 13,13 19.6,13 
		17.8,14.8 19.2,16.2 23.4,12 	"/>
</g>
<g id="Layer_2" display="none">
	<line display="inline" fill="none" stroke="#ED1C24" stroke-width="2" stroke-miterlimit="10" x1="2" y1="12" x2="22" y2="12"/>
	<polyline display="inline" fill="none" stroke="#ED1C24" stroke-width="2" stroke-miterlimit="10" points="18.5,8.5 22,12 
		18.5,15.5 	"/>
	<polyline display="inline" fill="none" stroke="#ED1C24" stroke-width="2" stroke-miterlimit="10" points="5.5,15.5 2,12 5.5,8.5 	
		"/>
	<line display="inline" fill="none" stroke="#ED1C24" stroke-width="2" stroke-miterlimit="10" x1="12" y1="22" x2="12" y2="2"/>
	<polyline display="inline" fill="none" stroke="#ED1C24" stroke-width="2" stroke-miterlimit="10" points="8.5,5.5 12,2 15.5,5.5 	
		"/>
	<polyline display="inline" fill="none" stroke="#ED1C24" stroke-width="2" stroke-miterlimit="10" points="15.5,18.5 12,22 
		8.5,18.5 	"/>
</g>
</svg>
