<?xml version="1.0" encoding="utf-8"?>
<!-- Generator: Adobe Illustrator 19.2.1, SVG Export Plug-In . SVG Version: 6.00 Build 0)  -->
<!DOCTYPE svg PUBLIC "-//W3C//DTD SVG 1.1//EN" "http://www.w3.org/Graphics/SVG/1.1/DTD/svg11.dtd">
<svg version="1.1" xmlns="http://www.w3.org/2000/svg" xmlns:xlink="http://www.w3.org/1999/xlink" x="0px" y="0px"
	 viewBox="0 0 24 24" enable-background="new 0 0 24 24" xml:space="preserve">
<g id="Layer_1">
	<path d="M16,8H4.4l6.1-6.1L9.1,0.5L0.6,9l8.5,8.5l1.4-1.4L4.4,10H16c3.3,0,6,2.7,6,6s-2.7,6-6,6H4.8v2H16c4.4,0,8-3.6,8-8
		S20.4,8,16,8z"/>
</g>
<g id="Layer_2" display="none">
	<g display="inline">
		<path fill="none" stroke="#ED1C24" stroke-width="2" stroke-miterlimit="10" d="M2,9l14,0c3.9,0,7,3.1,7,7s-3.1,7-7,7L4.8,23"/>
		<polyline fill="none" stroke="#ED1C24" stroke-width="2" stroke-miterlimit="10" points="9.8,1.2 2,9 9.8,16.8 		"/>
	</g>
</g>
</svg>
