<?xml version="1.0" encoding="utf-8"?>
<!-- Generator: Adobe Illustrator 20.0.0, SVG Export Plug-In . SVG Version: 6.00 Build 0)  -->
<!DOCTYPE svg PUBLIC "-//W3C//DTD SVG 1.1//EN" "http://www.w3.org/Graphics/SVG/1.1/DTD/svg11.dtd">
<svg version="1.1" xmlns="http://www.w3.org/2000/svg" xmlns:xlink="http://www.w3.org/1999/xlink" x="0px" y="0px"
	 viewBox="0 0 24 24" enable-background="new 0 0 24 24" xml:space="preserve">
<g id="Layer_1">
	<path d="M0,22h24v2H0V22z M4,16c1.9,2.5,4.8,4,8,4c5.5,0,10-4.5,10-10h-2c0,4.4-3.6,8-8,8c-2.9,0-5.5-1.6-6.9-4H8v-2H2v6h2V16z
		 M12,2c2.9,0,5.5,1.6,6.9,4H16v2h6V2h-2v2c-1.9-2.5-4.8-4-8-4C6.5,0,2,4.5,2,10h2C4,5.6,7.6,2,12,2z"/>
</g>
<g id="Layer_2" display="none">
	<line display="inline" fill="none" stroke="#ED1C24" stroke-width="2" stroke-miterlimit="10" x1="0" y1="23" x2="24" y2="23"/>
	<polyline display="inline" fill="none" stroke="#ED1C24" stroke-width="2" stroke-miterlimit="10" points="21,2 21,7 16,7 	"/>
	<polyline display="inline" fill="none" stroke="#ED1C24" stroke-width="2" stroke-miterlimit="10" points="3,18 3,13 8,13 	"/>
	<path display="inline" fill="none" stroke="#ED1C24" stroke-width="2" stroke-miterlimit="10" d="M20.5,7c-1.2-3.5-4.6-6-8.5-6
		c-5,0-9,4-9,9"/>
	<path display="inline" fill="none" stroke="#ED1C24" stroke-width="2" stroke-miterlimit="10" d="M3.5,13c1.2,3.5,4.6,6,8.5,6
		c5,0,9-4,9-9"/>
</g>
</svg>
