<?xml version="1.0" encoding="utf-8"?>
<!-- Generator: Adobe Illustrator 21.0.0, SVG Export Plug-In . SVG Version: 6.00 Build 0)  -->
<!DOCTYPE svg PUBLIC "-//W3C//DTD SVG 1.1//EN" "http://www.w3.org/Graphics/SVG/1.1/DTD/svg11.dtd">
<svg version="1.1" xmlns="http://www.w3.org/2000/svg" xmlns:xlink="http://www.w3.org/1999/xlink" x="0px" y="0px"
	 viewBox="0 0 24 24" enable-background="new 0 0 24 24" xml:space="preserve">
<g id="Layer_1">
	<path d="M8.5,12.1l2.1-2.1L8.5,7.9l1.4-1.4L12,8.6l2.1-2.1l1.4,1.4L13.4,10l2.1,2.1l-1.4,1.4L12,11.4l-2.1,2.1L8.5,12.1z M20,10
		c0,4.4-3.6,8-8,8s-8-3.6-8-8V8H0v2h2c0,5.5,4.5,10,10,10s10-4.5,10-10h2V8h-4V10z"/>
</g>
<g id="Layer_2" display="none">
	<path display="inline" fill="none" stroke="#ED1C24" stroke-width="2" stroke-miterlimit="10" d="M21,10c0,5-4,9-9,9s-9-4-9-9"/>
	
		<line display="inline" fill="none" stroke="#ED1C24" stroke-width="2" stroke-miterlimit="10" x1="9.2" y1="7.2" x2="14.8" y2="12.8"/>
	
		<line display="inline" fill="none" stroke="#ED1C24" stroke-width="2" stroke-miterlimit="10" x1="14.8" y1="7.2" x2="9.2" y2="12.8"/>
	<line display="inline" fill="none" stroke="#ED1C24" stroke-width="2" stroke-miterlimit="10" x1="0" y1="9" x2="4" y2="9"/>
	<line display="inline" fill="none" stroke="#ED1C24" stroke-width="2" stroke-miterlimit="10" x1="20" y1="9" x2="24" y2="9"/>
</g>
</svg>
