<?xml version="1.0" encoding="utf-8"?>
<!-- Generator: Adobe Illustrator 19.2.1, SVG Export Plug-In . SVG Version: 6.00 Build 0)  -->
<!DOCTYPE svg PUBLIC "-//W3C//DTD SVG 1.1//EN" "http://www.w3.org/Graphics/SVG/1.1/DTD/svg11.dtd">
<svg version="1.1" xmlns="http://www.w3.org/2000/svg" xmlns:xlink="http://www.w3.org/1999/xlink" x="0px" y="0px"
	 viewBox="0 0 24 24" enable-background="new 0 0 24 24" xml:space="preserve">
<g id="Layer_1">
	<path d="M23,13c0,2.8-2.2,5-5,5v-2c1.7,0,3-1.3,3-3s-1.3-3-3-3h-2V8h2c1.7,0,3-1.3,3-3s-1.3-3-3-3V0c2.8,0,5,2.2,5,5
		c0,1.6-0.8,3.1-2,4C22.2,9.9,23,11.4,23,13z M12,10h2V8h-2V10z M8,8h2v2H8v14H0V4c0-2.2,1.8-4,4-4s4,1.8,4,4V8z M6,4
		c0-1.1-0.9-2-2-2S2,2.9,2,4v18h4V4z"/>
</g>
<g id="Layer_2" display="none">
	<path display="inline" fill="none" stroke="#ED1C24" stroke-width="2" stroke-miterlimit="10" d="M18,1c2.2,0,4,1.8,4,4s-1.8,4-4,4
		"/>
	<path display="inline" fill="none" stroke="#ED1C24" stroke-width="2" stroke-miterlimit="10" d="M18,9c2.2,0,4,1.8,4,4s-1.8,4-4,4
		"/>
	<line display="inline" fill="none" stroke="#ED1C24" stroke-width="2" stroke-miterlimit="10" x1="14" y1="9" x2="12" y2="9"/>
	<line display="inline" fill="none" stroke="#ED1C24" stroke-width="2" stroke-miterlimit="10" x1="18" y1="9" x2="16" y2="9"/>
	<path display="inline" fill="none" stroke="#ED1C24" stroke-width="2" stroke-miterlimit="10" d="M10,9L7,9V4c0-1.7-1.3-3-3-3
		S1,2.3,1,4v19h6V9"/>
</g>
</svg>
