<?xml version="1.0" encoding="utf-8"?>
<!-- Generator: Adobe Illustrator 19.2.1, SVG Export Plug-In . SVG Version: 6.00 Build 0)  -->
<!DOCTYPE svg PUBLIC "-//W3C//DTD SVG 1.1//EN" "http://www.w3.org/Graphics/SVG/1.1/DTD/svg11.dtd">
<svg version="1.1" xmlns="http://www.w3.org/2000/svg" xmlns:xlink="http://www.w3.org/1999/xlink" x="0px" y="0px"
	 viewBox="0 0 24 24" enable-background="new 0 0 24 24" xml:space="preserve">
<g id="Layer_1">
	<g>
		<path d="M0,5.3V24h24V5.3L12,0L0,5.3z M22,22H2V6.6l10-4.4l10,4.4V22z"/>
		<path d="M18,16c0-1.2-0.5-2.3-1.4-3c0.8-0.7,1.4-1.8,1.4-3c0-2.2-1.8-4-4-4v2c1.1,0,2,0.9,2,2s-0.9,2-2,2v2c1.1,0,2,0.9,2,2
			s-0.9,2-2,2v2C16.2,20,18,18.2,18,16z"/>
		<rect x="6" y="12" width="2" height="2"/>
		<rect x="10" y="12" width="2" height="2"/>
	</g>
</g>
<g id="Layer_2" display="none">
	<g display="inline">
		<path fill="#ED1C24" d="M12,2.2l10,4.4V22H2V6.6L12,2.2 M12,0L0,5.3V24h24V5.3L12,0L12,0z"/>
	</g>
	<path display="inline" fill="none" stroke="#ED1C24" stroke-width="2" stroke-miterlimit="10" d="M14,7c1.7,0,3,1.3,3,3s-1.3,3-3,3
		"/>
	<path display="inline" fill="none" stroke="#ED1C24" stroke-width="2" stroke-miterlimit="10" d="M14,13c1.7,0,3,1.3,3,3
		s-1.3,3-3,3"/>
	<line display="inline" fill="none" stroke="#ED1C24" stroke-width="2" stroke-miterlimit="10" x1="8" y1="13" x2="6" y2="13"/>
	<line display="inline" fill="none" stroke="#ED1C24" stroke-width="2" stroke-miterlimit="10" x1="12" y1="13" x2="10" y2="13"/>
</g>
</svg>
