<?xml version="1.0" encoding="utf-8"?>
<!-- Generator: Adobe Illustrator 19.2.1, SVG Export Plug-In . SVG Version: 6.00 Build 0)  -->
<!DOCTYPE svg PUBLIC "-//W3C//DTD SVG 1.1//EN" "http://www.w3.org/Graphics/SVG/1.1/DTD/svg11.dtd">
<svg version="1.1" xmlns="http://www.w3.org/2000/svg" xmlns:xlink="http://www.w3.org/1999/xlink" x="0px" y="0px"
	 viewBox="0 0 24 24" enable-background="new 0 0 24 24" xml:space="preserve">
<g id="Layer_1">
	<path d="M24,2v8h-8V8h5.2C19.6,4.4,16,2,12,2C6.5,2,2,6.5,2,12H0C0,5.4,5.4,0,12,0c4.1,0,7.8,2.1,10,5.4V2H24z M12,22
		c-4,0-7.6-2.4-9.2-6H8v-2H0v8h2v-3.4C4.2,21.9,7.9,24,12,24c6.6,0,12-5.4,12-12h-2C22,17.5,17.5,22,12,22z"/>
</g>
<g id="Layer_2" display="none">
	<g display="inline">
		<polyline fill="none" stroke="#ED1C24" stroke-width="2" stroke-miterlimit="10" points="23,2 23,9 16,9 		"/>
		<polyline fill="none" stroke="#ED1C24" stroke-width="2" stroke-miterlimit="10" points="1,22 1,15 8,15 		"/>
		<path fill="none" stroke="#ED1C24" stroke-width="2" stroke-miterlimit="10" d="M1,12C1,5.9,5.9,1,12,1c5,0,9.3,3.4,10.6,8"/>
		<path fill="none" stroke="#ED1C24" stroke-width="2" stroke-miterlimit="10" d="M23,12c0,6.1-4.9,11-11,11c-5,0-9.3-3.4-10.6-8"/>
	</g>
</g>
</svg>
