<?xml version="1.0" encoding="utf-8"?>
<!-- Generator: Adobe Illustrator 19.2.1, SVG Export Plug-In . SVG Version: 6.00 Build 0)  -->
<!DOCTYPE svg PUBLIC "-//W3C//DTD SVG 1.1//EN" "http://www.w3.org/Graphics/SVG/1.1/DTD/svg11.dtd">
<svg version="1.1" xmlns="http://www.w3.org/2000/svg" xmlns:xlink="http://www.w3.org/1999/xlink" x="0px" y="0px"
	 viewBox="0 0 24 24" enable-background="new 0 0 24 24" xml:space="preserve">
<g id="Layer_1">
	<path d="M12,0L5.7,11H0v2h4.6C4.2,13.9,4,14.9,4,16c0,4.4,3.6,8,8,8c4.4,0,8-3.6,8-8c0-1.1-0.2-2.1-0.6-3H24v-2h-5.7L12,0z M12,22
		c-3.3,0-6-2.7-6-6c0-0.8,0.1-1.5,0.4-2.2L12,4l5.6,9.7c0.3,0.7,0.4,1.5,0.4,2.2C18,19.3,15.3,22,12,22z M14,16h2c0,2.2-1.8,4-4,4
		v-2C13.1,18,14,17.1,14,16z"/>
</g>
<g id="Layer_2" display="none">
	<g display="inline">
		<g>
			<path fill="#ED1C24" d="M12,4l5.6,9.7c0.3,0.7,0.4,1.5,0.4,2.2c0,3.3-2.7,6-6,6s-6-2.7-6-6c0-0.8,0.1-1.5,0.4-2.2L12,4 M12,0
				L4.6,12.9c-0.4,1-0.6,2-0.6,3.1c0,4.4,3.6,8,8,8c4.4,0,8-3.6,8-8c0-1.1-0.2-2.2-0.6-3.1L12,0L12,0z"/>
		</g>
	</g>
	<line display="inline" fill="none" stroke="#ED1C24" stroke-width="2" stroke-miterlimit="10" x1="6" y1="12" x2="0" y2="12"/>
	<line display="inline" fill="none" stroke="#ED1C24" stroke-width="2" stroke-miterlimit="10" x1="24" y1="12" x2="18" y2="12"/>
	<path display="inline" fill="none" stroke="#ED1C24" stroke-width="2" stroke-miterlimit="10" d="M15,16c0,1.7-1.3,3-3,3"/>
</g>
</svg>
