<?xml version="1.0" encoding="utf-8"?>
<!-- Generator: Adobe Illustrator 21.0.0, SVG Export Plug-In . SVG Version: 6.00 Build 0)  -->
<!DOCTYPE svg PUBLIC "-//W3C//DTD SVG 1.1//EN" "http://www.w3.org/Graphics/SVG/1.1/DTD/svg11.dtd">
<svg version="1.1" xmlns="http://www.w3.org/2000/svg" xmlns:xlink="http://www.w3.org/1999/xlink" x="0px" y="0px"
	 viewBox="0 0 24 24" enable-background="new 0 0 24 24" xml:space="preserve">
<g id="Layer_1">
	<path d="M24,18H0v-2h24V18z M18,7c0-1.1-0.9-2-2-2s-2,0.9-2,2s0.9,2,2,2S18,8.1,18,7z M16,7L16,7L16,7z M10,7c0-1.1-0.9-2-2-2
		S6,5.9,6,7s0.9,2,2,2S10,8.1,10,7z M8,7L8,7L8,7z M22,12c0-1.1-0.9-2-2-2s-2,0.9-2,2s0.9,2,2,2S22,13.1,22,12z M20,12L20,12L20,12z
		 M14,12c0-1.1-0.9-2-2-2s-2,0.9-2,2s0.9,2,2,2S14,13.1,14,12z M12,12L12,12L12,12z M6,12c0-1.1-0.9-2-2-2s-2,0.9-2,2s0.9,2,2,2
		S6,13.1,6,12z M4,12L4,12L4,12z"/>
</g>
<g id="Layer_2" display="none">
	<line display="inline" fill="none" stroke="#ED1C24" stroke-width="2" stroke-miterlimit="10" x1="0" y1="17" x2="24" y2="17"/>
	<circle display="inline" fill="none" stroke="#ED1C24" stroke-width="2" stroke-miterlimit="10" cx="16" cy="7" r="1"/>
	<circle display="inline" fill="none" stroke="#ED1C24" stroke-width="2" stroke-miterlimit="10" cx="8" cy="7" r="1"/>
	<circle display="inline" fill="none" stroke="#ED1C24" stroke-width="2" stroke-miterlimit="10" cx="20" cy="12" r="1"/>
	<circle display="inline" fill="none" stroke="#ED1C24" stroke-width="2" stroke-miterlimit="10" cx="12" cy="12" r="1"/>
	<circle display="inline" fill="none" stroke="#ED1C24" stroke-width="2" stroke-miterlimit="10" cx="4" cy="12" r="1"/>
</g>
</svg>
