<?xml version="1.0" encoding="utf-8"?>
<!-- Generator: Adobe Illustrator 21.0.0, SVG Export Plug-In . SVG Version: 6.00 Build 0)  -->
<!DOCTYPE svg PUBLIC "-//W3C//DTD SVG 1.1//EN" "http://www.w3.org/Graphics/SVG/1.1/DTD/svg11.dtd">
<svg version="1.1" xmlns="http://www.w3.org/2000/svg" xmlns:xlink="http://www.w3.org/1999/xlink" x="0px" y="0px"
	 viewBox="0 0 24 24" enable-background="new 0 0 24 24" xml:space="preserve">
<g id="Layer_1">
	<path d="M24,16v2H0v-2H24z M1.6,11.4l5.1-1.4l5.3,3.1l5.3-3.1l5.1,1.4l0.5-1.9l-3.1-0.8l3.1-1.8l-1-1.7l-3.1,1.8l0.8-3.1l-1.9-0.5
		l-1.4,5.1L13,10.3V6.4l3.7-3.7l-1.4-1.4L13,3.6V0h-2v3.6L8.7,1.3L7.3,2.7L11,6.4v3.9L7.7,8.3L6.3,3.3L4.4,3.8l0.8,3.1L2.1,5.1
		l-1,1.7l3.1,1.8L1.1,9.5L1.6,11.4z"/>
</g>
<g id="Layer_2" display="none">
	<line display="inline" fill="none" stroke="#ED1C24" stroke-width="2" stroke-miterlimit="10" x1="0" y1="17" x2="24" y2="17"/>
	<line display="inline" fill="none" stroke="#ED1C24" stroke-width="2" stroke-miterlimit="10" x1="12" y1="12" x2="12" y2="0"/>
	<polyline display="inline" fill="none" stroke="#ED1C24" stroke-width="2" stroke-miterlimit="10" points="8,2 12,6 16,2 	"/>
	<polyline display="inline" fill="none" stroke="#ED1C24" stroke-width="2" stroke-miterlimit="10" points="18.7,3.5 17.2,9 
		22.7,10.5 	"/>
	<polyline display="inline" fill="none" stroke="#ED1C24" stroke-width="2" stroke-miterlimit="10" points="1.6,6 12,12 22.4,6 	"/>
	<polyline display="inline" fill="none" stroke="#ED1C24" stroke-width="2" stroke-miterlimit="10" points="5.3,3.5 6.8,9 1.3,10.5 
			"/>
</g>
</svg>
