<?xml version="1.0" encoding="utf-8"?>
<!-- Generator: Adobe Illustrator 21.0.0, SVG Export Plug-In . SVG Version: 6.00 Build 0)  -->
<!DOCTYPE svg PUBLIC "-//W3C//DTD SVG 1.1//EN" "http://www.w3.org/Graphics/SVG/1.1/DTD/svg11.dtd">
<svg version="1.1" xmlns="http://www.w3.org/2000/svg" xmlns:xlink="http://www.w3.org/1999/xlink" x="0px" y="0px"
	 viewBox="0 0 24 24" enable-background="new 0 0 24 24" xml:space="preserve">
<g id="Layer_1">
	<path d="M8,9C6.9,9,6,8.1,6,7s0.9-2,2-2s2,0.9,2,2S9.1,9,8,9z M8,7L8,7L8,7z M20,14c-1.1,0-2-0.9-2-2s0.9-2,2-2s2,0.9,2,2
		S21.1,14,20,14z M20,12L20,12L20,12z M4,14c-1.1,0-2-0.9-2-2s0.9-2,2-2s2,0.9,2,2S5.1,14,4,14z M4,12L4,12L4,12z M23.7,1.7
		l-1.4-1.4l-22,22l1.4,1.4L23.7,1.7z M10.2,18H24v-2H12.2L10.2,18z M3.8,16H0v2h1.8L3.8,16z"/>
</g>
<g id="Layer_2" display="none">
	<circle display="inline" fill="none" stroke="#ED1C24" stroke-width="2" stroke-miterlimit="10" cx="8" cy="7" r="1"/>
	<circle display="inline" fill="none" stroke="#ED1C24" stroke-width="2" stroke-miterlimit="10" cx="20" cy="12" r="1"/>
	<circle display="inline" fill="none" stroke="#ED1C24" stroke-width="2" stroke-miterlimit="10" cx="4" cy="12" r="1"/>
	<line display="inline" fill="none" stroke="#ED1C24" stroke-width="2" stroke-miterlimit="10" x1="23" y1="1" x2="1" y2="23"/>
	<g display="inline">
		<polygon fill="#ED1C24" points="10.2,18 24,18 24,16 12.2,16 		"/>
		<polygon fill="#ED1C24" points="3.8,16 0,16 0,18 1.8,18 		"/>
	</g>
</g>
</svg>
