<?xml version="1.0" encoding="utf-8"?>
<!-- Generator: Adobe Illustrator 19.2.1, SVG Export Plug-In . SVG Version: 6.00 Build 0)  -->
<!DOCTYPE svg PUBLIC "-//W3C//DTD SVG 1.1//EN" "http://www.w3.org/Graphics/SVG/1.1/DTD/svg11.dtd">
<svg version="1.1" xmlns="http://www.w3.org/2000/svg" xmlns:xlink="http://www.w3.org/1999/xlink" x="0px" y="0px"
	 viewBox="0 0 24 24" enable-background="new 0 0 24 24" xml:space="preserve">
<g id="Layer_1">
	<path d="M22,2.8H2c-1.1,0-2,0.9-2,2v14.5c0,1.1,0.9,2,2,2h20c1.1,0,2-0.9,2-2V4.8C24,3.6,23.1,2.8,22,2.8z M22,19.2H2V4.8h20
		L22,19.2z M6,14h1c1.7,0,3-1.3,3-3c0-1.7-1.3-3-3-3H4v8h2V14z M6,10h1c0.6,0,1,0.4,1,1s-0.4,1-1,1H6V10z M14,16h-2V7.6l4,4l4-4V16
		h-2v-3.6l-2,2l-2-2V16z"/>
</g>
<g id="Layer_2" display="none">
	<path display="inline" fill="none" stroke="#ED1C24" stroke-width="2" stroke-miterlimit="10" d="M22,20.2H2c-0.5,0-1-0.5-1-1V4.8
		c0-0.6,0.5-1,1-1h20c0.5,0,1,0.4,1,1v14.5C23,19.8,22.5,20.2,22,20.2z"/>
	
		<line display="inline" fill="none" stroke="#ED1C24" stroke-width="2" stroke-linejoin="bevel" stroke-miterlimit="10" x1="5" y1="8" x2="5" y2="16"/>
	<polyline display="inline" fill="none" stroke="#ED1C24" stroke-width="2" stroke-miterlimit="10" points="13,16 13,10 16,13 
		19,10 19,16 	"/>
	<g display="inline">
		<path fill="#ED1C24" d="M7,10c0.6,0,1,0.4,1,1s-0.4,1-1,1H6v-2H7 M7,8H4v6h3c1.7,0,3-1.3,3-3C10,9.3,8.7,8,7,8L7,8z"/>
	</g>
</g>
</svg>
