<?xml version="1.0" encoding="utf-8"?>
<!-- Generator: Adobe Illustrator 21.0.0, SVG Export Plug-In . SVG Version: 6.00 Build 0)  -->
<!DOCTYPE svg PUBLIC "-//W3C//DTD SVG 1.1//EN" "http://www.w3.org/Graphics/SVG/1.1/DTD/svg11.dtd">
<svg version="1.1" xmlns="http://www.w3.org/2000/svg" xmlns:xlink="http://www.w3.org/1999/xlink" x="0px" y="0px"
	 viewBox="0 0 24 24" enable-background="new 0 0 24 24" xml:space="preserve">
<g id="Layer_1">
	<path d="M19,14c-2.8,0-5,2.2-5,5c0,0.9,0.2,1.7,0.6,2.4C8.8,19.9,4.1,15.2,2.6,9.4C3.3,9.8,4.1,10,5,10c2.8,0,5-2.2,5-5L5,0
		C2.2,0,0,2.2,0,5c0,10.5,8.5,19,19,19c2.8,0,5-2.2,5-5L19,14z M4.3,2.1l3.6,3.6C7.6,7,6.4,8,5,8C3.3,8,2,6.7,2,5
		C2,3.6,3,2.4,4.3,2.1z M19,22c-1.7,0-3-1.3-3-3c0-1.4,1-2.6,2.3-2.9l3.6,3.6C21.6,21,20.4,22,19,22z M17,11.4l-3.7-3.7l1.4-1.4
		L17,8.6l5.3-5.3l1.4,1.4L17,11.4z"/>
</g>
<g id="Layer_2" display="none">
	<g display="inline">
		<path fill="none" stroke="#ED1C24" stroke-width="2" stroke-miterlimit="10" d="M1,5c0,9.9,8.1,18,18,18"/>
		<g>
			<path fill="#ED1C24" d="M4.3,2.1l3.6,3.6C7.6,7,6.4,8,5,8C3.3,8,2,6.7,2,5C2,3.6,3,2.4,4.3,2.1 M5,0C2.2,0,0,2.2,0,5s2.2,5,5,5
				s5-2.2,5-5L5,0L5,0z"/>
		</g>
		<g>
			<path fill="#ED1C24" d="M18.3,16.1l3.6,3.6C21.6,21,20.4,22,19,22c-1.7,0-3-1.3-3-3C16,17.6,17,16.4,18.3,16.1 M19,14
				c-2.8,0-5,2.2-5,5s2.2,5,5,5s5-2.2,5-5L19,14L19,14z"/>
		</g>
	</g>
	<polyline display="inline" fill="none" stroke="#ED1C24" stroke-width="2" stroke-miterlimit="10" points="23,4 17,10 14,7 	"/>
</g>
</svg>
