<?xml version="1.0" encoding="utf-8"?>
<!-- Generator: Adobe Illustrator 19.2.1, SVG Export Plug-In . SVG Version: 6.00 Build 0)  -->
<!DOCTYPE svg PUBLIC "-//W3C//DTD SVG 1.1//EN" "http://www.w3.org/Graphics/SVG/1.1/DTD/svg11.dtd">
<svg version="1.1" xmlns="http://www.w3.org/2000/svg" xmlns:xlink="http://www.w3.org/1999/xlink" x="0px" y="0px"
	 viewBox="0 0 24 24" enable-background="new 0 0 24 24" xml:space="preserve">
<g id="Layer_1">
	<path d="M12,2c5.5,0,10,3.3,10,7.3s-4.5,7.3-10,7.3c-0.6,0-1.3,0-1.9-0.1l-0.7-0.1l-5.2,2.9l1.8-4l-1.2-1C3,13,2,11.2,2,9.3
		C2,5.3,6.5,2,12,2 M12,0C5.4,0,0,4.2,0,9.3c0,2.6,1.3,4.9,3.5,6.6L0,24l9.8-5.5c0.7,0.1,1.5,0.2,2.2,0.2c6.6,0,12-4.2,12-9.3
		S18.6,0,12,0L12,0z"/>
</g>
<g id="Layer_2" display="none">
	<g display="inline">
		<path fill="#ED1C24" d="M12,2c5.5,0,10,3.3,10,7.3s-4.5,7.3-10,7.3c-0.6,0-1.3,0-1.9-0.1l-0.7-0.1l-0.6,0.3l-4.6,2.6l1.1-2.6
			L6,15.3l-1.2-1C3,13,2,11.2,2,9.3C2,5.3,6.5,2,12,2 M12,0C5.4,0,0,4.2,0,9.3c0,2.6,1.3,4.9,3.5,6.6L0,24l9.8-5.5
			c0.7,0.1,1.5,0.2,2.2,0.2c6.6,0,12-4.2,12-9.3S18.6,0,12,0L12,0z"/>
	</g>
</g>
</svg>
