<?xml version="1.0" encoding="utf-8"?>
<!-- Generator: Adobe Illustrator 21.0.0, SVG Export Plug-In . SVG Version: 6.00 Build 0)  -->
<!DOCTYPE svg PUBLIC "-//W3C//DTD SVG 1.1//EN" "http://www.w3.org/Graphics/SVG/1.1/DTD/svg11.dtd">
<svg version="1.1" xmlns="http://www.w3.org/2000/svg" xmlns:xlink="http://www.w3.org/1999/xlink" x="0px" y="0px"
	 viewBox="0 0 24 24" enable-background="new 0 0 24 24" xml:space="preserve">
<g id="Layer_1">
	<path d="M0,0v24h11h1h1c0-2.8,2.2-5,5-5h1v-1c0-2.8,2.2-5,5-5v-0.9V11V0H0z M17.1,17.1c-2.7,0.4-5,2.3-5.8,4.9H2V2h20v9.3
		C19.4,12.1,17.4,14.3,17.1,17.1z M12,6H8v12h2v-4h2c2.2,0,4-1.8,4-4S14.2,6,12,6z M12,12h-2V8h2c1.1,0,2,0.9,2,2S13.1,12,12,12z"/>
</g>
<g id="Layer_2" display="none">
	<polyline display="inline" fill="none" stroke="#ED1C24" stroke-width="2" stroke-miterlimit="10" points="12,23 1,23 1,1 23,1 
		23,12.1 	"/>
	<path display="inline" fill="none" stroke="#ED1C24" stroke-width="2" stroke-miterlimit="10" d="M9,18V7h3c1.7,0,3,1.3,3,3
		s-1.3,3-3,3H9"/>
	<path display="inline" fill="none" stroke="#ED1C24" stroke-width="2" stroke-miterlimit="10" d="M12,24c0-3.3,2.7-6,6-6
		c0-3.3,2.7-6,6-6"/>
</g>
</svg>
