<?xml version="1.0" encoding="utf-8"?>
<!-- Generator: Adobe Illustrator 19.2.1, SVG Export Plug-In . SVG Version: 6.00 Build 0)  -->
<!DOCTYPE svg PUBLIC "-//W3C//DTD SVG 1.1//EN" "http://www.w3.org/Graphics/SVG/1.1/DTD/svg11.dtd">
<svg version="1.1" xmlns="http://www.w3.org/2000/svg" xmlns:xlink="http://www.w3.org/1999/xlink" x="0px" y="0px"
	 viewBox="0 0 24 24" enable-background="new 0 0 24 24" xml:space="preserve">
<g id="Layer_1">
	<path d="M0,24h24V0H0V24z M2,2h20v20H2V2z M12,6H8v12h2v-4h2c2.2,0,4-1.8,4-4S14.2,6,12,6z M12,12h-2V8h2c1.1,0,2,0.9,2,2
		S13.1,12,12,12z"/>
</g>
<g id="Layer_2" display="none">
	
		<rect x="1" y="1" display="inline" fill="none" stroke="#ED1C24" stroke-width="2" stroke-miterlimit="10" width="22" height="22"/>
	<path display="inline" fill="none" stroke="#ED1C24" stroke-width="2" stroke-miterlimit="10" d="M9,18V7h3c1.7,0,3,1.3,3,3
		s-1.3,3-3,3H9"/>
</g>
</svg>
