<?xml version="1.0" encoding="utf-8"?>
<!-- Generator: Adobe Illustrator 19.2.1, SVG Export Plug-In . SVG Version: 6.00 Build 0)  -->
<!DOCTYPE svg PUBLIC "-//W3C//DTD SVG 1.1//EN" "http://www.w3.org/Graphics/SVG/1.1/DTD/svg11.dtd">
<svg version="1.1" xmlns="http://www.w3.org/2000/svg" xmlns:xlink="http://www.w3.org/1999/xlink" x="0px" y="0px"
	 viewBox="0 0 24 24" enable-background="new 0 0 24 24" xml:space="preserve">
<g id="Layer_1">
	<path d="M4,24h2V12h14V0H4V24z M6,2h12v8H6V2z M16,6h-2h-4H8V4h8V6z M10,6c0.6,0,1,0.4,1,1c0,0.6-0.4,1-1,1S9,7.6,9,7
		C9,6.4,9.4,6,10,6z M14,6c0.6,0,1,0.4,1,1c0,0.6-0.4,1-1,1s-1-0.4-1-1C13,6.4,13.4,6,14,6z"/>
</g>
<g id="Layer_2" display="none">
	<line display="inline" fill="none" stroke="#ED1C24" stroke-width="2" stroke-miterlimit="10" x1="5" y1="11" x2="5" y2="24"/>
	
		<rect x="5" y="1" display="inline" fill="none" stroke="#ED1C24" stroke-width="2" stroke-miterlimit="10" width="14" height="10"/>
	<line display="inline" fill="none" stroke="#ED1C24" stroke-width="2" stroke-miterlimit="10" x1="8" y1="5" x2="16" y2="5"/>
	<g display="inline">
		<path fill="#ED1C24" d="M10,6C9.4,6,9,6.4,9,7s0.4,1,1,1s1-0.4,1-1S10.6,6,10,6L10,6z"/>
	</g>
	<g display="inline">
		<path fill="#ED1C24" d="M14,6c-0.6,0-1,0.4-1,1s0.4,1,1,1s1-0.4,1-1S14.6,6,14,6L14,6z"/>
	</g>
</g>
</svg>
