<?xml version="1.0" encoding="utf-8"?>
<!-- Generator: Adobe Illustrator 19.2.1, SVG Export Plug-In . SVG Version: 6.00 Build 0)  -->
<!DOCTYPE svg PUBLIC "-//W3C//DTD SVG 1.1//EN" "http://www.w3.org/Graphics/SVG/1.1/DTD/svg11.dtd">
<svg version="1.1" xmlns="http://www.w3.org/2000/svg" xmlns:xlink="http://www.w3.org/1999/xlink" x="0px" y="0px"
	 viewBox="0 0 24 24" enable-background="new 0 0 24 24" xml:space="preserve">
<g id="Layer_1">
	<path d="M12,0C5.4,0,0,5.4,0,12s5.4,12,12,12s12-5.4,12-12S18.6,0,12,0z M12,22C6.5,22,2,17.5,2,12S6.5,2,12,2s10,4.5,10,10
		S17.5,22,12,22z M18,12c0,3.3-2.7,6-6,6s-6-2.7-6-6s2.7-6,6-6S18,8.7,18,12z"/>
</g>
<g id="Layer_2" display="none">
	<g display="inline">
		<circle fill="none" stroke="#ED1C24" stroke-width="2" stroke-miterlimit="10" cx="12" cy="12" r="11"/>
		<circle fill="none" stroke="#ED1C24" stroke-width="2" stroke-miterlimit="10" cx="12" cy="12" r="5"/>
		<circle fill="none" stroke="#ED1C24" stroke-width="2" stroke-miterlimit="10" cx="12" cy="12" r="3"/>
		<circle fill="none" stroke="#ED1C24" stroke-width="2" stroke-miterlimit="10" cx="12" cy="12" r="1"/>
	</g>
</g>
</svg>
