<?xml version="1.0" encoding="utf-8"?>
<!-- Generator: Adobe Illustrator 21.0.0, SVG Export Plug-In . SVG Version: 6.00 Build 0)  -->
<!DOCTYPE svg PUBLIC "-//W3C//DTD SVG 1.1//EN" "http://www.w3.org/Graphics/SVG/1.1/DTD/svg11.dtd">
<svg version="1.1" xmlns="http://www.w3.org/2000/svg" xmlns:xlink="http://www.w3.org/1999/xlink" x="0px" y="0px"
	 viewBox="0 0 24 24" enable-background="new 0 0 24 24" xml:space="preserve">
<g id="Layer_1">
	<path d="M18.9,10H20V8h-2V6h2V4h-2V2h2V0h-2h-2H8H6H4v2h2v2H4v2h2v2H4v2h1.1l-2.7,4H0v2h2v2H0v2h2v2H0v2h2h2h16h2h2v-2h-2v-2h2v-2
		h-2v-2h2v-2h-2.5L18.9,10z M8,2h8v2H8V2z M8,6h8v2H8V6z M7.5,10h8.9l2.7,4H4.9L7.5,10z M20,22H4v-2h16V22z M20,18H4v-2h16V18z"/>
</g>
<g id="Layer_2" display="none">
	<line display="inline" fill="none" stroke="#ED1C24" stroke-width="2" stroke-miterlimit="10" x1="4" y1="1" x2="20" y2="1"/>
	<line display="inline" fill="none" stroke="#ED1C24" stroke-width="2" stroke-miterlimit="10" x1="4" y1="5" x2="20" y2="5"/>
	<line display="inline" fill="none" stroke="#ED1C24" stroke-width="2" stroke-miterlimit="10" x1="4" y1="9" x2="20" y2="9"/>
	<line display="inline" fill="none" stroke="#ED1C24" stroke-width="2" stroke-miterlimit="10" x1="0" y1="19" x2="24" y2="19"/>
	<line display="inline" fill="none" stroke="#ED1C24" stroke-width="2" stroke-miterlimit="10" x1="0" y1="15" x2="24" y2="15"/>
	<line display="inline" fill="none" stroke="#ED1C24" stroke-width="2" stroke-miterlimit="10" x1="0" y1="23" x2="24" y2="23"/>
	<polyline display="inline" fill="none" stroke="#ED1C24" stroke-width="2" stroke-miterlimit="10" points="7,0 7,9 3,15 3,24 	"/>
	<polyline display="inline" fill="none" stroke="#ED1C24" stroke-width="2" stroke-miterlimit="10" points="17,0 17,9 21,15 21,24 	
		"/>
</g>
</svg>
