<?xml version="1.0" encoding="utf-8"?>
<!-- Generator: Adobe Illustrator 19.2.1, SVG Export Plug-In . SVG Version: 6.00 Build 0)  -->
<!DOCTYPE svg PUBLIC "-//W3C//DTD SVG 1.1//EN" "http://www.w3.org/Graphics/SVG/1.1/DTD/svg11.dtd">
<svg version="1.1" xmlns="http://www.w3.org/2000/svg" xmlns:xlink="http://www.w3.org/1999/xlink" x="0px" y="0px"
	 viewBox="0 0 24 24" enable-background="new 0 0 24 24" xml:space="preserve">
<g id="Layer_1">
	<path d="M17,2h-2V0h-2v2H7C5.9,2,5,2.9,5,4v18c0,1.1,0.9,2,2,2h10c1.1,0,2-0.9,2-2V4C19,2.9,18.1,2,17,2z M17,4l0,6H7V4H17z M11,18
		v-2h2v2H11z M13,20v2h-2v-2H13z M13,12v2h-2v-2H13z M9,14H7v-2h2V14z M9,16v2H7v-2H9z M15,16h2l0,2h-2V16z M15,14v-2h2l0,2H15z
		 M7,20h2v2H7V20z M15,22v-2h2l0,2H15z"/>
</g>
<g id="Layer_2" display="none">
	<g display="inline">
		<path fill="none" stroke="#ED1C24" stroke-width="2" stroke-miterlimit="10" d="M17,23H7c-0.6,0-1-0.5-1-1V4c0-0.5,0.4-1,1-1h10
			c0.5,0,1,0.5,1,1v18C18,22.5,17.5,23,17,23z"/>
		<line fill="none" stroke="#ED1C24" stroke-width="2" stroke-miterlimit="10" x1="6" y1="19" x2="18" y2="19"/>
		<line fill="none" stroke="#ED1C24" stroke-width="2" stroke-miterlimit="10" x1="10" y1="23" x2="10" y2="11"/>
		<line fill="none" stroke="#ED1C24" stroke-width="2" stroke-miterlimit="10" x1="14" y1="23" x2="14" y2="11"/>
		<line fill="none" stroke="#ED1C24" stroke-width="2" stroke-miterlimit="10" x1="14" y1="3" x2="14" y2="0"/>
		<line fill="none" stroke="#ED1C24" stroke-width="2" stroke-miterlimit="10" x1="6" y1="15" x2="18" y2="15"/>
		<line fill="none" stroke="#ED1C24" stroke-width="2" stroke-miterlimit="10" x1="6" y1="11" x2="18" y2="11"/>
	</g>
</g>
</svg>
