<?xml version="1.0" encoding="utf-8"?>
<!-- Generator: Adobe Illustrator 19.2.1, SVG Export Plug-In . SVG Version: 6.00 Build 0)  -->
<!DOCTYPE svg PUBLIC "-//W3C//DTD SVG 1.1//EN" "http://www.w3.org/Graphics/SVG/1.1/DTD/svg11.dtd">
<svg version="1.1" xmlns="http://www.w3.org/2000/svg" xmlns:xlink="http://www.w3.org/1999/xlink" x="0px" y="0px"
	 viewBox="0 0 24 24" enable-background="new 0 0 24 24" xml:space="preserve">
<g id="Layer_1">
	<path d="M24,13v-2h-2.1c-0.2-2-1-3.8-2.2-5.3l1.5-1.5l-1.4-1.4l-1.5,1.5C16.8,3,15,2.3,13,2.1V0h-2v2.1C9,2.3,7.2,3,5.7,4.3
		L4.2,2.8L2.8,4.2l1.5,1.5C3,7.2,2.3,9,2.1,11H0v2h2.1c0.2,2,1,3.8,2.2,5.3l-1.5,1.5l1.4,1.4l1.5-1.5c1.5,1.2,3.3,2,5.3,2.2V24h2
		v-2.1c2-0.2,3.8-1,5.3-2.2l1.5,1.5l1.4-1.4l-1.5-1.5c1.2-1.5,2-3.3,2.2-5.3H24z M12,4c4.4,0,8,3.6,8,8s-3.6,8-8,8s-8-3.6-8-8
		S7.6,4,12,4z"/>
</g>
<g id="Layer_2" display="none">
	<g display="inline">
		<circle fill="none" stroke="#ED1C24" stroke-width="2" stroke-miterlimit="10" cx="12" cy="12" r="9"/>
		<line fill="none" stroke="#ED1C24" stroke-width="2" stroke-miterlimit="10" x1="12" y1="0" x2="12" y2="4"/>
		<line fill="none" stroke="#ED1C24" stroke-width="2" stroke-miterlimit="10" x1="12" y1="20" x2="12" y2="24"/>
		<line fill="none" stroke="#ED1C24" stroke-width="2" stroke-miterlimit="10" x1="3.5" y1="3.5" x2="6.3" y2="6.3"/>
		<line fill="none" stroke="#ED1C24" stroke-width="2" stroke-miterlimit="10" x1="17.7" y1="17.7" x2="20.5" y2="20.5"/>
		<line fill="none" stroke="#ED1C24" stroke-width="2" stroke-miterlimit="10" x1="0" y1="12" x2="4" y2="12"/>
		<line fill="none" stroke="#ED1C24" stroke-width="2" stroke-miterlimit="10" x1="20" y1="12" x2="24" y2="12"/>
		<line fill="none" stroke="#ED1C24" stroke-width="2" stroke-miterlimit="10" x1="3.5" y1="20.5" x2="6.3" y2="17.7"/>
		<line fill="none" stroke="#ED1C24" stroke-width="2" stroke-miterlimit="10" x1="17.7" y1="6.3" x2="20.5" y2="3.5"/>
	</g>
</g>
</svg>
