<?xml version="1.0" encoding="utf-8"?>
<!-- Generator: Adobe Illustrator 20.1.0, SVG Export Plug-In . SVG Version: 6.00 Build 0)  -->
<!DOCTYPE svg PUBLIC "-//W3C//DTD SVG 1.1//EN" "http://www.w3.org/Graphics/SVG/1.1/DTD/svg11.dtd">
<svg version="1.1" xmlns="http://www.w3.org/2000/svg" xmlns:xlink="http://www.w3.org/1999/xlink" x="0px" y="0px"
	 viewBox="0 0 24 24" enable-background="new 0 0 24 24" xml:space="preserve">
<g id="Layer_1">
	<path d="M14.3,8.3l1.4,1.4l4-4l0,0C20.1,5.9,20.5,6,21,6c1.7,0,3-1.3,3-3s-1.3-3-3-3s-3,1.3-3,3c0,0.5,0.1,0.9,0.3,1.3l0,0
		L14.3,8.3z M21,2c0.6,0,1,0.4,1,1s-0.4,1-1,1s-1-0.4-1-1S20.4,2,21,2z M9.7,15.7l-1.4-1.4l-4,4l0,0C3.9,18.1,3.5,18,3,18
		c-1.7,0-3,1.3-3,3s1.3,3,3,3s3-1.3,3-3c0-0.5-0.1-0.9-0.3-1.3l0,0L9.7,15.7z M3,22c-0.6,0-1-0.4-1-1s0.4-1,1-1s1,0.4,1,1
		S3.6,22,3,22z M19.7,12.6l-2.8,2.8L4.4,3l1.4-1.4L4.4,0.2L0.2,4.4l1.4,1.4L3,4.4l12.5,12.5l-2.8,2.8l2.8,2.8
		c0.9,0.9,2.2,1.5,3.5,1.5s2.6-0.5,3.5-1.5c1.9-1.9,1.9-5.1,0-7.1L19.7,12.6z M21.1,21.1c-1.1,1.1-3.1,1.1-4.2,0l-1.4-1.4l4.2-4.2
		l1.4,1.4C22.3,18,22.3,20,21.1,21.1z"/>
</g>
<g id="Layer_2" display="none">
	<circle display="inline" fill="none" stroke="#ED1C24" stroke-width="2" stroke-miterlimit="10" cx="3" cy="21" r="2"/>
	<circle display="inline" fill="none" stroke="#ED1C24" stroke-width="2" stroke-miterlimit="10" cx="21" cy="3" r="2"/>
	<line display="inline" fill="none" stroke="#ED1C24" stroke-width="2" stroke-miterlimit="10" x1="15" y1="9" x2="19" y2="5"/>
	<line display="inline" fill="none" stroke="#ED1C24" stroke-width="2" stroke-miterlimit="10" x1="5" y1="19" x2="9" y2="15"/>
	<path display="inline" fill="none" stroke="#ED1C24" stroke-width="2" stroke-miterlimit="10" d="M21.8,16.2c1.6,1.6,1.6,4.1,0,5.7
		c-1.6,1.6-4.1,1.6-5.7,0l-2.1-2.1l5.7-5.7L21.8,16.2z"/>
	<line display="inline" fill="none" stroke="#ED1C24" stroke-width="2" stroke-miterlimit="10" x1="16.9" y1="16.9" x2="3" y2="3"/>
	
		<line display="inline" fill="none" stroke="#ED1C24" stroke-width="2" stroke-miterlimit="10" x1="5.1" y1="0.9" x2="0.9" y2="5.1"/>
</g>
</svg>
