<?xml version="1.0" encoding="utf-8"?>
<!-- Generator: Adobe Illustrator 19.2.1, SVG Export Plug-In . SVG Version: 6.00 Build 0)  -->
<!DOCTYPE svg PUBLIC "-//W3C//DTD SVG 1.1//EN" "http://www.w3.org/Graphics/SVG/1.1/DTD/svg11.dtd">
<svg version="1.1" xmlns="http://www.w3.org/2000/svg" xmlns:xlink="http://www.w3.org/1999/xlink" x="0px" y="0px"
	 viewBox="0 0 24 24" enable-background="new 0 0 24 24" xml:space="preserve">
<g id="Layer_1">
	<path d="M21,0c-1.7,0-3,1.3-3,3c0,0.5,0.1,0.9,0.3,1.3l0,0l-2.5,2.5c-0.3-0.1-0.5-0.2-0.8-0.2c-1.3,0-2.4,1.1-2.4,2.4
		c0,0.3,0.1,0.6,0.2,0.8l-3,3c-0.3-0.1-0.5-0.2-0.8-0.2c-1.3,0-2.4,1.1-2.4,2.4c0,0.3,0.1,0.6,0.2,0.8l-2.5,2.5l0,0
		C3.9,18.1,3.5,18,3,18c-1.7,0-3,1.3-3,3s1.3,3,3,3s3-1.3,3-3c0-0.5-0.1-0.9-0.3-1.3l0,0l2.5-2.5c0.3,0.1,0.5,0.2,0.8,0.2
		c1.3,0,2.4-1.1,2.4-2.4c0-0.3-0.1-0.6-0.2-0.8l3-3c0.3,0.1,0.5,0.2,0.8,0.2c1.3,0,2.4-1.1,2.4-2.4c0-0.3-0.1-0.6-0.2-0.8l2.5-2.5
		l0,0C20.1,5.9,20.5,6,21,6c1.7,0,3-1.3,3-3S22.7,0,21,0z M3,22c-0.6,0-1-0.4-1-1s0.4-1,1-1s1,0.4,1,1S3.6,22,3,22z M21,4
		c-0.6,0-1-0.4-1-1s0.4-1,1-1s1,0.4,1,1S21.6,4,21,4z"/>
</g>
<g id="Layer_2" display="none">
	<g display="inline">
		<circle fill="none" stroke="#ED1C24" stroke-width="2" stroke-miterlimit="10" cx="21" cy="3" r="2"/>
		<circle fill="none" stroke="#ED1C24" stroke-width="2" stroke-miterlimit="10" cx="3" cy="21" r="2"/>
		<circle fill="none" stroke="#ED1C24" stroke-width="2" stroke-miterlimit="10" cx="9" cy="15" r="1.4"/>
		<circle fill="none" stroke="#ED1C24" stroke-width="2" stroke-miterlimit="10" cx="15" cy="9" r="1.4"/>
		<line fill="none" stroke="#ED1C24" stroke-width="2" stroke-miterlimit="10" x1="19" y1="5" x2="5" y2="19"/>
	</g>
</g>
</svg>
