<?xml version="1.0" encoding="utf-8"?>
<!-- Generator: Adobe Illustrator 19.2.1, SVG Export Plug-In . SVG Version: 6.00 Build 0)  -->
<!DOCTYPE svg PUBLIC "-//W3C//DTD SVG 1.1//EN" "http://www.w3.org/Graphics/SVG/1.1/DTD/svg11.dtd">
<svg version="1.1" xmlns="http://www.w3.org/2000/svg" xmlns:xlink="http://www.w3.org/1999/xlink" x="0px" y="0px"
	 viewBox="0 0 24 24" enable-background="new 0 0 24 24" xml:space="preserve">
<g id="Layer_1">
	<path d="M24,15V9H13V5.8c1.2-0.4,2-1.5,2-2.8c0-1.7-1.3-3-3-3S9,1.3,9,3c0,1.3,0.8,2.4,2,2.8V9H0v6h6v3.2c-1.2,0.4-2,1.5-2,2.8
		c0,1.7,1.3,3,3,3s3-1.3,3-3c0-1.3-0.8-2.4-2-2.8V15h8v3.2c-1.2,0.4-2,1.5-2,2.8c0,1.7,1.3,3,3,3s3-1.3,3-3c0-1.3-0.8-2.4-2-2.8V15
		H24z M12,2c0.6,0,1,0.4,1,1s-0.4,1-1,1s-1-0.4-1-1S11.4,2,12,2z M7,22c-0.6,0-1-0.4-1-1s0.4-1,1-1s1,0.4,1,1S7.6,22,7,22z M17,22
		c-0.6,0-1-0.4-1-1s0.4-1,1-1s1,0.4,1,1S17.6,22,17,22z M2,11h20v2H2V11z"/>
</g>
<g id="Layer_2" display="none">
	<circle display="inline" fill="none" stroke="#ED1C24" stroke-width="2" stroke-miterlimit="10" cx="12" cy="3" r="2"/>
	<circle display="inline" fill="none" stroke="#ED1C24" stroke-width="2" stroke-miterlimit="10" cx="17" cy="21" r="2"/>
	<circle display="inline" fill="none" stroke="#ED1C24" stroke-width="2" stroke-miterlimit="10" cx="7" cy="21" r="2"/>
	<line display="inline" fill="none" stroke="#ED1C24" stroke-width="2" stroke-miterlimit="10" x1="12" y1="5" x2="12" y2="10"/>
	<line display="inline" fill="none" stroke="#ED1C24" stroke-width="2" stroke-miterlimit="10" x1="7" y1="14" x2="7" y2="19"/>
	<line display="inline" fill="none" stroke="#ED1C24" stroke-width="2" stroke-miterlimit="10" x1="17" y1="14" x2="17" y2="19"/>
	
		<rect x="1" y="10" display="inline" fill="none" stroke="#ED1C24" stroke-width="2" stroke-miterlimit="10" width="22" height="4"/>
</g>
</svg>
