<?xml version="1.0" encoding="utf-8"?>
<!-- Generator: Adobe Illustrator 19.2.1, SVG Export Plug-In . SVG Version: 6.00 Build 0)  -->
<!DOCTYPE svg PUBLIC "-//W3C//DTD SVG 1.1//EN" "http://www.w3.org/Graphics/SVG/1.1/DTD/svg11.dtd">
<svg version="1.1" xmlns="http://www.w3.org/2000/svg" xmlns:xlink="http://www.w3.org/1999/xlink" x="0px" y="0px"
	 viewBox="0 0 24 24" enable-background="new 0 0 24 24" xml:space="preserve">
<g id="Layer_1">
	<path d="M21,0c-1.3,0-2.4,0.8-2.8,2H11c-0.3,0-0.5,0.1-0.7,0.3l-8,8C2.1,10.5,2,10.7,2,11v7.2c-1.2,0.4-2,1.5-2,2.8
		c0,1.7,1.3,3,3,3s3-1.3,3-3c0-0.5-0.1-0.9-0.3-1.3l0,0l14-14l0,0C20.1,5.9,20.5,6,21,6c1.7,0,3-1.3,3-3S22.7,0,21,0z M3,22
		c-0.6,0-1-0.4-1-1s0.4-1,1-1s1,0.4,1,1S3.6,22,3,22z M18.3,4.3l-14,14l0,0c-0.1-0.1-0.2-0.1-0.3-0.1v-6.8L11.4,4h6.8
		C18.2,4.1,18.3,4.2,18.3,4.3L18.3,4.3z M21,4c-0.6,0-1-0.4-1-1s0.4-1,1-1s1,0.4,1,1S21.6,4,21,4z"/>
</g>
<g id="Layer_2" display="none">
	<circle display="inline" fill="none" stroke="#ED1C24" stroke-width="2" stroke-miterlimit="10" cx="21" cy="3" r="2"/>
	<circle display="inline" fill="none" stroke="#ED1C24" stroke-width="2" stroke-miterlimit="10" cx="3" cy="21" r="2"/>
	<line display="inline" fill="none" stroke="#ED1C24" stroke-width="2" stroke-miterlimit="10" x1="19" y1="5" x2="5" y2="19"/>
	
		<polyline display="inline" fill="none" stroke="#ED1C24" stroke-width="2" stroke-linejoin="round" stroke-miterlimit="10" points="
		3,19 3,11 11,3 19,3 	"/>
</g>
</svg>
