<?xml version="1.0" encoding="utf-8"?>
<!-- Generator: Adobe Illustrator 19.2.1, SVG Export Plug-In . SVG Version: 6.00 Build 0)  -->
<!DOCTYPE svg PUBLIC "-//W3C//DTD SVG 1.1//EN" "http://www.w3.org/Graphics/SVG/1.1/DTD/svg11.dtd">
<svg version="1.1" xmlns="http://www.w3.org/2000/svg" xmlns:xlink="http://www.w3.org/1999/xlink" x="0px" y="0px"
	 viewBox="0 0 24 24" enable-background="new 0 0 24 24" xml:space="preserve">
<g id="Layer_1">
	<path d="M0,0v24h24V0H0z M22,10.8L2,18.1v-4.9l20-7.3V10.8z M18,16v2h-2v-2H18z M6,8V6h2v2H6z M22,2v1.8L10,8.2V4H4v6h0.9L2,11.1V2
		H22z M2,22v-1.8l12-4.4V20h6v-6h-0.9l2.9-1.1V22H2z"/>
</g>
<g id="Layer_2" display="none">
	
		<line display="inline" fill="none" stroke="#ED1C24" stroke-width="2" stroke-miterlimit="10" x1="1" y1="19.5" x2="23" y2="11.5"/>
	<line display="inline" fill="none" stroke="#ED1C24" stroke-width="2" stroke-miterlimit="10" x1="1" y1="12.5" x2="23" y2="4.5"/>
	<g display="inline">
		<path fill="#ED1C24" d="M8,6v2H6V6H8 M10,4H4v6h6V4L10,4z"/>
	</g>
	<g display="inline">
		<path fill="#ED1C24" d="M22,2v20H2V2H22 M24,0H0v24h24V0L24,0z"/>
	</g>
	<g display="inline">
		<path fill="#ED1C24" d="M18,16v2h-2v-2H18 M20,14h-6v6h6V14L20,14z"/>
	</g>
</g>
</svg>
