<?xml version="1.0" encoding="utf-8"?>
<!-- Generator: Adobe Illustrator 21.0.2, SVG Export Plug-In . SVG Version: 6.00 Build 0)  -->
<!DOCTYPE svg PUBLIC "-//W3C//DTD SVG 1.1//EN" "http://www.w3.org/Graphics/SVG/1.1/DTD/svg11.dtd">
<svg version="1.1" xmlns="http://www.w3.org/2000/svg" xmlns:xlink="http://www.w3.org/1999/xlink" x="0px" y="0px"
	 viewBox="0 0 24 24" enable-background="new 0 0 24 24" xml:space="preserve">
<g id="Layer_1">
	<path d="M12,4.5L4.6,0.6L6,8.8l-6,5.8l12,8.7l3.7-7.5l8.3-1.2L19.4,0.6L12,4.5z M15.4,13.9l-1,0.2L13.9,15l-2.7,5.4l-8.2-5.9
		l4.3-4.2l0.8-0.7L8,8.5L7.2,4.2l3.8,2L12,6.7l0.9-0.5l5.3-2.8l3.1,9.6L15.4,13.9z"/>
</g>
<g id="Layer_2" display="none">
	<g display="inline">
		<path fill="#ED1C24" d="M18.2,3.5l3.1,9.6l-5.9,0.9l-1,0.2L13.9,15l-2.7,5.4l-8.2-5.9l4.3-4.2l0.8-0.7L8,8.5L7.2,4.2l3.8,2L12,6.7
			l0.9-0.5L18.2,3.5 M19.4,0.6L12,4.5L4.6,0.6L6,8.8l-6,5.8l12,8.7l3.7-7.5l8.3-1.2L19.4,0.6L19.4,0.6z"/>
	</g>
</g>
</svg>
