<?xml version="1.0" encoding="utf-8"?>
<!-- Generator: Adobe Illustrator 21.0.2, SVG Export Plug-In . SVG Version: 6.00 Build 0)  -->
<!DOCTYPE svg PUBLIC "-//W3C//DTD SVG 1.1//EN" "http://www.w3.org/Graphics/SVG/1.1/DTD/svg11.dtd">
<svg version="1.1" xmlns="http://www.w3.org/2000/svg" xmlns:xlink="http://www.w3.org/1999/xlink" x="0px" y="0px"
	 viewBox="0 0 24 24" enable-background="new 0 0 24 24" xml:space="preserve">
<g id="Layer_1">
	<path d="M14,10.9l0.5-2.8L12,9.5L9.5,8.2L8,12.9l2.8,0.4l1.2,2.5l4-2.9L14,10.9z M20,16.4l-1.2,2.5L16,19.3l2,1.9L17.5,24h4.9
		L22,21.2l2-1.9L20,16.4z M6,2.8L6.5,0H1.5L2,2.8L0,4.7l4,2.9l1.2-2.5L8,4.7L6,2.8z"/>
</g>
<g id="Layer_2" display="none">
	<g display="inline">
		<path fill="#ED1C24" d="M10.7,11.1l0.4,0.2l0.2,0.1l-0.2,0l-0.4-0.1L10.7,11.1 M12.5,12.3l0.1,0.1l0.3,0.3l-0.2,0.1l-0.2-0.4
			L12.5,12.3 M14.5,8.2L12,9.5L9.5,8.2L8,12.9l2.8,0.4l1.2,2.5l4-2.9l-2-1.9L14.5,8.2L14.5,8.2z"/>
	</g>
	<g display="inline">
		<path fill="#ED1C24" d="M20.7,19.4l0.2,0.1l-0.3,0.3l-0.1,0.1l0.1-0.2L20.7,19.4 M20,21.4l0,0.2l0.1,0.4h-0.2l0.1-0.4L20,21.4
			 M20,16.4l-1.2,2.5L16,19.3l2,1.9L17.5,24h4.9L22,21.2l2-1.9L20,16.4L20,16.4z"/>
	</g>
	<g display="inline">
		<path fill="#ED1C24" d="M4.1,2L4,2.4l0,0.2l0-0.2L3.9,2H4.1 M3.5,4.1L3.4,4.2L3.3,4.6L3.1,4.5l0.3-0.3L3.5,4.1 M6.5,0H1.5L2,2.8
			L0,4.7l4,2.9l1.2-2.5L8,4.7L6,2.8L6.5,0L6.5,0z"/>
	</g>
</g>
</svg>
