<?xml version="1.0" encoding="utf-8"?>
<!-- Generator: Adobe Illustrator 21.0.0, SVG Export Plug-In . SVG Version: 6.00 Build 0)  -->
<!DOCTYPE svg PUBLIC "-//W3C//DTD SVG 1.1//EN" "http://www.w3.org/Graphics/SVG/1.1/DTD/svg11.dtd">
<svg version="1.1" xmlns="http://www.w3.org/2000/svg" xmlns:xlink="http://www.w3.org/1999/xlink" x="0px" y="0px"
	 viewBox="0 0 24 24" enable-background="new 0 0 24 24" xml:space="preserve">
<g id="Layer_1">
	<path d="M14,12h2v12H8V12h2v10h4V12z M16.9,2.1c2.8,2.8,1.7,5.7,1.7,5.8c-0.6,1.5-1.6,2.5-2.7,2.8c-0.2,0-0.4,0.1-0.5,0.1
		c-0.7,0-1.4-0.3-1.9-0.9c-0.8-0.8-2.1-0.8-2.8,0c-0.7,0.7-1.6,1-2.5,0.8C7,10.4,6,9.4,5.4,7.9c0-0.1-1.1-3,1.7-5.8
		C9.8-0.7,14.2-0.7,16.9,2.1z M15.5,3.5c-1.9-1.9-5.1-1.9-7.1,0C6.6,5.3,7.2,7.1,7.3,7.2c0.4,1,0.9,1.4,1.3,1.5c0.1,0,0.4,0,0.6-0.3
		C10,7.6,11,7.2,12,7.2s2,0.4,2.8,1.2c0.3,0.3,0.5,0.3,0.6,0.3c0.3-0.1,0.9-0.5,1.3-1.5C16.8,7.1,17.4,5.3,15.5,3.5z"/>
</g>
<g id="Layer_2" display="none">
	<polyline display="inline" fill="none" stroke="#ED1C24" stroke-width="2" stroke-miterlimit="10" points="15,12 15,23 9,23 9,12 	
		"/>
	<g display="inline">
		<path fill="none" stroke="#ED1C24" stroke-width="2" stroke-miterlimit="10" d="M9.9,9.1C11,8,13,8,14.1,9.1s2.8,0.4,3.5-1.6
			c0,0,0.9-2.4-1.4-4.7s-6.1-2.3-8.5,0S6.3,7.5,6.3,7.5C7.1,9.6,8.7,10.3,9.9,9.1z"/>
	</g>
</g>
</svg>
