<?xml version="1.0" encoding="utf-8"?>
<!-- Generator: Adobe Illustrator 21.0.0, SVG Export Plug-In . SVG Version: 6.00 Build 0)  -->
<!DOCTYPE svg PUBLIC "-//W3C//DTD SVG 1.1//EN" "http://www.w3.org/Graphics/SVG/1.1/DTD/svg11.dtd">
<svg version="1.1" xmlns="http://www.w3.org/2000/svg" xmlns:xlink="http://www.w3.org/1999/xlink" x="0px" y="0px"
	 viewBox="0 0 24 24" enable-background="new 0 0 24 24" xml:space="preserve">
<g id="Layer_1">
	<path d="M16,12V0H8v24h8c-1.7,0-3-1.3-3-3s1.3-3,3-3c-1.7,0-3-1.3-3-3S14.3,12,16,12z M14,2v1.6l-4,4V2H14z M11,15
		c0,1.1,0.4,2.2,1,3c-0.6,0.8-1,1.9-1,3c0,0.3,0,0.7,0.1,1H10V10.4l4-4v4C12.2,11.2,11,13,11,15z"/>
</g>
<g id="Layer_2" display="none">
	<line display="inline" fill="none" stroke="#ED1C24" stroke-width="2" stroke-miterlimit="10" x1="9" y1="10" x2="15" y2="4"/>
	<g display="inline">
		<path fill="#ED1C24" d="M14,2v8.4c-1.8,0.8-3,2.5-3,4.6c0,1.1,0.4,2.2,1,3c-0.6,0.8-1,1.9-1,3c0,0.3,0,0.7,0.1,1H10V2H14 M16,0H8
			v24h8c-1.7,0-3-1.3-3-3s1.3-3,3-3c-1.7,0-3-1.3-3-3s1.3-3,3-3V0L16,0z"/>
	</g>
</g>
</svg>
