<?xml version="1.0" encoding="utf-8"?>
<!-- Generator: Adobe Illustrator 21.0.0, SVG Export Plug-In . SVG Version: 6.00 Build 0)  -->
<!DOCTYPE svg PUBLIC "-//W3C//DTD SVG 1.1//EN" "http://www.w3.org/Graphics/SVG/1.1/DTD/svg11.dtd">
<svg version="1.1" xmlns="http://www.w3.org/2000/svg" xmlns:xlink="http://www.w3.org/1999/xlink" x="0px" y="0px"
	 viewBox="0 0 24 24" enable-background="new 0 0 24 24" xml:space="preserve">
<g id="Layer_1">
	<path d="M11,0h2v24h-2V0z M0,24h2v-6H0V24z M0,15h2V9H0V15z M0,6h2V0H0V6z M17.3,1.7c2.6,2.6,2.6,6.9,0,9.6c-3.4,3.4-3.4,9,0,12.4
		l1.4-1.4c-2.6-2.6-2.6-6.9,0-9.6c3.4-3.4,3.4-9,0-12.4L17.3,1.7z"/>
</g>
<g id="Layer_2" display="none">
	<line display="inline" fill="none" stroke="#ED1C24" stroke-width="2" stroke-miterlimit="10" x1="12" y1="0" x2="12" y2="24"/>
	<line display="inline" fill="none" stroke="#ED1C24" stroke-width="2" stroke-miterlimit="10" x1="1" y1="18" x2="1" y2="24"/>
	<line display="inline" fill="none" stroke="#ED1C24" stroke-width="2" stroke-miterlimit="10" x1="1" y1="9" x2="1" y2="15"/>
	<line display="inline" fill="none" stroke="#ED1C24" stroke-width="2" stroke-miterlimit="10" x1="1" y1="0" x2="1" y2="6"/>
	<path display="inline" fill="none" stroke="#ED1C24" stroke-width="2" stroke-miterlimit="10" d="M18,23c-3-3-3-8,0-11s3-8,0-11"/>
</g>
</svg>
