<?xml version="1.0" encoding="utf-8"?>
<!-- Generator: Adobe Illustrator 19.2.1, SVG Export Plug-In . SVG Version: 6.00 Build 0)  -->
<!DOCTYPE svg PUBLIC "-//W3C//DTD SVG 1.1//EN" "http://www.w3.org/Graphics/SVG/1.1/DTD/svg11.dtd">
<svg version="1.1" xmlns="http://www.w3.org/2000/svg" xmlns:xlink="http://www.w3.org/1999/xlink" x="0px" y="0px"
	 viewBox="0 0 24 24" enable-background="new 0 0 24 24" xml:space="preserve">
<g id="Layer_1">
	<path d="M9,6v2H4v2h1v14h14V10h1V8h-5V6H9z M17,10v12H7V10H17z M9,20v-8h2v8H9z M15,20h-2v-8h2V20z M0,24V5l12-5l12,5v19h-2V6.3
		L12,2.2L2,6.3V24H0z"/>
</g>
<g id="Layer_2" display="none">
	<g display="inline">
		<line fill="none" stroke="#ED1C24" stroke-width="2" stroke-miterlimit="10" x1="9" y1="7" x2="15" y2="7"/>
		<line fill="none" stroke="#ED1C24" stroke-width="2" stroke-miterlimit="10" x1="4" y1="9" x2="20" y2="9"/>
		<line fill="none" stroke="#ED1C24" stroke-width="2" stroke-miterlimit="10" x1="10" y1="20" x2="10" y2="12"/>
		<line fill="none" stroke="#ED1C24" stroke-width="2" stroke-miterlimit="10" x1="14" y1="20" x2="14" y2="12"/>
		<polyline fill="none" stroke="#ED1C24" stroke-width="2" stroke-miterlimit="10" points="6,9 6,23 18,23 18,9 		"/>
	</g>
	<g display="inline">
		<path fill="#ED1C24" d="M12,2.2l10,4.2V26H2V6.3L12,2.2 M12,0L0,5v23h24V5L12,0L12,0z"/>
	</g>
</g>
</svg>
