<?xml version="1.0" encoding="utf-8"?>
<!-- Generator: Adobe Illustrator 21.0.0, SVG Export Plug-In . SVG Version: 6.00 Build 0)  -->
<!DOCTYPE svg PUBLIC "-//W3C//DTD SVG 1.1//EN" "http://www.w3.org/Graphics/SVG/1.1/DTD/svg11.dtd">
<svg version="1.1" xmlns="http://www.w3.org/2000/svg" xmlns:xlink="http://www.w3.org/1999/xlink" x="0px" y="0px"
	 viewBox="0 0 24 24" enable-background="new 0 0 24 24" xml:space="preserve">
<g id="Layer_1">
	<path d="M12,4C6.5,4,2,8.5,2,14s4.5,10,10,10s10-4.5,10-10S17.5,4,12,4z M12,22c-4.4,0-8-3.6-8-8s3.6-8,8-8s8,3.6,8,8
		S16.4,22,12,22z M15.5,11.9L13.4,14l2.1,2.1l-1.4,1.4L12,15.4l-2.1,2.1l-1.4-1.4l2.1-2.1l-2.1-2.1l1.4-1.4l2.1,2.1l2.1-2.1
		L15.5,11.9z M0,0h24v2H0V0z"/>
</g>
<g id="Layer_2" display="none">
	<circle display="inline" fill="none" stroke="#ED1C24" stroke-width="2" stroke-miterlimit="10" cx="12" cy="14" r="9"/>
	
		<line display="inline" fill="none" stroke="#ED1C24" stroke-width="2" stroke-miterlimit="10" x1="9.2" y1="11.2" x2="14.8" y2="16.8"/>
	
		<line display="inline" fill="none" stroke="#ED1C24" stroke-width="2" stroke-miterlimit="10" x1="14.8" y1="11.2" x2="9.2" y2="16.8"/>
	<line display="inline" fill="none" stroke="#ED1C24" stroke-width="2" stroke-miterlimit="10" x1="0" y1="1" x2="24" y2="1"/>
</g>
</svg>
