<?xml version="1.0" encoding="utf-8"?>
<!-- Generator: Adobe Illustrator 19.2.1, SVG Export Plug-In . SVG Version: 6.00 Build 0)  -->
<!DOCTYPE svg PUBLIC "-//W3C//DTD SVG 1.1//EN" "http://www.w3.org/Graphics/SVG/1.1/DTD/svg11.dtd">
<svg version="1.1" xmlns="http://www.w3.org/2000/svg" xmlns:xlink="http://www.w3.org/1999/xlink" x="0px" y="0px"
	 viewBox="0 0 24 24" enable-background="new 0 0 24 24" xml:space="preserve">
<g id="Layer_1">
	<path d="M24,12C24,12,24,12,24,12L24,12c0-6.6-5.4-12-12-12C5.4,0,0,5.4,0,12s5.4,12,12,12v-2C6.5,22,2,17.5,2,12S6.5,2,12,2
		c5.5,0,10,4.5,10,10c0,2.2-0.7,4.3-2,6c-1.3-1.7-2-3.7-2-6c0-1.5,0.3-2.8,0.9-4.1c-0.4-0.6-0.8-1.2-1.4-1.7c-0.3,0.6-0.6,1.3-0.9,2
		C15.5,6.9,13.9,6,12,6c-3.3,0-6,2.7-6,6s2.7,6,6,6c1.9,0,3.5-0.9,4.6-2.2c0.7,2,1.8,3.7,3.4,5.1c0.2-0.1,0.3-0.3,0.5-0.5l0,0
		C22.8,18.2,24,15.2,24,12L24,12L24,12z M12,16c-2.2,0-4-1.8-4-4s1.8-4,4-4s4,1.8,4,4S14.2,16,12,16z"/>
</g>
<g id="Layer_2" display="none">
	<path display="inline" fill="none" stroke="#ED1C24" stroke-width="2" stroke-miterlimit="10" d="M12,23C5.9,23,1,18.1,1,12
		S5.9,1,12,1s11,4.9,11,11"/>
	<path display="inline" fill="none" stroke="#ED1C24" stroke-width="2" stroke-miterlimit="10" d="M23,12c0,2.8-1.1,5.6-3.2,7.8"/>
	<circle display="inline" fill="none" stroke="#ED1C24" stroke-width="2" stroke-miterlimit="10" cx="12" cy="12" r="5"/>
	<g display="inline">
		<path fill="#ED1C24" d="M17.5,6.2C16.5,7.9,16,9.9,16,12c0,3.5,1.6,6.7,4,8.9c0.5-0.4,1-0.9,1.4-1.4C19.3,17.6,18,15,18,12
			c0-1.5,0.3-2.8,0.9-4.1C18.5,7.3,18,6.7,17.5,6.2L17.5,6.2z"/>
	</g>
</g>
</svg>
