<?xml version="1.0" encoding="utf-8"?>
<!-- Generator: Adobe Illustrator 21.0.2, SVG Export Plug-In . SVG Version: 6.00 Build 0)  -->
<!DOCTYPE svg PUBLIC "-//W3C//DTD SVG 1.1//EN" "http://www.w3.org/Graphics/SVG/1.1/DTD/svg11.dtd">
<svg version="1.1" xmlns="http://www.w3.org/2000/svg" xmlns:xlink="http://www.w3.org/1999/xlink" x="0px" y="0px"
	 viewBox="0 0 24 24" enable-background="new 0 0 24 24" xml:space="preserve">
<g id="Layer_1">
	<path d="M15,13.6l8.7,8.7l-1.4,1.4L15,16.4l-2.3,2.3l-1.4-1.4L15,13.6z M0.3,22.3l1.4,1.4L7,18.4l5.3,5.3l1.4-1.4L7,15.6L0.3,22.3z
		 M2,0H0v2C1.1,2,2,1.1,2,0z M7,0H5c0,2.8-2.2,5-5,5v2C3.9,7,7,3.9,7,0z M12,0h-2c0,5.5-4.5,10-10,10v2C6.6,12,12,6.6,12,0z"/>
</g>
<g id="Layer_2" display="none">
	<polyline display="inline" fill="none" stroke="#ED1C24" stroke-width="2" stroke-miterlimit="10" points="23,23 15,15 12,18 	"/>
	<polyline display="inline" fill="none" stroke="#ED1C24" stroke-width="2" stroke-miterlimit="10" points="13,23 7,17 1,23 	"/>
	<path display="inline" fill="none" stroke="#ED1C24" stroke-width="2" stroke-miterlimit="10" d="M1,0c0,0.6-0.4,1-1,1"/>
	<path display="inline" fill="none" stroke="#ED1C24" stroke-width="2" stroke-miterlimit="10" d="M6,0c0,3.3-2.7,6-6,6"/>
	<path display="inline" fill="none" stroke="#ED1C24" stroke-width="2" stroke-miterlimit="10" d="M11,0c0,6.1-4.9,11-11,11"/>
</g>
</svg>
