<?xml version="1.0" encoding="utf-8"?>
<!-- Generator: Adobe Illustrator 19.2.1, SVG Export Plug-In . SVG Version: 6.00 Build 0)  -->
<!DOCTYPE svg PUBLIC "-//W3C//DTD SVG 1.1//EN" "http://www.w3.org/Graphics/SVG/1.1/DTD/svg11.dtd">
<svg version="1.1" xmlns="http://www.w3.org/2000/svg" xmlns:xlink="http://www.w3.org/1999/xlink" x="0px" y="0px"
	 viewBox="0 0 24 24" enable-background="new 0 0 24 24" xml:space="preserve">
<g id="Layer_1">
	<path d="M12,2c3.3,0,6,2.7,6,6c0,0.8-0.1,1.5-0.4,2.2L12,20l-5.6-9.7C6.1,9.5,6,8.8,6,8C6,4.7,8.7,2,12,2 M12,0C7.6,0,4,3.6,4,8
		c0,1.1,0.2,2.2,0.6,3.1L12,24l7.4-12.9c0.4-1,0.6-2,0.6-3.1C20,3.6,16.4,0,12,0L12,0z"/>
</g>
<g id="Layer_2" display="none">
	<g display="inline">
		<path fill="#ED1C24" d="M12,2c3.3,0,6,2.7,6,6c0,0.8-0.1,1.5-0.4,2.2L12,20l-5.6-9.7C6.1,9.5,6,8.8,6,8C6,4.7,8.7,2,12,2 M12,0
			C7.6,0,4,3.6,4,8c0,1.1,0.2,2.2,0.6,3.1L12,24l7.4-12.9c0.4-1,0.6-2,0.6-3.1C20,3.6,16.4,0,12,0L12,0z"/>
	</g>
</g>
</svg>
