<?xml version="1.0" encoding="utf-8"?>
<!-- Generator: Adobe Illustrator 19.2.1, SVG Export Plug-In . SVG Version: 6.00 Build 0)  -->
<!DOCTYPE svg PUBLIC "-//W3C//DTD SVG 1.1//EN" "http://www.w3.org/Graphics/SVG/1.1/DTD/svg11.dtd">
<svg version="1.1" xmlns="http://www.w3.org/2000/svg" xmlns:xlink="http://www.w3.org/1999/xlink" x="0px" y="0px"
	 viewBox="0 0 24 24" enable-background="new 0 0 24 24" xml:space="preserve">
<g id="Layer_1">
	<path d="M12,6c1.6,0,3.1,0.6,4.2,1.8l4.2,4.2l-4.2,4.2C15.1,17.4,13.6,18,12,18c-1.6,0-3.1-0.6-4.2-1.8L3.5,12l4.2-4.2
		C8.9,6.6,10.4,6,12,6 M12,4c-2,0-4.1,0.8-5.7,2.3L0.7,12l5.7,5.7C7.9,19.2,10,20,12,20c2,0,4.1-0.8,5.7-2.3l5.7-5.7l-5.7-5.7
		C16.1,4.8,14,4,12,4L12,4z M12,10c-1.1,0-2,0.9-2,2c0,1.1,0.9,2,2,2s2-0.9,2-2C14,10.9,13.1,10,12,10L12,10z"/>
</g>
<g id="Layer_2" display="none">
	<g display="inline">
		<g>
			<path fill="#ED1C24" d="M12,6c1.6,0,3.1,0.6,4.2,1.8l4.2,4.2l-4.2,4.2C15.1,17.4,13.6,18,12,18c-1.6,0-3.1-0.6-4.2-1.8L3.5,12
				l4.2-4.2C8.9,6.6,10.4,6,12,6 M12,4c-2,0-4.1,0.8-5.7,2.3L0.7,12l5.7,5.7C7.9,19.2,10,20,12,20c2,0,4.1-0.8,5.7-2.3l5.7-5.7
				l-5.7-5.7C16.1,4.8,14,4,12,4L12,4z"/>
		</g>
		<g>
			<path fill="#ED1C24" d="M12,10c-1.1,0-2,0.9-2,2c0,1.1,0.9,2,2,2s2-0.9,2-2C14,10.9,13.1,10,12,10L12,10z"/>
		</g>
	</g>
</g>
</svg>
