<?xml version="1.0" encoding="utf-8"?>
<!-- Generator: Adobe Illustrator 19.2.1, SVG Export Plug-In . SVG Version: 6.00 Build 0)  -->
<!DOCTYPE svg PUBLIC "-//W3C//DTD SVG 1.1//EN" "http://www.w3.org/Graphics/SVG/1.1/DTD/svg11.dtd">
<svg version="1.1" xmlns="http://www.w3.org/2000/svg" xmlns:xlink="http://www.w3.org/1999/xlink" x="0px" y="0px"
	 viewBox="0 0 24 24" enable-background="new 0 0 24 24" xml:space="preserve">
<g id="Layer_1">
	<path d="M20,14V8c0-4.4-3.6-8-8-8S4,3.6,4,8v6c0,2.2-1.8,4-4,4v2h8c0,2.2,1.8,4,4,4s4-1.8,4-4h8v-2C21.8,18,20,16.2,20,14z M12,22
		c-1.1,0-2-0.9-2-2h4C14,21.1,13.1,22,12,22z M4.5,18c1-1.1,1.5-2.5,1.5-4V8c0-3.3,2.7-6,6-6s6,2.7,6,6v6c0,1.5,0.6,2.9,1.5,4H4.5z"
		/>
</g>
<g id="Layer_2" display="none">
	<g display="inline">
		<path fill="none" stroke="#ED1C24" stroke-width="2" stroke-miterlimit="10" d="M9,20c0,1.7,1.3,3,3,3s3-1.3,3-3"/>
		<path fill="none" stroke="#ED1C24" stroke-width="2" stroke-miterlimit="10" d="M0,19c2.8,0,5-2.2,5-5V8c0-3.9,3.1-7,7-7
			s7,3.1,7,7v6c0,2.8,2.2,5,5,5H0z"/>
	</g>
</g>
</svg>
