<?xml version="1.0" encoding="utf-8"?>
<!-- Generator: Adobe Illustrator 19.2.1, SVG Export Plug-In . SVG Version: 6.00 Build 0)  -->
<!DOCTYPE svg PUBLIC "-//W3C//DTD SVG 1.1//EN" "http://www.w3.org/Graphics/SVG/1.1/DTD/svg11.dtd">
<svg version="1.1" xmlns="http://www.w3.org/2000/svg" xmlns:xlink="http://www.w3.org/1999/xlink" x="0px" y="0px"
	 viewBox="0 0 24 24" enable-background="new 0 0 24 24" xml:space="preserve">
<g id="Layer_1">
	<path d="M23.7,22.3L16,14.6c1.2-1.5,2-3.5,2-5.6c0-5-4-9-9-9S0,4,0,9s4,9,9,9c2.1,0,4.1-0.7,5.6-2l7.7,7.7L23.7,22.3z M9,16
		c-3.9,0-7-3.1-7-7s3.1-7,7-7s7,3.1,7,7S12.9,16,9,16z"/>
</g>
<g id="Layer_2" display="none">
	<g display="inline">
		<circle fill="none" stroke="#ED1C24" stroke-width="2" stroke-miterlimit="10" cx="9" cy="9" r="8"/>
		<line fill="none" stroke="#ED1C24" stroke-width="2" stroke-miterlimit="10" x1="23" y1="23" x2="15" y2="15"/>
	</g>
</g>
</svg>
