<?xml version="1.0" encoding="utf-8"?>
<!-- Generator: Adobe Illustrator 19.2.1, SVG Export Plug-In . SVG Version: 6.00 Build 0)  -->
<!DOCTYPE svg PUBLIC "-//W3C//DTD SVG 1.1//EN" "http://www.w3.org/Graphics/SVG/1.1/DTD/svg11.dtd">
<svg version="1.1" xmlns="http://www.w3.org/2000/svg" xmlns:xlink="http://www.w3.org/1999/xlink" x="0px" y="0px"
	 viewBox="0 0 24 24" enable-background="new 0 0 24 24" xml:space="preserve">
<g id="Layer_1">
	<path d="M24,11h-2.1c-0.5-4.7-4.2-8.5-8.9-8.9V0h-2v2.1C6.3,2.5,2.5,6.3,2.1,11H0v2h2.1c0.5,4.7,4.2,8.5,8.9,8.9V24h2v-2.1
		c4.7-0.5,8.5-4.2,8.9-8.9H24V11z M13,19.9L12,16l-1,3.9c-3.6-0.4-6.5-3.3-6.9-6.9L8,12l-3.9-1C4.5,7.4,7.4,4.5,11,4.1L12,8l1-3.9
		c3.6,0.4,6.5,3.3,6.9,6.9L16,12l3.9,1C19.5,16.6,16.6,19.5,13,19.9z"/>
</g>
<g id="Layer_2" display="none">
	<g display="inline">
		<circle fill="none" stroke="#ED1C24" stroke-width="2" stroke-miterlimit="10" cx="12" cy="12" r="9"/>
		<line fill="none" stroke="#ED1C24" stroke-width="2" stroke-miterlimit="10" x1="12" y1="0" x2="12" y2="4"/>
		<line fill="none" stroke="#ED1C24" stroke-width="2" stroke-miterlimit="10" x1="12" y1="20" x2="12" y2="24"/>
		<line fill="none" stroke="#ED1C24" stroke-width="2" stroke-miterlimit="10" x1="0" y1="12" x2="4" y2="12"/>
		<line fill="none" stroke="#ED1C24" stroke-width="2" stroke-miterlimit="10" x1="20" y1="12" x2="24" y2="12"/>
		<g>
			<polygon fill="#ED1C24" points="20,11 16,12 20,13 20,11 			"/>
		</g>
		<g>
			<polygon fill="#ED1C24" points="13,4 11,4 12,8 13,4 			"/>
		</g>
		<g>
			<polygon fill="#ED1C24" points="4,11 4,13 8,12 4,11 			"/>
		</g>
		<g>
			<polygon fill="#ED1C24" points="12,16 11,20 13,20 12,16 			"/>
		</g>
	</g>
</g>
</svg>
