<?xml version="1.0" encoding="utf-8"?>
<!-- Generator: Adobe Illustrator 19.2.1, SVG Export Plug-In . SVG Version: 6.00 Build 0)  -->
<!DOCTYPE svg PUBLIC "-//W3C//DTD SVG 1.1//EN" "http://www.w3.org/Graphics/SVG/1.1/DTD/svg11.dtd">
<svg version="1.1" xmlns="http://www.w3.org/2000/svg" xmlns:xlink="http://www.w3.org/1999/xlink" x="0px" y="0px"
	 viewBox="0 0 24 24" enable-background="new 0 0 24 24" xml:space="preserve">
<g id="Layer_1">
	<path d="M12,7.1l1.4,4.2l4.4,0l-3.6,2.6l1.4,4.2L12,15.5l-3.6,2.6l1.4-4.2l-3.6-2.6l4.4,0L12,7.1 M12,0.6L9.2,9.3L0,9.3l7.4,5.4
		l-2.9,8.7L12,18l7.4,5.4l-2.9-8.7L24,9.3l-9.2,0L12,0.6L12,0.6z"/>
</g>
<g id="Layer_2" display="none">
	<g display="inline">
		<path fill="#ED1C24" d="M12,7.1l0.9,2.8l0.4,1.4l1.5,0l3,0l-2.4,1.7l-1.2,0.9l0.5,1.4l0.9,2.8l-2.4-1.8L12,15.5l-1.2,0.9l-2.4,1.8
			l0.9-2.8l0.5-1.4l-1.2-0.9l-2.4-1.7l3,0l1.5,0l0.4-1.4L12,7.1 M12,0.6L9.2,9.3L0,9.3l7.4,5.4l-2.9,8.7L12,18l7.4,5.4l-2.9-8.7
			L24,9.3l-9.2,0L12,0.6L12,0.6z"/>
	</g>
</g>
</svg>
