<?xml version="1.0" encoding="utf-8"?>
<!-- Generator: Adobe Illustrator 19.2.1, SVG Export Plug-In . SVG Version: 6.00 Build 0)  -->
<!DOCTYPE svg PUBLIC "-//W3C//DTD SVG 1.1//EN" "http://www.w3.org/Graphics/SVG/1.1/DTD/svg11.dtd">
<svg version="1.1" xmlns="http://www.w3.org/2000/svg" xmlns:xlink="http://www.w3.org/1999/xlink" x="0px" y="0px"
	 viewBox="0 0 24 24" enable-background="new 0 0 24 24" xml:space="preserve">
<g id="Layer_1">
	<polygon points="11,0 11,11.6 8.8,9.4 7.4,10.8 12,15.4 16.6,10.8 15.2,9.4 13,11.6 13,2 22,2 22,22 2,22 2,2 7.9,2 7.9,0 0,0 
		0,24 24,24 24,0 	"/>
</g>
<g id="Layer_2" display="none">
	<g display="inline">
		<line fill="none" stroke="#ED1C24" stroke-width="2" stroke-miterlimit="10" x1="12" y1="0" x2="12" y2="14"/>
		<polyline fill="none" stroke="#ED1C24" stroke-width="2" stroke-miterlimit="10" points="15.9,10.1 12,14 8.1,10.1 		"/>
		<polyline fill="none" stroke="#ED1C24" stroke-width="2" stroke-miterlimit="10" points="7.9,1 1,1 1,23 23,23 23,1 12,1 		"/>
	</g>
</g>
</svg>
