<?xml version="1.0" encoding="utf-8"?>
<!-- Generator: Adobe Illustrator 19.2.1, SVG Export Plug-In . SVG Version: 6.00 Build 0)  -->
<!DOCTYPE svg PUBLIC "-//W3C//DTD SVG 1.1//EN" "http://www.w3.org/Graphics/SVG/1.1/DTD/svg11.dtd">
<svg version="1.1" xmlns="http://www.w3.org/2000/svg" xmlns:xlink="http://www.w3.org/1999/xlink" x="0px" y="0px"
	 viewBox="0 0 24 24" enable-background="new 0 0 24 24" xml:space="preserve">
<g id="Layer_1">
	<path d="M12,2.8l10,10V22h-6v-8H8v8H2v-9.2L12,2.8 M12,0L0,12v12h10v-8h4v8h10V12L12,0L12,0z"/>
</g>
<g id="Layer_2" display="none">
	<g display="inline">
		<path fill="#ED1C24" d="M12,2.8l10,10V22h-6v-6v-2h-2h-4H8v2v6H2v-9.2L12,2.8 M12,0L0,12v12h10v-8h4v8h10V12L12,0L12,0z"/>
	</g>
</g>
</svg>
