<?xml version="1.0" encoding="utf-8"?>
<!-- Generator: Adobe Illustrator 19.2.1, SVG Export Plug-In . SVG Version: 6.00 Build 0)  -->
<!DOCTYPE svg PUBLIC "-//W3C//DTD SVG 1.1//EN" "http://www.w3.org/Graphics/SVG/1.1/DTD/svg11.dtd">
<svg version="1.1" xmlns="http://www.w3.org/2000/svg" xmlns:xlink="http://www.w3.org/1999/xlink" x="0px" y="0px"
	 viewBox="0 0 24 24" enable-background="new 0 0 24 24" xml:space="preserve">
<g id="Layer_1">
	<path d="M20,0h-2v2h2c1.1,0,2,0.9,2,2v2h-2c-1.1,0-2,0.9-2,2v6c0,1.1,0.9,2,2,2h2v1c0,2.8-2.2,5-5,5s-5-2.2-5-5v-7h2V0H0v10h2v14
		h10v-2.1c1.3,1.3,3,2.1,5,2.1c3.9,0,7-3.1,7-7V4C24,1.8,22.2,0,20,0z M10,22H4V10h6V22z M2,8V2h10v6H2z M22,14h-2V8h2V14z"/>
</g>
<g id="Layer_2" display="none">
	<path display="inline" fill="none" stroke="#ED1C24" stroke-width="2" stroke-miterlimit="10" d="M23,4c0-1.7-1.3-3-3-3"/>
	<path display="inline" fill="none" stroke="#ED1C24" stroke-width="2" stroke-miterlimit="10" d="M20,7c-0.6,0-1,0.4-1,1"/>
	<path display="inline" fill="none" stroke="#ED1C24" stroke-width="2" stroke-miterlimit="10" d="M19,14c0,0.6,0.4,1,1,1"/>
	<path display="inline" fill="none" stroke="#ED1C24" stroke-width="2" stroke-miterlimit="10" d="M23,17c0,3.3-2.7,6-6,6
		s-6-2.7-6-6"/>
	<line display="inline" fill="none" stroke="#ED1C24" stroke-width="2" stroke-miterlimit="10" x1="23" y1="4" x2="23" y2="17"/>
	<rect x="1" y="1" display="inline" fill="none" stroke="#ED1C24" stroke-width="2" stroke-miterlimit="10" width="12" height="8"/>
	<rect x="3" y="9" display="inline" fill="none" stroke="#ED1C24" stroke-width="2" stroke-miterlimit="10" width="8" height="14"/>
	<line display="inline" fill="none" stroke="#ED1C24" stroke-width="2" stroke-miterlimit="10" x1="18" y1="1" x2="20" y2="1"/>
	<line display="inline" fill="none" stroke="#ED1C24" stroke-width="2" stroke-miterlimit="10" x1="20" y1="7" x2="22" y2="7"/>
	<line display="inline" fill="none" stroke="#ED1C24" stroke-width="2" stroke-miterlimit="10" x1="20" y1="15" x2="22" y2="15"/>
	<line display="inline" fill="none" stroke="#ED1C24" stroke-width="2" stroke-miterlimit="10" x1="19" y1="14" x2="19" y2="8"/>
</g>
</svg>
