<?xml version="1.0" encoding="utf-8"?>
<!-- Generator: Adobe Illustrator 21.0.2, SVG Export Plug-In . SVG Version: 6.00 Build 0)  -->
<!DOCTYPE svg PUBLIC "-//W3C//DTD SVG 1.1//EN" "http://www.w3.org/Graphics/SVG/1.1/DTD/svg11.dtd">
<svg version="1.1" xmlns="http://www.w3.org/2000/svg" xmlns:xlink="http://www.w3.org/1999/xlink" x="0px" y="0px"
	 viewBox="0 0 24 24" enable-background="new 0 0 24 24" xml:space="preserve">
<g id="Layer_1">
	<path d="M22.3,16l1.7,1l-12,7L0,17l1.7-1L12,22L22.3,16z M12,17L1.7,11L0,12l12,7l12-7l-1.7-1L12,17z M12,2.3L4,7l8,4.7L20,7
		L12,2.3 M12,0l12,7l-12,7L0,7L12,0L12,0z"/>
</g>
<g id="Layer_2" display="none">
	<g display="inline">
		<path fill="#ED1C24" d="M12,12.3l8,4.7l-8,4.7L4,17L12,12.3 M12,10L0,17l12,7l12-7L12,10L12,10z"/>
	</g>
	<g display="inline">
		<polygon fill="#FFFFFF" points="12,22 0,15 12,8 24,15 		"/>
	</g>
	<g display="inline">
		<path fill="#ED1C24" d="M12,7.3l8,4.7l-8,4.7L4,12L12,7.3 M12,5L0,12l12,7l12-7L12,5L12,5z"/>
	</g>
	<g display="inline">
		<polygon fill="#FFFFFF" points="12,17 0,10 12,3 24,10 		"/>
	</g>
	<g display="inline">
		<path fill="#ED1C24" d="M12,2.3L20,7l-8,4.7L4,7L12,2.3 M12,0L0,7l12,7l12-7L12,0L12,0z"/>
	</g>
</g>
</svg>
