<?xml version="1.0" encoding="utf-8"?>
<!-- Generator: Adobe Illustrator 19.2.1, SVG Export Plug-In . SVG Version: 6.00 Build 0)  -->
<!DOCTYPE svg PUBLIC "-//W3C//DTD SVG 1.1//EN" "http://www.w3.org/Graphics/SVG/1.1/DTD/svg11.dtd">
<svg version="1.1" xmlns="http://www.w3.org/2000/svg" xmlns:xlink="http://www.w3.org/1999/xlink" x="0px" y="0px"
	 viewBox="0 0 24 24" enable-background="new 0 0 24 24" xml:space="preserve">
<g id="Layer_1">
	<path d="M16,6l2,2H6V6H16L16,6z M22,5.6L16.4,0H2v24h20V5.6z M4,2h11.6L20,6.4V22H4V2z M18,11H6v2h12V11z M18,16H6v2h12V16z"/>
</g>
<g id="Layer_2" display="none">
	<g display="inline">
		<g>
			<polygon fill="#ED1C24" points="16,6 6,6 6,8 18,8 16,6 			"/>
		</g>
		<polygon fill="none" stroke="#ED1C24" stroke-width="2" stroke-miterlimit="10" points="16,1 21,6 21,23 3,23 3,1 		"/>
		<line fill="none" stroke="#ED1C24" stroke-width="2" stroke-miterlimit="10" x1="6" y1="12" x2="18" y2="12"/>
		<line fill="none" stroke="#ED1C24" stroke-width="2" stroke-miterlimit="10" x1="6" y1="17" x2="18" y2="17"/>
	</g>
</g>
</svg>
