<?xml version="1.0" encoding="utf-8"?>
<!-- Generator: Adobe Illustrator 20.0.0, SVG Export Plug-In . SVG Version: 6.00 Build 0)  -->
<!DOCTYPE svg PUBLIC "-//W3C//DTD SVG 1.1//EN" "http://www.w3.org/Graphics/SVG/1.1/DTD/svg11.dtd">
<svg version="1.1" xmlns="http://www.w3.org/2000/svg" xmlns:xlink="http://www.w3.org/1999/xlink" x="0px" y="0px"
	 viewBox="0 0 24 24" enable-background="new 0 0 24 24" xml:space="preserve">
<g id="Layer_1">
	<path d="M22,5.6L16.4,0H2v24h20V5.6z M20,22H4V2h11.6L20,6.4V22z M13.5,6c0,0.8-0.7,1.5-1.5,1.5S10.5,6.8,10.5,6s0.7-1.5,1.5-1.5
		S13.5,5.2,13.5,6z M11,10h2v10h-2V10z"/>
</g>
<g id="Layer_2" display="none">
	<polygon display="inline" fill="none" stroke="#ED1C24" stroke-width="2" stroke-miterlimit="10" points="16,1 21,6 21,23 3,23 
		3,1 	"/>
	<g display="inline">
		<path fill="#ED1C24" d="M12,4.5c-0.8,0-1.5,0.7-1.5,1.5s0.7,1.5,1.5,1.5s1.5-0.7,1.5-1.5S12.8,4.5,12,4.5L12,4.5z"/>
	</g>
	<line display="inline" fill="none" stroke="#ED1C24" stroke-width="2" stroke-miterlimit="10" x1="12" y1="10" x2="12" y2="20"/>
</g>
</svg>
