<?xml version="1.0" encoding="utf-8"?>
<!-- Generator: Adobe Illustrator 19.2.1, SVG Export Plug-In . SVG Version: 6.00 Build 0)  -->
<!DOCTYPE svg PUBLIC "-//W3C//DTD SVG 1.1//EN" "http://www.w3.org/Graphics/SVG/1.1/DTD/svg11.dtd">
<svg version="1.1" xmlns="http://www.w3.org/2000/svg" xmlns:xlink="http://www.w3.org/1999/xlink" x="0px" y="0px"
	 viewBox="0 0 24 24" enable-background="new 0 0 24 24" xml:space="preserve">
<g id="Layer_1">
	<path d="M12,2c5.9,0,10,2.6,10,5s-4.1,5-10,5S2,9.4,2,7S6.1,2,12,2 M12,0C5.4,0,0,3.1,0,7s5.4,7,12,7s12-3.1,12-7S18.6,0,12,0L12,0
		z M0,15v2c0,3.9,5.4,7,12,7c6.6,0,12-3.1,12-7c0,0,0,0,0,0v-2c0,3.6-4.8,6.6-10.9,7c-0.4,0-0.7,0-1.1,0s-0.8,0-1.1,0
		C4.8,21.6,0,18.6,0,15L0,15z M0,10v2c0,3.9,5.4,7,12,7c6.6,0,12-3.1,12-7c0,0,0,0,0,0v-2c0,3.6-4.8,6.6-10.9,7c-0.4,0-0.7,0-1.1,0
		s-0.8,0-1.1,0C4.8,16.6,0,13.6,0,10L0,10z"/>
</g>
<g id="Layer_2" display="none">
	<g display="inline">
		<g>
			<path fill="#ED1C24" d="M12,2c5.9,0,10,2.6,10,5s-4.1,5-10,5S2,9.4,2,7S6.1,2,12,2 M12,0C5.4,0,0,3.1,0,7s5.4,7,12,7s12-3.1,12-7
				S18.6,0,12,0L12,0z"/>
		</g>
		<g>
			<path fill="#ED1C24" d="M0,15v2c0,3.9,5.4,7,12,7c6.6,0,12-3.1,12-7c0,0,0,0,0,0v-2c0,3.6-4.8,6.6-10.9,7c-0.4,0-0.7,0-1.1,0
				s-0.8,0-1.1,0C4.8,21.6,0,18.6,0,15L0,15z"/>
		</g>
		<g>
			<path fill="#ED1C24" d="M0,10v2c0,3.9,5.4,7,12,7c6.6,0,12-3.1,12-7c0,0,0,0,0,0v-2c0,3.6-4.8,6.6-10.9,7c-0.4,0-0.7,0-1.1,0
				s-0.8,0-1.1,0C4.8,16.6,0,13.6,0,10L0,10z"/>
		</g>
	</g>
</g>
</svg>
