<?xml version="1.0" encoding="utf-8"?>
<!-- Generator: Adobe Illustrator 19.2.1, SVG Export Plug-In . SVG Version: 6.00 Build 0)  -->
<!DOCTYPE svg PUBLIC "-//W3C//DTD SVG 1.1//EN" "http://www.w3.org/Graphics/SVG/1.1/DTD/svg11.dtd">
<svg version="1.1" xmlns="http://www.w3.org/2000/svg" xmlns:xlink="http://www.w3.org/1999/xlink" x="0px" y="0px"
	 viewBox="0 0 24 24" enable-background="new 0 0 24 24" xml:space="preserve">
<g id="Layer_1">
	<path d="M10,6H4V4h6V6z M10,8H4v2h6V8z M24,3c0,1.7-1.3,3-3,3c-0.5,0-0.9-0.1-1.3-0.3l0,0L14,11.4V14h-2.6l-5.7,5.7l0,0
		C5.9,20.1,6,20.5,6,21c0,1.7-1.3,3-3,3s-3-1.3-3-3s1.3-3,3-3c0.5,0,0.9,0.1,1.3,0.3l0,0L8.6,14H0V0h14v8.6l4.3-4.3l0,0
		C18.1,3.9,18,3.5,18,3c0-1.7,1.3-3,3-3S24,1.3,24,3z M4,21c0-0.6-0.4-1-1-1s-1,0.4-1,1s0.4,1,1,1S4,21.6,4,21z M12,2H2v10h10V2z
		 M22,3c0-0.6-0.4-1-1-1s-1,0.4-1,1s0.4,1,1,1S22,3.6,22,3z"/>
</g>
<g id="Layer_2" display="none">
	
		<rect x="1" y="1" display="inline" fill="none" stroke="#ED1C24" stroke-width="2" stroke-miterlimit="10" width="12" height="12"/>
	<line display="inline" fill="none" stroke="#ED1C24" stroke-width="2" stroke-miterlimit="10" x1="4" y1="5" x2="10" y2="5"/>
	<line display="inline" fill="none" stroke="#ED1C24" stroke-width="2" stroke-miterlimit="10" x1="4" y1="9" x2="10" y2="9"/>
	<circle display="inline" fill="none" stroke="#ED1C24" stroke-width="2" stroke-miterlimit="10" cx="21" cy="3" r="2"/>
	<circle display="inline" fill="none" stroke="#ED1C24" stroke-width="2" stroke-miterlimit="10" cx="3" cy="21" r="2"/>
	<line display="inline" fill="none" stroke="#ED1C24" stroke-width="2" stroke-miterlimit="10" x1="19" y1="5" x2="13" y2="11"/>
	<line display="inline" fill="none" stroke="#ED1C24" stroke-width="2" stroke-miterlimit="10" x1="11" y1="13" x2="5" y2="19"/>
</g>
</svg>
