<?xml version="1.0" encoding="utf-8"?>
<!-- Generator: Adobe Illustrator 19.2.1, SVG Export Plug-In . SVG Version: 6.00 Build 0)  -->
<!DOCTYPE svg PUBLIC "-//W3C//DTD SVG 1.1//EN" "http://www.w3.org/Graphics/SVG/1.1/DTD/svg11.dtd">
<svg version="1.1" xmlns="http://www.w3.org/2000/svg" xmlns:xlink="http://www.w3.org/1999/xlink" x="0px" y="0px"
	 viewBox="0 0 24 24" enable-background="new 0 0 24 24" xml:space="preserve">
<g id="Layer_1">
	<path d="M3,0v18h6l3,6l3-6h6V0H3z M19,16H5V2h14V16z M17,6H7V4h10V6z M17,10H7V8h10V10z M17,14H7v-2h10V14z"/>
</g>
<g id="Layer_2" display="none">
	
		<rect x="4" y="1" display="inline" fill="none" stroke="#ED1C24" stroke-width="2" stroke-miterlimit="10" width="16" height="16"/>
	<line display="inline" fill="none" stroke="#ED1C24" stroke-width="2" stroke-miterlimit="10" x1="7" y1="5" x2="17" y2="5"/>
	<line display="inline" fill="none" stroke="#ED1C24" stroke-width="2" stroke-miterlimit="10" x1="7" y1="9" x2="17" y2="9"/>
	<line display="inline" fill="none" stroke="#ED1C24" stroke-width="2" stroke-miterlimit="10" x1="7" y1="13" x2="17" y2="13"/>
	<g display="inline">
		<polygon fill="#ED1C24" points="15,18 9,18 12,24 15,18 		"/>
	</g>
</g>
</svg>
