<?xml version="1.0" encoding="utf-8"?>
<!-- Generator: Adobe Illustrator 21.1.0, SVG Export Plug-In . SVG Version: 6.00 Build 0)  -->
<!DOCTYPE svg PUBLIC "-//W3C//DTD SVG 1.1//EN" "http://www.w3.org/Graphics/SVG/1.1/DTD/svg11.dtd">
<svg version="1.1" xmlns="http://www.w3.org/2000/svg" xmlns:xlink="http://www.w3.org/1999/xlink" x="0px" y="0px"
	 viewBox="0 0 24 24" enable-background="new 0 0 24 24" xml:space="preserve">
<g id="Layer_1">
	<path d="M18.7,6.7c-1.2-1.2-1.9-2.9-1.9-4.7l0,0l0,0l0-2h-2.1l-0.1,0C11,0.3,8.1,2.9,7,6.1L5.3,7.6c-2,1.7-3.1,4.1-3.1,6.7
		c0,5.4,4.4,9.8,9.8,9.8s9.8-4.4,9.8-9.8C21.8,11.4,20.7,8.7,18.7,6.7z M17.4,19.8C17,19.2,16.6,18.6,16,18c0,2.2-1.8,4-4,4
		c-4.3,0-7.8-3.5-7.8-7.8c0-2.1,0.9-3.9,2.4-5.1l0,0c0.6,2.4,2.4,4.2,4.7,4.9c-1.6-1.2-2.6-3.1-2.6-5.3c0-3.5,2.7-6.4,6-6.7l0,0
		c0,2.4,1,4.5,2.5,6.1c1.6,1.6,2.5,3.7,2.5,6.1C19.8,16.4,18.9,18.4,17.4,19.8z"/>
</g>
<g id="Layer_2" display="none">
	<g display="inline">
		<path fill="#ED1C24" d="M14.7,2L14.7,2c0,2.4,1,4.6,2.5,6.1c1.6,1.6,2.5,3.7,2.5,6.1c0,4.3-3.5,7.8-7.8,7.8s-7.8-3.5-7.8-7.8
			c0-2.1,0.9-3.9,2.4-5.1l0,0c0.6,2.4,2.4,4.2,4.7,4.9c-1.6-1.2-2.6-3.1-2.6-5.3C8.7,5.2,11.3,2.3,14.7,2 M16.7-0.2L14.5,0
			C11,0.3,8.1,2.9,7,6.1L5.3,7.6c-2,1.7-3.1,4.1-3.1,6.7c0,5.4,4.4,9.8,9.8,9.8s9.8-4.4,9.8-9.8c0-2.8-1.1-5.5-3.1-7.5
			c-1.2-1.2-1.9-2.9-1.9-4.7l0,0l0,0L16.7-0.2L16.7-0.2z"/>
	</g>
	<g display="inline">
		<path fill="#ED1C24" d="M16,18c0,2.2-1.8,4-4,4c2.1,0,4.2-0.6,5.9-1.5C17.4,19.6,16.8,18.8,16,18L16,18z"/>
	</g>
</g>
</svg>
