<?xml version="1.0" encoding="utf-8"?>
<!-- Generator: Adobe Illustrator 19.2.1, SVG Export Plug-In . SVG Version: 6.00 Build 0)  -->
<!DOCTYPE svg PUBLIC "-//W3C//DTD SVG 1.1//EN" "http://www.w3.org/Graphics/SVG/1.1/DTD/svg11.dtd">
<svg version="1.1" xmlns="http://www.w3.org/2000/svg" xmlns:xlink="http://www.w3.org/1999/xlink" x="0px" y="0px"
	 viewBox="0 0 24 24" enable-background="new 0 0 24 24" xml:space="preserve">
<g id="Layer_1">
	<path d="M1.7,23.7l-1.4-1.4L3,19.6V4.4L0.3,1.7l1.4-1.4L5,3.6v16.8L1.7,23.7z M23.7,22.3L21,19.6V4.4l2.7-2.7l-1.4-1.4L19,3.6v16.8
		l3.3,3.3L23.7,22.3z M9,5H7v2h2V5L9,5z M13,5h-2v2h2V5L13,5z M9,17H7v2h2V17L9,17z M13,17h-2v2h2V17L13,17z M17,5h-2v2h2V5L17,5z
		 M17,17h-2v2h2V17L17,17z"/>
</g>
<g id="Layer_2" display="none">
	<polyline display="inline" fill="none" stroke="#ED1C24" stroke-width="2" stroke-miterlimit="10" points="1,1 4,4 4,20 1,23 	"/>
	<polyline display="inline" fill="none" stroke="#ED1C24" stroke-width="2" stroke-miterlimit="10" points="23,1 20,4 20,20 23,23 	
		"/>
	<g display="inline">
		<polygon fill="#ED1C24" points="9,5 7,5 7,7 9,7 9,5 		"/>
	</g>
	<g display="inline">
		<polygon fill="#ED1C24" points="13,5 11,5 11,7 13,7 13,5 		"/>
	</g>
	<g display="inline">
		<polygon fill="#ED1C24" points="9,17 7,17 7,19 9,19 9,17 		"/>
	</g>
	<g display="inline">
		<polygon fill="#ED1C24" points="13,17 11,17 11,19 13,19 13,17 		"/>
	</g>
	<g display="inline">
		<polygon fill="#ED1C24" points="17,5 15,5 15,7 17,7 17,5 		"/>
	</g>
	<g display="inline">
		<polygon fill="#ED1C24" points="17,17 15,17 15,19 17,19 17,17 		"/>
	</g>
</g>
</svg>
