<?xml version="1.0" encoding="utf-8"?>
<!-- Generator: Adobe Illustrator 19.2.1, SVG Export Plug-In . SVG Version: 6.00 Build 0)  -->
<!DOCTYPE svg PUBLIC "-//W3C//DTD SVG 1.1//EN" "http://www.w3.org/Graphics/SVG/1.1/DTD/svg11.dtd">
<svg version="1.1" xmlns="http://www.w3.org/2000/svg" xmlns:xlink="http://www.w3.org/1999/xlink" x="0px" y="0px"
	 viewBox="0 0 24 24" enable-background="new 0 0 24 24" xml:space="preserve">
<g id="Layer_1">
	<path d="M0,5.3V24h24V5.3L12,0L0,5.3z M22,22H2V6.6l10-4.4l10,4.4V22z M12,15.5c0.8,0,1.5,0.7,1.5,1.5s-0.7,1.5-1.5,1.5
		s-1.5-0.7-1.5-1.5S11.2,15.5,12,15.5z M11,7h2v7h-2V7z"/>
</g>
<g id="Layer_2" display="none">
	<g display="inline">
		<path fill="#ED1C24" d="M12,2.2l10,4.4V22H2V6.6L12,2.2 M12,0L0,5.3V24h24V5.3L12,0L12,0z"/>
	</g>
	<g display="inline">
		<path fill="#ED1C24" d="M12,15.5c-0.8,0-1.5,0.7-1.5,1.5s0.7,1.5,1.5,1.5s1.5-0.7,1.5-1.5S12.8,15.5,12,15.5L12,15.5z"/>
	</g>
	<line display="inline" fill="none" stroke="#ED1C24" stroke-width="2" stroke-miterlimit="10" x1="12" y1="14" x2="12" y2="7"/>
</g>
</svg>
