<?xml version="1.0" encoding="utf-8"?>
<!-- Generator: Adobe Illustrator 19.2.1, SVG Export Plug-In . SVG Version: 6.00 Build 0)  -->
<!DOCTYPE svg PUBLIC "-//W3C//DTD SVG 1.1//EN" "http://www.w3.org/Graphics/SVG/1.1/DTD/svg11.dtd">
<svg version="1.1" xmlns="http://www.w3.org/2000/svg" xmlns:xlink="http://www.w3.org/1999/xlink" x="0px" y="0px"
	 viewBox="0 0 24 24" enable-background="new 0 0 24 24" xml:space="preserve">
<g id="Layer_1">
	<path d="M22,3.1l-20-3V0H0v24h2V12.9l20-3V3.1z M12,3.7l3,0.5v4.8l-3,0.5V3.7z M10,9.6l-3,0.5V2.9l3,0.5V9.6z M2,2.2l3,0.5v7.8
		l-3,0.5V2.2z M20,8.1l-3,0.5V4.4l3,0.5V8.1z"/>
</g>
<g id="Layer_2" display="none">
	<g display="inline">
		<line fill="none" stroke="#ED1C24" stroke-width="2" stroke-miterlimit="10" x1="1" y1="0" x2="1" y2="24"/>
		<line fill="none" stroke="#ED1C24" stroke-width="2" stroke-miterlimit="10" x1="6" y1="2.4" x2="6" y2="10.6"/>
		<line fill="none" stroke="#ED1C24" stroke-width="2" stroke-miterlimit="10" x1="11" y1="3.1" x2="11" y2="9.9"/>
		<line fill="none" stroke="#ED1C24" stroke-width="2" stroke-miterlimit="10" x1="16" y1="3.8" x2="16" y2="9.2"/>
		<polyline fill="none" stroke="#ED1C24" stroke-width="2" stroke-miterlimit="10" points="1,12 21,9 21,4 1,1 		"/>
	</g>
</g>
</svg>
