<?xml version="1.0" encoding="utf-8"?>
<!-- Generator: Adobe Illustrator 21.0.0, SVG Export Plug-In . SVG Version: 6.00 Build 0)  -->
<!DOCTYPE svg PUBLIC "-//W3C//DTD SVG 1.1//EN" "http://www.w3.org/Graphics/SVG/1.1/DTD/svg11.dtd">
<svg version="1.1" xmlns="http://www.w3.org/2000/svg" xmlns:xlink="http://www.w3.org/1999/xlink" x="0px" y="0px"
	 viewBox="0 0 24 24" enable-background="new 0 0 24 24" xml:space="preserve">
<g id="Layer_1">
	<path d="M24,10h-2c0-5.5-4.5-10-10-10S2,4.5,2,10H0v2h1c-0.6,0.8-1,1.9-1,3c0,2.8,2.2,5,5,5h0.1c1.4,2.4,4,4,6.9,4s5.5-1.6,6.9-4
		H19c2.8,0,5-2.2,5-5c0-1.1-0.4-2.2-1-3h1V10z M9,2.6V6h2V2.1C11.3,2,11.7,2,12,2s0.7,0,1,0.1V6h2V2.6c2.9,1.2,5,4.1,5,7.4h-1h-1H6
		H5H4C4,6.7,6.1,3.8,9,2.6z M4,17.8c-1.2-0.4-2-1.5-2-2.8s0.8-2.4,2-2.8V16V17.8z M12,22c-3.3,0-6-2.7-6-6v-4h12v4
		C18,19.3,15.3,22,12,22z M20,17.8V16v-3.8c1.2,0.4,2,1.5,2,2.8S21.2,17.4,20,17.8z M9.5,13C8.7,13,8,13.7,8,14.5S8.7,16,9.5,16
		s1.5-0.7,1.5-1.5S10.3,13,9.5,13z M14.5,13c-0.8,0-1.5,0.7-1.5,1.5s0.7,1.5,1.5,1.5s1.5-0.7,1.5-1.5S15.3,13,14.5,13z"/>
</g>
<g id="Layer_2" display="none">
	<path display="inline" fill="none" stroke="#ED1C24" stroke-width="2" stroke-miterlimit="10" d="M19,19c2.2,0,4-1.8,4-4
		s-1.8-4-4-4V19z"/>
	<path display="inline" fill="none" stroke="#ED1C24" stroke-width="2" stroke-miterlimit="10" d="M5,19c-2.2,0-4-1.8-4-4s1.8-4,4-4
		V19z"/>
	<path display="inline" fill="none" stroke="#ED1C24" stroke-width="2" stroke-miterlimit="10" d="M3,10c0-5,4-9,9-9s9,4,9,9"/>
	<path display="inline" fill="none" stroke="#ED1C24" stroke-width="2" stroke-miterlimit="10" d="M5,11.1V16c0,3.9,3.1,7,7,7
		s7-3.1,7-7v-5"/>
	<line display="inline" fill="none" stroke="#ED1C24" stroke-width="2" stroke-miterlimit="10" x1="0" y1="11" x2="24" y2="11"/>
	<circle display="inline" fill="none" stroke="#ED1C24" stroke-width="2" stroke-miterlimit="10" cx="9.5" cy="14.5" r="0.5"/>
	<circle display="inline" fill="none" stroke="#ED1C24" stroke-width="2" stroke-miterlimit="10" cx="14.5" cy="14.5" r="0.5"/>
	<line display="inline" fill="none" stroke="#ED1C24" stroke-width="2" stroke-miterlimit="10" x1="10" y1="2" x2="10" y2="6"/>
	<line display="inline" fill="none" stroke="#ED1C24" stroke-width="2" stroke-miterlimit="10" x1="14" y1="2" x2="14" y2="6"/>
</g>
</svg>
