<?xml version="1.0" encoding="utf-8"?>
<!-- Generator: Adobe Illustrator 21.0.0, SVG Export Plug-In . SVG Version: 6.00 Build 0)  -->
<!DOCTYPE svg PUBLIC "-//W3C//DTD SVG 1.1//EN" "http://www.w3.org/Graphics/SVG/1.1/DTD/svg11.dtd">
<svg version="1.1" xmlns="http://www.w3.org/2000/svg" xmlns:xlink="http://www.w3.org/1999/xlink" x="0px" y="0px"
	 viewBox="0 0 24 24" enable-background="new 0 0 24 24" xml:space="preserve">
<g id="Layer_1">
	<path d="M0,21c0,1.7,1.3,3,3,3s3-1.3,3-3s-1.3-3-3-3S0,19.3,0,21z M3,20c0.6,0,1,0.4,1,1s-0.4,1-1,1s-1-0.4-1-1S2.4,20,3,20z
		 M10,21c0,1.7,1.3,3,3,3s3-1.3,3-3s-1.3-3-3-3S10,19.3,10,21z M13,20c0.6,0,1,0.4,1,1s-0.4,1-1,1s-1-0.4-1-1S12.4,20,13,20z M22,15
		L22,15l0-15h-2v2h-4.4l-4,4H8v6H0v6h3h10h3v-5.2l-2.1-6.3L16.4,4H20v10.1C19.7,14,19.3,14,19,14h-1v10h1c2.8,0,5-2.2,5-5
		C24,17.4,23.2,15.9,22,15z M14,16H2v-2h8V8h2.3l1.7,5.2V16z M20,21.8v-5.7c1.2,0.4,2,1.5,2,2.8S21.2,21.4,20,21.8z"/>
</g>
<g id="Layer_2" display="none">
	<polygon display="inline" fill="none" stroke="#ED1C24" stroke-width="2" stroke-miterlimit="10" points="13,7 9,7 9,13 1,13 1,17 
		9,17 15,17 15,13 	"/>
	<circle display="inline" fill="none" stroke="#ED1C24" stroke-width="2" stroke-miterlimit="10" cx="3" cy="21" r="2"/>
	<circle display="inline" fill="none" stroke="#ED1C24" stroke-width="2" stroke-miterlimit="10" cx="13" cy="21" r="2"/>
	<path display="inline" fill="none" stroke="#ED1C24" stroke-width="2" stroke-miterlimit="10" d="M19,23c2.2,0,4-1.8,4-4
		s-1.8-4-4-4V23z"/>
	<line display="inline" fill="none" stroke="#ED1C24" stroke-width="2" stroke-miterlimit="10" x1="21" y1="0" x2="21" y2="15"/>
	<polyline display="inline" fill="none" stroke="#ED1C24" stroke-width="2" stroke-miterlimit="10" points="21,3 16,3 12,7 	"/>
</g>
</svg>
