<?xml version="1.0" encoding="utf-8"?>
<!-- Generator: Adobe Illustrator 19.2.1, SVG Export Plug-In . SVG Version: 6.00 Build 0)  -->
<!DOCTYPE svg PUBLIC "-//W3C//DTD SVG 1.1//EN" "http://www.w3.org/Graphics/SVG/1.1/DTD/svg11.dtd">
<svg version="1.1" xmlns="http://www.w3.org/2000/svg" xmlns:xlink="http://www.w3.org/1999/xlink" x="0px" y="0px"
	 viewBox="0 0 24 24" enable-background="new 0 0 24 24" xml:space="preserve">
<g id="Layer_1">
	<path d="M15,8V6H9v2h2v6H8v2c0,2.2,1.8,4,4,4s4-1.8,4-4v-2h-3V8H15z M14,16c0,1.1-0.9,2-2,2s-2-0.9-2-2H14z M0,5.3V24h24V5.3L12,0
		L0,5.3z M22,22H2V6.6l10-4.4l10,4.4V22z"/>
</g>
<g id="Layer_2" display="none">
	<path display="inline" fill="none" stroke="#ED1C24" stroke-width="2" stroke-miterlimit="10" d="M9,16c0,1.7,1.3,3,3,3s3-1.3,3-3"
		/>
	<line display="inline" fill="none" stroke="#ED1C24" stroke-width="2" stroke-miterlimit="10" x1="12" y1="14" x2="12" y2="7"/>
	<line display="inline" fill="none" stroke="#ED1C24" stroke-width="2" stroke-miterlimit="10" x1="15" y1="7" x2="9" y2="7"/>
	<line display="inline" fill="none" stroke="#ED1C24" stroke-width="2" stroke-miterlimit="10" x1="16" y1="15" x2="8" y2="15"/>
	<g display="inline">
		<path fill="#ED1C24" d="M12,2.2l10,4.4V22H2V6.6L12,2.2 M12,0L0,5.3V24h24V5.3L12,0L12,0z"/>
	</g>
</g>
</svg>
