<?xml version="1.0" encoding="utf-8"?>
<!-- Generator: Adobe Illustrator 19.2.1, SVG Export Plug-In . SVG Version: 6.00 Build 0)  -->
<!DOCTYPE svg PUBLIC "-//W3C//DTD SVG 1.1//EN" "http://www.w3.org/Graphics/SVG/1.1/DTD/svg11.dtd">
<svg version="1.1" xmlns="http://www.w3.org/2000/svg" xmlns:xlink="http://www.w3.org/1999/xlink" x="0px" y="0px"
	 viewBox="0 0 24 24" enable-background="new 0 0 24 24" xml:space="preserve">
<g id="Layer_1">
	<path d="M18,10l2-2v16H0V4h16l-2,2H2v16h16V10z M12,0v2h8.6L9.3,13.3l1.4,1.4L22,3.4V12h2V0H12z"/>
</g>
<g id="Layer_2" display="none">
	<g display="inline">
		<g>
			<polygon fill="#ED1C24" points="16,4 0,4 0,24 20,24 20,8 18,10 18,22 2,22 2,6 14,6 16,4 			"/>
		</g>
		<line fill="none" stroke="#ED1C24" stroke-width="2" stroke-miterlimit="10" x1="10" y1="14" x2="23" y2="1"/>
		<polyline fill="none" stroke="#ED1C24" stroke-width="2" stroke-miterlimit="10" points="12,1 23,1 23,12 		"/>
	</g>
</g>
</svg>
