<?xml version="1.0" encoding="utf-8"?>
<!-- Generator: Adobe Illustrator 21.0.0, SVG Export Plug-In . SVG Version: 6.00 Build 0)  -->
<!DOCTYPE svg PUBLIC "-//W3C//DTD SVG 1.1//EN" "http://www.w3.org/Graphics/SVG/1.1/DTD/svg11.dtd">
<svg version="1.1" xmlns="http://www.w3.org/2000/svg" xmlns:xlink="http://www.w3.org/1999/xlink" x="0px" y="0px"
	 viewBox="0 0 24 24" enable-background="new 0 0 24 24" xml:space="preserve">
<g id="Layer_1">
	<path d="M23.7,9.7l-1.4-1.4L8.6,22H6v-8h4V0H0v14h4v8H0v2h24v-2H11.4L23.7,9.7z M2,2h6v10H2V2z M6,5c0,0.6-0.4,1-1,1
		C4.4,6,4,5.6,4,5s0.4-1,1-1C5.6,4,6,4.4,6,5z M6,9c0,0.6-0.4,1-1,1c-0.6,0-1-0.4-1-1s0.4-1,1-1C5.6,8,6,8.4,6,9z"/>
</g>
<g id="Layer_2" display="none">
	<line display="inline" fill="none" stroke="#ED1C24" stroke-width="2" stroke-miterlimit="10" x1="0" y1="23" x2="24" y2="23"/>
	<line display="inline" fill="none" stroke="#ED1C24" stroke-width="2" stroke-miterlimit="10" x1="9" y1="23" x2="23" y2="9"/>
	<rect x="1" y="1" display="inline" fill="none" stroke="#ED1C24" stroke-width="2" stroke-miterlimit="10" width="8" height="12"/>
	<line display="inline" fill="none" stroke="#ED1C24" stroke-width="2" stroke-miterlimit="10" x1="5" y1="13" x2="5" y2="23"/>
	<g display="inline">
		<path fill="#ED1C24" d="M5,4C4.4,4,4,4.4,4,5s0.4,1,1,1s1-0.4,1-1S5.6,4,5,4L5,4z"/>
	</g>
	<g display="inline">
		<path fill="#ED1C24" d="M5,8C4.4,8,4,8.4,4,9s0.4,1,1,1s1-0.4,1-1S5.6,8,5,8L5,8z"/>
	</g>
</g>
</svg>
