<?xml version="1.0" encoding="utf-8"?>
<!-- Generator: Adobe Illustrator 19.2.1, SVG Export Plug-In . SVG Version: 6.00 Build 0)  -->
<!DOCTYPE svg PUBLIC "-//W3C//DTD SVG 1.1//EN" "http://www.w3.org/Graphics/SVG/1.1/DTD/svg11.dtd">
<svg version="1.1" xmlns="http://www.w3.org/2000/svg" xmlns:xlink="http://www.w3.org/1999/xlink" x="0px" y="0px"
	 viewBox="0 0 24 24" enable-background="new 0 0 24 24" xml:space="preserve">
<g id="Layer_1">
	<path d="M4,13H0v-2h4V13z M6.2,13.5L8,11.7c0.1-2,1.7-3.6,3.7-3.7l1.8-1.8C13.1,6.1,12.5,6,12,6c-3.3,0-6,2.7-6,6
		C6,12.5,6.1,13.1,6.2,13.5z M7.1,5.6L4.2,2.8L2.8,4.2l2.8,2.8L7.1,5.6z M13,0h-2v4h2V0z M17,18.4l2.8,2.8l1.4-1.4l-2.8-2.8L17,18.4
		z M11,24h2v-4h-2V24z M20,13h4v-2h-4V13z M17.8,10.5L16,12.3c-0.1,2-1.7,3.6-3.7,3.7l-1.8,1.8c0.5,0.1,1,0.2,1.5,0.2
		c3.3,0,6-2.7,6-6C18,11.5,17.9,10.9,17.8,10.5z M22.3,0.3l-22,22l1.4,1.4l22-22L22.3,0.3z"/>
</g>
<g id="Layer_2" display="none">
	<g display="inline">
		<rect y="11" fill="#ED1C24" width="4" height="2"/>
		<path fill="#ED1C24" d="M6.2,13.5L8,11.7c0.1-2,1.7-3.6,3.7-3.7l1.8-1.8C13.1,6.1,12.5,6,12,6c-3.3,0-6,2.7-6,6
			C6,12.5,6.1,13.1,6.2,13.5z"/>
		<rect x="3.9" y="2.9" transform="matrix(0.707 -0.7072 0.7072 0.707 -2.0416 4.9297)" fill="#ED1C24" width="2" height="4"/>
		<rect x="11" fill="#ED1C24" width="2" height="4"/>
		<rect x="18.1" y="17.1" transform="matrix(0.7072 -0.707 0.707 0.7072 -7.8994 19.0689)" fill="#ED1C24" width="2" height="4"/>
		<rect x="11" y="20" fill="#ED1C24" width="2" height="4"/>
		<rect x="20" y="11" fill="#ED1C24" width="4" height="2"/>
		<path fill="#ED1C24" d="M17.8,10.5L16,12.3c-0.1,2-1.7,3.6-3.7,3.7l-1.8,1.8c0.5,0.1,1,0.2,1.5,0.2c3.3,0,6-2.7,6-6
			C18,11.5,17.9,10.9,17.8,10.5z"/>
	</g>
	<line display="inline" fill="none" stroke="#ED1C24" stroke-width="2" stroke-miterlimit="10" x1="1" y1="23" x2="23" y2="1"/>
</g>
</svg>
