<?xml version="1.0" encoding="utf-8"?>
<!-- Generator: Adobe Illustrator 19.2.1, SVG Export Plug-In . SVG Version: 6.00 Build 0)  -->
<!DOCTYPE svg PUBLIC "-//W3C//DTD SVG 1.1//EN" "http://www.w3.org/Graphics/SVG/1.1/DTD/svg11.dtd">
<svg version="1.1" xmlns="http://www.w3.org/2000/svg" xmlns:xlink="http://www.w3.org/1999/xlink" x="0px" y="0px"
	 viewBox="0 0 24 24" enable-background="new 0 0 24 24" xml:space="preserve">
<g id="Layer_1">
	<path d="M4,5H0V3h4V5z M20,5h4V3h-4V5z M16,4c0,0.7-0.2,1.4-0.6,2H16v18H8V6h0.6C8.2,5.4,8,4.7,8,4c0-2.2,1.8-4,4-4S16,1.8,16,4z
		 M12,6c1.1,0,2-0.9,2-2s-0.9-2-2-2s-2,0.9-2,2S10.9,6,12,6z M14,18h-4v4h4V18z M14,13h-4v3h4V13z M14,8h-4v3h4V8z M17,10.4l2.8,2.8
		l1.4-1.4L18.4,9L17,10.4z M2.8,11.8l1.4,1.4L7,10.4L5.6,9L2.8,11.8z"/>
</g>
<g id="Layer_2" display="none">
	<line display="inline" fill="none" stroke="#ED1C24" stroke-width="2" stroke-miterlimit="10" x1="0" y1="4" x2="4" y2="4"/>
	<line display="inline" fill="none" stroke="#ED1C24" stroke-width="2" stroke-miterlimit="10" x1="20" y1="4" x2="24" y2="4"/>
	<circle display="inline" fill="none" stroke="#ED1C24" stroke-width="2" stroke-miterlimit="10" cx="12" cy="4" r="3"/>
	
		<line display="inline" fill="none" stroke="#ED1C24" stroke-width="2" stroke-miterlimit="10" x1="20.5" y1="12.5" x2="17.7" y2="9.7"/>
	
		<line display="inline" fill="none" stroke="#ED1C24" stroke-width="2" stroke-miterlimit="10" x1="3.5" y1="12.5" x2="6.3" y2="9.7"/>
	<rect x="9" y="7" display="inline" fill="none" stroke="#ED1C24" stroke-width="2" stroke-miterlimit="10" width="6" height="16"/>
	<line display="inline" fill="none" stroke="#ED1C24" stroke-width="2" stroke-miterlimit="10" x1="10" y1="12" x2="14" y2="12"/>
	<line display="inline" fill="none" stroke="#ED1C24" stroke-width="2" stroke-miterlimit="10" x1="10" y1="17" x2="14" y2="17"/>
</g>
</svg>
