<?xml version="1.0" encoding="utf-8"?>
<!-- Generator: Adobe Illustrator 19.2.1, SVG Export Plug-In . SVG Version: 6.00 Build 0)  -->
<!DOCTYPE svg PUBLIC "-//W3C//DTD SVG 1.1//EN" "http://www.w3.org/Graphics/SVG/1.1/DTD/svg11.dtd">
<svg version="1.1" xmlns="http://www.w3.org/2000/svg" xmlns:xlink="http://www.w3.org/1999/xlink" x="0px" y="0px"
	 viewBox="0 0 24 24" enable-background="new 0 0 24 24" xml:space="preserve">
<g id="Layer_1">
	<path d="M20,6.7c-2.2,0-4-1.8-4-4c0,2.2-1.8,4-4,4c-2.2,0-4-1.8-4-4c0,2.2-1.8,4-4,4c-2.2,0-4-1.8-4-4v6.7c0,6.6,5.4,12,12,12
		c6.6,0,12-5.4,12-12V2.7C24,4.9,22.2,6.7,20,6.7z M22,9.3c0,5.5-4.5,10-10,10c-5.5,0-10-4.5-10-10v-1c0.6,0.2,1.3,0.3,2,0.3
		c1.5,0,2.9-0.6,4-1.5c1.1,1,2.5,1.5,4,1.5s2.9-0.6,4-1.5c1.1,1,2.5,1.5,4,1.5c0.7,0,1.4-0.1,2-0.3V9.3z"/>
</g>
<g id="Layer_2" display="none">
	<g display="inline">
		<path fill="#ED1C24" d="M16,7.1c1.1,1,2.5,1.5,4,1.5c0.7,0,1.4-0.1,2-0.3v1c0,5.5-4.5,10-10,10S2,14.8,2,9.3v-1
			c0.6,0.2,1.3,0.3,2,0.3c1.5,0,2.9-0.6,4-1.5c1.1,1,2.5,1.5,4,1.5S14.9,8.1,16,7.1 M24,2.7c0,2.2-1.8,4-4,4s-4-1.8-4-4
			c0,2.2-1.8,4-4,4s-4-1.8-4-4c0,2.2-1.8,4-4,4s-4-1.8-4-4v6.7c0,6.6,5.4,12,12,12s12-5.4,12-12V2.7L24,2.7z"/>
	</g>
</g>
</svg>
