<?xml version="1.0" encoding="utf-8"?>
<!-- Generator: Adobe Illustrator 19.2.1, SVG Export Plug-In . SVG Version: 6.00 Build 0)  -->
<!DOCTYPE svg PUBLIC "-//W3C//DTD SVG 1.1//EN" "http://www.w3.org/Graphics/SVG/1.1/DTD/svg11.dtd">
<svg version="1.1" xmlns="http://www.w3.org/2000/svg" xmlns:xlink="http://www.w3.org/1999/xlink" x="0px" y="0px"
	 viewBox="0 0 24 24" enable-background="new 0 0 24 24" xml:space="preserve">
<g id="Layer_1">
	<path d="M0,12h1.2C1.1,12.3,1,12.6,1,13c0,1.7,1.3,3,3,3c0.8,0,1.5-0.3,2-0.8C6.5,15.7,7.2,16,8,16c1.7,0,3-1.3,3-3
		c0-0.4-0.1-0.7-0.2-1h2.4c-0.1,0.3-0.2,0.6-0.2,1c0,1.7,1.3,3,3,3c0.8,0,1.5-0.3,2-0.8c0.5,0.5,1.2,0.8,2,0.8c1.7,0,3-1.3,3-3
		c0-0.4-0.1-0.7-0.2-1H24V0H0V12z M4,14c-0.6,0-1-0.4-1-1s0.4-1,1-1s1,0.4,1,1S4.6,14,4,14z M9,13c0,0.6-0.4,1-1,1s-1-0.4-1-1
		s0.4-1,1-1S9,12.4,9,13z M16,14c-0.6,0-1-0.4-1-1s0.4-1,1-1s1,0.4,1,1S16.6,14,16,14z M21,13c0,0.6-0.4,1-1,1s-1-0.4-1-1s0.4-1,1-1
		S21,12.4,21,13z M2,2h20v8H2V2z M16,16h4h4v2h-8v6h-2v-6h-4v6H8v-6H0v-2h4h4H16z"/>
</g>
<g id="Layer_2" display="none">
	
		<rect x="1" y="1" display="inline" fill="none" stroke="#ED1C24" stroke-width="2" stroke-miterlimit="10" width="22" height="10"/>
	<circle display="inline" fill="none" stroke="#ED1C24" stroke-width="2" stroke-miterlimit="10" cx="4" cy="13" r="2"/>
	<circle display="inline" fill="none" stroke="#ED1C24" stroke-width="2" stroke-miterlimit="10" cx="8" cy="13" r="2"/>
	<circle display="inline" fill="none" stroke="#ED1C24" stroke-width="2" stroke-miterlimit="10" cx="16" cy="13" r="2"/>
	<circle display="inline" fill="none" stroke="#ED1C24" stroke-width="2" stroke-miterlimit="10" cx="20" cy="13" r="2"/>
	<line display="inline" fill="none" stroke="#ED1C24" stroke-width="2" stroke-miterlimit="10" x1="0" y1="17" x2="24" y2="17"/>
	<line display="inline" fill="none" stroke="#ED1C24" stroke-width="2" stroke-miterlimit="10" x1="9" y1="24" x2="9" y2="17"/>
	<line display="inline" fill="none" stroke="#ED1C24" stroke-width="2" stroke-miterlimit="10" x1="15" y1="24" x2="15" y2="17"/>
</g>
</svg>
