<?xml version="1.0" encoding="utf-8"?>
<!-- Generator: Adobe Illustrator 21.0.0, SVG Export Plug-In . SVG Version: 6.00 Build 0)  -->
<!DOCTYPE svg PUBLIC "-//W3C//DTD SVG 1.1//EN" "http://www.w3.org/Graphics/SVG/1.1/DTD/svg11.dtd">
<svg version="1.1" xmlns="http://www.w3.org/2000/svg" xmlns:xlink="http://www.w3.org/1999/xlink" x="0px" y="0px"
	 viewBox="0 0 24 24" enable-background="new 0 0 24 24" xml:space="preserve">
<g id="Layer_1">
	<path d="M0,20c0,2.2,1.8,4,4,4s4-1.8,4-4s-1.8-4-4-4S0,17.8,0,20z M4,18c1.1,0,2,0.9,2,2s-0.9,2-2,2s-2-0.9-2-2S2.9,18,4,18z M10,4
		v8c0,2.2-1.8,4-4,4H4H0v-2h6c1.1,0,2-0.9,2-2V4c0-1.1-0.9-2-2-2H0V0h6C8.2,0,10,1.8,10,4z M17.7,6.3l5.7,5.7l-5.7,5.7l-1.4-1.4
		l3.3-3.3H14v-2h5.6l-3.3-3.3L17.7,6.3z"/>
</g>
<g id="Layer_2" display="none">
	<circle display="inline" fill="none" stroke="#ED1C24" stroke-width="2" stroke-miterlimit="10" cx="4" cy="20" r="3"/>
	<path display="inline" fill="none" stroke="#ED1C24" stroke-width="2" stroke-miterlimit="10" d="M9,4c0-1.7-1.3-3-3-3"/>
	<path display="inline" fill="none" stroke="#ED1C24" stroke-width="2" stroke-miterlimit="10" d="M6,15c1.7,0,3-1.3,3-3"/>
	<line display="inline" fill="none" stroke="#ED1C24" stroke-width="2" stroke-miterlimit="10" x1="14" y1="12" x2="22" y2="12"/>
	<polyline display="inline" fill="none" stroke="#ED1C24" stroke-width="2" stroke-miterlimit="10" points="17,7 22,12 17,17 	"/>
	<line display="inline" fill="none" stroke="#ED1C24" stroke-width="2" stroke-miterlimit="10" x1="0" y1="1" x2="6" y2="1"/>
	<line display="inline" fill="none" stroke="#ED1C24" stroke-width="2" stroke-miterlimit="10" x1="0" y1="15" x2="6" y2="15"/>
	<line display="inline" fill="none" stroke="#ED1C24" stroke-width="2" stroke-miterlimit="10" x1="9" y1="4" x2="9" y2="12"/>
</g>
</svg>
