<?xml version="1.0" encoding="utf-8"?>
<!-- Generator: Adobe Illustrator 21.0.0, SVG Export Plug-In . SVG Version: 6.00 Build 0)  -->
<!DOCTYPE svg PUBLIC "-//W3C//DTD SVG 1.1//EN" "http://www.w3.org/Graphics/SVG/1.1/DTD/svg11.dtd">
<svg version="1.1" xmlns="http://www.w3.org/2000/svg" xmlns:xlink="http://www.w3.org/1999/xlink" x="0px" y="0px"
	 viewBox="0 0 24 24" enable-background="new 0 0 24 24" xml:space="preserve">
<g id="Layer_1">
	<path d="M19.2,9l2.7-2.7l1.4,1.4L22.1,9H19.2z M12,7.8l-1.4-1.4L7.9,9h2.8L12,7.8z M13.4,3.5L12,4.9L16.1,9h2.8l-1.2-1.2l5.7-5.7
		l-1.4-1.4l-2.8,2.8l-2.8-2.8l-1.4,1.4l2.8,2.8l-1.4,1.4L13.4,3.5z M7.6,9L6.3,7.8L12,2.1l-1.4-1.4L7.8,3.5L4.9,0.7L3.5,2.1l2.8,2.8
		L4.9,6.3L2.1,3.5L0.7,4.9L4.8,9H7.6z M16.4,15l1.2,1.2l-1.4,1.4L13.6,15h-0.3L12,16.2l7.1,7.1l1.4-1.4l-2.8-2.8l4.1-4.1H16.4z
		 M5.1,15l1.2,1.2l-1.4,1.4L2.3,15H1.9l-1.2,1.2l7.1,7.1l1.4-1.4l-2.8-2.8l4.1-4.1H5.1z M18,13h6v-2h-6V13z M15,11H9v2h6V11z M6,11
		H0v2h6V11z"/>
</g>
<g id="Layer_2" display="none">
	<polygon display="inline" fill="#ED1C24" points="21.9,6.3 19.2,9 22.1,9 23.3,7.8 	"/>
	<polygon display="inline" fill="#ED1C24" points="10.6,6.3 7.9,9 10.8,9 12,7.8 	"/>
	<polygon display="inline" fill="#ED1C24" points="13.4,3.5 12,4.9 16.1,9 18.9,9 17.7,7.8 23.3,2.1 21.9,0.7 19.1,3.5 16.2,0.7 
		14.8,2.1 17.7,4.9 16.2,6.3 	"/>
	<polygon display="inline" fill="#ED1C24" points="7.6,9 6.3,7.8 12,2.1 10.6,0.7 7.8,3.5 4.9,0.7 3.5,2.1 6.3,4.9 4.9,6.3 2.1,3.5 
		0.7,4.9 4.8,9 	"/>
	<polygon display="inline" fill="#ED1C24" points="21.7,15 16.4,15 17.7,16.2 16.2,17.7 13.6,15 13.2,15 12,16.2 19.1,23.3 
		20.5,21.9 17.7,19.1 	"/>
	<polygon display="inline" fill="#ED1C24" points="10.4,15 5.1,15 6.3,16.2 4.9,17.7 2.3,15 1.9,15 0.7,16.2 7.8,23.3 9.2,21.9 
		6.3,19.1 	"/>
	
		<line display="inline" fill="none" stroke="#ED1C24" stroke-width="2" stroke-miterlimit="10" stroke-dasharray="6,3" x1="0" y1="12" x2="24" y2="12"/>
</g>
</svg>
