<?xml version="1.0" encoding="utf-8"?>
<!-- Generator: Adobe Illustrator 21.0.0, SVG Export Plug-In . SVG Version: 6.00 Build 0)  -->
<!DOCTYPE svg PUBLIC "-//W3C//DTD SVG 1.1//EN" "http://www.w3.org/Graphics/SVG/1.1/DTD/svg11.dtd">
<svg version="1.1" xmlns="http://www.w3.org/2000/svg" xmlns:xlink="http://www.w3.org/1999/xlink" x="0px" y="0px"
	 viewBox="0 0 24 24" enable-background="new 0 0 24 24" xml:space="preserve">
<g id="Layer_1">
	<path d="M23.7,18.4L20,12l-3.7,6.4c-0.2,0.5-0.3,1-0.3,1.6c0,2.2,1.8,4,4,4s4-1.8,4-4C24,19.4,23.9,18.9,23.7,18.4z M20,22
		c-1.1,0-2-0.9-2-2c0-0.2,0-0.5,0.1-0.7L20,16l1.9,3.3C22,19.5,22,19.8,22,20C22,21.1,21.1,22,20,22z M13.5,2.5C10.5,2.5,8,5,8,8v16
		H6v-8H2v4H0V10h2v4h4V8c0-4.1,3.4-7.5,7.5-7.5S21,3.9,21,8h-2C19,5,16.5,2.5,13.5,2.5z"/>
</g>
<g id="Layer_2" display="none">
	<g display="inline">
		<g>
			<path fill="#ED1C24" d="M20,16l1.9,3.3C22,19.5,22,19.8,22,20c0,1.1-0.9,2-2,2s-2-0.9-2-2c0-0.2,0-0.5,0.1-0.7L20,16 M20,12
				l-3.7,6.4c-0.2,0.5-0.3,1-0.3,1.6c0,2.2,1.8,4,4,4s4-1.8,4-4c0-0.6-0.1-1.1-0.3-1.6L20,12L20,12z"/>
		</g>
	</g>
	<path display="inline" fill="none" stroke="#ED1C24" stroke-width="2" stroke-miterlimit="10" d="M20,8c0-3.6-2.9-6.5-6.5-6.5"/>
	<path display="inline" fill="none" stroke="#ED1C24" stroke-width="2" stroke-miterlimit="10" d="M13.5,1.5C9.9,1.5,7,4.4,7,8"/>
	<path display="inline" fill="none" stroke="#ED1C24" stroke-width="2" stroke-miterlimit="10" d="M7,8v16"/>
	<line display="inline" fill="none" stroke="#ED1C24" stroke-width="2" stroke-miterlimit="10" x1="1" y1="15" x2="7" y2="15"/>
	<line display="inline" fill="none" stroke="#ED1C24" stroke-width="2" stroke-miterlimit="10" x1="1" y1="20" x2="1" y2="10"/>
</g>
</svg>
