<?xml version="1.0" encoding="utf-8"?>
<!-- Generator: Adobe Illustrator 19.2.1, SVG Export Plug-In . SVG Version: 6.00 Build 0)  -->
<!DOCTYPE svg PUBLIC "-//W3C//DTD SVG 1.1//EN" "http://www.w3.org/Graphics/SVG/1.1/DTD/svg11.dtd">
<svg version="1.1" xmlns="http://www.w3.org/2000/svg" xmlns:xlink="http://www.w3.org/1999/xlink" x="0px" y="0px"
	 viewBox="0 0 24 24" enable-background="new 0 0 24 24" xml:space="preserve">
<g id="Layer_1">
	<path d="M16,2h-6V0h8v8h-2V2z M8,16H6v8h8v-2H8V16z M14.2,2.4l-1.4,1.4l1.4,1.4l1.4-1.4L14.2,2.4z M12.9,6.5l-1.4-1.4l-1.4,1.4
		l1.4,1.4L12.9,6.5z M10.2,9.3L8.7,7.8L7.4,9.2l1.4,1.4L10.2,9.3z M7,11.6l-1-1L3.6,13H7V11.6z M11,11H9v2h2V11z M13,13h2v-2h-2V13z
		 M17,11v1.4l1,1l2.4-2.4H17z M13.8,14.7l1.4,1.4l1.4-1.4l-1.4-1.4L13.8,14.7z M9.8,21.6l1.4-1.4l-1.4-1.4l-1.4,1.4L9.8,21.6z
		 M13.9,17.5l-1.4-1.4l-1.4,1.4l1.4,1.4L13.9,17.5z"/>
</g>
<g id="Layer_2" display="none">
	<g display="inline">
		<polyline fill="none" stroke="#ED1C24" stroke-width="2" stroke-miterlimit="10" points="10,1 17,1 17,8 		"/>
		<polyline fill="none" stroke="#ED1C24" stroke-width="2" stroke-miterlimit="10" points="14,23 7,23 7,16 		"/>
		<g>
			<g>
				<line fill="none" stroke="#ED1C24" stroke-width="2" stroke-miterlimit="10" x1="17" y1="1" x2="16.3" y2="1.7"/>
				
					<line fill="none" stroke="#ED1C24" stroke-width="2" stroke-miterlimit="10" stroke-dasharray="1.9366,1.9366" x1="14.9" y1="3.1" x2="7.4" y2="10.6"/>
				<polyline fill="none" stroke="#ED1C24" stroke-width="2" stroke-miterlimit="10" points="6.7,11.3 6,12 7,12 				"/>
				
					<line fill="none" stroke="#ED1C24" stroke-width="2" stroke-miterlimit="10" stroke-dasharray="2,2" x1="9" y1="12" x2="16" y2="12"/>
				<polyline fill="none" stroke="#ED1C24" stroke-width="2" stroke-miterlimit="10" points="17,12 18,12 17.3,12.7 				"/>
				
					<line fill="none" stroke="#ED1C24" stroke-width="2" stroke-miterlimit="10" stroke-dasharray="1.9366,1.9366" x1="15.9" y1="14.1" x2="8.4" y2="21.6"/>
				<line fill="none" stroke="#ED1C24" stroke-width="2" stroke-miterlimit="10" x1="7.7" y1="22.3" x2="7" y2="23"/>
			</g>
		</g>
	</g>
</g>
</svg>
