<?xml version="1.0" encoding="utf-8"?>
<!-- Generator: Adobe Illustrator 19.2.1, SVG Export Plug-In . SVG Version: 6.00 Build 0)  -->
<!DOCTYPE svg PUBLIC "-//W3C//DTD SVG 1.1//EN" "http://www.w3.org/Graphics/SVG/1.1/DTD/svg11.dtd">
<svg version="1.1" xmlns="http://www.w3.org/2000/svg" xmlns:xlink="http://www.w3.org/1999/xlink" x="0px" y="0px"
	 viewBox="0 0 24 24" enable-background="new 0 0 24 24" xml:space="preserve">
<g id="Layer_1">
	<path d="M13,14h-2v-0.5c0-1.1,0.4-2.1,1.2-2.8l1.2-1.2C13.8,9,14,8.5,14,8c0-1.1-0.9-2-2-2s-2,0.9-2,2H8c0-2.2,1.8-4,4-4s4,1.8,4,4
		c0,1.1-0.4,2.1-1.2,2.8l-1.2,1.2C13.2,12.4,13,13,13,13.5V14z M12,16.5c-0.8,0-1.5,0.7-1.5,1.5s0.7,1.5,1.5,1.5s1.5-0.7,1.5-1.5
		S12.8,16.5,12,16.5L12,16.5z M24,12c0-6.6-5.4-12-12-12S0,5.4,0,12s5.4,12,12,12S24,18.6,24,12z M22,12c0,5.5-4.5,10-10,10
		S2,17.5,2,12S6.5,2,12,2S22,6.5,22,12z"/>
</g>
<g id="Layer_2" display="none">
	<g display="inline">
		<path fill="none" stroke="#ED1C24" stroke-width="2" stroke-miterlimit="10" d="M9,8c0-1.7,1.3-3,3-3s3,1.3,3,3
			c0,0.8-0.3,1.6-0.9,2.1l-1.2,1.2c-0.5,0.5-0.9,1.3-0.9,2.1V14"/>
		<g>
			<path fill="#ED1C24" d="M12,16.5c-0.8,0-1.5,0.7-1.5,1.5s0.7,1.5,1.5,1.5s1.5-0.7,1.5-1.5S12.8,16.5,12,16.5L12,16.5z"/>
		</g>
		<circle fill="none" stroke="#ED1C24" stroke-width="2" stroke-miterlimit="10" cx="12" cy="12" r="11"/>
	</g>
</g>
</svg>
