<?xml version="1.0" encoding="utf-8"?>
<!-- Generator: Adobe Illustrator 19.2.1, SVG Export Plug-In . SVG Version: 6.00 Build 0)  -->
<!DOCTYPE svg PUBLIC "-//W3C//DTD SVG 1.1//EN" "http://www.w3.org/Graphics/SVG/1.1/DTD/svg11.dtd">
<svg version="1.1" xmlns="http://www.w3.org/2000/svg" xmlns:xlink="http://www.w3.org/1999/xlink" x="0px" y="0px"
	 viewBox="0 0 36 36" enable-background="new 0 0 36 36" xml:space="preserve">
<g id="Layer_1">
	<path d="M0,10v16h10l10,10V0L10,10H0z M11.4,11.4L18,4.8v26.3l-6.6-6.6L10.8,24H10H2V12h8h0.8L11.4,11.4z M35,14.5L31.4,18l3.5,3.5
		l-1.4,1.4L30,19.4l-3.5,3.5l-1.4-1.4l3.5-3.5l-3.5-3.5l1.4-1.4l3.5,3.5l3.5-3.5L35,14.5z"/>
</g>
<g id="Layer_2" display="none">
	<g display="inline">
		<g>
			<path fill="#ED1C24" d="M18,4.8v26.3l-6.6-6.6L10.8,24H10H2V12h8h0.8l0.6-0.6L18,4.8 M20,0L10,10H0v16h10l10,10V0L20,0z"/>
		</g>
		<line fill="none" stroke="#ED1C24" stroke-width="2" stroke-miterlimit="10" x1="25.8" y1="22.2" x2="34.2" y2="13.8"/>
		<line fill="none" stroke="#ED1C24" stroke-width="2" stroke-miterlimit="10" x1="34.2" y1="22.2" x2="25.8" y2="13.8"/>
	</g>
</g>
</svg>
