<?xml version="1.0" encoding="utf-8"?>
<!-- Generator: Adobe Illustrator 19.2.1, SVG Export Plug-In . SVG Version: 6.00 Build 0)  -->
<!DOCTYPE svg PUBLIC "-//W3C//DTD SVG 1.1//EN" "http://www.w3.org/Graphics/SVG/1.1/DTD/svg11.dtd">
<svg version="1.1" xmlns="http://www.w3.org/2000/svg" xmlns:xlink="http://www.w3.org/1999/xlink" x="0px" y="0px"
	 viewBox="0 0 36 36" enable-background="new 0 0 36 36" xml:space="preserve">
<g id="Layer_1">
	<path d="M36,10V8h-6V1l-1-1l-1,1v7h-9V1l-1-1l-1,1v7H8V1L7,0L6,1v7H0v2h6v18H0v2h6v6h2v-6h9v6h2v-6h9v6h2v-6h6v-2h-6V10H36z M8,28
		V10h9v18H8z M28,28h-9V10h9V28z"/>
</g>
<g id="Layer_2" display="none">
	<line display="inline" fill="none" stroke="#ED1C24" stroke-width="2" stroke-miterlimit="10" x1="0" y1="29" x2="36" y2="29"/>
	<line display="inline" fill="none" stroke="#ED1C24" stroke-width="2" stroke-miterlimit="10" x1="0" y1="9" x2="36" y2="9"/>
	<g display="inline">
		<polygon fill="#ED1C24" points="7,0 6,1 6,36 8,36 8,1 7,0 		"/>
	</g>
	<g display="inline">
		<polygon fill="#ED1C24" points="18,0 17,1 17,36 19,36 19,1 18,0 		"/>
	</g>
	<g display="inline">
		<polygon fill="#ED1C24" points="29,0 28,1 28,36 30,36 30,1 29,0 		"/>
	</g>
</g>
</svg>
