<?xml version="1.0" encoding="utf-8"?>
<!-- Generator: Adobe Illustrator 19.2.1, SVG Export Plug-In . SVG Version: 6.00 Build 0)  -->
<!DOCTYPE svg PUBLIC "-//W3C//DTD SVG 1.1//EN" "http://www.w3.org/Graphics/SVG/1.1/DTD/svg11.dtd">
<svg version="1.1" xmlns="http://www.w3.org/2000/svg" xmlns:xlink="http://www.w3.org/1999/xlink" x="0px" y="0px"
	 viewBox="0 0 36 36" enable-background="new 0 0 36 36" xml:space="preserve">
<g id="Layer_1">
	<path d="M25,10c-3,0-5.6,1.7-7,4.1c-1.4-2.5-4-4.1-7-4.1c-4.1,0-7.4,3.1-7.9,7H0v2h3.1c0.5,3.9,3.9,7,7.9,7c3,0,5.6-1.7,7-4.1
		c1.4,2.5,4,4.1,7,4.1c4.1,0,7.4-3.1,7.9-7H36v-2h-3.1C32.4,13.1,29.1,10,25,10z M11,24c-3.3,0-6-2.7-6-6s2.7-6,6-6s6,2.7,6,6
		S14.3,24,11,24z M25,24c-3.3,0-6-2.7-6-6s2.7-6,6-6s6,2.7,6,6S28.3,24,25,24z"/>
</g>
<g id="Layer_2" display="none">
	<g display="inline">
		<circle fill="none" stroke="#ED1C24" stroke-width="2" stroke-miterlimit="10" cx="11" cy="18" r="7"/>
		<circle fill="none" stroke="#ED1C24" stroke-width="2" stroke-miterlimit="10" cx="25" cy="18" r="7"/>
		<line fill="none" stroke="#ED1C24" stroke-width="2" stroke-miterlimit="10" x1="0" y1="18" x2="4" y2="18"/>
		<line fill="none" stroke="#ED1C24" stroke-width="2" stroke-miterlimit="10" x1="32" y1="18" x2="36" y2="18"/>
	</g>
</g>
</svg>
