<?xml version="1.0" encoding="utf-8"?>
<!-- Generator: Adobe Illustrator 21.0.0, SVG Export Plug-In . SVG Version: 6.00 Build 0)  -->
<!DOCTYPE svg PUBLIC "-//W3C//DTD SVG 1.1//EN" "http://www.w3.org/Graphics/SVG/1.1/DTD/svg11.dtd">
<svg version="1.1" xmlns="http://www.w3.org/2000/svg" xmlns:xlink="http://www.w3.org/1999/xlink" x="0px" y="0px"
	 viewBox="0 0 36 36" enable-background="new 0 0 36 36" xml:space="preserve">
<g id="Layer_1">
	<path d="M36,6c0-3.3-2.7-6-6-6s-6,2.7-6,6v8c-1.5,0-4,0-4,0v2c1.8,0,3.1,0,4,0v20h12V6L36,6L36,6z M34,34h-8l0-19c0,0,0,0,0,0V6
		c0-2.2,1.8-4,4-4s4,1.8,4,4V34z M1.7,0.3L16.4,15L1.7,29.7l-1.4-1.4L13.6,15L0.3,1.7L1.7,0.3z"/>
</g>
<g id="Layer_2" display="none">
	<polyline display="inline" fill="none" stroke="#ED1C24" stroke-width="2" stroke-miterlimit="10" points="35,6 35,35 25,35 25,15 
			"/>
	<polyline display="inline" fill="none" stroke="#ED1C24" stroke-width="2" stroke-miterlimit="10" points="20,15 25,15 25,6 	"/>
	<path display="inline" fill="none" stroke="#ED1C24" stroke-width="2" stroke-miterlimit="10" d="M35,6c0-2.8-2.2-5-5-5s-5,2.2-5,5
		"/>
	<polyline display="inline" fill="none" stroke="#ED1C24" stroke-width="2" stroke-miterlimit="10" points="1,1 15,15 1,29 	"/>
</g>
</svg>
