<?xml version="1.0" encoding="utf-8"?>
<!-- Generator: Adobe Illustrator 20.1.0, SVG Export Plug-In . SVG Version: 6.00 Build 0)  -->
<!DOCTYPE svg PUBLIC "-//W3C//DTD SVG 1.1//EN" "http://www.w3.org/Graphics/SVG/1.1/DTD/svg11.dtd">
<svg version="1.1" xmlns="http://www.w3.org/2000/svg" xmlns:xlink="http://www.w3.org/1999/xlink" x="0px" y="0px"
	 viewBox="0 0 36 36" enable-background="new 0 0 36 36" xml:space="preserve">
<g id="Layer_1">
	<path d="M11,23.5c0,1.1-0.9,2-2,2s-2-0.9-2-2s0.9-2,2-2S11,22.4,11,23.5z M27,21.5c-1.1,0-2,0.9-2,2s0.9,2,2,2s2-0.9,2-2
		S28.1,21.5,27,21.5z M34,4v24c0,2.2-1.8,4-4,4v4h-2v-4H8v4H6v-4c-2.2,0-4-1.8-4-4V4c0-2.2,1.8-4,4-4h24C32.2,0,34,1.8,34,4z M4,4
		v11h28V4c0-1.1-0.9-2-2-2H6C4.9,2,4,2.9,4,4z M32,28V17H4v11c0,1.1,0.9,2,2,2h24C31.1,30,32,29.1,32,28z"/>
</g>
<g id="Layer_2" display="none">
	<line display="inline" fill="none" stroke="#00A651" stroke-width="2" stroke-miterlimit="10" x1="7" y1="31" x2="7" y2="36"/>
	<line display="inline" fill="none" stroke="#00A651" stroke-width="2" stroke-miterlimit="10" x1="29" y1="31" x2="29" y2="36"/>
	
		<line display="inline" fill="none" stroke="#00A651" stroke-width="2" stroke-miterlimit="10" x1="3.5" y1="16" x2="32.5" y2="16"/>
	<g display="inline">
		<path fill="#00A651" d="M9,21.5c-1.1,0-2,0.9-2,2s0.9,2,2,2s2-0.9,2-2S10.1,21.5,9,21.5L9,21.5z"/>
	</g>
	<g display="inline">
		<path fill="#00A651" d="M27,21.5c-1.1,0-2,0.9-2,2s0.9,2,2,2s2-0.9,2-2S28.1,21.5,27,21.5L27,21.5z"/>
	</g>
	<path display="inline" fill="none" stroke="#00A651" stroke-width="2" stroke-miterlimit="10" d="M30,31H6c-1.7,0-3-1.4-3-3V4
		c0-1.7,1.3-3,3-3h24c1.6,0,3,1.3,3,3v24C33,29.6,31.6,31,30,31z"/>
</g>
</svg>
