<?xml version="1.0" encoding="utf-8"?>
<!-- Generator: Adobe Illustrator 20.1.0, SVG Export Plug-In . SVG Version: 6.00 Build 0)  -->
<!DOCTYPE svg PUBLIC "-//W3C//DTD SVG 1.1//EN" "http://www.w3.org/Graphics/SVG/1.1/DTD/svg11.dtd">
<svg version="1.1" xmlns="http://www.w3.org/2000/svg" xmlns:xlink="http://www.w3.org/1999/xlink" x="0px" y="0px"
	 viewBox="0 0 36 36" enable-background="new 0 0 36 36" xml:space="preserve">
<g id="Layer_1">
	<path d="M17,28h2v8h-2V28z M17,22h2v-8h-2V22z M17,8h2V0h-2V8z M3.7,0.3L2.3,1.7L6.6,6l-6,6l6,6l-6,6l6,6l-4.3,4.3l1.4,1.4L9.4,30
		l-6-6l6-6l-6-6l6-6L3.7,0.3z M29.7,0.3l-1.4,1.4L32.6,6l-6,6l6,6l-6,6l6,6l-4.3,4.3l1.4,1.4l5.7-5.7l-6-6l6-6l-6-6l6-6L29.7,0.3z"
		/>
</g>
<g id="Layer_2" display="none">
	<line display="inline" fill="none" stroke="#00A651" stroke-width="2" stroke-miterlimit="10" x1="18" y1="28" x2="18" y2="36"/>
	<line display="inline" fill="none" stroke="#00A651" stroke-width="2" stroke-miterlimit="10" x1="18" y1="14" x2="18" y2="22"/>
	<line display="inline" fill="none" stroke="#00A651" stroke-width="2" stroke-miterlimit="10" x1="18" y1="0" x2="18" y2="8"/>
	<polyline display="inline" fill="none" stroke="#00A651" stroke-width="2" stroke-miterlimit="10" points="3,1 8,6 2,12 8,18 2,24 
		8,30 3,35 	"/>
	<polyline display="inline" fill="none" stroke="#00A651" stroke-width="2" stroke-miterlimit="10" points="29,1 34,6 28,12 34,18 
		28,24 34,30 29,35 	"/>
</g>
</svg>
