<?xml version="1.0" encoding="utf-8"?>
<!-- Generator: Adobe Illustrator 21.0.2, SVG Export Plug-In . SVG Version: 6.00 Build 0)  -->
<!DOCTYPE svg PUBLIC "-//W3C//DTD SVG 1.1//EN" "http://www.w3.org/Graphics/SVG/1.1/DTD/svg11.dtd">
<svg version="1.1" xmlns="http://www.w3.org/2000/svg" xmlns:xlink="http://www.w3.org/1999/xlink" x="0px" y="0px"
	 viewBox="0 0 36 36" enable-background="new 0 0 36 36" xml:space="preserve">
<g id="Layer_1">
	<g>
		<rect x="30" y="17" width="6" height="2"/>
		<rect y="17" width="6" height="2"/>
		<rect x="25.6" y="6.4" transform="matrix(0.7071 -0.7071 0.7071 0.7071 3.1507 22.3935)" width="6" height="2"/>
		<rect x="17" width="2" height="6"/>
		<rect x="6.4" y="4.4" transform="matrix(0.7071 -0.7071 0.7071 0.7071 -3.0626 7.394)" width="2" height="6"/>
		<path d="M26,18c0-4.4-3.6-8-8-8s-8,3.6-8,8v12H8v6h20v-6h-2V18z M12,18c0-3.3,2.7-6,6-6s6,2.7,6,6v12H12V18z M26,34H10v-2h16V34z"
			/>
		<path d="M18,14v2c1.1,0,2,0.9,2,2v10h2V18C22,15.8,20.2,14,18,14z"/>
	</g>
</g>
<g id="Layer_2" display="none">
	<line display="inline" fill="none" stroke="#ED1C24" stroke-width="2" stroke-miterlimit="10" x1="30" y1="18" x2="36" y2="18"/>
	<line display="inline" fill="none" stroke="#ED1C24" stroke-width="2" stroke-miterlimit="10" x1="0" y1="18" x2="6" y2="18"/>
	
		<line display="inline" fill="none" stroke="#ED1C24" stroke-width="2" stroke-miterlimit="10" x1="26.5" y1="9.5" x2="30.7" y2="5.3"/>
	<line display="inline" fill="none" stroke="#ED1C24" stroke-width="2" stroke-miterlimit="10" x1="18" y1="6" x2="18" y2="0"/>
	
		<line display="inline" fill="none" stroke="#ED1C24" stroke-width="2" stroke-miterlimit="10" x1="9.5" y1="9.5" x2="5.3" y2="5.3"/>
	<path display="inline" fill="none" stroke="#ED1C24" stroke-width="2" stroke-miterlimit="10" d="M18,11c-3.9,0-7,3.1-7,7v13h14V18
		C25,14.1,21.9,11,18,11z"/>
	<path display="inline" fill="none" stroke="#ED1C24" stroke-width="2" stroke-miterlimit="10" d="M18,15c1.7,0,3,1.3,3,3v10"/>
	
		<rect x="9" y="31" display="inline" fill="none" stroke="#ED1C24" stroke-width="2" stroke-miterlimit="10" width="18" height="4"/>
</g>
</svg>
