<?xml version="1.0" encoding="utf-8"?>
<!-- Generator: Adobe Illustrator 20.1.0, SVG Export Plug-In . SVG Version: 6.00 Build 0)  -->
<!DOCTYPE svg PUBLIC "-//W3C//DTD SVG 1.1//EN" "http://www.w3.org/Graphics/SVG/1.1/DTD/svg11.dtd">
<svg version="1.1" xmlns="http://www.w3.org/2000/svg" xmlns:xlink="http://www.w3.org/1999/xlink" x="0px" y="0px"
	 viewBox="0 0 36 36" enable-background="new 0 0 36 36" xml:space="preserve">
<g id="Layer_1">
	<path d="M30,17c0,1.1-0.9,2-2,2s-2-0.9-2-2v-1h-6v1c0,1.1-0.9,2-2,2s-2-0.9-2-2v-1h-6v1c0,1.1-0.9,2-2,2s-2-0.9-2-2v-1H0v2h4.1
		c0.4,1.7,2,3,3.9,3s3.4-1.3,3.9-3h2.3c0.4,1.7,2,3,3.9,3s3.4-1.3,3.9-3h2.3c0.4,1.7,2,3,3.9,3s3.4-1.3,3.9-3H36v-2h-6V17z"/>
</g>
<g id="Layer_2" display="none">
	<path display="inline" fill="none" stroke="#00A651" stroke-width="2" stroke-miterlimit="10" d="M0,17h5c0,1.7,1.3,3,3,3
		s3-1.3,3-3h4c0,1.7,1.3,3,3,3s3-1.3,3-3h4c0,1.7,1.3,3,3,3s3-1.3,3-3h5"/>
</g>
</svg>
