<?xml version="1.0" encoding="utf-8"?>
<!-- Generator: Adobe Illustrator 21.0.0, SVG Export Plug-In . SVG Version: 6.00 Build 0)  -->
<!DOCTYPE svg PUBLIC "-//W3C//DTD SVG 1.1//EN" "http://www.w3.org/Graphics/SVG/1.1/DTD/svg11.dtd">
<svg version="1.1" xmlns="http://www.w3.org/2000/svg" xmlns:xlink="http://www.w3.org/1999/xlink" x="0px" y="0px"
	 viewBox="0 0 36 36" enable-background="new 0 0 36 36" xml:space="preserve">
<g id="Layer_1">
	<g>
		<rect x="2" y="20" width="2" height="16"/>
		<rect x="8" y="20" width="2" height="16"/>
		<rect x="14" y="20" width="2" height="16"/>
		<rect x="20" y="20" width="2" height="16"/>
		<rect x="26" y="20" width="2" height="16"/>
		<rect x="32" y="20" width="2" height="16"/>
		<path d="M18,0c-3.1,0-6.1,1.2-8.5,3.5L1,12l6,6h2.8l-6-6l7.1-7.1C12.8,3,15.3,2,18,2c2.7,0,5.2,1,7.1,2.9l7.1,7.1l-6,6H29l6-6
			l-8.5-8.5C24.1,1.2,21.1,0,18,0z"/>
		<path d="M18,8c-2.2,0-4,1.8-4,4c0,2.2,1.8,4,4,4c2.2,0,4-1.8,4-4C22,9.8,20.2,8,18,8z M18,14c-1.1,0-2-0.9-2-2s0.9-2,2-2
			c1.1,0,2,0.9,2,2S19.1,14,18,14z"/>
	</g>
</g>
<g id="Layer_2" display="none">
	<rect x="2" y="20" display="inline" fill="#ED1C24" width="2" height="16"/>
	<rect x="8" y="20" display="inline" fill="#ED1C24" width="2" height="16"/>
	<rect x="14" y="20" display="inline" fill="#ED1C24" width="2" height="16"/>
	<rect x="20" y="20" display="inline" fill="#ED1C24" width="2" height="16"/>
	<rect x="26" y="20" display="inline" fill="#ED1C24" width="2" height="16"/>
	<rect x="32" y="20" display="inline" fill="#ED1C24" width="2" height="16"/>
	<path display="inline" fill="#ED1C24" d="M9.9,18l-6-6l7.1-7.1C12.8,3,15.3,2,18,2c2.7,0,5.2,1,7.1,2.9l7.1,7.1l-6,6H29l6-6
		l-8.5-8.5C24.1,1.2,21.1,0,18,0c-3.1,0-6.1,1.2-8.5,3.5L1,12l6,6H9.9z"/>
	<path display="inline" fill="#ED1C24" d="M22,12c0-2.2-1.8-4-4-4c-2.2,0-4,1.8-4,4c0,2.2,1.8,4,4,4C20.2,16,22,14.2,22,12z M16,12
		c0-1.1,0.9-2,2-2c1.1,0,2,0.9,2,2s-0.9,2-2,2C16.9,14,16,13.1,16,12z"/>
</g>
</svg>
