<?xml version="1.0" encoding="utf-8"?>
<!-- Generator: Adobe Illustrator 19.2.1, SVG Export Plug-In . SVG Version: 6.00 Build 0)  -->
<!DOCTYPE svg PUBLIC "-//W3C//DTD SVG 1.1//EN" "http://www.w3.org/Graphics/SVG/1.1/DTD/svg11.dtd">
<svg version="1.1" xmlns="http://www.w3.org/2000/svg" xmlns:xlink="http://www.w3.org/1999/xlink" x="0px" y="0px"
	 viewBox="0 0 36 36" enable-background="new 0 0 36 36" xml:space="preserve">
<g id="Layer_1">
	<path d="M22.9,18.7c3-1.7,5.1-5,5.1-8.7c0-5.5-4.5-10-10-10S8,4.5,8,10c0,3.7,2,7,5.1,8.7C5.5,20.8,0,27.8,0,36h36
		C36,27.8,30.5,20.8,22.9,18.7z M10,10c0-4.4,3.6-8,8-8s8,3.6,8,8c0,4.4-3.6,8-8,8S10,14.4,10,10z M18,20c8.1,0,14.9,6.1,15.9,14
		H2.1C3.1,26.1,9.9,20,18,20z"/>
</g>
<g id="Layer_2" display="none">
	<g display="inline">
		<g>
			<path fill="#ED1C24" d="M18,2c4.4,0,8,3.6,8,8s-3.6,8-8,8s-8-3.6-8-8S13.6,2,18,2 M18,0C12.5,0,8,4.5,8,10s4.5,10,10,10
				s10-4.5,10-10S23.5,0,18,0L18,0z"/>
		</g>
		<g>
			<path fill="#ED1C24" d="M18,20c8.1,0,14.9,6.1,15.9,14H2.1C3.1,26.1,9.9,20,18,20 M18,18C8.1,18,0,26.1,0,36h36
				C36,26.1,27.9,18,18,18L18,18z"/>
		</g>
	</g>
</g>
</svg>
