<?xml version="1.0" encoding="utf-8"?>
<!-- Generator: Adobe Illustrator 19.2.1, SVG Export Plug-In . SVG Version: 6.00 Build 0)  -->
<!DOCTYPE svg PUBLIC "-//W3C//DTD SVG 1.1//EN" "http://www.w3.org/Graphics/SVG/1.1/DTD/svg11.dtd">
<svg version="1.1" xmlns="http://www.w3.org/2000/svg" xmlns:xlink="http://www.w3.org/1999/xlink" x="0px" y="0px"
	 viewBox="0 0 36 36" enable-background="new 0 0 36 36" xml:space="preserve">
<g id="Layer_1">
	<path d="M18,18L36,0H0L18,18z M18,15.2L4.8,2h26.3L18,15.2z M19.5,22c0,0.8-0.7,1.5-1.5,1.5s-1.5-0.7-1.5-1.5s0.7-1.5,1.5-1.5
		S19.5,21.2,19.5,22z M19.5,30c0,0.8-0.7,1.5-1.5,1.5s-1.5-0.7-1.5-1.5s0.7-1.5,1.5-1.5S19.5,29.2,19.5,30z M11.5,30
		c0,0.8-0.7,1.5-1.5,1.5S8.5,30.8,8.5,30s0.7-1.5,1.5-1.5S11.5,29.2,11.5,30z M27.5,30c0,0.8-0.7,1.5-1.5,1.5s-1.5-0.7-1.5-1.5
		s0.7-1.5,1.5-1.5S27.5,29.2,27.5,30z M15.5,26c0,0.8-0.7,1.5-1.5,1.5s-1.5-0.7-1.5-1.5s0.7-1.5,1.5-1.5S15.5,25.2,15.5,26z
		 M23.5,26c0,0.8-0.7,1.5-1.5,1.5s-1.5-0.7-1.5-1.5s0.7-1.5,1.5-1.5S23.5,25.2,23.5,26z M15.5,34c0,0.8-0.7,1.5-1.5,1.5
		s-1.5-0.7-1.5-1.5s0.7-1.5,1.5-1.5S15.5,33.2,15.5,34z M7.5,34c0,0.8-0.7,1.5-1.5,1.5S4.5,34.8,4.5,34s0.7-1.5,1.5-1.5
		S7.5,33.2,7.5,34z M23.5,34c0,0.8-0.7,1.5-1.5,1.5s-1.5-0.7-1.5-1.5s0.7-1.5,1.5-1.5S23.5,33.2,23.5,34z M31.5,34
		c0,0.8-0.7,1.5-1.5,1.5s-1.5-0.7-1.5-1.5s0.7-1.5,1.5-1.5S31.5,33.2,31.5,34z"/>
</g>
<g id="Layer_2" display="none">
	<g display="inline">
		<path fill="#ED1C24" d="M31.2,2L18,15.2L4.8,2H31.2 M36,0H0l18,18L36,0L36,0z"/>
	</g>
	<g display="inline">
		<path fill="#ED1C24" d="M18,20.5c-0.8,0-1.5,0.7-1.5,1.5s0.7,1.5,1.5,1.5s1.5-0.7,1.5-1.5S18.8,20.5,18,20.5L18,20.5z"/>
	</g>
	<g display="inline">
		<path fill="#ED1C24" d="M18,28.5c-0.8,0-1.5,0.7-1.5,1.5s0.7,1.5,1.5,1.5s1.5-0.7,1.5-1.5S18.8,28.5,18,28.5L18,28.5z"/>
	</g>
	<g display="inline">
		<path fill="#ED1C24" d="M10,28.5c-0.8,0-1.5,0.7-1.5,1.5s0.7,1.5,1.5,1.5s1.5-0.7,1.5-1.5S10.8,28.5,10,28.5L10,28.5z"/>
	</g>
	<g display="inline">
		<path fill="#ED1C24" d="M26,28.5c-0.8,0-1.5,0.7-1.5,1.5s0.7,1.5,1.5,1.5s1.5-0.7,1.5-1.5S26.8,28.5,26,28.5L26,28.5z"/>
	</g>
	<g display="inline">
		<path fill="#ED1C24" d="M14,24.5c-0.8,0-1.5,0.7-1.5,1.5s0.7,1.5,1.5,1.5s1.5-0.7,1.5-1.5S14.8,24.5,14,24.5L14,24.5z"/>
	</g>
	<g display="inline">
		<path fill="#ED1C24" d="M22,24.5c-0.8,0-1.5,0.7-1.5,1.5s0.7,1.5,1.5,1.5s1.5-0.7,1.5-1.5S22.8,24.5,22,24.5L22,24.5z"/>
	</g>
	<g display="inline">
		<path fill="#ED1C24" d="M14,32.5c-0.8,0-1.5,0.7-1.5,1.5s0.7,1.5,1.5,1.5s1.5-0.7,1.5-1.5S14.8,32.5,14,32.5L14,32.5z"/>
	</g>
	<g display="inline">
		<path fill="#ED1C24" d="M6,32.5c-0.8,0-1.5,0.7-1.5,1.5s0.7,1.5,1.5,1.5s1.5-0.7,1.5-1.5S6.8,32.5,6,32.5L6,32.5z"/>
	</g>
	<g display="inline">
		<path fill="#ED1C24" d="M22,32.5c-0.8,0-1.5,0.7-1.5,1.5s0.7,1.5,1.5,1.5s1.5-0.7,1.5-1.5S22.8,32.5,22,32.5L22,32.5z"/>
	</g>
	<g display="inline">
		<path fill="#ED1C24" d="M30,32.5c-0.8,0-1.5,0.7-1.5,1.5s0.7,1.5,1.5,1.5s1.5-0.7,1.5-1.5S30.8,32.5,30,32.5L30,32.5z"/>
	</g>
</g>
</svg>
