<?xml version="1.0" encoding="utf-8"?>
<!-- Generator: Adobe Illustrator 21.0.0, SVG Export Plug-In . SVG Version: 6.00 Build 0)  -->
<!DOCTYPE svg PUBLIC "-//W3C//DTD SVG 1.1//EN" "http://www.w3.org/Graphics/SVG/1.1/DTD/svg11.dtd">
<svg version="1.1" xmlns="http://www.w3.org/2000/svg" xmlns:xlink="http://www.w3.org/1999/xlink" x="0px" y="0px"
	 viewBox="0 0 36 36" enable-background="new 0 0 36 36" xml:space="preserve">
<g id="Layer_1">
	<path d="M35.7,34.3L16,14.6c1.2-1.5,2-3.5,2-5.6c0-5-4-9-9-9v2c3.9,0,7,3.1,7,7s-3.1,7-7,7s-7-3.1-7-7H0c0,5,4,9,9,9
		c2.1,0,4.1-0.7,5.6-2l19.7,19.7L35.7,34.3z"/>
</g>
<g id="Layer_2" display="none">
	<line display="inline" fill="none" stroke="#ED1C24" stroke-width="2" stroke-miterlimit="10" x1="35" y1="35" x2="15" y2="15"/>
	<path display="inline" fill="none" stroke="#ED1C24" stroke-width="2" stroke-miterlimit="10" d="M9,1c4.4,0,8,3.6,8,8s-3.6,8-8,8
		s-8-3.6-8-8"/>
</g>
</svg>
