<?xml version="1.0" encoding="utf-8"?>
<!-- Generator: Adobe Illustrator 19.2.1, SVG Export Plug-In . SVG Version: 6.00 Build 0)  -->
<!DOCTYPE svg PUBLIC "-//W3C//DTD SVG 1.1//EN" "http://www.w3.org/Graphics/SVG/1.1/DTD/svg11.dtd">
<svg version="1.1" xmlns="http://www.w3.org/2000/svg" xmlns:xlink="http://www.w3.org/1999/xlink" x="0px" y="0px"
	 viewBox="0 0 36 36" enable-background="new 0 0 36 36" xml:space="preserve">
<g id="Layer_1">
	<path d="M34.4,13c2.1,5.2,2.1,10.9,0,16.1l-1.8-0.8c1.9-4.7,1.9-9.9,0-14.5L34.4,13z M26.3,11.1c2.3,2.6,3.7,6.1,3.7,9.9
		c0,8.3-6.7,15-15,15S0,29.3,0,21S6.7,6,15,6c3.8,0,7.2,1.4,9.9,3.7l9.4-9.4l1.4,1.4L26.3,11.1z M24.9,12.6L15,22.4l-7.7-7.7
		l1.4-1.4l6.3,6.3l8.4-8.4C21.2,9.2,18.2,8,15,8C7.8,8,2,13.8,2,21s5.8,13,13,13s13-5.8,13-13C28,17.8,26.8,14.8,24.9,12.6z"/>
</g>
<g id="Layer_2" display="none">
	<circle display="inline" fill="none" stroke="#ED1C24" stroke-width="2" stroke-miterlimit="10" cx="15" cy="21" r="14"/>
	<path display="inline" fill="none" stroke="#ED1C24" stroke-width="2" stroke-miterlimit="10" d="M33.5,28.7c2-4.7,2.1-10.2,0-15.3
		"/>
	<polyline display="inline" fill="none" stroke="#ED1C24" stroke-width="2" stroke-miterlimit="10" points="35,1 15,21 8,14 	"/>
</g>
</svg>
