<?xml version="1.0" encoding="utf-8"?>
<!-- Generator: Adobe Illustrator 20.1.0, SVG Export Plug-In . SVG Version: 6.00 Build 0)  -->
<!DOCTYPE svg PUBLIC "-//W3C//DTD SVG 1.1//EN" "http://www.w3.org/Graphics/SVG/1.1/DTD/svg11.dtd">
<svg version="1.1" xmlns="http://www.w3.org/2000/svg" xmlns:xlink="http://www.w3.org/1999/xlink" x="0px" y="0px"
	 viewBox="0 0 36 36" enable-background="new 0 0 36 36" xml:space="preserve">
<g id="Layer_1">
	<path d="M17,30h19v2H19v4H0v-2h17V30z M30.6,10H36v6h-5.4c-1.4,5.8-6.5,10-12.6,10S6.7,21.8,5.4,16H0v-6h5.4C6.7,4.2,11.9,0,18,0
		S29.3,4.2,30.6,10z M7.4,10h21.1C27.3,5.3,23,2,18,2S8.7,5.3,7.4,10z M18,12c-0.6,0-1,0.4-1,1s0.4,1,1,1s1-0.4,1-1S18.6,12,18,12z
		 M5,14h10.2c-0.1-0.3-0.2-0.6-0.2-1s0.1-0.7,0.2-1H5H2v2H5z M28.6,16H7.4c1.3,4.7,5.6,8,10.6,8S27.3,20.7,28.6,16z M31,12H20.8
		c0.1,0.3,0.2,0.6,0.2,1s-0.1,0.7-0.2,1H31h3v-2H31z"/>
</g>
<g id="Layer_2" display="none">
	<polyline display="inline" fill="none" stroke="#00A651" stroke-width="2" stroke-miterlimit="10" points="0,35 18,35 18,31 36,31 
			"/>
	
		<rect x="1" y="11" display="inline" fill="none" stroke="#00A651" stroke-width="2" stroke-miterlimit="10" width="34" height="4"/>
	<path display="inline" fill="none" stroke="#00A651" stroke-width="2" stroke-miterlimit="10" d="M29.8,11C28.9,5.3,23.9,1,18,1
		S7.1,5.3,6.2,11H29.8z"/>
	<path display="inline" fill="none" stroke="#00A651" stroke-width="2" stroke-miterlimit="10" d="M6.2,15c1,5.7,5.9,10,11.8,10
		s10.9-4.3,11.8-10H6.2z"/>
	<circle display="inline" fill="none" stroke="#00A651" stroke-width="2" stroke-miterlimit="10" cx="18" cy="13" r="2"/>
</g>
</svg>
