<?xml version="1.0" encoding="utf-8"?>
<!-- Generator: Adobe Illustrator 21.0.0, SVG Export Plug-In . SVG Version: 6.00 Build 0)  -->
<!DOCTYPE svg PUBLIC "-//W3C//DTD SVG 1.1//EN" "http://www.w3.org/Graphics/SVG/1.1/DTD/svg11.dtd">
<svg version="1.1" xmlns="http://www.w3.org/2000/svg" xmlns:xlink="http://www.w3.org/1999/xlink" x="0px" y="0px"
	 viewBox="0 0 36 36" enable-background="new 0 0 36 36" xml:space="preserve">
<g id="Layer_1">
	<path d="M18,28c5.5,0,10-4.5,10-10c0-2.4-0.8-4.6-2.3-6.3l10-10l-1.4-1.4l-10,10C22.6,8.8,20.4,8,18,8C12.5,8,8,12.5,8,18
		S12.5,28,18,28z M26,18c0,4.4-3.6,8-8,8c-1.8,0-3.5-0.6-4.9-1.7l11.2-11.2C25.4,14.5,26,16.2,26,18z M18,10c1.8,0,3.5,0.6,4.9,1.7
		L11.7,22.9C10.6,21.5,10,19.8,10,18C10,13.6,13.6,10,18,10z M36,18c0,9.9-8.1,18-18,18S0,27.9,0,18h2c0,8.8,7.2,16,16,16
		s16-7.2,16-16H36z"/>
</g>
<g id="Layer_2" display="none">
	<circle display="inline" fill="none" stroke="#ED1C24" stroke-width="2" stroke-miterlimit="10" cx="18" cy="18" r="9"/>
	<path display="inline" fill="none" stroke="#ED1C24" stroke-width="2" stroke-miterlimit="10" d="M35,18c0,9.4-7.6,17-17,17
		S1,27.4,1,18"/>
	<line display="inline" fill="none" stroke="#ED1C24" stroke-width="2" stroke-miterlimit="10" x1="35" y1="1" x2="12" y2="24"/>
</g>
</svg>
