<?xml version="1.0" encoding="utf-8"?>
<!-- Generator: Adobe Illustrator 20.1.0, SVG Export Plug-In . SVG Version: 6.00 Build 0)  -->
<!DOCTYPE svg PUBLIC "-//W3C//DTD SVG 1.1//EN" "http://www.w3.org/Graphics/SVG/1.1/DTD/svg11.dtd">
<svg version="1.1" xmlns="http://www.w3.org/2000/svg" xmlns:xlink="http://www.w3.org/1999/xlink" x="0px" y="0px"
	 viewBox="0 0 36 36" enable-background="new 0 0 36 36" xml:space="preserve">
<g id="Layer_1">
	<path d="M27,17c0-2.9-3.9-5-9-5s-9,2.1-9,5v7H0v2h36v-2h-9V17z M18,14c4,0,7,1.6,7,3s-3,3-7,3s-7-1.6-7-3S14,14,18,14z M11,20.2
		c1.6,1.1,4.1,1.8,7,1.8s5.4-0.7,7-1.8V24H11V20.2z"/>
</g>
<g id="Layer_2" display="none">
	<ellipse display="inline" fill="none" stroke="#00A651" stroke-width="2" stroke-miterlimit="10" cx="18" cy="17" rx="8" ry="4"/>
	<line display="inline" fill="none" stroke="#00A651" stroke-width="2" stroke-miterlimit="10" x1="0" y1="25" x2="36" y2="25"/>
	<line display="inline" fill="none" stroke="#00A651" stroke-width="2" stroke-miterlimit="10" x1="10" y1="17" x2="10" y2="25"/>
	<line display="inline" fill="none" stroke="#00A651" stroke-width="2" stroke-miterlimit="10" x1="26" y1="17" x2="26" y2="25"/>
</g>
</svg>
