<?xml version="1.0" encoding="utf-8"?>
<!-- Generator: Adobe Illustrator 19.2.1, SVG Export Plug-In . SVG Version: 6.00 Build 0)  -->
<!DOCTYPE svg PUBLIC "-//W3C//DTD SVG 1.1//EN" "http://www.w3.org/Graphics/SVG/1.1/DTD/svg11.dtd">
<svg version="1.1" xmlns="http://www.w3.org/2000/svg" xmlns:xlink="http://www.w3.org/1999/xlink" x="0px" y="0px"
	 viewBox="0 0 36 36" enable-background="new 0 0 36 36" xml:space="preserve">
<g id="Layer_1">
	<path d="M27,9V0h-2v9H11V0H9v9H1v26h34V9H27z M33,11v6h-6v-6H33z M11,19h6v6h-6V19z M9,25H3v-6h6V25z M17,27v6h-6v-6H17z M19,27h6
		v6h-6V27z M19,25v-6h6v6H19z M27,19h6v6h-6V19z M25,17h-6v-6h6V17z M17,11v6h-6v-6H17z M9,11v6H3v-6H9z M3,27h6v6H3V27z M27,33v-6
		h6v6H27z"/>
</g>
<g id="Layer_2" display="none">
	<g display="inline">
		<rect x="2" y="10" fill="none" stroke="#ED1C24" stroke-width="2" stroke-miterlimit="10" width="32" height="24"/>
		<line fill="none" stroke="#ED1C24" stroke-width="2" stroke-miterlimit="10" x1="10" y1="0" x2="10" y2="34"/>
		<line fill="none" stroke="#ED1C24" stroke-width="2" stroke-miterlimit="10" x1="18" y1="10" x2="18" y2="34"/>
		<line fill="none" stroke="#ED1C24" stroke-width="2" stroke-miterlimit="10" x1="26" y1="0" x2="26" y2="34"/>
		<line fill="none" stroke="#ED1C24" stroke-width="2" stroke-miterlimit="10" x1="2" y1="18" x2="34" y2="18"/>
		<line fill="none" stroke="#ED1C24" stroke-width="2" stroke-miterlimit="10" x1="2" y1="26" x2="34" y2="26"/>
	</g>
</g>
</svg>
