<?xml version="1.0" encoding="utf-8"?>
<!-- Generator: Adobe Illustrator 21.0.2, SVG Export Plug-In . SVG Version: 6.00 Build 0)  -->
<!DOCTYPE svg PUBLIC "-//W3C//DTD SVG 1.1//EN" "http://www.w3.org/Graphics/SVG/1.1/DTD/svg11.dtd">
<svg version="1.1" xmlns="http://www.w3.org/2000/svg" xmlns:xlink="http://www.w3.org/1999/xlink" x="0px" y="0px"
	 viewBox="0 0 36 36" enable-background="new 0 0 36 36" xml:space="preserve">
<g id="Layer_1">
	<path d="M24,0L12,6L0,0v30l12,6l12-6l12,6V6L24,0z M13,7.7l10-5v25.5l-10,5V7.7z M2,3.2l9,4.5v25.5l-9-4.5V3.2z M34,32.8l-9-4.5
		V2.7l9,4.5V32.8z"/>
</g>
<g id="Layer_2" display="none">
	<g display="inline">
		<path fill="#ED1C24" d="M24,2.2l10,5v25.5l-9.1-4.6L24,27.8l-0.9,0.4L12,33.8l-10-5V3.2l9.1,4.6L12,8.2l0.9-0.4L24,2.2 M24,0L12,6
			L0,0v30l12,6l12-6l12,6V6L24,0L24,0z"/>
	</g>
	<g display="inline">
		<line fill="none" stroke="#ED1C24" stroke-width="2" stroke-miterlimit="10" x1="12" y1="7" x2="12" y2="35"/>
	</g>
	<g display="inline">
		<line fill="none" stroke="#ED1C24" stroke-width="2" stroke-miterlimit="10" x1="24" y1="1" x2="24" y2="29"/>
	</g>
</g>
</svg>
