<?xml version="1.0" encoding="utf-8"?>
<!-- Generator: Adobe Illustrator 21.0.2, SVG Export Plug-In . SVG Version: 6.00 Build 0)  -->
<!DOCTYPE svg PUBLIC "-//W3C//DTD SVG 1.1//EN" "http://www.w3.org/Graphics/SVG/1.1/DTD/svg11.dtd">
<svg version="1.1" xmlns="http://www.w3.org/2000/svg" xmlns:xlink="http://www.w3.org/1999/xlink" x="0px" y="0px"
	 viewBox="0 0 36 36" enable-background="new 0 0 36 36" xml:space="preserve">
<g id="Layer_1">
	<path d="M29,1c0,1.7-1.3,3-3,3s-3-1.3-3-3V0h-9.4L10,3.6L6.4,0H0v2h5.6L10,6.4l3.5-3.5L16.6,6l-6,6l8,8l-9.3,9.3l1.4,1.4l4.8-4.8
		l9.8,9.8l1.4-1.4l-9.8-9.8l4.5-4.5l-8-8l6-6l-4-4h5.7c0.5,2.3,2.5,4,4.9,4s4.4-1.7,4.9-4H36V0h-7V1z"/>
</g>
<g id="Layer_2" display="none">
	<path display="inline" fill="none" stroke="#ED1C24" stroke-width="2" stroke-miterlimit="10" d="M0,1h6l4,4l4-4h8c0,2.2,1.8,4,4,4
		s4-1.8,4-4h6"/>
	<polyline display="inline" fill="none" stroke="#ED1C24" stroke-width="2" stroke-miterlimit="10" points="10,30 20,20 12,12 18,6 
		14,2 	"/>
	<line display="inline" fill="none" stroke="#ED1C24" stroke-width="2" stroke-miterlimit="10" x1="16" y1="25" x2="26" y2="35"/>
</g>
</svg>
