<?xml version="1.0" encoding="utf-8"?>
<!-- Generator: Adobe Illustrator 19.2.1, SVG Export Plug-In . SVG Version: 6.00 Build 0)  -->
<!DOCTYPE svg PUBLIC "-//W3C//DTD SVG 1.1//EN" "http://www.w3.org/Graphics/SVG/1.1/DTD/svg11.dtd">
<svg version="1.1" xmlns="http://www.w3.org/2000/svg" xmlns:xlink="http://www.w3.org/1999/xlink" x="0px" y="0px"
	 viewBox="0 0 36 36" enable-background="new 0 0 36 36" xml:space="preserve">
<g id="Layer_1">
	<path d="M18,0C8.1,0,0,8.1,0,18s8.1,18,18,18s18-8.1,18-18S27.9,0,18,0z M18,2c4.1,0,7.7,1.5,10.6,4L6,28.6C3.5,25.7,2,22.1,2,18
		C2,9.2,9.2,2,18,2z M18,34c-4.1,0-7.7-1.5-10.6-4L30,7.4c2.5,2.8,4,6.5,4,10.6C34,26.8,26.8,34,18,34z"/>
</g>
<g id="Layer_2" display="none">
	<g display="inline">
		<circle fill="none" stroke="#ED1C24" stroke-width="2" stroke-miterlimit="10" cx="18" cy="18" r="17"/>
		<line fill="none" stroke="#ED1C24" stroke-width="2" stroke-miterlimit="10" x1="6" y1="30" x2="30" y2="6"/>
	</g>
</g>
</svg>
