<?xml version="1.0" encoding="utf-8"?>
<!-- Generator: Adobe Illustrator 19.2.1, SVG Export Plug-In . SVG Version: 6.00 Build 0)  -->
<!DOCTYPE svg PUBLIC "-//W3C//DTD SVG 1.1//EN" "http://www.w3.org/Graphics/SVG/1.1/DTD/svg11.dtd">
<svg version="1.1" xmlns="http://www.w3.org/2000/svg" xmlns:xlink="http://www.w3.org/1999/xlink" x="0px" y="0px"
	 viewBox="0 0 36 36" enable-background="new 0 0 36 36" xml:space="preserve">
<g id="Layer_1">
	<path d="M34,9.7C31,3.8,24.9,0,18,0C8.1,0,0,8.1,0,18s8.1,18,18,18s18-8.1,18-18h-2c0,8.8-7.2,16-16,16S2,26.8,2,18S9.2,2,18,2
		c6.6,0,12.4,4,14.8,10H26v2h10V4h-2V9.7z"/>
</g>
<g id="Layer_2" display="none">
	<polyline display="inline" fill="none" stroke="#ED1C24" stroke-width="2" stroke-miterlimit="10" points="35,4 35,13 26,13 	"/>
	<path display="inline" fill="none" stroke="#ED1C24" stroke-width="2" stroke-miterlimit="10" d="M35,18c0,9.4-7.6,17-17,17
		S1,27.4,1,18S8.6,1,18,1c7.6,0,14.1,5,16.2,11.9"/>
</g>
</svg>
