<?xml version="1.0" encoding="utf-8"?>
<!-- Generator: Adobe Illustrator 19.2.1, SVG Export Plug-In . SVG Version: 6.00 Build 0)  -->
<!DOCTYPE svg PUBLIC "-//W3C//DTD SVG 1.1//EN" "http://www.w3.org/Graphics/SVG/1.1/DTD/svg11.dtd">
<svg version="1.1" xmlns="http://www.w3.org/2000/svg" xmlns:xlink="http://www.w3.org/1999/xlink" x="0px" y="0px"
	 viewBox="0 0 36 36" enable-background="new 0 0 36 36" xml:space="preserve">
<g id="Layer_1">
	<path d="M18,0C11.1,0,5,3.8,2,9.7V4H0v10h10v-2H3.2C5.6,6,11.4,2,18,2c8.8,0,16,7.2,16,16s-7.2,16-16,16S2,26.8,2,18H0
		c0,9.9,8.1,18,18,18s18-8.1,18-18S27.9,0,18,0z"/>
</g>
<g id="Layer_2" display="none">
	<polyline display="inline" fill="none" stroke="#ED1C24" stroke-width="2" stroke-miterlimit="10" points="1,4 1,13 10,13 	"/>
	<path display="inline" fill="none" stroke="#ED1C24" stroke-width="2" stroke-miterlimit="10" d="M1,18c0,9.4,7.6,17,17,17
		s17-7.6,17-17S27.4,1,18,1C10.4,1,3.9,6,1.8,12.9"/>
</g>
</svg>
