<?xml version="1.0" encoding="utf-8"?>
<!-- Generator: Adobe Illustrator 21.0.0, SVG Export Plug-In . SVG Version: 6.00 Build 0)  -->
<!DOCTYPE svg PUBLIC "-//W3C//DTD SVG 1.1//EN" "http://www.w3.org/Graphics/SVG/1.1/DTD/svg11.dtd">
<svg version="1.1" xmlns="http://www.w3.org/2000/svg" xmlns:xlink="http://www.w3.org/1999/xlink" x="0px" y="0px"
	 viewBox="0 0 36 36" enable-background="new 0 0 36 36" xml:space="preserve">
<g id="Layer_1">
	<path d="M10,0h6v2h-6V0z M20,2h6V0h-6V2z M10,36h6v-2h-6V36z M20,36h6v-2h-6V36z M34,0h-4v2h4v4h2V2V0H34z M34,16h2v-6h-2V16z
		 M34,26h2v-6h-2V26z M34,34h-4v2h4h2v-2v-4h-2V34z M0,0v2v4h2V2h4V0H2H0z M2,10H0v6h2V10z M2,20H0v6h2V20z M2,30H0v4v2h2h4v-2H2V30
		z M18,8.8l-10,10V28h6v-6v-2h2h4h2v2v6h6v-9.2L18,8.8 M18,6l12,12v12H20v-8h-4v8H6V18L18,6L18,6z"/>
</g>
<g id="Layer_2" display="none">
	<rect x="10" display="inline" fill="#00A651" width="6" height="2"/>
	<rect x="20" display="inline" fill="#00A651" width="6" height="2"/>
	<rect x="10" y="34" display="inline" fill="#00A651" width="6" height="2"/>
	<rect x="20" y="34" display="inline" fill="#00A651" width="6" height="2"/>
	<polygon display="inline" fill="#00A651" points="34,0 30,0 30,2 34,2 34,6 36,6 36,2 36,0 	"/>
	<rect x="34" y="10" display="inline" fill="#00A651" width="2" height="6"/>
	<rect x="34" y="20" display="inline" fill="#00A651" width="2" height="6"/>
	<polygon display="inline" fill="#00A651" points="34,34 30,34 30,36 34,36 36,36 36,34 36,30 34,30 	"/>
	<polygon display="inline" fill="#00A651" points="0,0 0,2 0,6 2,6 2,2 6,2 6,0 2,0 	"/>
	<rect y="10" display="inline" fill="#00A651" width="2" height="6"/>
	<rect y="20" display="inline" fill="#00A651" width="2" height="6"/>
	<polygon display="inline" fill="#00A651" points="2,30 0,30 0,34 0,36 2,36 6,36 6,34 2,34 	"/>
	<g display="inline">
		<path fill="#00A651" d="M18,8.8l10,10V28h-6v-6v-2h-2h-4h-2v2v6H8v-9.2L18,8.8 M18,6L6,18v12h10v-8h4v8h10V18L18,6L18,6z"/>
	</g>
</g>
</svg>
