<?xml version="1.0" encoding="utf-8"?>
<!-- Generator: Adobe Illustrator 19.2.1, SVG Export Plug-In . SVG Version: 6.00 Build 0)  -->
<!DOCTYPE svg PUBLIC "-//W3C//DTD SVG 1.1//EN" "http://www.w3.org/Graphics/SVG/1.1/DTD/svg11.dtd">
<svg version="1.1" xmlns="http://www.w3.org/2000/svg" xmlns:xlink="http://www.w3.org/1999/xlink" x="0px" y="0px"
	 viewBox="0 0 36 36" enable-background="new 0 0 36 36" xml:space="preserve">
<g id="Layer_1">
	<path d="M4,36c2.2,0,4-1.8,4-4c0-0.7-0.2-1.4-0.6-2l8.6-8.6l2.3,2.3l1.4-1.4l-6-6l-1.4,1.4l2.3,2.3L6,28.6C5.4,28.2,4.7,28,4,28
		c-2.2,0-4,1.8-4,4S1.8,36,4,36z M4,30c1.1,0,2,0.9,2,2s-0.9,2-2,2s-2-0.9-2-2S2.9,30,4,30z M32,0c-2.2,0-4,1.8-4,4
		c0,0.7,0.2,1.4,0.6,2L20,14.6l-2.3-2.3l-1.4,1.4l6,6l1.4-1.4L21.4,16L30,7.4C30.6,7.8,31.3,8,32,8c2.2,0,4-1.8,4-4S34.2,0,32,0z
		 M32,6c-1.1,0-2-0.9-2-2s0.9-2,2-2s2,0.9,2,2S33.1,6,32,6z M24,29l12,0v2l-12,0V29z"/>
</g>
<g id="Layer_2" display="none">
	<g display="inline">
		<circle fill="none" stroke="#ED1C24" stroke-width="2" stroke-miterlimit="10" cx="4" cy="32" r="3"/>
		<circle fill="none" stroke="#ED1C24" stroke-width="2" stroke-miterlimit="10" cx="32" cy="4" r="3"/>
		<line fill="none" stroke="#ED1C24" stroke-width="2" stroke-miterlimit="10" x1="20" y1="16" x2="30" y2="6"/>
		<line fill="none" stroke="#ED1C24" stroke-width="2" stroke-miterlimit="10" x1="6" y1="30" x2="16" y2="20"/>
		<line fill="none" stroke="#ED1C24" stroke-width="2" stroke-miterlimit="10" x1="13" y1="17" x2="19" y2="23"/>
		<line fill="none" stroke="#ED1C24" stroke-width="2" stroke-miterlimit="10" x1="17" y1="13" x2="23" y2="19"/>
		<line fill="none" stroke="#ED1C24" stroke-width="2" stroke-miterlimit="10" x1="36" y1="30" x2="24" y2="30"/>
	</g>
</g>
</svg>
