<?xml version="1.0" encoding="utf-8"?>
<!-- Generator: Adobe Illustrator 21.0.0, SVG Export Plug-In . SVG Version: 6.00 Build 0)  -->
<!DOCTYPE svg PUBLIC "-//W3C//DTD SVG 1.1//EN" "http://www.w3.org/Graphics/SVG/1.1/DTD/svg11.dtd">
<svg version="1.1" xmlns="http://www.w3.org/2000/svg" xmlns:xlink="http://www.w3.org/1999/xlink" x="0px" y="0px"
	 viewBox="0 0 36 36" enable-background="new 0 0 36 36" xml:space="preserve">
<g id="Layer_1">
	<path fill="#ED1C24" d="M14.3,14c0.9,2.9,3.5,5,6.7,5c2,0,3.7-0.8,5-2.1c1.3,1.3,3,2.1,5,2.1c1.1,0,2.1-0.2,3-0.7V22H10v-8H14.3
		 M26,12c0,2.8-2.2,5-5,5s-5-2.2-5-5h-6c-1.1,0-2,0.9-2,2v8c0,1.1,0.9,2,2,2h24c1.1,0,2-0.9,2-2v-8c0-0.3-0.1-0.5-0.2-0.8
		C35.3,15.4,33.3,17,31,17C28.2,17,26,14.8,26,12L26,12z"/>
	<path fill="#ED1C24" d="M6,12H0v2h6v8H0v2h6c1.1,0,2-0.9,2-2v-8C8,12.9,7.1,12,6,12z"/>
	<path d="M31,17c-2.8,0-5-2.2-5-5c0,2.8-2.2,5-5,5s-5-2.2-5-5h-6c-1.1,0-2,0.9-2,2c0-1.1-0.9-2-2-2H0v2h6v8H0v2h6c1.1,0,2-0.9,2-2
		c0,1.1,0.9,2,2,2h24c1.1,0,2-0.9,2-2v-8c0-0.3-0.1-0.5-0.2-0.8C35.3,15.4,33.3,17,31,17z M34,22H10v-8h4.3c0.9,2.9,3.5,5,6.7,5
		c2,0,3.7-0.8,5-2.1c1.3,1.3,3,2.1,5,2.1c1.1,0,2.1-0.2,3-0.7V22z"/>
</g>
<g id="Layer_2" display="none">
	<path display="inline" fill="#ED1C24" d="M14.3,14c0.9,2.9,3.5,5,6.7,5c2,0,3.7-0.8,5-2.1c1.3,1.3,3,2.1,5,2.1c1.1,0,2.1-0.2,3-0.7
		V22H10v-8H14.3 M26,12c0,2.8-2.2,5-5,5s-5-2.2-5-5h-6c-1.1,0-2,0.9-2,2v8c0,1.1,0.9,2,2,2h24c1.1,0,2-0.9,2-2v-8
		c0-0.3-0.1-0.5-0.2-0.8C35.3,15.4,33.3,17,31,17C28.2,17,26,14.8,26,12L26,12z"/>
	<path display="inline" fill="#ED1C24" d="M6,12H0v2h6v8H0v2h6c1.1,0,2-0.9,2-2v-8C8,12.9,7.1,12,6,12z"/>
</g>
</svg>
