<?xml version="1.0" encoding="utf-8"?>
<!-- Generator: Adobe Illustrator 21.0.0, SVG Export Plug-In . SVG Version: 6.00 Build 0)  -->
<!DOCTYPE svg PUBLIC "-//W3C//DTD SVG 1.1//EN" "http://www.w3.org/Graphics/SVG/1.1/DTD/svg11.dtd">
<svg version="1.1" xmlns="http://www.w3.org/2000/svg" xmlns:xlink="http://www.w3.org/1999/xlink" x="0px" y="0px"
	 viewBox="0 0 36 36" enable-background="new 0 0 36 36" xml:space="preserve">
<g id="Layer_1">
	<path d="M26.1,35.1c-2.3,0-4.6-0.9-6.4-2.6l1.4-1.4c2.7,2.7,7.2,2.7,9.9,0c2.7-2.7,2.7-7.2,0-9.9L14.8,4.9c-2.7-2.7-7.2-2.7-9.9,0
		c-2.7,2.7-2.7,7.2,0,9.9l9.2,9.2c1.1,1.1,3.1,1.1,4.2,0c1.2-1.2,1.2-3.1,0-4.2l-7.1-7.1l1.4-1.4l7.1,7.1c1.9,1.9,1.9,5.1,0,7.1
		c-0.9,0.9-2.2,1.5-3.5,1.5c-1.3,0-2.6-0.5-3.5-1.5l-9.2-9.2C0,12.7,0,7,3.5,3.5C7,0,12.7,0,16.2,3.5l16.3,16.3
		c3.5,3.5,3.5,9.2,0,12.7C30.7,34.2,28.4,35.1,26.1,35.1z"/>
</g>
<g id="Layer_2" display="none">
	<path display="inline" fill="none" stroke="#ED1C24" stroke-width="2" stroke-miterlimit="10" d="M20.5,31.8
		c3.1,3.1,8.2,3.1,11.3,0s3.1-8.2,0-11.3L15.5,4.2c-3.1-3.1-8.2-3.1-11.3,0s-3.1,8.2,0,11.3l9.2,9.2c1.6,1.6,4.1,1.6,5.7,0
		c1.6-1.6,1.6-4.1,0-5.7L12,12"/>
</g>
</svg>
