<?xml version="1.0" encoding="utf-8"?>
<!-- Generator: Adobe Illustrator 19.2.1, SVG Export Plug-In . SVG Version: 6.00 Build 0)  -->
<!DOCTYPE svg PUBLIC "-//W3C//DTD SVG 1.1//EN" "http://www.w3.org/Graphics/SVG/1.1/DTD/svg11.dtd">
<svg version="1.1" xmlns="http://www.w3.org/2000/svg" xmlns:xlink="http://www.w3.org/1999/xlink" x="0px" y="0px"
	 viewBox="0 0 36 36" enable-background="new 0 0 36 36" xml:space="preserve">
<g id="Layer_1">
	<path d="M36,18H18V2C9.2,2,2,9.2,2,18h16v18C8.1,36,0,27.9,0,18S8.1,0,18,0S36,8.1,36,18z M31,24h-2v5h-5v2h5v5h2v-5h5v-2h-5V24z"
		/>
</g>
<g id="Layer_2" display="none">
	<path display="inline" fill="none" stroke="#ED1C24" stroke-width="2" stroke-miterlimit="10" d="M18,35C8.6,35,1,27.4,1,18
		S8.6,1,18,1s17,7.6,17,17"/>
	<g display="inline">
		<path fill="#ED1C24" d="M18,1v17h17C35,8.6,27.4,1,18,1L18,1z"/>
	</g>
	<g display="inline">
		<path fill="#ED1C24" d="M18,18H1c0,9.4,7.6,17,17,17V18L18,18z"/>
	</g>
	<line display="inline" fill="none" stroke="#ED1C24" stroke-width="2" stroke-miterlimit="10" x1="30" y1="24" x2="30" y2="36"/>
	<line display="inline" fill="none" stroke="#ED1C24" stroke-width="2" stroke-miterlimit="10" x1="24" y1="30" x2="36" y2="30"/>
</g>
</svg>
