<?xml version="1.0" encoding="utf-8"?>
<!-- Generator: Adobe Illustrator 21.0.2, SVG Export Plug-In . SVG Version: 6.00 Build 0)  -->
<!DOCTYPE svg PUBLIC "-//W3C//DTD SVG 1.1//EN" "http://www.w3.org/Graphics/SVG/1.1/DTD/svg11.dtd">
<svg version="1.1" xmlns="http://www.w3.org/2000/svg" xmlns:xlink="http://www.w3.org/1999/xlink" x="0px" y="0px"
	 viewBox="0 0 36 36" enable-background="new 0 0 36 36" xml:space="preserve">
<g id="Layer_1">
	<path d="M27.7,4.6C29.9,6.8,32.9,8,36,8v2c-3.7,0-7.1-1.4-9.7-4c-4.6-4.6-12-4.6-16.6,0c-2.6,2.6-6,4-9.7,4V8
		c3.1,0,6.1-1.2,8.3-3.4C13.6-0.8,22.4-0.8,27.7,4.6z M9.3,27.3l1.4,1.4l6.3-6.3V36h2V22.4l6.3,6.3l1.4-1.4L18,18.6L9.3,27.3z"/>
</g>
<g id="Layer_2" display="none">
	<path display="inline" fill="none" stroke="#ED1C24" stroke-width="2" stroke-miterlimit="10" d="M0,9c3.5,0,6.7-1.4,9-3.7
		c5-5,13-5,18,0C29.5,7.8,32.7,9,36,9"/>
	<line display="inline" fill="none" stroke="#ED1C24" stroke-width="2" stroke-miterlimit="10" x1="18" y1="36" x2="18" y2="20"/>
	<polyline display="inline" fill="none" stroke="#ED1C24" stroke-width="2" stroke-miterlimit="10" points="10,28 18,20 26,28 	"/>
</g>
</svg>
