<?xml version="1.0" encoding="utf-8"?>
<!-- Generator: Adobe Illustrator 21.0.2, SVG Export Plug-In . SVG Version: 6.00 Build 0)  -->
<!DOCTYPE svg PUBLIC "-//W3C//DTD SVG 1.1//EN" "http://www.w3.org/Graphics/SVG/1.1/DTD/svg11.dtd">
<svg version="1.1" xmlns="http://www.w3.org/2000/svg" xmlns:xlink="http://www.w3.org/1999/xlink" x="0px" y="0px"
	 viewBox="0 0 36 36" enable-background="new 0 0 36 36" xml:space="preserve">
<g id="Layer_1">
	<path d="M36,34v2c-3.7,0-7.1-1.4-9.7-4c-4.6-4.6-12-4.6-16.6,0c-2.6,2.6-6,4-9.7,4v-2c3.1,0,6.1-1.2,8.3-3.4
		c5.4-5.4,14.1-5.4,19.4,0C29.9,32.8,32.9,34,36,34z M27.2,16H8.8L18,0L27.2,16z M12.2,14h11.5L18,4L12.2,14z"/>
</g>
<g id="Layer_2" display="none">
	<path display="inline" fill="none" stroke="#ED1C24" stroke-width="2" stroke-miterlimit="10" d="M0,35c3.5,0,6.7-1.4,9-3.7
		c5-5,13-5,18,0c2.5,2.5,5.7,3.7,9,3.7"/>
	<g display="inline">
		<path fill="#ED1C24" d="M18,4l5.8,10H12.2L18,4 M18,0L8.8,16h18.5L18,0L18,0z"/>
	</g>
</g>
</svg>
