<?xml version="1.0" encoding="utf-8"?>
<!-- Generator: Adobe Illustrator 19.2.1, SVG Export Plug-In . SVG Version: 6.00 Build 0)  -->
<!DOCTYPE svg PUBLIC "-//W3C//DTD SVG 1.1//EN" "http://www.w3.org/Graphics/SVG/1.1/DTD/svg11.dtd">
<svg version="1.1" xmlns="http://www.w3.org/2000/svg" xmlns:xlink="http://www.w3.org/1999/xlink" x="0px" y="0px"
	 viewBox="0 0 36 36" enable-background="new 0 0 36 36" xml:space="preserve">
<g id="Layer_1">
	<path d="M18,36c9.9,0,18-8.1,18-18S27.9,0,18,0S0,8.1,0,18S8.1,36,18,36z M18,2c8.8,0,16,7.2,16,16s-7.2,16-16,16S2,26.8,2,18
		S9.2,2,18,2z"/>
	<path d="M27.6,8.4l-14.4,4.8L8.4,27.6l14.4-4.8L27.6,8.4z M21.6,20.1l-5.7-5.7l8.6-2.9L21.6,20.1z M14.4,15.9l5.7,5.7l-8.6,2.9
		L14.4,15.9z"/>
</g>
<g id="Layer_2" display="none">
	<circle display="inline" fill="none" stroke="#ED1C24" stroke-width="2" stroke-miterlimit="10" cx="18" cy="18" r="17"/>
	<polygon display="inline" fill="none" stroke="#ED1C24" stroke-width="2" stroke-miterlimit="10" points="14,14 10,26 22,22 26,10 
			"/>
	<line display="inline" fill="none" stroke="#ED1C24" stroke-width="2" stroke-miterlimit="10" x1="14" y1="14" x2="22" y2="22"/>
</g>
</svg>
