<?xml version="1.0" encoding="utf-8"?>
<!-- Generator: Adobe Illustrator 19.2.1, SVG Export Plug-In . SVG Version: 6.00 Build 0)  -->
<!DOCTYPE svg PUBLIC "-//W3C//DTD SVG 1.1//EN" "http://www.w3.org/Graphics/SVG/1.1/DTD/svg11.dtd">
<svg version="1.1" xmlns="http://www.w3.org/2000/svg" xmlns:xlink="http://www.w3.org/1999/xlink" x="0px" y="0px"
	 viewBox="0 0 36 36" enable-background="new 0 0 36 36" xml:space="preserve">
<g id="Layer_1">
	<path d="M36,18c0-9.9-8.1-18-18-18C8.1,0,0,8.1,0,18c0,4.6,1.7,8.8,4.6,12l-4.3,4.3l1.4,1.4L6,31.4c3.2,2.9,7.4,4.6,12,4.6
		s8.8-1.7,12-4.6l4.3,4.3l1.4-1.4L31.4,30C34.3,26.8,36,22.6,36,18z M2,18C2,9.2,9.2,2,18,2c8.8,0,16,7.2,16,16
		c0,4.1-1.5,7.7-4,10.6l-12-12l-12,12C3.5,25.7,2,22.1,2,18z M18,34c-4.1,0-7.7-1.5-10.6-4L18,19.4L28.6,30C25.7,32.5,22.1,34,18,34
		z"/>
</g>
<g id="Layer_2" display="none">
	<g display="inline">
		<path fill="#ED1C24" d="M18,2c8.8,0,16,7.2,16,16s-7.2,16-16,16S2,26.8,2,18S9.2,2,18,2 M18,0C8.1,0,0,8.1,0,18s8.1,18,18,18
			s18-8.1,18-18S27.9,0,18,0L18,0z"/>
	</g>
	<polyline display="inline" fill="none" stroke="#ED1C24" stroke-width="2" stroke-miterlimit="10" points="1,35 18,18 35,35 	"/>
</g>
</svg>
