<?xml version="1.0" encoding="utf-8"?>
<!-- Generator: Adobe Illustrator 21.0.0, SVG Export Plug-In . SVG Version: 6.00 Build 0)  -->
<!DOCTYPE svg PUBLIC "-//W3C//DTD SVG 1.1//EN" "http://www.w3.org/Graphics/SVG/1.1/DTD/svg11.dtd">
<svg version="1.1" xmlns="http://www.w3.org/2000/svg" xmlns:xlink="http://www.w3.org/1999/xlink" x="0px" y="0px"
	 viewBox="0 0 36 36" enable-background="new 0 0 36 36" xml:space="preserve">
<g id="Layer_1">
	<path d="M35.7,13.7l-1.4-1.4L29.6,17h-5.7c-0.5-2.8-2.9-5-5.9-5s-5.4,2.2-5.9,5H5.6l-5.3,5.3l1.4,1.4L6.4,19h5.7
		c0.5,2.8,2.9,5,5.9,5s5.4-2.2,5.9-5h6.5L35.7,13.7z M18,22c-2.2,0-4-1.8-4-4s1.8-4,4-4s4,1.8,4,4S20.2,22,18,22z"/>
</g>
<g id="Layer_2" display="none">
	<polyline display="inline" fill="none" stroke="#ED1C24" stroke-width="2" stroke-miterlimit="10" points="35,13 30,18 23,18 	"/>
	<polyline display="inline" fill="none" stroke="#ED1C24" stroke-width="2" stroke-miterlimit="10" points="1,23 6,18 13,18 	"/>
	<circle display="inline" fill="none" stroke="#ED1C24" stroke-width="2" stroke-miterlimit="10" cx="18" cy="18" r="5"/>
</g>
</svg>
