<?xml version="1.0" encoding="utf-8"?>
<!-- Generator: Adobe Illustrator 20.1.0, SVG Export Plug-In . SVG Version: 6.00 Build 0)  -->
<!DOCTYPE svg PUBLIC "-//W3C//DTD SVG 1.1//EN" "http://www.w3.org/Graphics/SVG/1.1/DTD/svg11.dtd">
<svg version="1.1" xmlns="http://www.w3.org/2000/svg" xmlns:xlink="http://www.w3.org/1999/xlink" x="0px" y="0px"
	 viewBox="0 0 36 36" enable-background="new 0 0 36 36" xml:space="preserve">
<g id="Layer_1">
	<path d="M30,24c-3.3,0-6,2.7-6,6s2.7,6,6,6s6-2.7,6-6S33.3,24,30,24z M30,34c-2.2,0-4-1.8-4-4s1.8-4,4-4s4,1.8,4,4S32.2,34,30,34z
		 M31.3,16.5c1.5-2.4,1.4-6-0.3-9.9C30.9,6.4,27.9,0,18,0C8.1,0,0,8.1,0,18c0,9.9,6.4,12.9,6.6,13c2.1,0.9,4.1,1.4,5.9,1.4
		c1.5,0,2.9-0.4,4-1.1c1.6-1,2.5-2.7,2.5-4.8c0-4.1,3.4-7.5,7.5-7.5C28.6,19,30.3,18.1,31.3,16.5z M17,26.5c0,1.4-0.5,2.5-1.6,3.2
		c-1.8,1.1-4.8,1-8-0.5C7.2,29.1,2,26.6,2,18C2,9.2,9.2,2,18,2c8.6,0,11.1,5.2,11.2,5.5c1.4,3.2,1.6,6.2,0.5,8
		c-0.7,1-1.7,1.6-3.2,1.6C21.3,17,17,21.3,17,26.5z"/>
</g>
<g id="Layer_2" display="none">
	<circle display="inline" fill="none" stroke="#00A651" stroke-width="2" stroke-miterlimit="10" cx="30" cy="30" r="5"/>
	<g display="inline">
		<path fill="none" stroke="#00A651" stroke-width="2" stroke-miterlimit="10" d="M18,26.5c0-4.7,3.8-8.5,8.5-8.5s6.3-4.9,3.6-11
			c0,0-2.7-6-12.1-6S1,8.6,1,18s6,12.1,6,12.1C13.1,32.8,18,31.2,18,26.5z"/>
	</g>
</g>
</svg>
