<?xml version="1.0" encoding="utf-8"?>
<!-- Generator: Adobe Illustrator 20.1.0, SVG Export Plug-In . SVG Version: 6.00 Build 0)  -->
<!DOCTYPE svg PUBLIC "-//W3C//DTD SVG 1.1//EN" "http://www.w3.org/Graphics/SVG/1.1/DTD/svg11.dtd">
<svg version="1.1" xmlns="http://www.w3.org/2000/svg" xmlns:xlink="http://www.w3.org/1999/xlink" x="0px" y="0px"
	 viewBox="0 0 36 36" enable-background="new 0 0 36 36" xml:space="preserve">
<g id="Layer_1">
	<path d="M18,14c3.9,0,7-3.1,7-7s-3.1-7-7-7s-7,3.1-7,7S14.1,14,18,14z M18,2c2.8,0,5,2.2,5,5s-2.2,5-5,5s-5-2.2-5-5S15.2,2,18,2z
		 M9,26c2.8,0,5-2.2,5-5s-2.2-5-5-5s-5,2.2-5,5S6.2,26,9,26z M9,18c1.7,0,3,1.3,3,3s-1.3,3-3,3s-3-1.3-3-3S7.3,18,9,18z M22,21
		c0,2.8,2.2,5,5,5s5-2.2,5-5s-2.2-5-5-5S22,18.2,22,21z M27,18c1.7,0,3,1.3,3,3s-1.3,3-3,3s-3-1.3-3-3S25.3,18,27,18z M33,30
		c-1.7,0-3,1.3-3,3s1.3,3,3,3s3-1.3,3-3S34.7,30,33,30z M33,34c-0.6,0-1-0.4-1-1s0.4-1,1-1s1,0.4,1,1S33.6,34,33,34z M15,33
		c0,1.7,1.3,3,3,3s3-1.3,3-3s-1.3-3-3-3S15,31.3,15,33z M19,33c0,0.6-0.4,1-1,1s-1-0.4-1-1s0.4-1,1-1S19,32.4,19,33z M6,33
		c0-1.7-1.3-3-3-3s-3,1.3-3,3s1.3,3,3,3S6,34.7,6,33z M2,33c0-0.6,0.4-1,1-1s1,0.4,1,1s-0.4,1-1,1S2,33.6,2,33z"/>
</g>
<g id="Layer_2" display="none">
	<circle display="inline" fill="none" stroke="#00A651" stroke-width="2" stroke-miterlimit="10" cx="18" cy="7" r="6"/>
	<circle display="inline" fill="none" stroke="#00A651" stroke-width="2" stroke-miterlimit="10" cx="9" cy="21" r="4"/>
	<circle display="inline" fill="none" stroke="#00A651" stroke-width="2" stroke-miterlimit="10" cx="27" cy="21" r="4"/>
	<circle display="inline" fill="none" stroke="#00A651" stroke-width="2" stroke-miterlimit="10" cx="33" cy="33" r="2"/>
	<circle display="inline" fill="none" stroke="#00A651" stroke-width="2" stroke-miterlimit="10" cx="18" cy="33" r="2"/>
	<circle display="inline" fill="none" stroke="#00A651" stroke-width="2" stroke-miterlimit="10" cx="3" cy="33" r="2"/>
</g>
</svg>
