<?xml version="1.0" encoding="utf-8"?>
<!-- Generator: Adobe Illustrator 19.2.1, SVG Export Plug-In . SVG Version: 6.00 Build 0)  -->
<!DOCTYPE svg PUBLIC "-//W3C//DTD SVG 1.1//EN" "http://www.w3.org/Graphics/SVG/1.1/DTD/svg11.dtd">
<svg version="1.1" xmlns="http://www.w3.org/2000/svg" xmlns:xlink="http://www.w3.org/1999/xlink" x="0px" y="0px"
	 viewBox="0 0 36 36" enable-background="new 0 0 36 36" xml:space="preserve">
<g id="Layer_1">
	<path d="M16,12h-2c0-2.8-2.2-5-5-5C5.1,7,2,3.9,2,0h2c0,2.8,2.2,5,5,5C12.9,5,16,8.1,16,12z M18,25c-2.8,0-5-2.2-5-5h-2
		c0,3.9,3.1,7,7,7c2.8,0,5,2.2,5,5h2C25,28.1,21.9,25,18,25z M27,5c-2.8,0-5-2.2-5-5h-2c0,3.9,3.1,7,7,7c2.8,0,5,2.2,5,5h2
		C34,8.1,30.9,5,27,5z M36,16H0v20h36V16z M2,18h32v16H2V18z"/>
</g>
<g id="Layer_2" display="none">
	<path display="inline" fill="none" stroke="#ED1C24" stroke-width="2" stroke-miterlimit="10" d="M3,0c0,3.3,2.7,6,6,6s6,2.7,6,6"
		/>
	<path display="inline" fill="none" stroke="#ED1C24" stroke-width="2" stroke-miterlimit="10" d="M12,20c0,3.3,2.7,6,6,6s6,2.7,6,6
		"/>
	<path display="inline" fill="none" stroke="#ED1C24" stroke-width="2" stroke-miterlimit="10" d="M21,0c0,3.3,2.7,6,6,6s6,2.7,6,6"
		/>
	
		<rect x="1" y="17" display="inline" fill="none" stroke="#ED1C24" stroke-width="2" stroke-miterlimit="10" width="34" height="18"/>
</g>
</svg>
