<?xml version="1.0" encoding="utf-8"?>
<!-- Generator: Adobe Illustrator 19.2.1, SVG Export Plug-In . SVG Version: 6.00 Build 0)  -->
<!DOCTYPE svg PUBLIC "-//W3C//DTD SVG 1.1//EN" "http://www.w3.org/Graphics/SVG/1.1/DTD/svg11.dtd">
<svg version="1.1" xmlns="http://www.w3.org/2000/svg" xmlns:xlink="http://www.w3.org/1999/xlink" x="0px" y="0px"
	 viewBox="0 0 36 36" enable-background="new 0 0 36 36" xml:space="preserve">
<g id="Layer_1">
	<path d="M30,0c-5.2,0-9.4,3.9-9.9,9H0v2h20.1c0.5,5.1,4.8,9,9.9,9v-4h6v-2h-6V6h6V4h-6V0z M28,17.7c-3.4-0.9-6-4-6-7.7
		s2.6-6.9,6-7.7V17.7z M10,22h2v14h-2v-6H2v-8h2v6h6V22z M19,21c-2.8,0-5,2.2-5,5v5c0,2.8,2.2,5,5,5s5-2.2,5-5v-5
		C24,23.2,21.8,21,19,21z M22,31c0,1.7-1.3,3-3,3s-3-1.3-3-3v-5c0-1.7,1.3-3,3-3s3,1.3,3,3V31z M31,21c-2.8,0-5,2.2-5,5v5
		c0,2.8,2.2,5,5,5s5-2.2,5-5v-5C36,23.2,33.8,21,31,21z M34,31c0,1.7-1.3,3-3,3s-3-1.3-3-3v-5c0-1.7,1.3-3,3-3s3,1.3,3,3V31z"/>
</g>
<g id="Layer_2" display="none">
	<g display="inline">
		<path fill="#ED1C24" d="M28,2.3v15.5c-3.4-0.9-6-4-6-7.7S24.6,3.1,28,2.3 M30,0c-5.5,0-10,4.5-10,10s4.5,10,10,10V0L30,0z"/>
	</g>
	<line display="inline" fill="none" stroke="#ED1C24" stroke-width="2" stroke-miterlimit="10" x1="36" y1="5" x2="30" y2="5"/>
	<line display="inline" fill="none" stroke="#ED1C24" stroke-width="2" stroke-miterlimit="10" x1="21" y1="10" x2="0" y2="10"/>
	<line display="inline" fill="none" stroke="#ED1C24" stroke-width="2" stroke-miterlimit="10" x1="36" y1="15" x2="30" y2="15"/>
	<polyline display="inline" fill="none" stroke="#ED1C24" stroke-width="2" stroke-miterlimit="10" points="11,29 3,29 3,22 	"/>
	<line display="inline" fill="none" stroke="#ED1C24" stroke-width="2" stroke-miterlimit="10" x1="11" y1="22" x2="11" y2="36"/>
	<path display="inline" fill="none" stroke="#ED1C24" stroke-width="2" stroke-miterlimit="10" d="M15,31c0,2.2,1.8,4,4,4s4-1.8,4-4
		v-5c0-2.2-1.8-4-4-4s-4,1.8-4,4V31z"/>
	<path display="inline" fill="none" stroke="#ED1C24" stroke-width="2" stroke-miterlimit="10" d="M27,31c0,2.2,1.8,4,4,4s4-1.8,4-4
		v-5c0-2.2-1.8-4-4-4s-4,1.8-4,4V31z"/>
</g>
</svg>
