<?xml version="1.0" encoding="utf-8"?>
<!-- Generator: Adobe Illustrator 19.2.1, SVG Export Plug-In . SVG Version: 6.00 Build 0)  -->
<!DOCTYPE svg PUBLIC "-//W3C//DTD SVG 1.1//EN" "http://www.w3.org/Graphics/SVG/1.1/DTD/svg11.dtd">
<svg version="1.1" xmlns="http://www.w3.org/2000/svg" xmlns:xlink="http://www.w3.org/1999/xlink" x="0px" y="0px"
	 viewBox="0 0 36 36" enable-background="new 0 0 36 36" xml:space="preserve">
<g id="Layer_1">
	<path d="M8,34h8v2H6V22h2V34z M30,27c0,2.8-2.2,5-5,5l-3,0.1V36h-2V22h5C27.8,22,30,24.2,30,27z M28,27c0-1.7-1.3-3-3-3h-3v6.1
		l3-0.1C26.7,30,28,28.7,28,27z M30,4h6v2h-6v8h6v2h-6v4c-5.2,0-9.4-3.9-9.9-9H0V9h20.1c0.5-5.1,4.8-9,9.9-9V4z M28,2.3
		c-3.4,0.9-6,4-6,7.7s2.6,6.9,6,7.7V2.3z"/>
</g>
<g id="Layer_2" display="none">
	<polyline display="inline" fill="none" stroke="#ED1C24" stroke-width="2" stroke-miterlimit="10" points="16,35 7,35 7,22 	"/>
	<path display="inline" fill="none" stroke="#ED1C24" stroke-width="2" stroke-miterlimit="10" d="M21,36V23h4c2.2,0,4,1.8,4,4
		s-1.8,4-4,4l-4,0.1"/>
	<g display="inline">
		<path fill="#ED1C24" d="M28,2.3v15.5c-3.4-0.9-6-4-6-7.7S24.6,3.1,28,2.3 M30,0c-5.5,0-10,4.5-10,10s4.5,10,10,10V0L30,0z"/>
	</g>
	<line display="inline" fill="none" stroke="#ED1C24" stroke-width="2" stroke-miterlimit="10" x1="36" y1="5" x2="30" y2="5"/>
	<line display="inline" fill="none" stroke="#ED1C24" stroke-width="2" stroke-miterlimit="10" x1="21" y1="10" x2="0" y2="10"/>
	<line display="inline" fill="none" stroke="#ED1C24" stroke-width="2" stroke-miterlimit="10" x1="36" y1="15" x2="30" y2="15"/>
</g>
</svg>
