<?xml version="1.0" encoding="utf-8"?>
<!-- Generator: Adobe Illustrator 19.2.1, SVG Export Plug-In . SVG Version: 6.00 Build 0)  -->
<!DOCTYPE svg PUBLIC "-//W3C//DTD SVG 1.1//EN" "http://www.w3.org/Graphics/SVG/1.1/DTD/svg11.dtd">
<svg version="1.1" xmlns="http://www.w3.org/2000/svg" xmlns:xlink="http://www.w3.org/1999/xlink" x="0px" y="0px"
	 viewBox="0 0 36 36" enable-background="new 0 0 36 36" xml:space="preserve">
<g id="Layer_1">
	<path d="M34.7,2.7l-1.4-1.4L28.6,6h-9.2l3.3-3.3l-1.4-1.4L16.6,6H0v12h4.6l-3.3,3.3l1.4,1.4L7.4,18h9.2l-3.3,3.3l1.4,1.4l4.7-4.7
		H36V6h-4.6L34.7,2.7z M2,16V8h12.6l-8,8H2z M9.4,16l8-8h9.2l-8,8H9.4z M34,8v8H21.4l8-8H34z M1.3,24l34,10L34.7,36l-34-10L1.3,24z"
		/>
</g>
<g id="Layer_2" display="none">
	
		<rect x="1" y="7" display="inline" fill="none" stroke="#ED1C24" stroke-width="2" stroke-miterlimit="10" width="34" height="10"/>
	<line display="inline" fill="none" stroke="#ED1C24" stroke-width="2" stroke-miterlimit="10" x1="2" y1="22" x2="22" y2="2"/>
	<line display="inline" fill="none" stroke="#ED1C24" stroke-width="2" stroke-miterlimit="10" x1="14" y1="22" x2="34" y2="2"/>
	<line display="inline" fill="none" stroke="#ED1C24" stroke-width="2" stroke-miterlimit="10" x1="1" y1="25" x2="35" y2="35"/>
</g>
</svg>
