<?xml version="1.0" encoding="utf-8"?>
<!-- Generator: Adobe Illustrator 21.0.0, SVG Export Plug-In . SVG Version: 6.00 Build 0)  -->
<!DOCTYPE svg PUBLIC "-//W3C//DTD SVG 1.1//EN" "http://www.w3.org/Graphics/SVG/1.1/DTD/svg11.dtd">
<svg version="1.1" xmlns="http://www.w3.org/2000/svg" xmlns:xlink="http://www.w3.org/1999/xlink" x="0px" y="0px"
	 viewBox="0 0 36 36" enable-background="new 0 0 36 36" xml:space="preserve">
<g id="Layer_1">
	<path d="M33,26H19v10h-2V26H3l4.5-7.8C8,18.7,8.6,19,9.2,19.3L6.5,24h23.1l-2.7-4.7c0.6-0.3,1.1-0.7,1.7-1.1L33,26z M6.8,13.6
		c-0.1-0.2-2-5.4,2.7-10.1c4.7-4.7,12.3-4.7,17,0c4.7,4.7,2.8,9.9,2.7,10.1c-0.9,2.3-2.4,3.9-4.2,4.3c-0.3,0.1-0.5,0.1-0.8,0.1
		c-1.1,0-2.1-0.5-3-1.4c-1.8-1.8-4.6-1.8-6.4,0c-1.1,1.1-2.5,1.6-3.8,1.3C9.2,17.5,7.7,15.9,6.8,13.6z M8.7,12.9
		c0.6,1.7,1.7,2.8,2.7,3c0.7,0.2,1.4-0.1,2-0.7c1.3-1.3,2.9-1.9,4.6-1.9s3.3,0.6,4.6,1.9c0.6,0.6,1.3,0.9,2,0.7
		c1.1-0.2,2.1-1.4,2.7-3c0.1-0.2,1.5-4.2-2.3-8C21.2,1,14.8,1,10.9,4.9C7.2,8.7,8.6,12.7,8.7,12.9z"/>
</g>
<g id="Layer_2" display="none">
	<path display="inline" fill="#ED1C24" d="M28.5,18.2c-0.5,0.5-1.1,0.8-1.7,1.1l2.7,4.7H6.5l2.7-4.7C8.6,19,8,18.7,7.5,18.2L3,26h30
		L28.5,18.2z"/>
	<g display="inline">
		<line fill="none" stroke="#ED1C24" stroke-width="2" stroke-miterlimit="10" x1="18" y1="36" x2="18" y2="25"/>
	</g>
	<g display="inline">
		<path fill="none" stroke="#ED1C24" stroke-width="2" stroke-miterlimit="10" d="M14.1,15.9c2.1-2.1,5.6-2.1,7.8,0s5,0.9,6.4-2.7
			c0,0,1.8-4.7-2.5-9s-11.3-4.3-15.6,0s-2.5,9-2.5,9C9.1,16.8,12,18,14.1,15.9z"/>
	</g>
</g>
</svg>
