<?xml version="1.0" encoding="utf-8"?>
<!-- Generator: Adobe Illustrator 21.0.0, SVG Export Plug-In . SVG Version: 6.00 Build 0)  -->
<!DOCTYPE svg PUBLIC "-//W3C//DTD SVG 1.1//EN" "http://www.w3.org/Graphics/SVG/1.1/DTD/svg11.dtd">
<svg version="1.1" xmlns="http://www.w3.org/2000/svg" xmlns:xlink="http://www.w3.org/1999/xlink" x="0px" y="0px"
	 viewBox="0 0 36 36" enable-background="new 0 0 36 36" xml:space="preserve">
<g id="Layer_1">
	<path d="M33,26H19v10h-2V26H3l5.7-9.9l1.7,1l-4,6.9h23.1l-4-6.9l1.7-1L33,26z M29.3,12.7l4.8-2.8l-1-1.7l-4.8,2.8l1.6-5.9l-1.9-0.5
		l-2.1,7.8L19,16.3V8.4l5.7-5.7l-1.4-1.4L19,5.6V0h-2v5.6l-4.3-4.3l-1.4,1.4L17,8.4v7.9l-6.8-3.9L8.1,4.5L6.2,5.1l1.6,5.9L2.9,8.1
		l-1,1.7l4.8,2.8l-5.9,1.6l0.5,1.9l7.8-2.1l8.8,5.1l8.8-5.1l7.8,2.1l0.5-1.9L29.3,12.7z"/>
</g>
<g id="Layer_2" display="none">
	<polygon display="inline" fill="#ED1C24" points="25.6,17.1 29.5,24 6.5,24 10.4,17.1 8.7,16.1 3,26 33,26 27.3,16.1 	"/>
	<g display="inline">
		<line fill="none" stroke="#ED1C24" stroke-width="2" stroke-miterlimit="10" x1="18" y1="36" x2="18" y2="25"/>
	</g>
	<line display="inline" fill="none" stroke="#ED1C24" stroke-width="2" stroke-miterlimit="10" x1="18" y1="18" x2="18" y2="0"/>
	<polyline display="inline" fill="none" stroke="#ED1C24" stroke-width="2" stroke-miterlimit="10" points="12,2 18,8 24,2 	"/>
	<polyline display="inline" fill="none" stroke="#ED1C24" stroke-width="2" stroke-miterlimit="10" points="28.9,4.8 26.7,13 
		34.9,15.2 	"/>
	<polyline display="inline" fill="none" stroke="#ED1C24" stroke-width="2" stroke-miterlimit="10" points="2.4,9 18,18 33.6,9 	"/>
	<polyline display="inline" fill="none" stroke="#ED1C24" stroke-width="2" stroke-miterlimit="10" points="7.1,4.8 9.3,13 
		1.1,15.2 	"/>
</g>
</svg>
