<?xml version="1.0" encoding="utf-8"?>
<!-- Generator: Adobe Illustrator 19.2.1, SVG Export Plug-In . SVG Version: 6.00 Build 0)  -->
<!DOCTYPE svg PUBLIC "-//W3C//DTD SVG 1.1//EN" "http://www.w3.org/Graphics/SVG/1.1/DTD/svg11.dtd">
<svg version="1.1" xmlns="http://www.w3.org/2000/svg" xmlns:xlink="http://www.w3.org/1999/xlink" x="0px" y="0px"
	 viewBox="0 0 36 36" enable-background="new 0 0 36 36" xml:space="preserve">
<g id="Layer_1">
	<path d="M19,29c0,1.1-0.9,2-2,2c-1.1,0-2-0.9-2-2c0-1.1,0.9-2,2-2C18.1,27,19,27.9,19,29z M29,27c-1.1,0-2,0.9-2,2c0,1.1,0.9,2,2,2
		c1.1,0,2-0.9,2-2C31,27.9,30.1,27,29,27z M36,13v20c0,1.7-1.3,3-3,3H13c-1.7,0-3-1.3-3-3V13c0-1.7,1.3-3,3-3h20
		C34.7,10,36,11.3,36,13z M12,13v9h22v-9c0-0.6-0.4-1-1-1H13C12.4,12,12,12.4,12,13z M34,33v-9H12v9c0,0.6,0.4,1,1,1h20
		C33.6,34,34,33.6,34,33z M0,13v23h2V13C2,6.9,6.9,2,13,2h23V0H13C5.8,0,0,5.8,0,13z"/>
</g>
<g id="Layer_2" display="none">
	<line display="inline" fill="none" stroke="#ED1C24" stroke-width="2" stroke-miterlimit="10" x1="11" y1="23" x2="35" y2="23"/>
	<g display="inline">
		<path fill="#ED1C24" d="M17,27c-1.1,0-2,0.9-2,2s0.9,2,2,2s2-0.9,2-2S18.1,27,17,27L17,27z"/>
	</g>
	<g display="inline">
		<path fill="#ED1C24" d="M29,27c-1.1,0-2,0.9-2,2s0.9,2,2,2s2-0.9,2-2S30.1,27,29,27L29,27z"/>
	</g>
	<path display="inline" fill="none" stroke="#ED1C24" stroke-width="2" stroke-miterlimit="10" d="M33,35H13c-1.1,0-2-0.9-2-2V13
		c0-1.1,0.9-2,2-2h20c1.1,0,2,0.9,2,2v20C35,34.1,34.1,35,33,35z"/>
	<path display="inline" fill="none" stroke="#ED1C24" stroke-width="2" stroke-miterlimit="10" d="M1,36V13C1,6.4,6.4,1,13,1h23"/>
</g>
</svg>
