<?xml version="1.0" encoding="utf-8"?>
<!-- Generator: Adobe Illustrator 19.2.1, SVG Export Plug-In . SVG Version: 6.00 Build 0)  -->
<!DOCTYPE svg PUBLIC "-//W3C//DTD SVG 1.1//EN" "http://www.w3.org/Graphics/SVG/1.1/DTD/svg11.dtd">
<svg version="1.1" xmlns="http://www.w3.org/2000/svg" xmlns:xlink="http://www.w3.org/1999/xlink" x="0px" y="0px"
	 viewBox="0 0 36 36" enable-background="new 0 0 36 36" xml:space="preserve">
<g id="Layer_1">
	<path d="M24.5,0.1l0.8,2.5l-1.5,0.5L22.6,2L24.5,0.1z M11.6,13l1.4,1.4l1.4-1.4L13,11.6L11.6,13z M14.4,10.2l1.4,1.4l1.4-1.4
		l-1.4-1.4L14.4,10.2z M17.1,7.5l1.4,1.4l1.4-1.4l-1.4-1.4L17.1,7.5z M8.9,15.7l1.4,1.4l1.4-1.4l-1.4-1.4L8.9,15.7z M19.8,4.7
		l1.4,1.4l1.4-1.4l-1.4-1.4L19.8,4.7z M3.4,21.2l1.4,1.4l1.4-1.4l-1.4-1.4L3.4,21.2z M6.1,18.5l1.4,1.4l1.4-1.4l-1.4-1.4L6.1,18.5z
		 M2,22.6l-1.9,1.9l2.5,0.8l0.5-1.5L2,22.6z M28.7,33.4l2,0.6l0.6-1.9l-2-0.6L28.7,33.4z M8.7,27.1l2,0.6l0.6-1.9l-2-0.6L8.7,27.1z
		 M12.7,28.4l2,0.6l0.6-1.9l-2-0.6L12.7,28.4z M4.7,25.9l2,0.6l0.6-1.9l-2-0.6L4.7,25.9z M24.7,32.1l2,0.6l0.6-1.9l-2-0.6L24.7,32.1
		z M20.7,30.9l2,0.6l0.6-1.9l-2-0.6L20.7,30.9z M16.7,29.6l2,0.6l0.6-1.9l-2-0.6L16.7,29.6z M33.2,33.2l-0.5,1.5l2.8,0.9l-0.9-2.8
		L33.2,33.2z M34,30.7l-0.6-2l-1.9,0.6l0.6,2L34,30.7z M30.2,25.3l0.6,2l1.9-0.6l-0.6-2L30.2,25.3z M29,21.3l0.6,2l1.9-0.6l-0.6-2
		L29,21.3z M24,5.3l0.6,2l1.9-0.6l-0.6-2L24,5.3z M27.7,17.3l0.6,2l1.9-0.6l-0.6-2L27.7,17.3z M26.5,13.3l0.6,2l1.9-0.6l-0.6-2
		L26.5,13.3z M25.2,9.3l0.6,2l1.9-0.6l-0.6-2L25.2,9.3z"/>
</g>
<g id="Layer_2" display="none">
	<g display="inline">
		<g>
			<polyline fill="none" stroke="#ED1C24" stroke-width="2" stroke-miterlimit="10" points="24.3,3 24,2 23.3,2.7 			"/>
			
				<line fill="none" stroke="#ED1C24" stroke-width="2" stroke-miterlimit="10" stroke-dasharray="1.9408,1.9408" x1="21.9" y1="4.1" x2="3.4" y2="22.6"/>
			<polyline fill="none" stroke="#ED1C24" stroke-width="2" stroke-miterlimit="10" points="2.7,23.3 2,24 3,24.3 			"/>
			
				<line fill="none" stroke="#ED1C24" stroke-width="2" stroke-miterlimit="10" stroke-dasharray="2.1017,2.1017" x1="5" y1="24.9" x2="32" y2="33.4"/>
			<polyline fill="none" stroke="#ED1C24" stroke-width="2" stroke-miterlimit="10" points="33,33.7 34,34 33.7,33 			"/>
			
				<line fill="none" stroke="#ED1C24" stroke-width="2" stroke-miterlimit="10" stroke-dasharray="2.1017,2.1017" x1="33.1" y1="31" x2="24.6" y2="4"/>
		</g>
	</g>
</g>
</svg>
