<?xml version="1.0" encoding="utf-8"?>
<!-- Generator: Adobe Illustrator 21.0.0, SVG Export Plug-In . SVG Version: 6.00 Build 0)  -->
<!DOCTYPE svg PUBLIC "-//W3C//DTD SVG 1.1//EN" "http://www.w3.org/Graphics/SVG/1.1/DTD/svg11.dtd">
<svg version="1.1" xmlns="http://www.w3.org/2000/svg" xmlns:xlink="http://www.w3.org/1999/xlink" x="0px" y="0px"
	 viewBox="0 0 36 36" enable-background="new 0 0 36 36" xml:space="preserve">
<g id="Layer_1">
	<path d="M26.7,15.1c-0.8,0.2-1.6,0.3-2.3,0.3c-2.3,0-4.6-0.9-6.4-2.6c-1.8,1.8-4.1,2.6-6.4,2.6c-0.8,0-1.6-0.1-2.3-0.3L3,26h14v10
		h2V26h14L26.7,15.1z M10.3,17.3c0.4,0.1,0.9,0.1,1.3,0.1c2.3,0,4.5-0.7,6.4-2c1.8,1.3,4,2,6.4,2c0.4,0,0.9,0,1.3-0.1l3.9,6.7H6.5
		L10.3,17.3z"/>
</g>
<g id="Layer_2" display="none">
	<g display="inline">
		<line fill="none" stroke="#ED1C24" stroke-width="2" stroke-miterlimit="10" x1="18" y1="36" x2="18" y2="25"/>
	</g>
	<g display="inline">
		<path fill="#ED1C24" d="M18,15.3c1.8,1.3,4,2,6.4,2c0.4,0,0.9,0,1.3-0.1l3.9,6.7H6.5l3.9-6.7c0.4,0.1,0.9,0.1,1.3,0.1
			C14,17.4,16.2,16.7,18,15.3 M18,12.7c-1.8,1.8-4.1,2.6-6.4,2.6c-0.8,0-1.6-0.1-2.3-0.3L3,26h30l-6.3-10.9
			c-0.8,0.2-1.6,0.3-2.3,0.3C22.1,15.4,19.8,14.5,18,12.7L18,12.7z"/>
	</g>
</g>
</svg>
