<?xml version="1.0" encoding="utf-8"?>
<!-- Generator: Adobe Illustrator 19.2.1, SVG Export Plug-In . SVG Version: 6.00 Build 0)  -->
<!DOCTYPE svg PUBLIC "-//W3C//DTD SVG 1.1//EN" "http://www.w3.org/Graphics/SVG/1.1/DTD/svg11.dtd">
<svg version="1.1" xmlns="http://www.w3.org/2000/svg" xmlns:xlink="http://www.w3.org/1999/xlink" x="0px" y="0px"
	 viewBox="0 0 36 36" enable-background="new 0 0 36 36" xml:space="preserve">
<g id="Layer_1">
	<path d="M28,12c0,0.7,0.2,1.4,0.6,2L14,28.6c-0.6-0.4-1.3-0.6-2-0.6c-2.2,0-4,1.8-4,4s1.8,4,4,4s4-1.8,4-4c0-0.7-0.2-1.4-0.6-2
		L30,15.4c0.6,0.4,1.3,0.6,2,0.6c2.2,0,4-1.8,4-4s-1.8-4-4-4S28,9.8,28,12z M12,34c-1.1,0-2-0.9-2-2s0.9-2,2-2s2,0.9,2,2
		S13.1,34,12,34z M34,12c0,1.1-0.9,2-2,2s-2-0.9-2-2s0.9-2,2-2S34,10.9,34,12z M2,32H0v-8c0-2.2,1.8-4,4-4h8v2H4c-1.1,0-2,0.9-2,2
		V32z M22,12h-2V4c0-2.2,1.8-4,4-4h8v2h-8c-1.1,0-2,0.9-2,2V12z"/>
</g>
<g id="Layer_2" display="none">
	<g display="inline">
		<circle fill="none" stroke="#ED1C24" stroke-width="2" stroke-miterlimit="10" cx="32" cy="12" r="3"/>
		<circle fill="none" stroke="#ED1C24" stroke-width="2" stroke-miterlimit="10" cx="12" cy="32" r="3"/>
		<line fill="none" stroke="#ED1C24" stroke-width="2" stroke-miterlimit="10" x1="30" y1="14" x2="14" y2="30"/>
		<path fill="none" stroke="#ED1C24" stroke-width="2" stroke-miterlimit="10" d="M1,32v-8c0-1.6,1.3-3,3-3h8"/>
		<path fill="none" stroke="#ED1C24" stroke-width="2" stroke-miterlimit="10" d="M21,12V4c0-1.7,1.4-3,3-3h8"/>
	</g>
</g>
</svg>
