<?xml version="1.0" encoding="utf-8"?>
<!-- Generator: Adobe Illustrator 19.2.1, SVG Export Plug-In . SVG Version: 6.00 Build 0)  -->
<!DOCTYPE svg PUBLIC "-//W3C//DTD SVG 1.1//EN" "http://www.w3.org/Graphics/SVG/1.1/DTD/svg11.dtd">
<svg version="1.1" xmlns="http://www.w3.org/2000/svg" xmlns:xlink="http://www.w3.org/1999/xlink" x="0px" y="0px"
	 viewBox="0 0 36 36" enable-background="new 0 0 36 36" xml:space="preserve">
<g id="Layer_1">
	<path d="M5,2h31v2H5V2z M0,3c0-0.8,0.7-1.5,1.5-1.5S3,2.2,3,3S2.3,4.5,1.5,4.5S0,3.8,0,3z M5,10h31V8H5V10z M0,9
		c0-0.8,0.7-1.5,1.5-1.5S3,8.2,3,9s-0.7,1.5-1.5,1.5S0,9.8,0,9z M5,16h31v-2H5V16z M0,15c0-0.8,0.7-1.5,1.5-1.5S3,14.2,3,15
		s-0.7,1.5-1.5,1.5S0,15.8,0,15z M5,22h31v-2H5V22z M0,21c0-0.8,0.7-1.5,1.5-1.5S3,20.2,3,21s-0.7,1.5-1.5,1.5S0,21.8,0,21z M5,28
		h31v-2H5V28z M0,27c0-0.8,0.7-1.5,1.5-1.5S3,26.2,3,27s-0.7,1.5-1.5,1.5S0,27.8,0,27z M5,34h31v-2H5V34z M0,33
		c0-0.8,0.7-1.5,1.5-1.5S3,32.2,3,33s-0.7,1.5-1.5,1.5S0,33.8,0,33z"/>
</g>
<g id="Layer_2" display="none">
	<line display="inline" fill="none" stroke="#ED1C24" stroke-width="2" stroke-miterlimit="10" x1="36" y1="3" x2="5" y2="3"/>
	<circle display="inline" fill="none" stroke="#ED1C24" stroke-width="2" stroke-miterlimit="10" cx="1.5" cy="3" r="0.5"/>
	<line display="inline" fill="none" stroke="#ED1C24" stroke-width="2" stroke-miterlimit="10" x1="36" y1="9" x2="5" y2="9"/>
	<circle display="inline" fill="none" stroke="#ED1C24" stroke-width="2" stroke-miterlimit="10" cx="1.5" cy="9" r="0.5"/>
	<line display="inline" fill="none" stroke="#ED1C24" stroke-width="2" stroke-miterlimit="10" x1="36" y1="15" x2="5" y2="15"/>
	<circle display="inline" fill="none" stroke="#ED1C24" stroke-width="2" stroke-miterlimit="10" cx="1.5" cy="15" r="0.5"/>
	<line display="inline" fill="none" stroke="#ED1C24" stroke-width="2" stroke-miterlimit="10" x1="36" y1="21" x2="5" y2="21"/>
	<circle display="inline" fill="none" stroke="#ED1C24" stroke-width="2" stroke-miterlimit="10" cx="1.5" cy="21" r="0.5"/>
	<line display="inline" fill="none" stroke="#ED1C24" stroke-width="2" stroke-miterlimit="10" x1="36" y1="27" x2="5" y2="27"/>
	<circle display="inline" fill="none" stroke="#ED1C24" stroke-width="2" stroke-miterlimit="10" cx="1.5" cy="27" r="0.5"/>
	<line display="inline" fill="none" stroke="#ED1C24" stroke-width="2" stroke-miterlimit="10" x1="36" y1="33" x2="5" y2="33"/>
	<circle display="inline" fill="none" stroke="#ED1C24" stroke-width="2" stroke-miterlimit="10" cx="1.5" cy="33" r="0.5"/>
</g>
</svg>
