<?xml version="1.0" encoding="utf-8"?>
<!-- Generator: Adobe Illustrator 21.0.0, SVG Export Plug-In . SVG Version: 6.00 Build 0)  -->
<!DOCTYPE svg PUBLIC "-//W3C//DTD SVG 1.1//EN" "http://www.w3.org/Graphics/SVG/1.1/DTD/svg11.dtd">
<svg version="1.1" xmlns="http://www.w3.org/2000/svg" xmlns:xlink="http://www.w3.org/1999/xlink" x="0px" y="0px"
	 viewBox="0 0 36 36" enable-background="new 0 0 36 36" xml:space="preserve">
<g id="Layer_1">
	<path d="M1.7,35.7l-1.4-1.4l34-34l1.4,1.4L1.7,35.7z M6.7,8H2.5c1.3,5.2,5.2,9.3,10.2,11.1l-1.5,1.5C5.8,18.4,1.8,13.8,0.5,8H0V0h6
		h2v4c0,5.4,4.4,9.9,9.8,10l-1.8,1.8C11.6,15.1,8.1,12,6.7,8z M6,4V2H2v4h4V4z M24.9,15.4l-1.6,1.6C29.5,19.1,34,25,34,32v4h2v-4
		C36,24.5,31.4,18.1,24.9,15.4z M20.1,20.2L18.2,22c5.4,0.1,9.8,4.6,9.8,10v4h2v-4C30,26.1,25.7,21.2,20.1,20.2z"/>
</g>
<g id="Layer_2" display="none">
	<rect x="1" y="1" display="inline" fill="none" stroke="#ED1C24" stroke-width="2" stroke-miterlimit="10" width="6" height="6"/>
	<line display="inline" fill="none" stroke="#ED1C24" stroke-width="2" stroke-miterlimit="10" x1="35" y1="1" x2="1" y2="35"/>
	<g display="inline">
		<path fill="#ED1C24" d="M15.9,15.8l1.8-1.8C12.4,13.9,8,9.4,8,4V0H6v4C6,9.9,10.3,14.8,15.9,15.8z"/>
		<path fill="#ED1C24" d="M11.1,20.6l1.5-1.5C7.4,17.2,3.3,12.6,2.2,6.8l-2,0.4C1.4,13.4,5.6,18.3,11.1,20.6z"/>
		<path fill="#ED1C24" d="M24.9,15.4l-1.6,1.6C29.5,19.1,34,25,34,32v4h2v-4C36,24.5,31.4,18.1,24.9,15.4z"/>
		<path fill="#ED1C24" d="M20.1,20.2L18.2,22c5.4,0.1,9.8,4.6,9.8,10v4h2v-4C30,26.1,25.7,21.2,20.1,20.2z"/>
	</g>
</g>
</svg>
