<?xml version="1.0" encoding="utf-8"?>
<!-- Generator: Adobe Illustrator 21.0.0, SVG Export Plug-In . SVG Version: 6.00 Build 0)  -->
<!DOCTYPE svg PUBLIC "-//W3C//DTD SVG 1.1//EN" "http://www.w3.org/Graphics/SVG/1.1/DTD/svg11.dtd">
<svg version="1.1" xmlns="http://www.w3.org/2000/svg" xmlns:xlink="http://www.w3.org/1999/xlink" x="0px" y="0px"
	 viewBox="0 0 36 36" enable-background="new 0 0 36 36" xml:space="preserve">
<g id="Layer_1">
	<path d="M18,14C12.5,14,8,9.5,8,4V0H6H0v8h0.5C2.3,16.2,9.5,22,18,22c5.5,0,10,4.5,10,10v4h2v-4c0-6.6-5.4-12-12-12
		C10.6,20,4.3,15,2.5,8h4.2c1.7,4.7,6.1,8,11.3,8c8.8,0,16,7.2,16,16v4h2v-4C36,22.1,27.9,14,18,14z M6,6H2V2h4v2V6z"/>
</g>
<g id="Layer_2" display="none">
	<rect x="1" y="1" display="inline" fill="none" stroke="#ED1C24" stroke-width="2" stroke-miterlimit="10" width="6" height="6"/>
	<path display="inline" fill="none" stroke="#ED1C24" stroke-width="2" stroke-miterlimit="10" d="M18,15C11.9,15,7,10.1,7,4V0"/>
	<path display="inline" fill="none" stroke="#ED1C24" stroke-width="2" stroke-miterlimit="10" d="M18,15c9.4,0,17,7.6,17,17v4"/>
	<path display="inline" fill="none" stroke="#ED1C24" stroke-width="2" stroke-miterlimit="10" d="M18,21C9.6,21,2.7,15,1.3,7"/>
	<path display="inline" fill="none" stroke="#ED1C24" stroke-width="2" stroke-miterlimit="10" d="M18,21c6.1,0,11,4.9,11,11v4"/>
</g>
</svg>
