<?xml version="1.0" encoding="utf-8"?>
<!-- Generator: Adobe Illustrator 20.1.0, SVG Export Plug-In . SVG Version: 6.00 Build 0)  -->
<!DOCTYPE svg PUBLIC "-//W3C//DTD SVG 1.1//EN" "http://www.w3.org/Graphics/SVG/1.1/DTD/svg11.dtd">
<svg version="1.1" xmlns="http://www.w3.org/2000/svg" xmlns:xlink="http://www.w3.org/1999/xlink" x="0px" y="0px"
	 viewBox="0 0 36 36" enable-background="new 0 0 36 36" xml:space="preserve">
<g id="Layer_1">
	<polygon points="26.8,14.1 34.6,16.2 35.1,14.2 29.3,12.7 34.1,9.9 33.1,8.1 28.3,10.9 29.8,5.1 27.9,4.5 25.8,12.3 19,16.3 
		19,8.4 24.7,2.7 23.3,1.3 19,5.6 19,0 17,0 17,5.6 12.7,1.3 11.3,2.7 17,8.4 17,16.3 10.2,12.3 8.1,4.5 6.2,5.1 7.7,10.9 2.9,8.1 
		1.9,9.9 6.7,12.7 0.9,14.2 1.4,16.2 9.2,14.1 16,18 9.2,21.9 1.4,19.8 0.9,21.8 6.7,23.3 1.9,26.1 2.9,27.9 7.7,25.1 6.2,30.9 
		8.1,31.5 10.2,23.7 17,19.7 17,27.6 11.3,33.3 12.7,34.7 17,30.4 17,36 19,36 19,30.4 23.3,34.7 24.7,33.3 19,27.6 19,19.7 
		25.8,23.7 27.9,31.5 29.8,30.9 28.3,25.1 33.1,27.9 34.1,26.1 29.3,23.3 35.1,21.8 34.6,19.8 26.8,21.9 20,18 	"/>
</g>
<g id="Layer_2" display="none">
	<line display="inline" fill="none" stroke="#00A651" stroke-width="2" stroke-miterlimit="10" x1="18" y1="0" x2="18" y2="36"/>
	<polyline display="inline" fill="none" stroke="#00A651" stroke-width="2" stroke-miterlimit="10" points="12,2 18,8 24,2 	"/>
	<polyline display="inline" fill="none" stroke="#00A651" stroke-width="2" stroke-miterlimit="10" points="12,34 18,28 24,34 	"/>
	<line display="inline" fill="none" stroke="#00A651" stroke-width="2" stroke-miterlimit="10" x1="2.4" y1="9" x2="33.6" y2="27"/>
	<polyline display="inline" fill="none" stroke="#00A651" stroke-width="2" stroke-miterlimit="10" points="1.1,15.2 9.3,13 
		7.1,4.8 	"/>
	<polyline display="inline" fill="none" stroke="#00A651" stroke-width="2" stroke-miterlimit="10" points="28.9,31.2 26.7,23 
		34.9,20.8 	"/>
	<line display="inline" fill="none" stroke="#00A651" stroke-width="2" stroke-miterlimit="10" x1="2.4" y1="27" x2="33.6" y2="9"/>
	<polyline display="inline" fill="none" stroke="#00A651" stroke-width="2" stroke-miterlimit="10" points="7.1,31.2 9.3,23 
		1.1,20.8 	"/>
	<polyline display="inline" fill="none" stroke="#00A651" stroke-width="2" stroke-miterlimit="10" points="34.9,15.2 26.7,13 
		28.9,4.8 	"/>
</g>
</svg>
