<?xml version="1.0" encoding="utf-8"?>
<!-- Generator: Adobe Illustrator 21.0.0, SVG Export Plug-In . SVG Version: 6.00 Build 0)  -->
<!DOCTYPE svg PUBLIC "-//W3C//DTD SVG 1.1//EN" "http://www.w3.org/Graphics/SVG/1.1/DTD/svg11.dtd">
<svg version="1.1" xmlns="http://www.w3.org/2000/svg" xmlns:xlink="http://www.w3.org/1999/xlink" x="0px" y="0px"
	 viewBox="0 0 36 36" enable-background="new 0 0 36 36" xml:space="preserve">
<g id="Layer_1">
	<path d="M12,16H4V0h2v14h6V16z M30,0h-2v16h2V0z M0,20h36v16H0V20z M2,34h32V22H2V34z M19,16l5-16H22l-4,12.6L14,0H12l5,16H19z"/>
</g>
<g id="Layer_2" display="none">
	<polyline display="inline" fill="none" stroke="#ED1C24" stroke-width="2" stroke-miterlimit="10" points="5,0 5,15 12,15 	"/>
	
		<polyline display="inline" fill="none" stroke="#ED1C24" stroke-width="2" stroke-linecap="square" stroke-linejoin="bevel" stroke-miterlimit="10" points="
		13,0 18,16 23,0 	"/>
	<line display="inline" fill="none" stroke="#ED1C24" stroke-width="2" stroke-miterlimit="10" x1="29" y1="0" x2="29" y2="16"/>
	
		<rect x="1" y="21" display="inline" fill="none" stroke="#ED1C24" stroke-width="2" stroke-miterlimit="10" width="34" height="14"/>
</g>
</svg>
