<?xml version="1.0" encoding="utf-8"?>
<!-- Generator: Adobe Illustrator 21.0.0, SVG Export Plug-In . SVG Version: 6.00 Build 0)  -->
<!DOCTYPE svg PUBLIC "-//W3C//DTD SVG 1.1//EN" "http://www.w3.org/Graphics/SVG/1.1/DTD/svg11.dtd">
<svg version="1.1" xmlns="http://www.w3.org/2000/svg" xmlns:xlink="http://www.w3.org/1999/xlink" x="0px" y="0px"
	 viewBox="0 0 36 36" enable-background="new 0 0 36 36" xml:space="preserve">
<g id="Layer_1">
	<path d="M33.3,17H36v2h-1.7c1.1,2.3,1.7,4.8,1.7,7.5h-2c0-2.7-0.7-5.3-1.9-7.5H28v-2h2.8c-2.9-3.9-7.6-6.5-12.8-6.5
		S8.1,13.1,5.2,17H8v2H3.9C2.7,21.2,2,23.8,2,26.5H0c0-2.7,0.6-5.2,1.7-7.5H0v-2h2.7c3.2-5.1,8.8-8.5,15.3-8.5S30.1,11.9,33.3,17z
		 M14,19h8v-2h-8V19z"/>
</g>
<g id="Layer_2" display="none">
	<path display="inline" fill="none" stroke="#ED1C24" stroke-width="2" stroke-miterlimit="10" d="M1,26.5c0-9.4,7.6-17,17-17
		s17,7.6,17,17"/>
	<line display="inline" fill="none" stroke="#ED1C24" stroke-width="2" stroke-miterlimit="10" x1="8" y1="18" x2="0" y2="18"/>
	<line display="inline" fill="none" stroke="#ED1C24" stroke-width="2" stroke-miterlimit="10" x1="22" y1="18" x2="14" y2="18"/>
	<line display="inline" fill="none" stroke="#ED1C24" stroke-width="2" stroke-miterlimit="10" x1="36" y1="18" x2="28" y2="18"/>
</g>
</svg>
