<?xml version="1.0" encoding="utf-8"?>
<!-- Generator: Adobe Illustrator 21.0.0, SVG Export Plug-In . SVG Version: 6.00 Build 0)  -->
<!DOCTYPE svg PUBLIC "-//W3C//DTD SVG 1.1//EN" "http://www.w3.org/Graphics/SVG/1.1/DTD/svg11.dtd">
<svg version="1.1" xmlns="http://www.w3.org/2000/svg" xmlns:xlink="http://www.w3.org/1999/xlink" x="0px" y="0px"
	 viewBox="0 0 36 36" enable-background="new 0 0 36 36" xml:space="preserve">
<g id="Layer_1">
	<path d="M34.3,14.7L23,3.4l-5.3,5.3l-1.4-1.4L23,0.6l12.7,12.7L34.3,14.7z M21.7,15.3L11,4.6L0.3,15.3l1.4,1.4L11,7.4l9.3,9.3
		L21.7,15.3z M26,16c0,3.3-2.7,6-6,6c-7.7,0-14,6.3-14,14h2c0-6.6,5.4-12,12-12c2.4,0,4.5-1.1,6-2.7V22c0,3.3-2.7,6-6,6
		c-2.2,0-4,1.8-4,4v4h2v-4c0-1.1,0.9-2,2-2c4.4,0,8-3.6,8-8v-6H26z"/>
</g>
<g id="Layer_2" display="none">
	<polyline display="inline" fill="none" stroke="#00A651" stroke-width="2" stroke-miterlimit="10" points="35,14 23,2 17,8 	"/>
	<polyline display="inline" fill="none" stroke="#00A651" stroke-width="2" stroke-miterlimit="10" points="21,16 11,6 1,16 	"/>
	<path display="inline" fill="none" stroke="#00A651" stroke-width="2" stroke-miterlimit="10" d="M7,36c0-7.2,5.8-13,13-13"/>
	<path display="inline" fill="none" stroke="#00A651" stroke-width="2" stroke-miterlimit="10" d="M20,29c-1.7,0-3,1.3-3,3v4"/>
	<path display="inline" fill="none" stroke="#00A651" stroke-width="2" stroke-miterlimit="10" d="M27,16c0,3.9-3.1,7-7,7"/>
	<path display="inline" fill="none" stroke="#00A651" stroke-width="2" stroke-miterlimit="10" d="M20,29c3.9,0,7-3.1,7-7v-6"/>
</g>
</svg>
