<?xml version="1.0" encoding="utf-8"?>
<!-- Generator: Adobe Illustrator 19.2.1, SVG Export Plug-In . SVG Version: 6.00 Build 0)  -->
<!DOCTYPE svg PUBLIC "-//W3C//DTD SVG 1.1//EN" "http://www.w3.org/Graphics/SVG/1.1/DTD/svg11.dtd">
<svg version="1.1" xmlns="http://www.w3.org/2000/svg" xmlns:xlink="http://www.w3.org/1999/xlink" x="0px" y="0px"
	 viewBox="0 0 36 36" enable-background="new 0 0 36 36" xml:space="preserve">
<g id="Layer_1">
	<path d="M18,0C8.1,0,0,8.1,0,18s8.1,18,18,18s18-8.1,18-18S27.9,0,18,0z M18,34C9.2,34,2,26.8,2,18S9.2,2,18,2s16,7.2,16,16
		S26.8,34,18,34z M24.5,12.5C24.5,8.9,21.6,6,18,6s-6.5,2.9-6.5,6.5c0,2.3,1.2,4.3,3.1,5.5c-1.8,1.2-3.1,3.2-3.1,5.5
		c0,3.6,2.9,6.5,6.5,6.5s6.5-2.9,6.5-6.5c0-2.3-1.2-4.3-3.1-5.5C23.3,16.8,24.5,14.8,24.5,12.5z M22.5,23.5c0,2.5-2,4.5-4.5,4.5
		s-4.5-2-4.5-4.5s2-4.5,4.5-4.5S22.5,21,22.5,23.5z M18,17c-2.5,0-4.5-2-4.5-4.5S15.5,8,18,8s4.5,2,4.5,4.5S20.5,17,18,17z"/>
</g>
<g id="Layer_2" display="none">
	<circle display="inline" fill="none" stroke="#ED1C24" stroke-width="2" stroke-miterlimit="10" cx="18" cy="18" r="17"/>
	<circle display="inline" fill="none" stroke="#ED1C24" stroke-width="2" stroke-miterlimit="10" cx="18" cy="23.5" r="5.5"/>
	<circle display="inline" fill="none" stroke="#ED1C24" stroke-width="2" stroke-miterlimit="10" cx="18" cy="12.5" r="5.5"/>
</g>
</svg>
