<?xml version="1.0" encoding="utf-8"?>
<!-- Generator: Adobe Illustrator 19.2.1, SVG Export Plug-In . SVG Version: 6.00 Build 0)  -->
<!DOCTYPE svg PUBLIC "-//W3C//DTD SVG 1.1//EN" "http://www.w3.org/Graphics/SVG/1.1/DTD/svg11.dtd">
<svg version="1.1" xmlns="http://www.w3.org/2000/svg" xmlns:xlink="http://www.w3.org/1999/xlink" x="0px" y="0px"
	 viewBox="0 0 36 36" enable-background="new 0 0 36 36" xml:space="preserve">
<g id="Layer_1">
	<polygon points="26.9,12.3 31.6,17 19,17 19,4.4 23.7,9.1 25.1,7.7 18,0.6 10.9,7.7 12.3,9.1 17,4.4 17,17 4.4,17 9.1,12.3 
		7.7,10.9 0.6,18 7.7,25.1 9.1,23.7 4.4,19 17,19 17,31.6 12.3,26.9 10.9,28.3 18,35.4 25.1,28.3 23.7,26.9 19,31.6 19,19 31.6,19 
		26.9,23.7 28.3,25.1 35.4,18 28.3,10.9 	"/>
</g>
<g id="Layer_2" display="none">
	<line display="inline" fill="none" stroke="#ED1C24" stroke-width="2" stroke-miterlimit="10" x1="2" y1="18" x2="34" y2="18"/>
	<polyline display="inline" fill="none" stroke="#ED1C24" stroke-width="2" stroke-miterlimit="10" points="27.6,11.6 34,18 
		27.6,24.4 	"/>
	<polyline display="inline" fill="none" stroke="#ED1C24" stroke-width="2" stroke-miterlimit="10" points="8.4,24.4 2,18 8.4,11.6 
			"/>
	<line display="inline" fill="none" stroke="#ED1C24" stroke-width="2" stroke-miterlimit="10" x1="18" y1="34" x2="18" y2="2"/>
	<polyline display="inline" fill="none" stroke="#ED1C24" stroke-width="2" stroke-miterlimit="10" points="11.6,8.4 18,2 24.4,8.4 
			"/>
	<polyline display="inline" fill="none" stroke="#ED1C24" stroke-width="2" stroke-miterlimit="10" points="24.4,27.6 18,34 
		11.6,27.6 	"/>
</g>
</svg>
