<?xml version="1.0" encoding="utf-8"?>
<!-- Generator: Adobe Illustrator 21.0.0, SVG Export Plug-In . SVG Version: 6.00 Build 0)  -->
<!DOCTYPE svg PUBLIC "-//W3C//DTD SVG 1.1//EN" "http://www.w3.org/Graphics/SVG/1.1/DTD/svg11.dtd">
<svg version="1.1" xmlns="http://www.w3.org/2000/svg" xmlns:xlink="http://www.w3.org/1999/xlink" x="0px" y="0px"
	 viewBox="0 0 36 36" enable-background="new 0 0 36 36" xml:space="preserve">
<g id="Layer_1">
	<path d="M11.6,20.9l5-4.9l-5-4.9L13,9.6l5,4.9l5-4.9l1.4,1.4l-5,4.9l5,4.9L23,22.4l-5-4.9l-5,4.9L11.6,20.9z M32,16
		c0,7.7-6.3,14-14,14S4,23.7,4,16v-2H0v2h2c0,8.8,7.2,16,16,16s16-7.2,16-16h2v-2h-4V16z"/>
</g>
<g id="Layer_2" display="none">
	<path display="inline" fill="none" stroke="#ED1C24" stroke-width="2" stroke-miterlimit="10" d="M33,16c0,8.3-6.7,15-15,15
		S3,24.3,3,16"/>
	
		<line display="inline" fill="none" stroke="#ED1C24" stroke-width="2" stroke-miterlimit="10" x1="23.7" y1="10.3" x2="12.3" y2="21.7"/>
	
		<line display="inline" fill="none" stroke="#ED1C24" stroke-width="2" stroke-miterlimit="10" x1="23.7" y1="21.7" x2="12.3" y2="10.3"/>
	<line display="inline" fill="none" stroke="#ED1C24" stroke-width="2" stroke-miterlimit="10" x1="0" y1="15" x2="4" y2="15"/>
	<line display="inline" fill="none" stroke="#ED1C24" stroke-width="2" stroke-miterlimit="10" x1="32" y1="15" x2="36" y2="15"/>
</g>
</svg>
