<?xml version="1.0" encoding="utf-8"?>
<!-- Generator: Adobe Illustrator 19.2.1, SVG Export Plug-In . SVG Version: 6.00 Build 0)  -->
<!DOCTYPE svg PUBLIC "-//W3C//DTD SVG 1.1//EN" "http://www.w3.org/Graphics/SVG/1.1/DTD/svg11.dtd">
<svg version="1.1" xmlns="http://www.w3.org/2000/svg" xmlns:xlink="http://www.w3.org/1999/xlink" x="0px" y="0px"
	 viewBox="0 0 36 36" enable-background="new 0 0 36 36" xml:space="preserve">
<g id="Layer_1">
	<path d="M0,8v28h36V8L18,0L0,8z M34,34H2V9.3l16-7.1l16,7.1V34z M22,30v-2c2.2,0,4-1.8,4-4s-1.8-4-4-4v-2c2.2,0,4-1.8,4-4
		s-1.8-4-4-4V8c3.3,0,6,2.7,6,6c0,2.1-1.1,3.9-2.7,5c1.6,1.1,2.7,2.9,2.7,5C28,27.3,25.3,30,22,30z M6,18h4v2H6V18z M14,18h4v2h-4
		V18z"/>
</g>
<g id="Layer_2" display="none">
	<g display="inline">
		<path fill="#ED1C24" d="M18,2.2l16,7.1V34H2V9.3L18,2.2 M18,0L0,8v28h36V8L18,0L18,0z"/>
	</g>
	<path display="inline" fill="none" stroke="#ED1C24" stroke-width="2" stroke-miterlimit="10" d="M22,9c2.8,0,5,2.2,5,5s-2.2,5-5,5
		"/>
	<path display="inline" fill="none" stroke="#ED1C24" stroke-width="2" stroke-miterlimit="10" d="M22,19c2.8,0,5,2.2,5,5
		s-2.2,5-5,5"/>
	<line display="inline" fill="none" stroke="#ED1C24" stroke-width="2" stroke-miterlimit="10" x1="10" y1="19" x2="6" y2="19"/>
	<line display="inline" fill="none" stroke="#ED1C24" stroke-width="2" stroke-miterlimit="10" x1="18" y1="19" x2="14" y2="19"/>
</g>
</svg>
