<?xml version="1.0" encoding="utf-8"?>
<!-- Generator: Adobe Illustrator 19.2.1, SVG Export Plug-In . SVG Version: 6.00 Build 0)  -->
<!DOCTYPE svg PUBLIC "-//W3C//DTD SVG 1.1//EN" "http://www.w3.org/Graphics/SVG/1.1/DTD/svg11.dtd">
<svg version="1.1" xmlns="http://www.w3.org/2000/svg" xmlns:xlink="http://www.w3.org/1999/xlink" x="0px" y="0px"
	 viewBox="0 0 36 36" enable-background="new 0 0 36 36" xml:space="preserve">
<g id="Layer_1">
	<path d="M36,22c0,4.4-3.6,8-8,8v-2c3.3,0,6-2.7,6-6s-2.7-6-6-6v-2c3.3,0,6-2.7,6-6s-2.7-6-6-6V0c4.4,0,8,3.6,8,8c0,3-1.7,5.6-4.1,7
		C34.3,16.4,36,19,36,22z M20,16h4v-2h-4V16z M12,14c1.5,0,4,0,4,0v2c-1.8,0-3.1,0-4,0v20H0V6c0-3.3,2.7-6,6-6s6,2.7,6,6V14z M10,6
		c0-2.2-1.8-4-4-4S2,3.8,2,6v28h8V6z"/>
</g>
<g id="Layer_2" display="none">
	<path display="inline" fill="none" stroke="#ED1C24" stroke-width="2" stroke-miterlimit="10" d="M28,1c3.9,0,7,3.1,7,7s-3.1,7-7,7
		"/>
	<path display="inline" fill="none" stroke="#ED1C24" stroke-width="2" stroke-miterlimit="10" d="M28,15c3.9,0,7,3.1,7,7
		s-3.1,7-7,7"/>
	<line display="inline" fill="none" stroke="#ED1C24" stroke-width="2" stroke-miterlimit="10" x1="24" y1="15" x2="20" y2="15"/>
	<polyline display="inline" fill="none" stroke="#ED1C24" stroke-width="2" stroke-miterlimit="10" points="1,6 1,35 11,35 11,15 	
		"/>
	<polyline display="inline" fill="none" stroke="#ED1C24" stroke-width="2" stroke-miterlimit="10" points="16,15 11,15 11,6 	"/>
	<path display="inline" fill="none" stroke="#ED1C24" stroke-width="2" stroke-miterlimit="10" d="M1,6c0-2.8,2.2-5,5-5s5,2.2,5,5"
		/>
</g>
</svg>
