<?xml version="1.0" encoding="utf-8"?>
<!-- Generator: Adobe Illustrator 19.2.1, SVG Export Plug-In . SVG Version: 6.00 Build 0)  -->
<!DOCTYPE svg PUBLIC "-//W3C//DTD SVG 1.1//EN" "http://www.w3.org/Graphics/SVG/1.1/DTD/svg11.dtd">
<svg version="1.1" xmlns="http://www.w3.org/2000/svg" xmlns:xlink="http://www.w3.org/1999/xlink" x="0px" y="0px"
	 viewBox="0 0 36 36" enable-background="new 0 0 36 36" xml:space="preserve">
<g id="Layer_1">
	<path d="M36,4v10H26v-2h6.8C30.4,6,24.6,2,18,2C9.2,2,2,9.2,2,18H0C0,8.1,8.1,0,18,0c6.9,0,13,3.8,16,9.7V4H36z M18,34
		c-6.6,0-12.4-4-14.8-10H10v-2H0v10h2v-5.7c3,5.9,9.1,9.7,16,9.7c9.9,0,18-8.1,18-18h-2C34,26.8,26.8,34,18,34z"/>
</g>
<g id="Layer_2" display="none">
	<polyline display="inline" fill="none" stroke="#ED1C24" stroke-width="2" stroke-miterlimit="10" points="35,4 35,13 26,13 	"/>
	<polyline display="inline" fill="none" stroke="#ED1C24" stroke-width="2" stroke-miterlimit="10" points="1,32 1,23 10,23 	"/>
	<path display="inline" fill="none" stroke="#ED1C24" stroke-width="2" stroke-miterlimit="10" d="M1,18C1,8.6,8.6,1,18,1
		c7.6,0,14.1,5,16.2,11.9"/>
	<path display="inline" fill="none" stroke="#ED1C24" stroke-width="2" stroke-miterlimit="10" d="M35,18c0,9.4-7.6,17-17,17
		c-7.6,0-14.1-5-16.2-11.9"/>
</g>
</svg>
