<?xml version="1.0" encoding="utf-8"?>
<!-- Generator: Adobe Illustrator 21.0.0, SVG Export Plug-In . SVG Version: 6.00 Build 0)  -->
<!DOCTYPE svg PUBLIC "-//W3C//DTD SVG 1.1//EN" "http://www.w3.org/Graphics/SVG/1.1/DTD/svg11.dtd">
<svg version="1.1" xmlns="http://www.w3.org/2000/svg" xmlns:xlink="http://www.w3.org/1999/xlink" x="0px" y="0px"
	 viewBox="0 0 36 36" enable-background="new 0 0 36 36" xml:space="preserve">
<g id="Layer_1">
	<path d="M36,24H0v-2h36V24z M20,18c0-1.1-0.9-2-2-2s-2,0.9-2,2s0.9,2,2,2S20,19.1,20,18z M18,18L18,18L18,18z M28,18
		c0-1.1-0.9-2-2-2s-2,0.9-2,2s0.9,2,2,2S28,19.1,28,18z M26,18L26,18L26,18z M36,18c0-1.1-0.9-2-2-2s-2,0.9-2,2s0.9,2,2,2
		S36,19.1,36,18z M34,18L34,18L34,18z M12,18c0-1.1-0.9-2-2-2s-2,0.9-2,2s0.9,2,2,2S12,19.1,12,18z M10,18L10,18L10,18z M4,18
		c0-1.1-0.9-2-2-2s-2,0.9-2,2s0.9,2,2,2S4,19.1,4,18z M2,18L2,18L2,18z M24,12c0-1.1-0.9-2-2-2s-2,0.9-2,2s0.9,2,2,2S24,13.1,24,12z
		 M22,12L22,12L22,12z M32,12c0-1.1-0.9-2-2-2s-2,0.9-2,2s0.9,2,2,2S32,13.1,32,12z M30,12L30,12L30,12z M16,12c0-1.1-0.9-2-2-2
		s-2,0.9-2,2s0.9,2,2,2S16,13.1,16,12z M14,12L14,12L14,12z M8,12c0-1.1-0.9-2-2-2s-2,0.9-2,2s0.9,2,2,2S8,13.1,8,12z M6,12L6,12
		L6,12z"/>
</g>
<g id="Layer_2" display="none">
	<line display="inline" fill="none" stroke="#ED1C24" stroke-width="2" stroke-miterlimit="10" x1="0" y1="23" x2="36" y2="23"/>
	<circle display="inline" fill="none" stroke="#ED1C24" stroke-width="2" stroke-miterlimit="10" cx="18" cy="18" r="1"/>
	<circle display="inline" fill="none" stroke="#ED1C24" stroke-width="2" stroke-miterlimit="10" cx="26" cy="18" r="1"/>
	<circle display="inline" fill="none" stroke="#ED1C24" stroke-width="2" stroke-miterlimit="10" cx="34" cy="18" r="1"/>
	<circle display="inline" fill="none" stroke="#ED1C24" stroke-width="2" stroke-miterlimit="10" cx="10" cy="18" r="1"/>
	<circle display="inline" fill="none" stroke="#ED1C24" stroke-width="2" stroke-miterlimit="10" cx="2" cy="18" r="1"/>
	<circle display="inline" fill="none" stroke="#ED1C24" stroke-width="2" stroke-miterlimit="10" cx="22" cy="12" r="1"/>
	<circle display="inline" fill="none" stroke="#ED1C24" stroke-width="2" stroke-miterlimit="10" cx="30" cy="12" r="1"/>
	<circle display="inline" fill="none" stroke="#ED1C24" stroke-width="2" stroke-miterlimit="10" cx="14" cy="12" r="1"/>
	<circle display="inline" fill="none" stroke="#ED1C24" stroke-width="2" stroke-miterlimit="10" cx="6" cy="12" r="1"/>
</g>
</svg>
