<?xml version="1.0" encoding="utf-8"?>
<!-- Generator: Adobe Illustrator 21.0.0, SVG Export Plug-In . SVG Version: 6.00 Build 0)  -->
<!DOCTYPE svg PUBLIC "-//W3C//DTD SVG 1.1//EN" "http://www.w3.org/Graphics/SVG/1.1/DTD/svg11.dtd">
<svg version="1.1" xmlns="http://www.w3.org/2000/svg" xmlns:xlink="http://www.w3.org/1999/xlink" x="0px" y="0px"
	 viewBox="0 0 36 36" enable-background="new 0 0 36 36" xml:space="preserve">
<g id="Layer_1">
	<path d="M26,20c-1.1,0-2-0.9-2-2s0.9-2,2-2s2,0.9,2,2S27.1,20,26,20z M26,18L26,18L26,18z M34,20c-1.1,0-2-0.9-2-2s0.9-2,2-2
		s2,0.9,2,2S35.1,20,34,20z M34,18L34,18L34,18z M10,20c-1.1,0-2-0.9-2-2s0.9-2,2-2s2,0.9,2,2S11.1,20,10,20z M10,18L10,18L10,18z
		 M2,20c-1.1,0-2-0.9-2-2s0.9-2,2-2s2,0.9,2,2S3.1,20,2,20z M2,18L2,18L2,18z M30,14c-1.1,0-2-0.9-2-2s0.9-2,2-2s2,0.9,2,2
		S31.1,14,30,14z M30,12L30,12L30,12z M14,14c-1.1,0-2-0.9-2-2s0.9-2,2-2s2,0.9,2,2S15.1,14,14,14z M14,12L14,12L14,12z M6,14
		c-1.1,0-2-0.9-2-2s0.9-2,2-2s2,0.9,2,2S7.1,14,6,14z M6,12L6,12L6,12z M34.7,2.7l-1.4-1.4l-32,32l1.4,1.4L34.7,2.7z M9.8,22H0v2
		h7.8L9.8,22z M16.2,24H36v-2H18.2L16.2,24z"/>
</g>
<g id="Layer_2" display="none">
	<circle display="inline" fill="none" stroke="#ED1C24" stroke-width="2" stroke-miterlimit="10" cx="26" cy="18" r="1"/>
	<circle display="inline" fill="none" stroke="#ED1C24" stroke-width="2" stroke-miterlimit="10" cx="34" cy="18" r="1"/>
	<circle display="inline" fill="none" stroke="#ED1C24" stroke-width="2" stroke-miterlimit="10" cx="10" cy="18" r="1"/>
	<circle display="inline" fill="none" stroke="#ED1C24" stroke-width="2" stroke-miterlimit="10" cx="2" cy="18" r="1"/>
	<circle display="inline" fill="none" stroke="#ED1C24" stroke-width="2" stroke-miterlimit="10" cx="30" cy="12" r="1"/>
	<circle display="inline" fill="none" stroke="#ED1C24" stroke-width="2" stroke-miterlimit="10" cx="14" cy="12" r="1"/>
	<circle display="inline" fill="none" stroke="#ED1C24" stroke-width="2" stroke-miterlimit="10" cx="6" cy="12" r="1"/>
	<line display="inline" fill="none" stroke="#ED1C24" stroke-width="2" stroke-miterlimit="10" x1="2" y1="34" x2="34" y2="2"/>
	<g display="inline">
		<polygon fill="#ED1C24" points="9.8,22 0,22 0,24 7.8,24 		"/>
		<polygon fill="#ED1C24" points="16.2,24 36,24 36,22 18.2,22 		"/>
	</g>
</g>
</svg>
