<?xml version="1.0" encoding="utf-8"?>
<!-- Generator: Adobe Illustrator 21.0.0, SVG Export Plug-In . SVG Version: 6.00 Build 0)  -->
<!DOCTYPE svg PUBLIC "-//W3C//DTD SVG 1.1//EN" "http://www.w3.org/Graphics/SVG/1.1/DTD/svg11.dtd">
<svg version="1.1" xmlns="http://www.w3.org/2000/svg" xmlns:xlink="http://www.w3.org/1999/xlink" x="0px" y="0px"
	 viewBox="0 0 36 36" enable-background="new 0 0 36 36" xml:space="preserve">
<g id="Layer_1">
	<path d="M0.9,14.2l5.9-1.6L1.9,9.9l1-1.7l4.8,2.8L6.2,5.1l1.9-0.5l2.1,7.8l6.8,3.9V8.4l-5.7-5.7l1.4-1.4L17,5.6V0h2v5.6l4.3-4.3
		l1.4,1.4L19,8.4v7.9l6.8-3.9l2.1-7.8l1.9,0.5l-1.6,5.9l4.8-2.8l1,1.7l-4.8,2.8l5.9,1.6l-0.5,1.9l-7.8-2.1L18,19.2l-8.8-5.1
		l-7.8,2.1L0.9,14.2z M0,22v2h36v-2H0z"/>
</g>
<g id="Layer_2" display="none">
	<line display="inline" fill="none" stroke="#ED1C24" stroke-width="2" stroke-miterlimit="10" x1="18" y1="18" x2="18" y2="0"/>
	<polyline display="inline" fill="none" stroke="#ED1C24" stroke-width="2" stroke-miterlimit="10" points="12,2 18,8 24,2 	"/>
	<polyline display="inline" fill="none" stroke="#ED1C24" stroke-width="2" stroke-miterlimit="10" points="28.9,4.8 26.7,13 
		34.9,15.2 	"/>
	<polyline display="inline" fill="none" stroke="#ED1C24" stroke-width="2" stroke-miterlimit="10" points="2.4,9 18,18 33.6,9 	"/>
	<polyline display="inline" fill="none" stroke="#ED1C24" stroke-width="2" stroke-miterlimit="10" points="7.1,4.8 9.3,13 
		1.1,15.2 	"/>
	<line display="inline" fill="none" stroke="#ED1C24" stroke-width="2" stroke-miterlimit="10" x1="0" y1="23" x2="36" y2="23"/>
</g>
</svg>
