<?xml version="1.0" encoding="utf-8"?>
<!-- Generator: Adobe Illustrator 19.2.1, SVG Export Plug-In . SVG Version: 6.00 Build 0)  -->
<!DOCTYPE svg PUBLIC "-//W3C//DTD SVG 1.1//EN" "http://www.w3.org/Graphics/SVG/1.1/DTD/svg11.dtd">
<svg version="1.1" xmlns="http://www.w3.org/2000/svg" xmlns:xlink="http://www.w3.org/1999/xlink" x="0px" y="0px"
	 viewBox="0 0 36 36" enable-background="new 0 0 36 36" xml:space="preserve">
<g id="Layer_1">
	<path d="M34,4.2H2c-1.1,0-2,0.9-2,2v23.5c0,1.1,0.9,2,2,2h32c1.1,0,2-0.9,2-2V6.2C36,5.1,35.1,4.2,34,4.2z M34,29.8H2V6.2h32
		L34,29.8z M8,20h3c2.8,0,5-2.2,5-5c0-2.8-2.2-5-5-5H6v10v6h2V20z M8,12h3c1.7,0,3,1.3,3,3c0,1.7-1.3,3-3,3H8V12z M20,26h-2V9.6l6,6
		l6-6V26h-2V14.4l-4,4l-4-4V26z"/>
</g>
<g id="Layer_2" display="none">
	<path display="inline" fill="none" stroke="#ED1C24" stroke-width="2" stroke-miterlimit="10" d="M34,30.8H2c-0.5,0-1-0.5-1-1V6.2
		c0-0.6,0.5-1,1-1h32c0.5,0,1,0.4,1,1v23.5C35,30.3,34.5,30.8,34,30.8z"/>
	
		<line display="inline" fill="none" stroke="#ED1C24" stroke-width="2" stroke-linejoin="bevel" stroke-miterlimit="10" x1="7" y1="10" x2="7" y2="26"/>
	<polyline display="inline" fill="none" stroke="#ED1C24" stroke-width="2" stroke-miterlimit="10" points="19,26 19,12 24,17 
		29,12 29,26 	"/>
	<g display="inline">
		<path fill="#ED1C24" d="M11,12c1.7,0,3,1.3,3,3s-1.3,3-3,3H8v-6H11 M11,10H6v10h5c2.8,0,5-2.2,5-5C16,12.2,13.8,10,11,10L11,10z"
			/>
	</g>
</g>
</svg>
