<?xml version="1.0" encoding="utf-8"?>
<!-- Generator: Adobe Illustrator 19.2.1, SVG Export Plug-In . SVG Version: 6.00 Build 0)  -->
<!DOCTYPE svg PUBLIC "-//W3C//DTD SVG 1.1//EN" "http://www.w3.org/Graphics/SVG/1.1/DTD/svg11.dtd">
<svg version="1.1" xmlns="http://www.w3.org/2000/svg" xmlns:xlink="http://www.w3.org/1999/xlink" x="0px" y="0px"
	 viewBox="0 0 36 36" enable-background="new 0 0 36 36" xml:space="preserve">
<g id="Layer_1">
	<path d="M18,2c8.8,0,16,5.4,16,12s-7.2,12-16,12c-1,0-2-0.1-3-0.2l-0.7-0.1L13.7,26l-9.5,5.3l2.9-6.6l0.6-1.4l-1.2-1
		C3.6,20.1,2,17.1,2,14C2,7.4,9.2,2,18,2 M18,0C8.1,0,0,6.3,0,14c0,3.9,2,7.4,5.3,9.9L0,36l14.7-8.2c1.1,0.2,2.2,0.2,3.3,0.2
		c9.9,0,18-6.3,18-14S27.9,0,18,0L18,0z M12,13H8v2h4V13z M20,13h-4v2h4V13z M28,13h-4v2h4V13z"/>
</g>
<g id="Layer_2" display="none">
	<g display="inline">
		<g>
			<path fill="#ED1C24" d="M18,2c8.8,0,16,5.4,16,12s-7.2,12-16,12c-1,0-2-0.1-3-0.2l-0.7-0.1L13.7,26l-9.5,5.3l2.9-6.6l0.6-1.4
				l-1.2-1C3.6,20.1,2,17.1,2,14C2,7.4,9.2,2,18,2 M18,0C8.1,0,0,6.3,0,14c0,3.9,2,7.4,5.3,9.9L0,36l14.7-8.2
				c1.1,0.2,2.2,0.2,3.3,0.2c9.9,0,18-6.3,18-14S27.9,0,18,0L18,0z"/>
		</g>
	</g>
	<line display="inline" fill="none" stroke="#ED1C24" stroke-width="2" stroke-miterlimit="10" x1="8" y1="14" x2="12" y2="14"/>
	<line display="inline" fill="none" stroke="#ED1C24" stroke-width="2" stroke-miterlimit="10" x1="16" y1="14" x2="20" y2="14"/>
	<line display="inline" fill="none" stroke="#ED1C24" stroke-width="2" stroke-miterlimit="10" x1="24" y1="14" x2="28" y2="14"/>
</g>
</svg>
