<?xml version="1.0" encoding="utf-8"?>
<!-- Generator: Adobe Illustrator 21.0.0, SVG Export Plug-In . SVG Version: 6.00 Build 0)  -->
<!DOCTYPE svg PUBLIC "-//W3C//DTD SVG 1.1//EN" "http://www.w3.org/Graphics/SVG/1.1/DTD/svg11.dtd">
<svg version="1.1" xmlns="http://www.w3.org/2000/svg" xmlns:xlink="http://www.w3.org/1999/xlink" x="0px" y="0px"
	 viewBox="0 0 36 36" enable-background="new 0 0 36 36" xml:space="preserve">
<g id="Layer_1">
	<path d="M29,22c-3.9,0-7,3.1-7,7c0,1.7,0.6,3.2,1.6,4.5C13,31.3,4.7,23,2.5,12.4C3.8,13.4,5.3,14,7,14c3.9,0,7-3.1,7-7L7,0
		C3.1,0,0,3.1,0,7c0,16,13,29,29,29c3.9,0,7-3.1,7-7L29,22z M6.2,2.1l5.7,5.7C11.6,10.2,9.5,12,7,12c-2.8,0-5-2.2-5-5
		C2,4.5,3.8,2.4,6.2,2.1z M29,34c-2.8,0-5-2.2-5-5c0-2.5,1.8-4.6,4.2-4.9l5.7,5.7C33.6,32.2,31.5,34,29,34z"/>
</g>
<g id="Layer_2" display="none">
	<path display="inline" fill="none" stroke="#ED1C24" stroke-width="2" stroke-miterlimit="10" d="M1,7c0,15.5,12.5,28,28,28"/>
	<g display="inline">
		<path fill="#ED1C24" d="M6.2,2.1l5.7,5.7C11.6,10.2,9.5,12,7,12c-2.8,0-5-2.2-5-5C2,4.5,3.8,2.4,6.2,2.1 M7,0C3.1,0,0,3.1,0,7
			s3.1,7,7,7s7-3.1,7-7L7,0L7,0z"/>
	</g>
	<g display="inline">
		<path fill="#ED1C24" d="M28.2,24.1l5.7,5.7C33.6,32.2,31.5,34,29,34c-2.8,0-5-2.2-5-5C24,26.5,25.8,24.4,28.2,24.1 M29,22
			c-3.9,0-7,3.1-7,7s3.1,7,7,7s7-3.1,7-7L29,22L29,22z"/>
	</g>
</g>
</svg>
