<?xml version="1.0" encoding="utf-8"?>
<!-- Generator: Adobe Illustrator 21.0.0, SVG Export Plug-In . SVG Version: 6.00 Build 0)  -->
<!DOCTYPE svg PUBLIC "-//W3C//DTD SVG 1.1//EN" "http://www.w3.org/Graphics/SVG/1.1/DTD/svg11.dtd">
<svg version="1.1" xmlns="http://www.w3.org/2000/svg" xmlns:xlink="http://www.w3.org/1999/xlink" x="0px" y="0px"
	 viewBox="0 0 36 36" enable-background="new 0 0 36 36" xml:space="preserve">
<g id="Layer_1">
	<path d="M36,36H0V0h36V36z M2,34h32V2H2V34z M12,30h-2V6h9c3.9,0,7,3.1,7,7s-3.1,7-7,7h-7V30z M12,18h7c2.8,0,5-2.2,5-5s-2.2-5-5-5
		h-7V18z"/>
</g>
<g id="Layer_2" display="none">
	
		<rect x="1" y="1" display="inline" fill="none" stroke="#ED1C24" stroke-width="2" stroke-miterlimit="10" width="34" height="34"/>
	<path display="inline" fill="none" stroke="#ED1C24" stroke-width="2" stroke-miterlimit="10" d="M11,30V7h8c3.3,0,6,2.7,6,6
		s-2.7,6-6,6h-8"/>
</g>
</svg>
