<?xml version="1.0" encoding="utf-8"?>
<!-- Generator: Adobe Illustrator 21.0.0, SVG Export Plug-In . SVG Version: 6.00 Build 0)  -->
<!DOCTYPE svg PUBLIC "-//W3C//DTD SVG 1.1//EN" "http://www.w3.org/Graphics/SVG/1.1/DTD/svg11.dtd">
<svg version="1.1" xmlns="http://www.w3.org/2000/svg" xmlns:xlink="http://www.w3.org/1999/xlink" x="0px" y="0px"
	 viewBox="0 0 36 36" enable-background="new 0 0 36 36" xml:space="preserve">
<g id="Layer_1">
	<path d="M26.8,14H30v-2h-4v-2h4V8h-4V6h4V4h-4V2h4V0h-4h-2H12h-2H6v2h4v2H6v2h4v2H6v2h4v2H6v2h3.2l-4.8,8H0v2h4v2H0v2h4v2H0v2h4v2
		H0v2h4h2h24h2h4v-2h-4v-2h4v-2h-4v-2h4v-2h-4v-2h4v-2h-4.4L26.8,14z M12,2h12v2H12V2z M12,6h12v2H12V6z M12,10h12v2H12V10z
		 M11.6,14h12.9l4.8,8H6.8L11.6,14z M30,34H6v-2h24V34z M30,30H6v-2h24V30z M30,26H6v-2h24V26z"/>
</g>
<g id="Layer_2" display="none">
	<line display="inline" fill="none" stroke="#ED1C24" stroke-width="2" stroke-miterlimit="10" x1="6" y1="1" x2="30" y2="1"/>
	<line display="inline" fill="none" stroke="#ED1C24" stroke-width="2" stroke-miterlimit="10" x1="6" y1="5" x2="30" y2="5"/>
	<line display="inline" fill="none" stroke="#ED1C24" stroke-width="2" stroke-miterlimit="10" x1="6" y1="9" x2="30" y2="9"/>
	<line display="inline" fill="none" stroke="#ED1C24" stroke-width="2" stroke-miterlimit="10" x1="6" y1="13" x2="30" y2="13"/>
	<line display="inline" fill="none" stroke="#ED1C24" stroke-width="2" stroke-miterlimit="10" x1="0" y1="31" x2="36" y2="31"/>
	<line display="inline" fill="none" stroke="#ED1C24" stroke-width="2" stroke-miterlimit="10" x1="0" y1="27" x2="36" y2="27"/>
	<line display="inline" fill="none" stroke="#ED1C24" stroke-width="2" stroke-miterlimit="10" x1="0" y1="23" x2="36" y2="23"/>
	<line display="inline" fill="none" stroke="#ED1C24" stroke-width="2" stroke-miterlimit="10" x1="0" y1="35" x2="36" y2="35"/>
	<polyline display="inline" fill="none" stroke="#ED1C24" stroke-width="2" stroke-miterlimit="10" points="11,0 11,13 5,23 5,36 	
		"/>
	<polyline display="inline" fill="none" stroke="#ED1C24" stroke-width="2" stroke-miterlimit="10" points="25,0 25,13 31,23 31,36 
			"/>
</g>
</svg>
