<?xml version="1.0" encoding="utf-8"?>
<!-- Generator: Adobe Illustrator 19.2.1, SVG Export Plug-In . SVG Version: 6.00 Build 0)  -->
<!DOCTYPE svg PUBLIC "-//W3C//DTD SVG 1.1//EN" "http://www.w3.org/Graphics/SVG/1.1/DTD/svg11.dtd">
<svg version="1.1" xmlns="http://www.w3.org/2000/svg" xmlns:xlink="http://www.w3.org/1999/xlink" x="0px" y="0px"
	 viewBox="0 0 36 36" enable-background="new 0 0 36 36" xml:space="preserve">
<g id="Layer_1">
	<path d="M20,0v4H10C8.9,4,8,4.9,8,6v28c0,1.1,0.9,2,2,2h16c1.1,0,2-0.9,2-2V6c0-1.1-0.9-2-2-2h-4V0H20z M16,28v-4h4v4H16z M20,30v4
		h-4v-4H20z M14,28h-4v-4h4V28z M22,24h4l0,4h-4V24z M22,22v-4h4l0,4H22z M20,22h-4v-4h4V22z M14,22h-4v-4h4V22z M10,30h4v4h-4V30z
		 M22,34v-4h4l0,4H22z M26,16H10V6h16L26,16z"/>
</g>
<g id="Layer_2" display="none">
	<path display="inline" fill="none" stroke="#ED1C24" stroke-width="2" stroke-miterlimit="10" d="M26,35H10c-0.6,0-1-0.5-1-1V6
		c0-0.6,0.4-1,1-1h16c0.5,0,1,0.4,1,1v28C27,34.5,26.5,35,26,35z"/>
	<line display="inline" fill="none" stroke="#ED1C24" stroke-width="2" stroke-miterlimit="10" x1="9" y1="29" x2="27" y2="29"/>
	<line display="inline" fill="none" stroke="#ED1C24" stroke-width="2" stroke-miterlimit="10" x1="15" y1="35" x2="15" y2="17"/>
	<line display="inline" fill="none" stroke="#ED1C24" stroke-width="2" stroke-miterlimit="10" x1="21" y1="35" x2="21" y2="17"/>
	<line display="inline" fill="none" stroke="#ED1C24" stroke-width="2" stroke-miterlimit="10" x1="21" y1="5" x2="21" y2="0"/>
	<line display="inline" fill="none" stroke="#ED1C24" stroke-width="2" stroke-miterlimit="10" x1="9" y1="23" x2="27" y2="23"/>
	<line display="inline" fill="none" stroke="#ED1C24" stroke-width="2" stroke-miterlimit="10" x1="9" y1="17" x2="27" y2="17"/>
</g>
</svg>
