<?xml version="1.0" encoding="utf-8"?>
<!-- Generator: Adobe Illustrator 19.2.1, SVG Export Plug-In . SVG Version: 6.00 Build 0)  -->
<!DOCTYPE svg PUBLIC "-//W3C//DTD SVG 1.1//EN" "http://www.w3.org/Graphics/SVG/1.1/DTD/svg11.dtd">
<svg version="1.1" xmlns="http://www.w3.org/2000/svg" xmlns:xlink="http://www.w3.org/1999/xlink" x="0px" y="0px"
	 viewBox="0 0 36 36" enable-background="new 0 0 36 36" xml:space="preserve">
<g id="Layer_1">
	<path d="M0,0v36h36V0H0z M34,15.3L2,28.5v-7.8L34,7.5V15.3z M34,2v3.3l-20,8.2V6H6v8h6.9L2,18.5V2H34z M12,8v4H8V8H12z M2,34v-3.3
		l20-8.2V30h8v-8h-6.9L34,17.5V34H2z M24,28v-4h4v4H24z"/>
</g>
<g id="Layer_2" display="none">
	<line display="inline" fill="none" stroke="#ED1C24" stroke-width="2" stroke-miterlimit="10" x1="1" y1="20" x2="35" y2="6"/>
	<line display="inline" fill="none" stroke="#ED1C24" stroke-width="2" stroke-miterlimit="10" x1="1" y1="30" x2="35" y2="16"/>
	<g display="inline">
		<path fill="#ED1C24" d="M12,8v4H8V8H12 M14,6H6v8h8V6L14,6z"/>
	</g>
	<g display="inline">
		<path fill="#ED1C24" d="M34,2v32H2V2H34 M36,0H0v36h36V0L36,0z"/>
	</g>
	<g display="inline">
		<path fill="#ED1C24" d="M28,24v4h-4v-4H28 M30,22h-8v8h8V22L30,22z"/>
	</g>
</g>
</svg>
