<?xml version="1.0" encoding="utf-8"?>
<!-- Generator: Adobe Illustrator 19.2.1, SVG Export Plug-In . SVG Version: 6.00 Build 0)  -->
<!DOCTYPE svg PUBLIC "-//W3C//DTD SVG 1.1//EN" "http://www.w3.org/Graphics/SVG/1.1/DTD/svg11.dtd">
<svg version="1.1" xmlns="http://www.w3.org/2000/svg" xmlns:xlink="http://www.w3.org/1999/xlink" x="0px" y="0px"
	 viewBox="0 0 36 36" enable-background="new 0 0 36 36" xml:space="preserve">
<g id="Layer_1">
	<path d="M28.6,8.8L31.4,6L30,4.6l-2.9,2.9c-2.2-1.9-5-3.2-8.2-3.4V0h-2v4.1c-3.1,0.2-5.9,1.5-8.2,3.4L6,4.6L4.6,6l2.9,2.9
		c-1.9,2.2-3.2,5-3.4,8.2H0v2h4.1c0.2,3.1,1.5,5.9,3.4,8.2L4.6,30L6,31.4l2.9-2.9c2.2,1.9,5,3.2,8.2,3.4V36h2v-4.1
		c3.1-0.2,5.9-1.5,8.2-3.4l2.9,2.9l1.4-1.4l-2.9-2.9c1.9-2.2,3.2-5,3.4-8.2H36v-2h-4.1C31.7,13.9,30.5,11.1,28.6,8.8z M18,6
		c6.6,0,12,5.4,12,12s-5.4,12-12,12S6,24.6,6,18S11.4,6,18,6z"/>
</g>
<g id="Layer_2" display="none">
	<g display="inline">
		<circle fill="none" stroke="#ED1C24" stroke-width="2" stroke-miterlimit="10" cx="18" cy="18" r="13"/>
		<line fill="none" stroke="#ED1C24" stroke-width="2" stroke-miterlimit="10" x1="18" y1="0" x2="18" y2="6"/>
		<line fill="none" stroke="#ED1C24" stroke-width="2" stroke-miterlimit="10" x1="18" y1="30" x2="18" y2="36"/>
		<line fill="none" stroke="#ED1C24" stroke-width="2" stroke-miterlimit="10" x1="5.3" y1="5.3" x2="9.5" y2="9.5"/>
		<line fill="none" stroke="#ED1C24" stroke-width="2" stroke-miterlimit="10" x1="26.5" y1="26.5" x2="30.7" y2="30.7"/>
		<line fill="none" stroke="#ED1C24" stroke-width="2" stroke-miterlimit="10" x1="0" y1="18" x2="6" y2="18"/>
		<line fill="none" stroke="#ED1C24" stroke-width="2" stroke-miterlimit="10" x1="30" y1="18" x2="36" y2="18"/>
		<line fill="none" stroke="#ED1C24" stroke-width="2" stroke-miterlimit="10" x1="5.3" y1="30.7" x2="9.5" y2="26.5"/>
		<line fill="none" stroke="#ED1C24" stroke-width="2" stroke-miterlimit="10" x1="26.5" y1="9.5" x2="30.7" y2="5.3"/>
	</g>
</g>
</svg>
