<?xml version="1.0" encoding="utf-8"?>
<!-- Generator: Adobe Illustrator 21.1.0, SVG Export Plug-In . SVG Version: 6.00 Build 0)  -->
<!DOCTYPE svg PUBLIC "-//W3C//DTD SVG 1.1//EN" "http://www.w3.org/Graphics/SVG/1.1/DTD/svg11.dtd">
<svg version="1.1" xmlns="http://www.w3.org/2000/svg" xmlns:xlink="http://www.w3.org/1999/xlink" x="0px" y="0px"
	 viewBox="0 0 36 36" enable-background="new 0 0 36 36" xml:space="preserve">
<g id="Layer_1">
	<path d="M32,8c2.2,0,4-1.8,4-4s-1.8-4-4-4c-1.9,0-3.4,1.3-3.9,3H6.3C5.9,2.1,5,1.5,4,1.5C2.6,1.5,1.5,2.6,1.5,4S2.6,6.5,4,6.5
		c0.3,0,0.6-0.1,0.9-0.2L29.6,31H7.9c-0.4-1.7-2-3-3.9-3c-2.2,0-4,1.8-4,4s1.8,4,4,4c1.9,0,3.4-1.3,3.9-3h21.9
		c0.4,0.9,1.3,1.5,2.3,1.5c1.4,0,2.5-1.1,2.5-2.5s-1.1-2.5-2.5-2.5c-0.3,0-0.6,0.1-0.9,0.2L6.4,5h21.7C28.6,6.7,30.1,8,32,8z M32,2
		c1.1,0,2,0.9,2,2s-0.9,2-2,2s-2-0.9-2-2S30.9,2,32,2z M4,34c-1.1,0-2-0.9-2-2s0.9-2,2-2s2,0.9,2,2S5.1,34,4,34z"/>
</g>
<g id="Layer_2" display="none">
	<circle display="inline" fill="none" stroke="#ED1C24" stroke-width="2" stroke-miterlimit="10" cx="32" cy="4" r="3"/>
	<circle display="inline" fill="none" stroke="#ED1C24" stroke-width="2" stroke-miterlimit="10" cx="4" cy="32" r="3"/>
	<circle display="inline" fill="none" stroke="#ED1C24" stroke-width="2" stroke-miterlimit="10" cx="32" cy="32" r="1.5"/>
	<circle display="inline" fill="none" stroke="#ED1C24" stroke-width="2" stroke-miterlimit="10" cx="4" cy="4" r="1.5"/>
	
		<line display="inline" fill="none" stroke="#ED1C24" stroke-width="2" stroke-linecap="round" stroke-miterlimit="10" x1="4" y1="4" x2="32" y2="32"/>
	<line display="inline" fill="none" stroke="#ED1C24" stroke-width="2" stroke-miterlimit="10" x1="7" y1="32" x2="32" y2="32"/>
	<line display="inline" fill="none" stroke="#ED1C24" stroke-width="2" stroke-miterlimit="10" x1="4" y1="4" x2="29" y2="4"/>
</g>
</svg>
