<?xml version="1.0" encoding="utf-8"?>
<!-- Generator: Adobe Illustrator 19.2.1, SVG Export Plug-In . SVG Version: 6.00 Build 0)  -->
<!DOCTYPE svg PUBLIC "-//W3C//DTD SVG 1.1//EN" "http://www.w3.org/Graphics/SVG/1.1/DTD/svg11.dtd">
<svg version="1.1" xmlns="http://www.w3.org/2000/svg" xmlns:xlink="http://www.w3.org/1999/xlink" x="0px" y="0px"
	 viewBox="0 0 36 36" enable-background="new 0 0 36 36" xml:space="preserve">
<g id="Layer_1">
	<path d="M32,0c-2.2,0-4,1.8-4,4c0,0.7,0.2,1.4,0.6,2L6,28.6c-0.3-0.2-0.7-0.3-1-0.4V7.9c1.7-0.4,3-2,3-3.9c0-2.2-1.8-4-4-4
		S0,1.8,0,4c0,1.9,1.3,3.4,3,3.9v20.3c-1.7,0.4-3,2-3,3.9c0,2.2,1.8,4,4,4s4-1.8,4-4c0-0.7-0.2-1.4-0.6-2L30,7.4
		C30.6,7.8,31.3,8,32,8c2.2,0,4-1.8,4-4S34.2,0,32,0z M2,4c0-1.1,0.9-2,2-2s2,0.9,2,2S5.1,6,4,6S2,5.1,2,4z M4,34c-1.1,0-2-0.9-2-2
		s0.9-2,2-2s2,0.9,2,2S5.1,34,4,34z M32,6c-1.1,0-2-0.9-2-2s0.9-2,2-2s2,0.9,2,2S33.1,6,32,6z"/>
</g>
<g id="Layer_2" display="none">
	<circle display="inline" fill="none" stroke="#ED1C24" stroke-width="2" stroke-miterlimit="10" cx="32" cy="4" r="3"/>
	<circle display="inline" fill="none" stroke="#ED1C24" stroke-width="2" stroke-miterlimit="10" cx="4" cy="4" r="3"/>
	<circle display="inline" fill="none" stroke="#ED1C24" stroke-width="2" stroke-miterlimit="10" cx="4" cy="32" r="3"/>
	<line display="inline" fill="none" stroke="#ED1C24" stroke-width="2" stroke-miterlimit="10" x1="30" y1="6" x2="6" y2="30"/>
	<line display="inline" fill="none" stroke="#ED1C24" stroke-width="2" stroke-miterlimit="10" x1="4" y1="7" x2="4" y2="29"/>
</g>
</svg>
