<?xml version="1.0" encoding="utf-8"?>
<!-- Generator: Adobe Illustrator 20.1.0, SVG Export Plug-In . SVG Version: 6.00 Build 0)  -->
<!DOCTYPE svg PUBLIC "-//W3C//DTD SVG 1.1//EN" "http://www.w3.org/Graphics/SVG/1.1/DTD/svg11.dtd">
<svg version="1.1" xmlns="http://www.w3.org/2000/svg" xmlns:xlink="http://www.w3.org/1999/xlink" x="0px" y="0px"
	 viewBox="0 0 36 36" enable-background="new 0 0 36 36" xml:space="preserve">
<g id="Layer_1">
	<path d="M22.7,14.7L30,7.4C30.6,7.8,31.3,8,32,8c2.2,0,4-1.8,4-4s-1.8-4-4-4s-4,1.8-4,4c0,0.7,0.2,1.4,0.6,2l-7.3,7.3L22.7,14.7z
		 M32,2c1.1,0,2,0.9,2,2s-0.9,2-2,2s-2-0.9-2-2S30.9,2,32,2z M13.3,21.3L6,28.6C5.4,28.2,4.7,28,4,28c-2.2,0-4,1.8-4,4s1.8,4,4,4
		s4-1.8,4-4c0-0.7-0.2-1.4-0.6-2l7.3-7.3L13.3,21.3z M4,34c-1.1,0-2-0.9-2-2s0.9-2,2-2s2,0.9,2,2S5.1,34,4,34z M30,21.5l-3.5,3.5
		L5.4,4l2.1-2.1L6.1,0.5L0.5,6.1l1.4,1.4L4,5.4l21.1,21.1L21.5,30l4.2,4.2c1.1,1.1,2.6,1.8,4.2,1.8s3.1-0.6,4.2-1.8
		c1.1-1.1,1.8-2.6,1.8-4.2s-0.6-3.1-1.8-4.2L30,21.5z M32.8,32.8c-1.5,1.5-4.1,1.5-5.7,0L24.3,30l5.7-5.7l2.8,2.8
		c0.8,0.8,1.2,1.8,1.2,2.8S33.6,32.1,32.8,32.8z"/>
</g>
<g id="Layer_2" display="none">
	<circle display="inline" fill="none" stroke="#ED1C24" stroke-width="2" stroke-miterlimit="10" cx="4" cy="32" r="3"/>
	<circle display="inline" fill="none" stroke="#ED1C24" stroke-width="2" stroke-miterlimit="10" cx="32" cy="4" r="3"/>
	<line display="inline" fill="none" stroke="#ED1C24" stroke-width="2" stroke-miterlimit="10" x1="22" y1="14" x2="30" y2="6"/>
	<line display="inline" fill="none" stroke="#ED1C24" stroke-width="2" stroke-miterlimit="10" x1="6" y1="30" x2="14" y2="22"/>
	<path display="inline" fill="none" stroke="#ED1C24" stroke-width="2" stroke-miterlimit="10" d="M33.5,26.5c2,2,2,5.1,0,7.1
		s-5.1,2-7.1,0L22.9,30l7.1-7.1L33.5,26.5z"/>
	<line display="inline" fill="none" stroke="#ED1C24" stroke-width="2" stroke-miterlimit="10" x1="26" y1="26" x2="4" y2="4"/>
	
		<line display="inline" fill="none" stroke="#ED1C24" stroke-width="2" stroke-miterlimit="10" x1="6.8" y1="1.2" x2="1.2" y2="6.8"/>
</g>
</svg>
