<?xml version="1.0" encoding="utf-8"?>
<!-- Generator: Adobe Illustrator 21.0.2, SVG Export Plug-In . SVG Version: 6.00 Build 0)  -->
<!DOCTYPE svg PUBLIC "-//W3C//DTD SVG 1.1//EN" "http://www.w3.org/Graphics/SVG/1.1/DTD/svg11.dtd">
<svg version="1.1" xmlns="http://www.w3.org/2000/svg" xmlns:xlink="http://www.w3.org/1999/xlink" x="0px" y="0px"
	 viewBox="0 0 36 36" enable-background="new 0 0 36 36" xml:space="preserve">
<g id="Layer_1">
	<path d="M18,6.7L6.9,0.9L9,13.3L0,22l18,13.1l5.6-11.3L36,22L29.1,0.9L18,6.7z M23.3,21.9l-1,0.2L21.8,23l-4.5,9.1L3.1,21.8
		l7.3-7.1l0.8-0.7l-0.2-1L9.5,4.5l7.5,4L18,9l0.9-0.5l9-4.7l5.4,16.6L23.3,21.9z"/>
</g>
<g id="Layer_2" display="none">
	<g display="inline">
		<path fill="#ED1C24" d="M28,3.8l5.4,16.6l-10.1,1.5l-1,0.2L21.8,23l-4.5,9.1L3.1,21.8l7.3-7.1l0.8-0.7l-0.2-1L9.5,4.5l7.5,4L18,9
			l0.9-0.5L28,3.8 M29.1,0.9L18,6.7L6.9,0.9L9,13.3L0,22l18,13.1l5.6-11.3L36,22L29.1,0.9L29.1,0.9z"/>
	</g>
</g>
</svg>
