<?xml version="1.0" encoding="utf-8"?>
<!-- Generator: Adobe Illustrator 21.0.2, SVG Export Plug-In . SVG Version: 6.00 Build 0)  -->
<!DOCTYPE svg PUBLIC "-//W3C//DTD SVG 1.1//EN" "http://www.w3.org/Graphics/SVG/1.1/DTD/svg11.dtd">
<svg version="1.1" xmlns="http://www.w3.org/2000/svg" xmlns:xlink="http://www.w3.org/1999/xlink" x="0px" y="0px"
	 viewBox="0 0 36 36" enable-background="new 0 0 36 36" xml:space="preserve">
<g id="Layer_1">
	<path d="M21,16.4l0.7-4.1L18,14.2l-3.7-1.9L12,19.3l4.1,0.6l1.9,3.8l6-4.4L21,16.4z M18.7,20.7l-0.8-1.6l-0.5-0.9l-1-0.2l-1.8-0.3
		l0.8-2.5l1.6,0.8l0.9,0.5l0.9-0.5l0.1-0.1l0,0.1l-0.2,1l0.8,0.7l1.3,1.3L18.7,20.7z M30,24.6l-1.9,3.8L24,28.9l3,2.9L26.3,36h7.4
		L33,31.9l3-2.9L30,24.6z M31.6,30.4l-0.8,0.7l0.2,1l0.3,1.8h-2.7l0.3-1.8l0.2-1l-0.8-0.7l-0.1-0.1l0.1,0l1-0.2l0.5-0.9l0.8-1.6
		l2.2,1.6L31.6,30.4z M9,4.1L9.7,0H2.3L3,4.1L0,7.1l6,4.4l1.9-3.8L12,7.1L9,4.1z M7.6,5.7l-1,0.2L6.1,6.8L5.3,8.4L3.1,6.8l1.3-1.3
		l0.8-0.7L5,3.8L4.7,2h2.7L7,3.8l-0.2,1l0.8,0.7l0.1,0.1L7.6,5.7z"/>
</g>
<g id="Layer_2" display="none">
	<g display="inline">
		<path fill="#ED1C24" d="M15.5,15.2l1.6,0.8l0.9,0.5l0.9-0.5l0.1-0.1l0,0.1l-0.2,1l0.8,0.7l1.3,1.3l-2.2,1.6l-0.8-1.6l-0.5-0.9
			l-1-0.2l-1.8-0.3L15.5,15.2 M21.7,12.3L18,14.2l-3.7-1.9L12,19.3l4.1,0.6l1.9,3.8l6-4.4l-3-2.9L21.7,12.3L21.7,12.3z"/>
	</g>
	<g display="inline">
		<path fill="#ED1C24" d="M30.7,27.6l2.2,1.6l-1.3,1.3l-0.8,0.7l0.2,1l0.3,1.8h-2.7l0.3-1.8l0.2-1l-0.8-0.7l-0.1-0.1l0.1,0l1-0.2
			l0.5-0.9L30.7,27.6 M30,24.6l-1.9,3.8L24,28.9l3,2.9L26.3,36h7.4L33,31.9l3-2.9L30,24.6L30,24.6z"/>
	</g>
	<g display="inline">
		<path fill="#ED1C24" d="M7.3,2L7,3.8l-0.2,1l0.8,0.7l0.1,0.1l-0.1,0l-1,0.2L6.1,6.8L5.3,8.4L3.1,6.8l1.3-1.3l0.8-0.7L5,3.8L4.7,2
			H7.3 M9.7,0H2.3L3,4.1L0,7.1l6,4.4l1.9-3.8L12,7.1L9,4.1L9.7,0L9.7,0z"/>
	</g>
</g>
</svg>
