<?xml version="1.0" encoding="utf-8"?>
<!-- Generator: Adobe Illustrator 21.0.0, SVG Export Plug-In . SVG Version: 6.00 Build 0)  -->
<!DOCTYPE svg PUBLIC "-//W3C//DTD SVG 1.1//EN" "http://www.w3.org/Graphics/SVG/1.1/DTD/svg11.dtd">
<svg version="1.1" xmlns="http://www.w3.org/2000/svg" xmlns:xlink="http://www.w3.org/1999/xlink" x="0px" y="0px"
	 viewBox="0 0 36 36" enable-background="new 0 0 36 36" xml:space="preserve">
<g id="Layer_1">
	<path d="M24,16V0H12v36h12c-2.8,0-5-2.2-5-5s2.2-5,5-5c-2.8,0-5-2.2-5-5S21.2,16,24,16z M22,2v1.6l-8,8V2H22z M17,21
		c0,2,0.8,3.7,2.1,5c-1.3,1.3-2.1,3-2.1,5c0,1.1,0.2,2.1,0.7,3H14V14.4l8-8v7.9C19.1,15.2,17,17.8,17,21z"/>
</g>
<g id="Layer_2" display="none">
	<line display="inline" fill="none" stroke="#ED1C24" stroke-width="2" stroke-miterlimit="10" x1="13" y1="14" x2="23" y2="4"/>
	<g display="inline">
		<path fill="#ED1C24" d="M22,2v12.3c-2.9,0.9-5,3.5-5,6.7c0,2,0.8,3.7,2.1,5c-1.3,1.3-2.1,3-2.1,5c0,1.1,0.2,2.1,0.7,3H14V2H22
			 M24,0H12v36h12c-2.8,0-5-2.2-5-5s2.2-5,5-5c-2.8,0-5-2.2-5-5s2.2-5,5-5V0L24,0z"/>
	</g>
</g>
</svg>
