<?xml version="1.0" encoding="utf-8"?>
<!-- Generator: Adobe Illustrator 21.0.0, SVG Export Plug-In . SVG Version: 6.00 Build 0)  -->
<!DOCTYPE svg PUBLIC "-//W3C//DTD SVG 1.1//EN" "http://www.w3.org/Graphics/SVG/1.1/DTD/svg11.dtd">
<svg version="1.1" xmlns="http://www.w3.org/2000/svg" xmlns:xlink="http://www.w3.org/1999/xlink" x="0px" y="0px"
	 viewBox="0 0 36 36" enable-background="new 0 0 36 36" xml:space="preserve">
<g id="Layer_1">
	<path d="M17,0h2v36h-2V0z M0,36h2v-8H0V36z M0,22h2v-8H0V22z M0,8h2V0H0V8z M26.3,1.7c4.3,4.3,4.3,11.3,0,15.6
		c-2.5,2.5-3.8,5.7-3.8,9.2s1.4,6.7,3.8,9.2l1.4-1.4c-4.3-4.3-4.3-11.3,0-15.6c2.5-2.5,3.8-5.7,3.8-9.2s-1.4-6.7-3.8-9.2L26.3,1.7z"
		/>
</g>
<g id="Layer_2" display="none">
	<line display="inline" fill="none" stroke="#ED1C24" stroke-width="2" stroke-miterlimit="10" x1="18" y1="0" x2="18" y2="36"/>
	<line display="inline" fill="none" stroke="#ED1C24" stroke-width="2" stroke-miterlimit="10" x1="1" y1="28" x2="1" y2="36"/>
	<line display="inline" fill="none" stroke="#ED1C24" stroke-width="2" stroke-miterlimit="10" x1="1" y1="14" x2="1" y2="22"/>
	<line display="inline" fill="none" stroke="#ED1C24" stroke-width="2" stroke-miterlimit="10" x1="1" y1="0" x2="1" y2="8"/>
	<path display="inline" fill="none" stroke="#ED1C24" stroke-width="2" stroke-miterlimit="10" d="M27,35c-4.7-4.7-4.7-12.3,0-17
		s4.7-12.3,0-17"/>
</g>
</svg>
