<?xml version="1.0" encoding="utf-8"?>
<!-- Generator: Adobe Illustrator 21.0.0, SVG Export Plug-In . SVG Version: 6.00 Build 0)  -->
<!DOCTYPE svg PUBLIC "-//W3C//DTD SVG 1.1//EN" "http://www.w3.org/Graphics/SVG/1.1/DTD/svg11.dtd">
<svg version="1.1" xmlns="http://www.w3.org/2000/svg" xmlns:xlink="http://www.w3.org/1999/xlink" x="0px" y="0px"
	 viewBox="0 0 36 36" enable-background="new 0 0 36 36" xml:space="preserve">
<g id="Layer_1">
	<path d="M22,18h2v18H12V18h2v16h8V18z M25.1,2.9c3.9,3.9,2.4,8,2.4,8.2c-0.8,2.1-2.2,3.5-3.7,3.8C23.5,15,23.2,15,23,15
		c-0.9,0-1.8-0.4-2.5-1.1c-1.4-1.4-3.6-1.4-5,0c-0.9,0.9-2.1,1.3-3.2,1.1c-1.6-0.3-2.9-1.7-3.7-3.8C8.5,10.9,7,6.9,10.9,2.9
		C12.8,1,15.3,0,18,0S23.2,1,25.1,2.9z M23.7,4.3C22.1,2.8,20.1,2,18,2s-4.1,0.8-5.7,2.3c-3,3-1.9,6-1.9,6.1
		c0.5,1.4,1.4,2.4,2.3,2.6c0.5,0.1,1-0.1,1.4-0.5c1.1-1.1,2.5-1.6,3.9-1.6s2.8,0.5,3.9,1.6c0.4,0.4,0.9,0.6,1.4,0.5
		c0.9-0.2,1.7-1.2,2.3-2.6C25.6,10.3,26.6,7.3,23.7,4.3z"/>
</g>
<g id="Layer_2" display="none">
	<polyline display="inline" fill="none" stroke="#ED1C24" stroke-width="2" stroke-miterlimit="10" points="23,18 23,35 13,35 
		13,18 	"/>
	<g display="inline">
		<path fill="none" stroke="#ED1C24" stroke-width="2" stroke-miterlimit="10" d="M14.8,13.2c1.8-1.8,4.6-1.8,6.4,0s4.1,0.7,5.3-2.4
			c0,0,1.4-3.6-2.1-7.1s-9.2-3.5-12.7,0s-2.1,7.1-2.1,7.1C10.7,13.8,13.1,14.9,14.8,13.2z"/>
	</g>
</g>
</svg>
