<?xml version="1.0" encoding="utf-8"?>
<!-- Generator: Adobe Illustrator 19.2.1, SVG Export Plug-In . SVG Version: 6.00 Build 0)  -->
<!DOCTYPE svg PUBLIC "-//W3C//DTD SVG 1.1//EN" "http://www.w3.org/Graphics/SVG/1.1/DTD/svg11.dtd">
<svg version="1.1" xmlns="http://www.w3.org/2000/svg" xmlns:xlink="http://www.w3.org/1999/xlink" x="0px" y="0px"
	 viewBox="0 0 36 36" enable-background="new 0 0 36 36" xml:space="preserve">
<g id="Layer_1">
	<path d="M14,10v2H6v2h2v22h20V14h2v-2h-8v-2H14z M26,14v20H10V14H26z M14,30V18h2v12H14z M22,30h-2V18h2V30z M0,36V8l18-8l18,8v28
		h-2V9.3L18,2.2L2,9.3V36H0z"/>
</g>
<g id="Layer_2" display="none">
	<line display="inline" fill="none" stroke="#ED1C24" stroke-width="2" stroke-miterlimit="10" x1="14" y1="11" x2="22" y2="11"/>
	<line display="inline" fill="none" stroke="#ED1C24" stroke-width="2" stroke-miterlimit="10" x1="6" y1="13" x2="30" y2="13"/>
	<line display="inline" fill="none" stroke="#ED1C24" stroke-width="2" stroke-miterlimit="10" x1="15" y1="30" x2="15" y2="18"/>
	<line display="inline" fill="none" stroke="#ED1C24" stroke-width="2" stroke-miterlimit="10" x1="21" y1="30" x2="21" y2="18"/>
	<polyline display="inline" fill="none" stroke="#ED1C24" stroke-width="2" stroke-miterlimit="10" points="9,13 9,35 27,35 27,13 	
		"/>
	<g display="inline">
		<path fill="#ED1C24" d="M18,2.2l16,7.1V38H2V9.3L18,2.2 M18,0L0,8v32h36V8L18,0L18,0z"/>
	</g>
</g>
</svg>
