<?xml version="1.0" encoding="utf-8"?>
<!-- Generator: Adobe Illustrator 21.0.0, SVG Export Plug-In . SVG Version: 6.00 Build 0)  -->
<!DOCTYPE svg PUBLIC "-//W3C//DTD SVG 1.1//EN" "http://www.w3.org/Graphics/SVG/1.1/DTD/svg11.dtd">
<svg version="1.1" xmlns="http://www.w3.org/2000/svg" xmlns:xlink="http://www.w3.org/1999/xlink" x="0px" y="0px"
	 viewBox="0 0 36 36" enable-background="new 0 0 36 36" xml:space="preserve">
<g id="Layer_1">
	<path d="M18,4C9.2,4,2,11.2,2,20s7.2,16,16,16s16-7.2,16-16S26.8,4,18,4z M18,34c-7.7,0-14-6.3-14-14S10.3,6,18,6s14,6.3,14,14
		S25.7,34,18,34z M24.4,15.1l-5,4.9l5,4.9L23,26.4l-5-4.9l-5,4.9l-1.4-1.4l5-4.9l-5-4.9l1.4-1.4l5,4.9l5-4.9L24.4,15.1z M0,0h36v2H0
		V0z"/>
</g>
<g id="Layer_2" display="none">
	<circle display="inline" fill="none" stroke="#ED1C24" stroke-width="2" stroke-miterlimit="10" cx="18" cy="20" r="15"/>
	
		<line display="inline" fill="none" stroke="#ED1C24" stroke-width="2" stroke-miterlimit="10" x1="23.7" y1="14.3" x2="12.3" y2="25.7"/>
	
		<line display="inline" fill="none" stroke="#ED1C24" stroke-width="2" stroke-miterlimit="10" x1="23.7" y1="25.7" x2="12.3" y2="14.3"/>
	<line display="inline" fill="none" stroke="#ED1C24" stroke-width="2" stroke-miterlimit="10" x1="0" y1="1" x2="36" y2="1"/>
</g>
</svg>
