<?xml version="1.0" encoding="utf-8"?>
<!-- Generator: Adobe Illustrator 21.0.2, SVG Export Plug-In . SVG Version: 6.00 Build 0)  -->
<!DOCTYPE svg PUBLIC "-//W3C//DTD SVG 1.1//EN" "http://www.w3.org/Graphics/SVG/1.1/DTD/svg11.dtd">
<svg version="1.1" xmlns="http://www.w3.org/2000/svg" xmlns:xlink="http://www.w3.org/1999/xlink" x="0px" y="0px"
	 viewBox="0 0 36 36" enable-background="new 0 0 36 36" xml:space="preserve">
<g id="Layer_1">
	<path d="M23,19.6l12.7,12.7l-1.4,1.4L23,22.4l-5.3,5.3l-1.4-1.4L23,19.6z M0.3,34.3l1.4,1.4l9.3-9.3l9.3,9.3l1.4-1.4L11,23.6
		L0.3,34.3z M4,0H2c0,1.1-0.9,2-2,2v2C2.2,4,4,2.2,4,0z M10,0H8c0,4.4-3.6,8-8,8v2C5.5,10,10,5.5,10,0z M16,0h-2c0,7.7-6.3,14-14,14
		v2C8.8,16,16,8.8,16,0z"/>
</g>
<g id="Layer_2" display="none">
	<polyline display="inline" fill="none" stroke="#ED1C24" stroke-width="2" stroke-miterlimit="10" points="35,33 23,21 17,27 	"/>
	<polyline display="inline" fill="none" stroke="#ED1C24" stroke-width="2" stroke-miterlimit="10" points="21,35 11,25 1,35 	"/>
	<path display="inline" fill="none" stroke="#ED1C24" stroke-width="2" stroke-miterlimit="10" d="M3,0c0,1.7-1.3,3-3,3"/>
	<path display="inline" fill="none" stroke="#ED1C24" stroke-width="2" stroke-miterlimit="10" d="M9,0c0,5-4,9-9,9"/>
	<path display="inline" fill="none" stroke="#ED1C24" stroke-width="2" stroke-miterlimit="10" d="M15,0c0,8.3-6.7,15-15,15"/>
</g>
</svg>
