<?xml version="1.0" encoding="utf-8"?>
<!-- Generator: Adobe Illustrator 20.1.0, SVG Export Plug-In . SVG Version: 6.00 Build 0)  -->
<!DOCTYPE svg PUBLIC "-//W3C//DTD SVG 1.1//EN" "http://www.w3.org/Graphics/SVG/1.1/DTD/svg11.dtd">
<svg version="1.1" xmlns="http://www.w3.org/2000/svg" xmlns:xlink="http://www.w3.org/1999/xlink" x="0px" y="0px"
	 viewBox="0 0 36 36" enable-background="new 0 0 36 36" xml:space="preserve">
<g id="Layer_1">
	<path d="M34,0.6L17.6,17H12C5.4,17,0,22.4,0,29v7h2v-0.6L18.4,19H24c6.6,0,12-5.4,12-12V0h-2V0.6z M2,32.6V29c0-5.5,4.5-10,10-10
		h3.6L2,32.6z M24,17h-3.6L34,3.4V7C34,12.5,29.5,17,24,17z"/>
</g>
<g id="Layer_2" display="none">
	<line display="inline" fill="none" stroke="#00A651" stroke-width="2" stroke-miterlimit="10" x1="35" y1="1" x2="1" y2="35"/>
	<path display="inline" fill="none" stroke="#00A651" stroke-width="2" stroke-miterlimit="10" d="M1,36v-7c0-6.1,4.9-11,11-11h12
		c6.1,0,11-4.9,11-11V0"/>
</g>
</svg>
