<?xml version="1.0" encoding="utf-8"?>
<!-- Generator: Adobe Illustrator 21.0.2, SVG Export Plug-In . SVG Version: 6.00 Build 0)  -->
<!DOCTYPE svg PUBLIC "-//W3C//DTD SVG 1.1//EN" "http://www.w3.org/Graphics/SVG/1.1/DTD/svg11.dtd">
<svg version="1.1" xmlns="http://www.w3.org/2000/svg" xmlns:xlink="http://www.w3.org/1999/xlink" x="0px" y="0px"
	 viewBox="0 0 36 36" enable-background="new 0 0 36 36" xml:space="preserve">
<g id="Layer_1">
	<g>
		<path d="M18,2c5.5,0,10,4.5,10,10c0,1.3-0.3,2.6-0.8,3.8L18,32L8.8,15.8C8.3,14.6,8,13.3,8,12C8,6.5,12.5,2,18,2 M18,0
			C11.4,0,6,5.4,6,12c0,1.7,0.3,3.2,1,4.7L18,36l11-19.3c0.6-1.4,1-3,1-4.7C30,5.4,24.6,0,18,0L18,0z"/>
	</g>
</g>
<g id="Layer_2" display="none">
	<g display="inline">
		<g>
			<path fill="#ED1C24" d="M18,2c5.5,0,10,4.5,10,10c0,1.3-0.3,2.6-0.8,3.8L18,32L8.8,15.8C8.3,14.6,8,13.3,8,12C8,6.5,12.5,2,18,2
				 M18,0C11.4,0,6,5.4,6,12c0,1.7,0.3,3.2,1,4.7L18,36l11-19.3c0.6-1.4,1-3,1-4.7C30,5.4,24.6,0,18,0L18,0z"/>
		</g>
	</g>
</g>
</svg>
