<?xml version="1.0" encoding="utf-8"?>
<!-- Generator: Adobe Illustrator 19.2.1, SVG Export Plug-In . SVG Version: 6.00 Build 0)  -->
<!DOCTYPE svg PUBLIC "-//W3C//DTD SVG 1.1//EN" "http://www.w3.org/Graphics/SVG/1.1/DTD/svg11.dtd">
<svg version="1.1" xmlns="http://www.w3.org/2000/svg" xmlns:xlink="http://www.w3.org/1999/xlink" x="0px" y="0px"
	 viewBox="0 0 36 36" enable-background="new 0 0 36 36" xml:space="preserve">
<g id="Layer_1">
	<path d="M18,8c2.7,0,5.2,1,7.1,2.9l7.1,7.1l-7.1,7.1C23.2,27,20.7,28,18,28c-2.7,0-5.2-1-7.1-2.9L3.9,18l7.1-7.1
		C12.8,9,15.3,8,18,8 M18,6c-3.1,0-6.1,1.2-8.5,3.5L1,18l8.5,8.5c2.3,2.3,5.4,3.5,8.5,3.5s6.1-1.2,8.5-3.5L35,18l-8.5-8.5
		C24.1,7.2,21.1,6,18,6L18,6z M18,16c1.1,0,2,0.9,2,2s-0.9,2-2,2s-2-0.9-2-2S16.9,16,18,16 M18,14c-2.2,0-4,1.8-4,4s1.8,4,4,4
		s4-1.8,4-4S20.2,14,18,14L18,14z"/>
</g>
<g id="Layer_2" display="none">
	<g display="inline">
		<g>
			<path fill="#ED1C24" d="M18,8c2.7,0,5.2,1,7.1,2.9l7.1,7.1l-7.1,7.1C23.2,27,20.7,28,18,28c-2.7,0-5.2-1-7.1-2.9L3.9,18l7.1-7.1
				C12.8,9,15.3,8,18,8 M18,6c-3.1,0-6.1,1.2-8.5,3.5L1,18l8.5,8.5c2.3,2.3,5.4,3.5,8.5,3.5s6.1-1.2,8.5-3.5L35,18l-8.5-8.5
				C24.1,7.2,21.1,6,18,6L18,6z"/>
		</g>
		<g>
			<path fill="#ED1C24" d="M18,16c1.1,0,2,0.9,2,2s-0.9,2-2,2s-2-0.9-2-2S16.9,16,18,16 M18,14c-2.2,0-4,1.8-4,4s1.8,4,4,4
				s4-1.8,4-4S20.2,14,18,14L18,14z"/>
		</g>
	</g>
</g>
</svg>
