<?xml version="1.0" encoding="utf-8"?>
<!-- Generator: Adobe Illustrator 19.2.1, SVG Export Plug-In . SVG Version: 6.00 Build 0)  -->
<!DOCTYPE svg PUBLIC "-//W3C//DTD SVG 1.1//EN" "http://www.w3.org/Graphics/SVG/1.1/DTD/svg11.dtd">
<svg version="1.1" xmlns="http://www.w3.org/2000/svg" xmlns:xlink="http://www.w3.org/1999/xlink" x="0px" y="0px"
	 viewBox="0 0 36 36" enable-background="new 0 0 36 36" xml:space="preserve">
<g id="Layer_1">
	<path d="M35.7,34.3L22.9,21.4c2-2.3,3.1-5.2,3.1-8.4c0-7.2-5.8-13-13-13S0,5.8,0,13s5.8,13,13,13c3.2,0,6.2-1.2,8.4-3.1l12.8,12.8
		L35.7,34.3z M13,24C6.9,24,2,19.1,2,13S6.9,2,13,2s11,4.9,11,11S19.1,24,13,24z"/>
</g>
<g id="Layer_2" display="none">
	<g display="inline">
		<circle fill="none" stroke="#ED1C24" stroke-width="2" stroke-miterlimit="10" cx="13" cy="13" r="12"/>
		<line fill="none" stroke="#ED1C24" stroke-width="2" stroke-miterlimit="10" x1="35" y1="35" x2="22" y2="22"/>
	</g>
</g>
</svg>
