<?xml version="1.0" encoding="utf-8"?>
<!-- Generator: Adobe Illustrator 19.2.1, SVG Export Plug-In . SVG Version: 6.00 Build 0)  -->
<!DOCTYPE svg PUBLIC "-//W3C//DTD SVG 1.1//EN" "http://www.w3.org/Graphics/SVG/1.1/DTD/svg11.dtd">
<svg version="1.1" xmlns="http://www.w3.org/2000/svg" xmlns:xlink="http://www.w3.org/1999/xlink" x="0px" y="0px"
	 viewBox="0 0 36 36" enable-background="new 0 0 36 36" xml:space="preserve">
<g id="Layer_1">
	<g>
		<path d="M18,2.8l16,16V34H24V22H12v12H2V18.8L18,2.8 M18,0L0,18v18h14V24h8v12h14V18L18,0L18,0z"/>
	</g>
</g>
<g id="Layer_2" display="none">
	<g display="inline">
		<g>
			<path fill="#ED1C24" d="M18,2.8l16,16V34H24V24v-2h-2h-8h-2v2v10H2V18.8L18,2.8 M18,0L0,18v18h14V24h8v12h14V18L18,0L18,0z"/>
		</g>
	</g>
</g>
</svg>
