<?xml version="1.0" encoding="utf-8"?>
<!-- Generator: Adobe Illustrator 19.2.1, SVG Export Plug-In . SVG Version: 6.00 Build 0)  -->
<!DOCTYPE svg PUBLIC "-//W3C//DTD SVG 1.1//EN" "http://www.w3.org/Graphics/SVG/1.1/DTD/svg11.dtd">
<svg version="1.1" xmlns="http://www.w3.org/2000/svg" xmlns:xlink="http://www.w3.org/1999/xlink" x="0px" y="0px"
	 viewBox="0 0 36 36" enable-background="new 0 0 36 36" xml:space="preserve">
<g id="Layer_1">
	<path d="M30,0h-2v2h2c2.2,0,4,1.8,4,4v2h-4c-1.1,0-2,0.9-2,2v8c0,1.1,0.9,2,2,2h4v6c0,4.4-3.6,8-8,8s-8-3.6-8-8V14h2V0H0v14h2v22
		h16v-4c1.8,2.4,4.7,4,8,4c5.5,0,10-4.5,10-10V6C36,2.7,33.3,0,30,0z M16,34H4V14h12V34z M2,12V2h16v10H2z M34,18h-4v-8h4V18z"/>
</g>
<g id="Layer_2" display="none">
	<path display="inline" fill="none" stroke="#ED1C24" stroke-width="2" stroke-miterlimit="10" d="M35,6c0-2.8-2.2-5-5-5"/>
	<path display="inline" fill="none" stroke="#ED1C24" stroke-width="2" stroke-miterlimit="10" d="M30,9c-0.6,0-1,0.4-1,1"/>
	<path display="inline" fill="none" stroke="#ED1C24" stroke-width="2" stroke-miterlimit="10" d="M29,18c0,0.6,0.4,1,1,1"/>
	<path display="inline" fill="none" stroke="#ED1C24" stroke-width="2" stroke-miterlimit="10" d="M35,26c0,5-4,9-9,9s-9-4-9-9"/>
	<line display="inline" fill="none" stroke="#ED1C24" stroke-width="2" stroke-miterlimit="10" x1="35" y1="6" x2="35" y2="26"/>
	
		<rect x="1" y="1" display="inline" fill="none" stroke="#ED1C24" stroke-width="2" stroke-miterlimit="10" width="18" height="12"/>
	
		<rect x="3" y="13" display="inline" fill="none" stroke="#ED1C24" stroke-width="2" stroke-miterlimit="10" width="14" height="22"/>
	<line display="inline" fill="none" stroke="#ED1C24" stroke-width="2" stroke-miterlimit="10" x1="28" y1="1" x2="30" y2="1"/>
	<line display="inline" fill="none" stroke="#ED1C24" stroke-width="2" stroke-miterlimit="10" x1="30" y1="9" x2="34" y2="9"/>
	<line display="inline" fill="none" stroke="#ED1C24" stroke-width="2" stroke-miterlimit="10" x1="30" y1="19" x2="34" y2="19"/>
	<line display="inline" fill="none" stroke="#ED1C24" stroke-width="2" stroke-miterlimit="10" x1="29" y1="18" x2="29" y2="10"/>
</g>
</svg>
