<?xml version="1.0" encoding="utf-8"?>
<!-- Generator: Adobe Illustrator 21.0.2, SVG Export Plug-In . SVG Version: 6.00 Build 0)  -->
<!DOCTYPE svg PUBLIC "-//W3C//DTD SVG 1.1//EN" "http://www.w3.org/Graphics/SVG/1.1/DTD/svg11.dtd">
<svg version="1.1" xmlns="http://www.w3.org/2000/svg" xmlns:xlink="http://www.w3.org/1999/xlink" x="0px" y="0px"
	 viewBox="0 0 36 36" enable-background="new 0 0 36 36" xml:space="preserve">
<g id="Layer_1">
	<path d="M34.2,25l1.8,1L18,36L0,26l1.8-1L18,34L34.2,25z M18,26L1.8,17L0,18l18,10l18-10l-1.8-1L18,26z M18,2.3L4.1,10L18,17.7
		L31.9,10L18,2.3 M18,0l18,10L18,20L0,10L18,0L18,0z"/>
</g>
<g id="Layer_2" display="none">
	<g display="inline">
		<path fill="#ED1C24" d="M18,18.3L31.9,26L18,33.7L4.1,26L18,18.3 M18,16L0,26l18,10l18-10L18,16L18,16z"/>
	</g>
	<g display="inline">
		<polygon fill="#FFFFFF" points="18,34 0,24 18,14 36,24 		"/>
	</g>
	<g display="inline">
		<path fill="#ED1C24" d="M18,10.3L31.9,18L18,25.7L4.1,18L18,10.3 M18,8L0,18l18,10l18-10L18,8L18,8z"/>
	</g>
	<g display="inline">
		<polygon fill="#FFFFFF" points="18,26 0,16 18,6 36,16 		"/>
	</g>
	<g display="inline">
		<path fill="#ED1C24" d="M18,2.3L31.9,10L18,17.7L4.1,10L18,2.3 M18,0L0,10l18,10l18-10L18,0L18,0z"/>
	</g>
</g>
</svg>
