<?xml version="1.0" encoding="utf-8"?>
<!-- Generator: Adobe Illustrator 21.0.0, SVG Export Plug-In . SVG Version: 6.00 Build 0)  -->
<!DOCTYPE svg PUBLIC "-//W3C//DTD SVG 1.1//EN" "http://www.w3.org/Graphics/SVG/1.1/DTD/svg11.dtd">
<svg version="1.1" xmlns="http://www.w3.org/2000/svg" xmlns:xlink="http://www.w3.org/1999/xlink" x="0px" y="0px"
	 viewBox="0 0 36 36" enable-background="new 0 0 36 36" xml:space="preserve">
<g id="Layer_1">
	<path d="M0,0h2v36H0V0z M34,17.2c-4.3,0.9-7.5,4.4-8,8.8c-2.9,0.3-5.4,1.8-7,4v-2h-2v8h2c0-4.4,3.6-8,8-8h1v-1c0-4.4,3.6-8,8-8v-1
		v-1V0h-2V17.2z M19,14h-2v8h2V14z M19,0h-2v8h2V0z"/>
</g>
<g id="Layer_2" display="none">
	<path display="inline" fill="none" stroke="#ED1C24" stroke-width="2" stroke-miterlimit="10" d="M18,36c0-5,4-9,9-9c0-5,4-9,9-9"
		/>
	<line display="inline" fill="none" stroke="#ED1C24" stroke-width="2" stroke-miterlimit="10" x1="1" y1="0" x2="1" y2="36"/>
	<line display="inline" fill="none" stroke="#ED1C24" stroke-width="2" stroke-miterlimit="10" x1="35" y1="0" x2="35" y2="18"/>
	<line display="inline" fill="none" stroke="#ED1C24" stroke-width="2" stroke-miterlimit="10" x1="18" y1="28" x2="18" y2="36"/>
	<line display="inline" fill="none" stroke="#ED1C24" stroke-width="2" stroke-miterlimit="10" x1="18" y1="14" x2="18" y2="22"/>
	<line display="inline" fill="none" stroke="#ED1C24" stroke-width="2" stroke-miterlimit="10" x1="18" y1="0" x2="18" y2="8"/>
</g>
</svg>
