<?xml version="1.0" encoding="utf-8"?>
<!-- Generator: Adobe Illustrator 19.2.1, SVG Export Plug-In . SVG Version: 6.00 Build 0)  -->
<!DOCTYPE svg PUBLIC "-//W3C//DTD SVG 1.1//EN" "http://www.w3.org/Graphics/SVG/1.1/DTD/svg11.dtd">
<svg version="1.1" xmlns="http://www.w3.org/2000/svg" xmlns:xlink="http://www.w3.org/1999/xlink" x="0px" y="0px"
	 viewBox="0 0 36 36" enable-background="new 0 0 36 36" xml:space="preserve">
<g id="Layer_1">
	<path d="M18,6H4V4h14V6z M18,8H4v2h14V8z M18,12H4v2h14V12z M18,16H4v2h14V16z M36,4c0,2.2-1.8,4-4,4c-0.7,0-1.4-0.2-1.9-0.5
		L22,15.5V22h-6.5l-8.1,8.1C7.8,30.6,8,31.3,8,32c0,2.2-1.8,4-4,4s-4-1.8-4-4s1.8-4,4-4c0.8,0,1.5,0.2,2.1,0.6l6.6-6.6H0V0h22v12.7
		l6.6-6.6C28.2,5.5,28,4.8,28,4c0-2.2,1.8-4,4-4S36,1.8,36,4z M6,32c0-1.1-0.9-2-2-2s-2,0.9-2,2s0.9,2,2,2S6,33.1,6,32z M20,2H2v18
		h18V2z M34,4c0-1.1-0.9-2-2-2s-2,0.9-2,2s0.9,2,2,2S34,5.1,34,4z"/>
</g>
<g id="Layer_2" display="none">
	
		<rect x="1" y="1" display="inline" fill="none" stroke="#ED1C24" stroke-width="2" stroke-miterlimit="10" width="20" height="20"/>
	<line display="inline" fill="none" stroke="#ED1C24" stroke-width="2" stroke-miterlimit="10" x1="4" y1="5" x2="18" y2="5"/>
	<line display="inline" fill="none" stroke="#ED1C24" stroke-width="2" stroke-miterlimit="10" x1="4" y1="9" x2="18" y2="9"/>
	<line display="inline" fill="none" stroke="#ED1C24" stroke-width="2" stroke-miterlimit="10" x1="4" y1="13" x2="18" y2="13"/>
	<line display="inline" fill="none" stroke="#ED1C24" stroke-width="2" stroke-miterlimit="10" x1="4" y1="17" x2="18" y2="17"/>
	<circle display="inline" fill="none" stroke="#ED1C24" stroke-width="2" stroke-miterlimit="10" cx="32" cy="4" r="3"/>
	<circle display="inline" fill="none" stroke="#ED1C24" stroke-width="2" stroke-miterlimit="10" cx="4" cy="32" r="3"/>
	
		<line display="inline" fill="none" stroke="#ED1C24" stroke-width="2" stroke-miterlimit="10" x1="30" y1="6.1" x2="21.1" y2="15"/>
	
		<line display="inline" fill="none" stroke="#ED1C24" stroke-width="2" stroke-miterlimit="10" x1="15" y1="21.1" x2="6.1" y2="30"/>
</g>
</svg>
