<?xml version="1.0" encoding="utf-8"?>
<!-- Generator: Adobe Illustrator 21.1.0, SVG Export Plug-In . SVG Version: 6.00 Build 0)  -->
<!DOCTYPE svg PUBLIC "-//W3C//DTD SVG 1.1//EN" "http://www.w3.org/Graphics/SVG/1.1/DTD/svg11.dtd">
<svg version="1.1" xmlns="http://www.w3.org/2000/svg" xmlns:xlink="http://www.w3.org/1999/xlink" x="0px" y="0px"
	 viewBox="0 0 36 36" enable-background="new 0 0 36 36" xml:space="preserve">
<g id="Layer_1">
	<path d="M24.3,2L24.3,2L24.3,2l0-2.2L22.2,0c-5.9,0.5-10.6,5.2-11.4,10.9l-0.3-1.1l-2.4,2c-2.9,2.4-4.6,6-4.6,9.7
		C3.6,29.5,10,36,18,36c8,0,14.4-6.5,14.4-14.4c0-4.2-1.6-8.2-4.6-11.2C25.6,8.1,24.4,5.2,24.3,2z M26.3,30.8
		c-0.7-1-1.4-1.9-2.3-2.8c0,3.3-2.7,6-6,6c-6.9,0-12.4-5.6-12.4-12.4c0-3.3,1.5-6.2,3.8-8.2l0,0c0.9,3.8,3.8,6.7,7.5,7.8
		c-2.6-1.9-4.2-5-4.2-8.5c0-5.6,4.2-10.2,9.7-10.7l0,0c0,3.8,1.6,7.2,4,9.7c2.5,2.5,4.1,6,4.1,9.8C30.4,25.2,28.8,28.5,26.3,30.8z"
		/>
</g>
<g id="Layer_2" display="none">
	<g display="inline">
		<path fill="#ED1C24" d="M22.3,2L22.3,2c0,3.8,1.6,7.3,4.1,9.8c2.5,2.5,4.1,6,4.1,9.8C30.4,28.4,24.9,34,18,34S5.6,28.4,5.6,21.6
			c0-3.3,1.5-6.2,3.8-8.2l0,0c0.9,3.8,3.8,6.7,7.5,7.8c-2.6-1.9-4.2-5-4.2-8.5C12.7,7.1,16.9,2.5,22.3,2 M24.3-0.2L22.2,0
			c-5.9,0.5-10.6,5.2-11.4,10.9l-0.3-1.1l-2.4,2c-2.9,2.4-4.6,6-4.6,9.7C3.6,29.5,10,36,18,36s14.4-6.5,14.4-14.4
			c0-4.2-1.6-8.2-4.6-11.2c-2.2-2.2-3.5-5.2-3.5-8.3l0,0l0-0.1L24.3-0.2L24.3-0.2z"/>
	</g>
	<g display="inline">
		<path fill="#ED1C24" d="M24,28c0,3.3-2.7,6-6,6c3.2,0,6.2-0.8,8.8-2.3C26.1,30.4,25.1,29.1,24,28L24,28z"/>
	</g>
</g>
</svg>
