<?xml version="1.0" encoding="utf-8"?>
<!-- Generator: Adobe Illustrator 19.2.1, SVG Export Plug-In . SVG Version: 6.00 Build 0)  -->
<!DOCTYPE svg PUBLIC "-//W3C//DTD SVG 1.1//EN" "http://www.w3.org/Graphics/SVG/1.1/DTD/svg11.dtd">
<svg version="1.1" xmlns="http://www.w3.org/2000/svg" xmlns:xlink="http://www.w3.org/1999/xlink" x="0px" y="0px"
	 viewBox="0 0 36 36" enable-background="new 0 0 36 36" xml:space="preserve">
<g id="Layer_1">
	<path d="M10,12H8V0h20v12h-2V2H10V12z M36,24v8h-8v4H8v-4H0v-8c0-4.4,3.6-8,8-8h20C32.4,16,36,19.6,36,24z M26,28H10v6h16V28z
		 M34,24c0-3.3-2.7-6-6-6H8c-3.3,0-6,2.7-6,6v6h6v-4h20v4h6V24z"/>
</g>
<g id="Layer_2" display="none">
	<polyline display="inline" fill="none" stroke="#ED1C24" stroke-width="2" stroke-miterlimit="10" points="9,12 9,1 27,1 27,12 	
		"/>
	
		<rect x="9" y="27" display="inline" fill="none" stroke="#ED1C24" stroke-width="2" stroke-miterlimit="10" width="18" height="8"/>
	<path display="inline" fill="none" stroke="#ED1C24" stroke-width="2" stroke-miterlimit="10" d="M27,31h8c0,0,0-7,0-7
		c0-3.9-3.1-7-7-7c0,0-20,0-20,0c-3.9,0-7,3.1-7,7c0,0,0,7,0,7h8"/>
</g>
</svg>
