<?xml version="1.0" encoding="utf-8"?>
<!-- Generator: Adobe Illustrator 19.2.1, SVG Export Plug-In . SVG Version: 6.00 Build 0)  -->
<!DOCTYPE svg PUBLIC "-//W3C//DTD SVG 1.1//EN" "http://www.w3.org/Graphics/SVG/1.1/DTD/svg11.dtd">
<svg version="1.1" xmlns="http://www.w3.org/2000/svg" xmlns:xlink="http://www.w3.org/1999/xlink" x="0px" y="0px"
	 viewBox="0 0 36 36" enable-background="new 0 0 36 36" xml:space="preserve">
<g id="Layer_1">
	<path d="M7,30.4l-5.3,5.3l-1.4-1.4L5,29.6V6.4L0.3,1.7l1.4-1.4L7,5.6V30.4z M35.7,1.7l-1.4-1.4L29,5.6v24.8l5.3,5.3l1.4-1.4
		L31,29.6V6.4L35.7,1.7z M11,7H9v2h2V7z M15,7h-2v2h2V7z M9,29h2v-2H9V29z M13,29h2v-2h-2V29z M19,7h-2v2h2V7z M17,29h2v-2h-2V29z
		 M23,7h-2v2h2V7z M21,29h2v-2h-2V29z M27,7h-2v2h2V7z M25,29h2v-2h-2V29z"/>
</g>
<g id="Layer_2" display="none">
	<polyline display="inline" fill="none" stroke="#ED1C24" stroke-width="2" stroke-miterlimit="10" points="1,1 6,6 6,30 1,35 	"/>
	<polyline display="inline" fill="none" stroke="#ED1C24" stroke-width="2" stroke-miterlimit="10" points="35,1 30,6 30,30 35,35 	
		"/>
	<g display="inline">
		<polygon fill="#ED1C24" points="11,7 9,7 9,9 11,9 11,7 		"/>
	</g>
	<g display="inline">
		<polygon fill="#ED1C24" points="15,7 13,7 13,9 15,9 15,7 		"/>
	</g>
	<g display="inline">
		<polygon fill="#ED1C24" points="11,27 9,27 9,29 11,29 11,27 		"/>
	</g>
	<g display="inline">
		<polygon fill="#ED1C24" points="15,27 13,27 13,29 15,29 15,27 		"/>
	</g>
	<g display="inline">
		<polygon fill="#ED1C24" points="19,7 17,7 17,9 19,9 19,7 		"/>
	</g>
	<g display="inline">
		<polygon fill="#ED1C24" points="19,27 17,27 17,29 19,29 19,27 		"/>
	</g>
	<g display="inline">
		<polygon fill="#ED1C24" points="23,7 21,7 21,9 23,9 23,7 		"/>
	</g>
	<g display="inline">
		<polygon fill="#ED1C24" points="23,27 21,27 21,29 23,29 23,27 		"/>
	</g>
	<g display="inline">
		<polygon fill="#ED1C24" points="27,7 25,7 25,9 27,9 27,7 		"/>
	</g>
	<g display="inline">
		<polygon fill="#ED1C24" points="27,27 25,27 25,29 27,29 27,27 		"/>
	</g>
</g>
</svg>
