<?xml version="1.0" encoding="utf-8"?>
<!-- Generator: Adobe Illustrator 21.0.0, SVG Export Plug-In . SVG Version: 6.00 Build 0)  -->
<!DOCTYPE svg PUBLIC "-//W3C//DTD SVG 1.1//EN" "http://www.w3.org/Graphics/SVG/1.1/DTD/svg11.dtd">
<svg version="1.1" xmlns="http://www.w3.org/2000/svg" xmlns:xlink="http://www.w3.org/1999/xlink" x="0px" y="0px"
	 viewBox="0 0 36 36" enable-background="new 0 0 36 36" xml:space="preserve">
<g id="Layer_1">
	<path d="M36,14h-4c0-7.7-6.3-14-14-14S4,6.3,4,14H0v2h2.1C0.8,17.3,0,19,0,21c0,3.8,3,6.8,6.7,7c1.6,4.7,6.1,8,11.3,8
		s9.7-3.4,11.3-8c3.7-0.2,6.7-3.2,6.7-7c0-2-0.8-3.7-2.1-5H36V14z M6,25.9c-2.3-0.5-4-2.5-4-4.9s1.7-4.4,4-4.9V24V25.9z M18,34
		c-5.5,0-10-4.5-10-10v-8h20v8C28,29.5,23.5,34,18,34z M34,21c0,2.4-1.7,4.4-4,4.9V24v-7.9C32.3,16.6,34,18.6,34,21z M28,14H8H7H6
		c0-5.2,3.3-9.6,8-11.3V8h2V2.2C16.7,2.1,17.3,2,18,2s1.3,0.1,2,0.2V8h2V2.7c4.7,1.7,8,6.1,8,11.3h-1H28z M16,20c0,1.1-0.9,2-2,2
		s-2-0.9-2-2s0.9-2,2-2S16,18.9,16,20z M24,20c0,1.1-0.9,2-2,2s-2-0.9-2-2s0.9-2,2-2S24,18.9,24,20z"/>
</g>
<g id="Layer_2" display="none">
	<path display="inline" fill="none" stroke="#ED1C24" stroke-width="2" stroke-miterlimit="10" d="M29,27c3.3,0,6-2.7,6-6
		s-2.7-6-6-6V27z"/>
	<path display="inline" fill="none" stroke="#ED1C24" stroke-width="2" stroke-miterlimit="10" d="M7,27c-3.3,0-6-2.7-6-6s2.7-6,6-6
		V27z"/>
	<path display="inline" fill="none" stroke="#ED1C24" stroke-width="2" stroke-miterlimit="10" d="M5,14C5,6.8,10.8,1,18,1
		s13,5.8,13,13"/>
	<path display="inline" fill="none" stroke="#ED1C24" stroke-width="2" stroke-miterlimit="10" d="M7,15v9c0,6.1,4.9,11,11,11
		s11-4.9,11-11v-9"/>
	<line display="inline" fill="none" stroke="#ED1C24" stroke-width="2" stroke-miterlimit="10" x1="0" y1="15" x2="36" y2="15"/>
	<circle display="inline" fill="none" stroke="#ED1C24" stroke-width="2" stroke-miterlimit="10" cx="14" cy="20" r="1"/>
	<circle display="inline" fill="none" stroke="#ED1C24" stroke-width="2" stroke-miterlimit="10" cx="22" cy="20" r="1"/>
	<line display="inline" fill="none" stroke="#ED1C24" stroke-width="2" stroke-miterlimit="10" x1="15" y1="2" x2="15" y2="8"/>
	<line display="inline" fill="none" stroke="#ED1C24" stroke-width="2" stroke-miterlimit="10" x1="21" y1="2" x2="21" y2="8"/>
</g>
</svg>
