<?xml version="1.0" encoding="utf-8"?>
<!-- Generator: Adobe Illustrator 21.0.0, SVG Export Plug-In . SVG Version: 6.00 Build 0)  -->
<!DOCTYPE svg PUBLIC "-//W3C//DTD SVG 1.1//EN" "http://www.w3.org/Graphics/SVG/1.1/DTD/svg11.dtd">
<svg version="1.1" xmlns="http://www.w3.org/2000/svg" xmlns:xlink="http://www.w3.org/1999/xlink" x="0px" y="0px"
	 viewBox="0 0 36 36" enable-background="new 0 0 36 36" xml:space="preserve">
<g id="Layer_1">
	<path d="M0,32c0,2.2,1.8,4,4,4s4-1.8,4-4s-1.8-4-4-4S0,29.8,0,32z M4,30c1.1,0,2,0.9,2,2s-0.9,2-2,2s-2-0.9-2-2S2.9,30,4,30z
		 M16,32c0,2.2,1.8,4,4,4s4-1.8,4-4s-1.8-4-4-4S16,29.8,16,32z M20,30c1.1,0,2,0.9,2,2s-0.9,2-2,2s-2-0.9-2-2S18.9,30,20,30z
		 M32,22.7V0h-2v4h-6.4l-7,7H12v7H0v10h4h16h4v-9.2L20.7,11h-1.2l5-5H30v16.1c-0.3,0-0.7-0.1-1-0.1h-1v14h1c3.9,0,7-3.1,7-7
		C36,26.2,34.4,23.8,32,22.7z M22,19.2V26H2v-6h12v-7h5.3L22,19.2z M30,33.9v-9.8c2.3,0.5,4,2.5,4,4.9S32.3,33.4,30,33.9z"/>
</g>
<g id="Layer_2" display="none">
	<polygon display="inline" fill="none" stroke="#ED1C24" stroke-width="2" stroke-miterlimit="10" points="20,12 13,12 13,19 1,19 
		1,27 13,27 23,27 23,19 	"/>
	<circle display="inline" fill="none" stroke="#ED1C24" stroke-width="2" stroke-miterlimit="10" cx="4" cy="32" r="3"/>
	<circle display="inline" fill="none" stroke="#ED1C24" stroke-width="2" stroke-miterlimit="10" cx="20" cy="32" r="3"/>
	<path display="inline" fill="none" stroke="#ED1C24" stroke-width="2" stroke-miterlimit="10" d="M29,35c3.3,0,6-2.7,6-6
		s-2.7-6-6-6V35z"/>
	<line display="inline" fill="none" stroke="#ED1C24" stroke-width="2" stroke-miterlimit="10" x1="31" y1="0" x2="31" y2="23"/>
	<polyline display="inline" fill="none" stroke="#ED1C24" stroke-width="2" stroke-miterlimit="10" points="31,5 24,5 17,12 	"/>
</g>
</svg>
