<?xml version="1.0" encoding="utf-8"?>
<!-- Generator: Adobe Illustrator 19.2.1, SVG Export Plug-In . SVG Version: 6.00 Build 0)  -->
<!DOCTYPE svg PUBLIC "-//W3C//DTD SVG 1.1//EN" "http://www.w3.org/Graphics/SVG/1.1/DTD/svg11.dtd">
<svg version="1.1" xmlns="http://www.w3.org/2000/svg" xmlns:xlink="http://www.w3.org/1999/xlink" x="0px" y="0px"
	 viewBox="0 0 36 36" enable-background="new 0 0 36 36" xml:space="preserve">
<g id="Layer_1">
	<path d="M0,8v28h36V8L18,0L0,8z M34,34H2V9.3l16-7.1l16,7.1V34z M22,10V8h-8v2h3v10h-5v4c0,3.3,2.7,6,6,6s6-2.7,6-6v-4h-5V10H22z
		 M22,22v2c0,2.2-1.8,4-4,4s-4-1.8-4-4v-2H22z"/>
</g>
<g id="Layer_2" display="none">
	<g display="inline">
		<path fill="#ED1C24" d="M18,2.2l16,7.1V34H2V9.3L18,2.2 M18,0L0,8v28h36V8L18,0L18,0z"/>
	</g>
	<path display="inline" fill="none" stroke="#ED1C24" stroke-width="2" stroke-miterlimit="10" d="M13,22v2c0,2.8,2.2,5,5,5
		s5-2.2,5-5v-2"/>
	<line display="inline" fill="none" stroke="#ED1C24" stroke-width="2" stroke-miterlimit="10" x1="18" y1="20" x2="18" y2="9"/>
	<line display="inline" fill="none" stroke="#ED1C24" stroke-width="2" stroke-miterlimit="10" x1="22" y1="9" x2="14" y2="9"/>
	<line display="inline" fill="none" stroke="#ED1C24" stroke-width="2" stroke-miterlimit="10" x1="24" y1="21" x2="12" y2="21"/>
</g>
</svg>
