<?xml version="1.0" encoding="utf-8"?>
<!-- Generator: Adobe Illustrator 21.0.2, SVG Export Plug-In . SVG Version: 6.00 Build 0)  -->
<!DOCTYPE svg PUBLIC "-//W3C//DTD SVG 1.1//EN" "http://www.w3.org/Graphics/SVG/1.1/DTD/svg11.dtd">
<svg version="1.1" xmlns="http://www.w3.org/2000/svg" xmlns:xlink="http://www.w3.org/1999/xlink" x="0px" y="0px"
	 viewBox="0 0 36 36" enable-background="new 0 0 36 36" xml:space="preserve">
<g id="Layer_1">
	<path d="M29,16c0,1.7-1.3,3-3,3s-3-1.3-3-3v-1H13v1c0,1.7-1.3,3-3,3s-3-1.3-3-3v-1H0v2h5.1c0.5,2.3,2.5,4,4.9,4s4.4-1.7,4.9-4h6.2
		c0.5,2.3,2.5,4,4.9,4s4.4-1.7,4.9-4H36v-2h-7V16z"/>
</g>
<g id="Layer_2" display="none">
	<path display="inline" fill="none" stroke="#ED1C24" stroke-width="2" stroke-miterlimit="10" d="M0,16h6c0,2.2,1.8,4,4,4
		s4-1.8,4-4h8c0,2.2,1.8,4,4,4s4-1.8,4-4h6"/>
</g>
</svg>
