<?xml version="1.0" encoding="utf-8"?>
<!-- Generator: Adobe Illustrator 20.1.0, SVG Export Plug-In . SVG Version: 6.00 Build 0)  -->
<!DOCTYPE svg PUBLIC "-//W3C//DTD SVG 1.1//EN" "http://www.w3.org/Graphics/SVG/1.1/DTD/svg11.dtd">
<svg version="1.1" xmlns="http://www.w3.org/2000/svg" xmlns:xlink="http://www.w3.org/1999/xlink" x="0px" y="0px"
	 viewBox="0 0 36 36" enable-background="new 0 0 36 36" xml:space="preserve">
<g id="Layer_1">
	<path d="M16,24h4v2h-4V24z M24,26h4v-2h-4V26z M8,26h4v-2H8V26z M0,26h4v-2H0V26z M32,26h4v-2h-4V26z M25.1,5.3l-1.4-1.4L18,9.6
		l-5.7-5.7l-1.4,1.4l4.7,4.7H0v2h15.6l-4.7,4.7l1.4,1.4l5.7-5.7l5.7,5.7l1.4-1.4L20.4,12H36v-2H20.4L25.1,5.3z"/>
</g>
<g id="Layer_2" display="none">
	
		<line display="inline" fill="none" stroke="#00A651" stroke-width="2" stroke-miterlimit="10" stroke-dasharray="4" x1="0" y1="25" x2="36" y2="25"/>
	<line display="inline" fill="none" stroke="#00A651" stroke-width="2" stroke-miterlimit="10" x1="0" y1="11" x2="36" y2="11"/>
	
		<line display="inline" fill="none" stroke="#00A651" stroke-width="2" stroke-miterlimit="10" x1="24.4" y1="17.4" x2="11.6" y2="4.6"/>
	
		<line display="inline" fill="none" stroke="#00A651" stroke-width="2" stroke-miterlimit="10" x1="11.6" y1="17.4" x2="24.4" y2="4.6"/>
</g>
</svg>
