<?xml version="1.0" encoding="utf-8"?>
<!-- Generator: Adobe Illustrator 20.1.0, SVG Export Plug-In . SVG Version: 6.00 Build 0)  -->
<!DOCTYPE svg PUBLIC "-//W3C//DTD SVG 1.1//EN" "http://www.w3.org/Graphics/SVG/1.1/DTD/svg11.dtd">
<svg version="1.1" xmlns="http://www.w3.org/2000/svg" xmlns:xlink="http://www.w3.org/1999/xlink" x="0px" y="0px"
	 viewBox="0 0 36 36" enable-background="new 0 0 36 36" xml:space="preserve">
<g id="Layer_1">
	<path d="M18,10c-4.4,0-8,3.6-8,8s3.6,8,8,8s8-3.6,8-8S22.4,10,18,10z M18,24c-3.3,0-6-2.7-6-6s2.7-6,6-6s6,2.7,6,6S21.3,24,18,24z
		 M19,6h-2V0h2V6z M17,30h2v6h-2V30z M8.8,10.2L4.6,6L6,4.6l4.2,4.2L8.8,10.2z M27.2,25.8l4.2,4.2L30,31.4l-4.2-4.2L27.2,25.8z
		 M6,19H0v-2h6V19z M36,17v2h-6v-2H36z M8.8,25.8l1.4,1.4L6,31.4L4.6,30L8.8,25.8z M27.2,10.2l-1.4-1.4L30,4.6L31.4,6L27.2,10.2z"/>
</g>
<g id="Layer_2" display="none">
	<circle display="inline" fill="none" stroke="#00A651" stroke-width="2" stroke-miterlimit="10" cx="18" cy="18" r="7"/>
	<line display="inline" fill="none" stroke="#00A651" stroke-width="2" stroke-miterlimit="10" x1="18" y1="0" x2="18" y2="6"/>
	<line display="inline" fill="none" stroke="#00A651" stroke-width="2" stroke-miterlimit="10" x1="18" y1="30" x2="18" y2="36"/>
	
		<line display="inline" fill="none" stroke="#00A651" stroke-width="2" stroke-miterlimit="10" x1="5.3" y1="5.3" x2="9.5" y2="9.5"/>
	
		<line display="inline" fill="none" stroke="#00A651" stroke-width="2" stroke-miterlimit="10" x1="26.5" y1="26.5" x2="30.7" y2="30.7"/>
	<line display="inline" fill="none" stroke="#00A651" stroke-width="2" stroke-miterlimit="10" x1="0" y1="18" x2="6" y2="18"/>
	<line display="inline" fill="none" stroke="#00A651" stroke-width="2" stroke-miterlimit="10" x1="30" y1="18" x2="36" y2="18"/>
	
		<line display="inline" fill="none" stroke="#00A651" stroke-width="2" stroke-miterlimit="10" x1="5.3" y1="30.7" x2="9.5" y2="26.5"/>
	
		<line display="inline" fill="none" stroke="#00A651" stroke-width="2" stroke-miterlimit="10" x1="26.5" y1="9.5" x2="30.7" y2="5.3"/>
</g>
</svg>
