<?xml version="1.0" encoding="utf-8"?>
<!-- Generator: Adobe Illustrator 19.2.1, SVG Export Plug-In . SVG Version: 6.00 Build 0)  -->
<!DOCTYPE svg PUBLIC "-//W3C//DTD SVG 1.1//EN" "http://www.w3.org/Graphics/SVG/1.1/DTD/svg11.dtd">
<svg version="1.1" xmlns="http://www.w3.org/2000/svg" xmlns:xlink="http://www.w3.org/1999/xlink" x="0px" y="0px"
	 viewBox="0 0 36 36" enable-background="new 0 0 36 36" xml:space="preserve">
<g id="Layer_1">
	<g>
		<rect x="2" y="5" width="6" height="2"/>
		<rect x="28" y="5" width="6" height="2"/>
		<path d="M18,0c-3.3,0-6,2.7-6,6c0,1.8,0.8,3.4,2,4.5V36h8V10.5c1.2-1.1,2-2.7,2-4.5C24,2.7,21.3,0,18,0z M20,34h-4v-4h4V34z
			 M20,28h-4v-4h4V28z M20,22h-4v-4h4V22z M20,12v4h-4v-4H20z M18,10c-2.2,0-4-1.8-4-4s1.8-4,4-4s4,1.8,4,4S20.2,10,18,10z"/>
		<rect x="26.2" y="12.2" transform="matrix(0.7071 -0.7071 0.7071 0.7071 -2.7782 23.6777)" width="2" height="6"/>
		<rect x="5.8" y="14.2" transform="matrix(0.7071 -0.7071 0.7071 0.7071 -8.1629 10.6777)" width="6" height="2"/>
	</g>
</g>
<g id="Layer_2" display="none">
	<line display="inline" fill="none" stroke="#ED1C24" stroke-width="2" stroke-miterlimit="10" x1="2" y1="6" x2="8" y2="6"/>
	<line display="inline" fill="none" stroke="#ED1C24" stroke-width="2" stroke-miterlimit="10" x1="28" y1="6" x2="34" y2="6"/>
	<circle display="inline" fill="none" stroke="#ED1C24" stroke-width="2" stroke-miterlimit="10" cx="18" cy="6" r="5"/>
	
		<line display="inline" fill="none" stroke="#ED1C24" stroke-width="2" stroke-miterlimit="10" x1="29.3" y1="17.3" x2="25.1" y2="13.1"/>
	
		<line display="inline" fill="none" stroke="#ED1C24" stroke-width="2" stroke-miterlimit="10" x1="6.7" y1="17.3" x2="10.9" y2="13.1"/>
	
		<rect x="15" y="11" display="inline" fill="none" stroke="#ED1C24" stroke-width="2" stroke-miterlimit="10" width="6" height="24"/>
	<line display="inline" fill="none" stroke="#ED1C24" stroke-width="2" stroke-miterlimit="10" x1="16" y1="17" x2="20" y2="17"/>
	<line display="inline" fill="none" stroke="#ED1C24" stroke-width="2" stroke-miterlimit="10" x1="16" y1="23" x2="20" y2="23"/>
	<line display="inline" fill="none" stroke="#ED1C24" stroke-width="2" stroke-miterlimit="10" x1="16" y1="29" x2="20" y2="29"/>
</g>
</svg>
