<?xml version="1.0" encoding="utf-8"?>
<!-- Generator: Adobe Illustrator 19.2.1, SVG Export Plug-In . SVG Version: 6.00 Build 0)  -->
<!DOCTYPE svg PUBLIC "-//W3C//DTD SVG 1.1//EN" "http://www.w3.org/Graphics/SVG/1.1/DTD/svg11.dtd">
<svg version="1.1" xmlns="http://www.w3.org/2000/svg" xmlns:xlink="http://www.w3.org/1999/xlink" x="0px" y="0px"
	 viewBox="0 0 36 36" enable-background="new 0 0 36 36" xml:space="preserve">
<g id="Layer_1">
	<path d="M30,10c-3.3,0-6-2.7-6-6c0,3.3-2.7,6-6,6s-6-2.7-6-6c0,3.3-2.7,6-6,6S0,7.3,0,4v10c0,9.9,8.1,18,18,18c9.9,0,18-8.1,18-18
		V4C36,7.3,33.3,10,30,10z M34,14c0,8.8-7.2,16-16,16C9.2,30,2,22.8,2,14v-3.1C3.2,11.6,4.5,12,6,12c2.4,0,4.5-1.1,6-2.7
		c1.5,1.7,3.6,2.7,6,2.7c2.4,0,4.5-1.1,6-2.7c1.5,1.7,3.6,2.7,6,2.7c1.5,0,2.8-0.4,4-1.1V14z"/>
</g>
<g id="Layer_2" display="none">
	<g display="inline">
		<path fill="#ED1C24" d="M24,9.3c1.5,1.7,3.6,2.7,6,2.7c1.5,0,2.8-0.4,4-1.1V14c0,8.8-7.2,16-16,16S2,22.8,2,14v-3.1
			C3.2,11.6,4.5,12,6,12c2.4,0,4.5-1.1,6-2.7c1.5,1.7,3.6,2.7,6,2.7S22.5,10.9,24,9.3 M36,4c0,3.3-2.7,6-6,6s-6-2.7-6-6
			c0,3.3-2.7,6-6,6s-6-2.7-6-6c0,3.3-2.7,6-6,6S0,7.3,0,4v10c0,9.9,8.1,18,18,18s18-8.1,18-18V4L36,4z"/>
	</g>
</g>
</svg>
