<?xml version="1.0" encoding="utf-8"?>
<!-- Generator: Adobe Illustrator 21.0.0, SVG Export Plug-In . SVG Version: 6.00 Build 0)  -->
<!DOCTYPE svg PUBLIC "-//W3C//DTD SVG 1.1//EN" "http://www.w3.org/Graphics/SVG/1.1/DTD/svg11.dtd">
<svg version="1.1" xmlns="http://www.w3.org/2000/svg" xmlns:xlink="http://www.w3.org/1999/xlink" x="0px" y="0px"
	 viewBox="0 0 36 36" enable-background="new 0 0 36 36" xml:space="preserve">
<g id="Layer_1">
	<path d="M0,31c0,2.8,2.2,5,5,5s5-2.2,5-5s-2.2-5-5-5S0,28.2,0,31z M5,28c1.7,0,3,1.3,3,3s-1.3,3-3,3s-3-1.3-3-3S3.3,28,5,28z M14,6
		v14c0,3.3-2.7,6-6,6H5H0v-2h8c2.2,0,4-1.8,4-4V6c0-2.2-1.8-4-4-4H0V0h8C11.3,0,14,2.7,14,6z M26.7,9.3l8.7,8.7l-8.7,8.7l-1.4-1.4
		l6.3-6.3H20v-2h11.6l-6.3-6.3L26.7,9.3z"/>
</g>
<g id="Layer_2" display="none">
	<circle display="inline" fill="none" stroke="#ED1C24" stroke-width="2" stroke-miterlimit="10" cx="5" cy="31" r="4"/>
	<path display="inline" fill="none" stroke="#ED1C24" stroke-width="2" stroke-miterlimit="10" d="M13,6c0-2.8-2.2-5-5-5"/>
	<path display="inline" fill="none" stroke="#ED1C24" stroke-width="2" stroke-miterlimit="10" d="M8,25c2.8,0,5-2.2,5-5"/>
	<line display="inline" fill="none" stroke="#ED1C24" stroke-width="2" stroke-miterlimit="10" x1="20" y1="18" x2="34" y2="18"/>
	<polyline display="inline" fill="none" stroke="#ED1C24" stroke-width="2" stroke-miterlimit="10" points="26,10 34,18 26,26 	"/>
	<line display="inline" fill="none" stroke="#ED1C24" stroke-width="2" stroke-miterlimit="10" x1="0" y1="1" x2="8" y2="1"/>
	<line display="inline" fill="none" stroke="#ED1C24" stroke-width="2" stroke-miterlimit="10" x1="0" y1="25" x2="8" y2="25"/>
	<line display="inline" fill="none" stroke="#ED1C24" stroke-width="2" stroke-miterlimit="10" x1="13" y1="6" x2="13" y2="20"/>
</g>
</svg>
