<?xml version="1.0" encoding="utf-8"?>
<!-- Generator: Adobe Illustrator 21.0.0, SVG Export Plug-In . SVG Version: 6.00 Build 0)  -->
<!DOCTYPE svg PUBLIC "-//W3C//DTD SVG 1.1//EN" "http://www.w3.org/Graphics/SVG/1.1/DTD/svg11.dtd">
<svg version="1.1" xmlns="http://www.w3.org/2000/svg" xmlns:xlink="http://www.w3.org/1999/xlink" x="0px" y="0px"
	 viewBox="0 0 36 36" enable-background="new 0 0 36 36" xml:space="preserve">
<g id="Layer_1">
	<path d="M16.6,6.7L18,5.3l-2.8-2.8L16.6,1l2.8,2.8L22.2,1l1.4,1.4L18,8.1l1.4,1.4l2.8-2.8l1.4,1.4L18,13.8l0.2,0.2h-2.8l-3.1-3.1
		l1.4-1.4l2.8,2.8l1.4-1.4l-5.7-5.7l1.4-1.4L16.6,6.7z M34.7,14l0.2-0.2l-1.4-1.4L31.9,14H34.7z M23.4,14l0.2-0.2l-1.4-1.4L20.6,14
		H23.4z M12.3,13.8l-1.4-1.4L9.3,14h2.8L12.3,13.8z M25.1,3.9l-1.4,1.4l5.7,5.7l-1.4,1.4l-2.8-2.8l-1.4,1.4l3.1,3.1h2.8l-0.2-0.2
		L35,8.1l-1.4-1.4l-2.8,2.8l-1.4-1.4L35,2.4L33.6,1l-2.8,2.8L27.9,1l-1.4,1.4l2.8,2.8l-1.4,1.4L25.1,3.9z M33.6,23.7l-2.8,2.8
		l-1.4-1.4l3.1-3.1h-3.3l0.2,0.2l-1.4,1.4L26.2,22h-2.3l-0.2,0.2l5.7,5.7l-1.4,1.4l-2.8-2.8l-1.4,1.4l7.1,7.1l1.4-1.4l-2.8-2.8
		l5.7-5.7L33.6,23.7z M23.7,25.1l-1.4-1.4l-2.8,2.8L18,25.1l3.1-3.1h-3.3l0.2,0.2l-1.4,1.4L14.9,22h-2.3l-0.2,0.2l5.7,5.7l-1.4,1.4
		l-2.8-2.8l-1.4,1.4l7.1,7.1l1.4-1.4L18,30.7L23.7,25.1z M12.3,25.1l-1.4-1.4l-2.8,2.8l-1.4-1.4L9.8,22H6.4l0.2,0.2l-1.4,1.4L3.6,22
		H1.3L1,22.2l5.7,5.7l-1.4,1.4l-2.8-2.8L1,27.9L8.1,35l1.4-1.4l-2.8-2.8L12.3,25.1z M2.4,9.5L1,10.9L4.1,14h2.8l-0.2-0.2l5.7-5.7
		l-1.4-1.4L8.1,9.5L6.7,8.1l5.7-5.7L10.9,1L8.1,3.9L5.3,1L3.9,2.4l2.8,2.8L5.3,6.7L2.4,3.9L1,5.3l5.7,5.7l-1.4,1.4L2.4,9.5z M32,19
		h4v-2h-4V19z M24,19h4v-2h-4V19z M8,19h4v-2H8V19z M16,19h4v-2h-4V19z M4,17H0v2h4V17z"/>
</g>
<g id="Layer_2" display="none">
	<g display="inline">
		<polygon fill="#ED1C24" points="13.8,3.9 12.3,5.3 18,10.9 16.6,12.3 13.8,9.5 12.3,10.9 15.4,14 18.2,14 18,13.8 23.7,8.1 
			22.2,6.7 19.4,9.5 18,8.1 23.7,2.4 22.2,1 19.4,3.9 16.6,1 15.2,2.4 18,5.3 16.6,6.7 		"/>
		<polygon fill="#ED1C24" points="33.6,12.3 31.9,14 34.7,14 35,13.8 		"/>
		<polygon fill="#ED1C24" points="22.2,12.3 20.6,14 23.4,14 23.7,13.8 		"/>
		<polygon fill="#ED1C24" points="10.9,12.3 9.3,14 12.1,14 12.3,13.8 		"/>
		<polygon fill="#ED1C24" points="25.1,3.9 23.7,5.3 29.3,10.9 27.9,12.3 25.1,9.5 23.7,10.9 26.7,14 29.6,14 29.3,13.8 35,8.1 
			33.6,6.7 30.7,9.5 29.3,8.1 35,2.4 33.6,1 30.7,3.9 27.9,1 26.5,2.4 29.3,5.3 27.9,6.7 		"/>
		<polygon fill="#ED1C24" points="33.6,23.7 30.7,26.5 29.3,25.1 32.4,22 29.1,22 29.3,22.2 27.9,23.7 26.2,22 23.9,22 23.7,22.2 
			29.3,27.9 27.9,29.3 25.1,26.5 23.7,27.9 30.7,35 32.1,33.6 29.3,30.7 35,25.1 		"/>
		<polygon fill="#ED1C24" points="23.7,25.1 22.2,23.7 19.4,26.5 18,25.1 21.1,22 17.8,22 18,22.2 16.6,23.7 14.9,22 12.6,22 
			12.3,22.2 18,27.9 16.6,29.3 13.8,26.5 12.3,27.9 19.4,35 20.8,33.6 18,30.7 		"/>
		<polygon fill="#ED1C24" points="12.3,25.1 10.9,23.7 8.1,26.5 6.7,25.1 9.8,22 6.4,22 6.7,22.2 5.3,23.7 3.6,22 1.3,22 1,22.2 
			6.7,27.9 5.3,29.3 2.4,26.5 1,27.9 8.1,35 9.5,33.6 6.7,30.7 		"/>
		<polygon fill="#ED1C24" points="2.4,9.5 1,10.9 4.1,14 6.9,14 6.7,13.8 12.3,8.1 10.9,6.7 8.1,9.5 6.7,8.1 12.3,2.4 10.9,1 
			8.1,3.9 5.3,1 3.9,2.4 6.7,5.3 5.3,6.7 2.4,3.9 1,5.3 6.7,10.9 5.3,12.3 		"/>
	</g>
	
		<line display="inline" fill="none" stroke="#ED1C24" stroke-width="2" stroke-miterlimit="10" stroke-dasharray="4" x1="0" y1="18" x2="36" y2="18"/>
</g>
</svg>
