<?xml version="1.0" encoding="utf-8"?>
<!-- Generator: Adobe Illustrator 21.0.0, SVG Export Plug-In . SVG Version: 6.00 Build 0)  -->
<!DOCTYPE svg PUBLIC "-//W3C//DTD SVG 1.1//EN" "http://www.w3.org/Graphics/SVG/1.1/DTD/svg11.dtd">
<svg version="1.1" xmlns="http://www.w3.org/2000/svg" xmlns:xlink="http://www.w3.org/1999/xlink" x="0px" y="0px"
	 viewBox="0 0 36 36" enable-background="new 0 0 36 36" xml:space="preserve">
<g id="Layer_1">
	<path d="M29,11l-6.4,11.3C22.2,23.1,22,24,22,25c0,3.9,3.1,7,7,7s7-3.1,7-7c0-1-0.2-1.9-0.6-2.7L29,11z M29,30c-2.8,0-5-2.2-5-5
		c0-0.6,0.1-1.3,0.4-1.9L29,15l4.6,8.1c0.2,0.6,0.4,1.2,0.4,1.9C34,27.8,31.8,30,29,30z M17.4,2H23c2.8,0,5,2.2,5,5h2
		c0-3.9-3.1-7-7-7H7C3.1,0,0,3.1,0,7v29h2V17.4L17.4,2z M7,2h7.6L2,14.6V7C2,4.2,4.2,2,7,2z"/>
</g>
<g id="Layer_2" display="none">
	<path display="inline" fill="none" stroke="#ED1C24" stroke-width="2" stroke-miterlimit="10" d="M7,1C3.7,1,1,3.7,1,7"/>
	<path display="inline" fill="none" stroke="#ED1C24" stroke-width="2" stroke-miterlimit="10" d="M29,7c0-3.3-2.7-6-6-6"/>
	<line display="inline" fill="none" stroke="#ED1C24" stroke-width="2" stroke-miterlimit="10" x1="1" y1="36" x2="1" y2="7"/>
	<line display="inline" fill="none" stroke="#ED1C24" stroke-width="2" stroke-miterlimit="10" x1="7" y1="1" x2="23" y2="1"/>
	<g display="inline">
		<g>
			<path fill="#ED1C24" d="M29,15l4.6,8.1c0.2,0.6,0.4,1.2,0.4,1.9c0,2.8-2.2,5-5,5s-5-2.2-5-5c0-0.6,0.1-1.3,0.4-1.9L29,15 M29,11
				l-6.4,11.3C22.2,23.1,22,24,22,25c0,3.9,3.1,7,7,7s7-3.1,7-7c0-1-0.2-1.9-0.6-2.7L29,11L29,11z"/>
		</g>
	</g>
	<line display="inline" fill="none" stroke="#ED1C24" stroke-width="2" stroke-miterlimit="10" x1="17" y1="1" x2="1" y2="17"/>
</g>
</svg>
