<?xml version="1.0" encoding="utf-8"?>
<!-- Generator: Adobe Illustrator 20.1.0, SVG Export Plug-In . SVG Version: 6.00 Build 0)  -->
<!DOCTYPE svg PUBLIC "-//W3C//DTD SVG 1.1//EN" "http://www.w3.org/Graphics/SVG/1.1/DTD/svg11.dtd">
<svg version="1.1" xmlns="http://www.w3.org/2000/svg" xmlns:xlink="http://www.w3.org/1999/xlink" x="0px" y="0px"
	 viewBox="0 0 36 36" enable-background="new 0 0 36 36" xml:space="preserve">
<g id="Layer_1">
	<path d="M27.9,18.5c-0.1-0.9-0.3-1.7-0.7-2.4L18,0L8.8,16.1c-0.3,0.8-0.5,1.6-0.7,2.4C3,20.3,0,23.2,0,26.5C0,31.8,7.9,36,18,36
		s18-4.2,18-9.5C36,23.2,33,20.3,27.9,18.5z M10.6,17L18,4L25.4,17c0.4,1,0.6,2,0.6,3c0,4.4-3.6,8-8,8c-4.4,0-8-3.6-8-8
		C10,19,10.2,17.9,10.6,17z M18,34c-8.7,0-16-3.4-16-7.5c0-2.2,2.3-4.4,6-5.8c0.4,5.2,4.7,9.3,10,9.3c5.3,0,9.6-4.1,10-9.3
		c3.8,1.4,6,3.6,6,5.8C34,30.6,26.7,34,18,34z M18,26v-2c2.2,0,4-1.8,4-4h2C24,23.3,21.3,26,18,26z"/>
</g>
<g id="Layer_2" display="none">
	<g display="inline">
		<g>
			<path fill="#00A651" d="M18,4L25.4,17c0.4,1,0.6,2,0.6,3c0,4.4-3.6,8-8,8s-8-3.6-8-8c0-1,0.2-2.1,0.6-3L18,4 M18,0L8.8,16.1
				C8.3,17.3,8,18.6,8,20c0,5.5,4.5,10,10,10c5.5,0,10-4.5,10-10c0-1.4-0.3-2.7-0.8-3.9L18,0L18,0z"/>
		</g>
	</g>
	<path display="inline" fill="none" stroke="#00A651" stroke-width="2" stroke-miterlimit="10" d="M9.5,19.1C4.4,20.6,1,23.4,1,26.5
		C1,31.2,8.6,35,18,35s17-3.8,17-8.5c0-3.1-3.4-5.9-8.5-7.4"/>
	<path display="inline" fill="none" stroke="#00A651" stroke-width="2" stroke-miterlimit="10" d="M23,20c0,2.8-2.2,5-5,5"/>
</g>
</svg>
