<?xml version="1.0" encoding="utf-8"?>
<!-- Generator: Adobe Illustrator 20.1.0, SVG Export Plug-In . SVG Version: 6.00 Build 0)  -->
<!DOCTYPE svg PUBLIC "-//W3C//DTD SVG 1.1//EN" "http://www.w3.org/Graphics/SVG/1.1/DTD/svg11.dtd">
<svg version="1.1" xmlns="http://www.w3.org/2000/svg" xmlns:xlink="http://www.w3.org/1999/xlink" x="0px" y="0px"
	 viewBox="0 0 36 36" enable-background="new 0 0 36 36" xml:space="preserve">
<g id="Layer_1">
	<path d="M8.1,19.4l-4.2,4.2c-2.3,2.3-2.3,6.1,0,8.5c1.1,1.1,2.6,1.8,4.2,1.8s3.1-0.6,4.2-1.8l4.2-4.2l-3.5-3.5l4.9-4.9l6.4,6.4
		l-3.5,3.5l1.4,1.4l0,0l4.2,4.2l1.4-1.4l-4.2-4.2l2.1-2.1l4.2,4.2l1.4-1.4l-4.2-4.2l2.1-2.1l4.2,4.2l1.4-1.4l-4.2-4.2l0,0l-1.4-1.4
		l-3.5,3.5L19.4,18l12-12l2.1,2.1L35,6.7L29.3,1l-1.4,1.4L30,4.6l-12,12L4.6,3.2L3.2,4.6L16.6,18L11.6,23L8.1,19.4z M10.9,30.7
		c-1.5,1.5-4.1,1.5-5.7,0c-1.6-1.6-1.6-4.1,0-5.7l2.8-2.8l5.7,5.7L10.9,30.7z"/>
</g>
<g id="Layer_2" display="none">
	<path display="inline" fill="none" stroke="#00A651" stroke-width="2" stroke-miterlimit="10" d="M11.6,31.4c-2,2-5.1,2-7.1,0
		s-2-5.1,0-7.1l3.5-3.5l7.1,7.1L11.6,31.4z"/>
	
		<line display="inline" fill="none" stroke="#00A651" stroke-width="2" stroke-miterlimit="10" x1="11.6" y1="24.4" x2="31.4" y2="4.6"/>
	
		<line display="inline" fill="none" stroke="#00A651" stroke-width="2" stroke-miterlimit="10" x1="21.5" y1="30" x2="30" y2="21.5"/>
	
		<line display="inline" fill="none" stroke="#00A651" stroke-width="2" stroke-miterlimit="10" x1="30.7" y1="30.7" x2="3.9" y2="3.9"/>
	
		<line display="inline" fill="none" stroke="#00A651" stroke-width="2" stroke-miterlimit="10" x1="34.3" y1="7.4" x2="28.6" y2="1.7"/>
	
		<line display="inline" fill="none" stroke="#00A651" stroke-width="2" stroke-miterlimit="10" x1="34.3" y1="27.2" x2="29.3" y2="22.2"/>
	
		<line display="inline" fill="none" stroke="#00A651" stroke-width="2" stroke-miterlimit="10" x1="27.2" y1="34.3" x2="22.2" y2="29.3"/>
</g>
</svg>
