<?xml version="1.0" encoding="utf-8"?>
<!-- Generator: Adobe Illustrator 21.1.0, SVG Export Plug-In . SVG Version: 6.00 Build 0)  -->
<!DOCTYPE svg PUBLIC "-//W3C//DTD SVG 1.1//EN" "http://www.w3.org/Graphics/SVG/1.1/DTD/svg11.dtd">
<svg version="1.1" id="Layer_1" xmlns="http://www.w3.org/2000/svg" xmlns:xlink="http://www.w3.org/1999/xlink" x="0px" y="0px"
	 width="198px" height="32px" viewBox="0 0 198 32" enable-background="new 0 0 198 32" xml:space="preserve">
<g>
	<g>
		<polygon fill="#323232" points="159,6 156,6 156,27 166,27 166,24 159,24 		"/>
		<path fill="#323232" d="M93,6c-3.3,0-6,2.7-6,6v9c0,3.3,2.7,6,6,6s6-2.7,6-6v-9C99,8.7,96.3,6,93,6z M96,21c0,1.7-1.3,3-3,3
			s-3-1.3-3-3v-9c0-1.7,1.3-3,3-3s3,1.3,3,3V21z"/>
		<path fill="#323232" d="M173,6c-3.3,0-6,2.7-6,6v9c0,3.3,2.7,6,6,6s6-2.7,6-6v-9C179,8.7,176.3,6,173,6z M176,21c0,1.7-1.3,3-3,3
			s-3-1.3-3-3v-9c0-1.7,1.3-3,3-3s3,1.3,3,3V21z"/>
		<path fill="#323232" d="M187,18v3h3c0,1.7-1.3,3-3,3s-3-1.3-3-3v-9c0-1.7,1.3-3,3-3s3,1.3,3,3h3c0-3.3-2.7-6-6-6s-6,2.7-6,6v9
			c0,3.3,2.7,6,6,6s6-2.7,6-6v-3H187z"/>
		<path fill="#323232" d="M110,15c0,1.7-1.3,3-3,3h-3V6h-3v21h3v-6h3c1.7,0,3,1.3,3,3v3h3v-3c0-1.8-0.8-3.4-2-4.5
			c1.2-1.1,2-2.7,2-4.5V6h-3V15z"/>
		<rect x="55" y="6" fill="#323232" width="3" height="21"/>
		<rect x="195" y="6" fill="#323232" width="3" height="21"/>
		<path fill="#323232" d="M121,6c-3.3,0-6,2.7-6,6v15h3v-6h6v6h3V12C127,8.7,124.3,6,121,6z M124,18h-6v-6c0-1.7,1.3-3,3-3
			s3,1.3,3,3V18z"/>
		<path fill="#323232" d="M148,6c-3.3,0-6,2.7-6,6v15h3v-6h6v6h3V12C154,8.7,151.3,6,148,6z M151,18h-6v-6c0-1.7,1.3-3,3-3
			s3,1.3,3,3V18z"/>
		<polygon fill="#323232" points="40,6 40,9 45,9 45,27 48,27 48,9 53,9 53,6 		"/>
		<polygon fill="#323232" points="73,6 73,9 78,9 78,27 81,27 81,9 86,9 86,6 		"/>
		<polygon fill="#323232" points="128,6 128,9 133,9 133,27 136,27 136,9 141,9 141,6 		"/>
		<polygon fill="#323232" points="60,6 60,27 71,27 71,24 63,24 63,18 68,18 68,15 63,15 63,9 71,9 71,6 		"/>
	</g>
	<g>
		<circle fill="#99CC00" cx="16" cy="16" r="16"/>
		<g>
			<path fill="#FFFFFF" d="M8,5v6H6v1h2v2H6v1h2v2H6v1h2v2H6v1h2v6h16V5H8z M23,26H9v-5h2v-1H9v-2h2v-1H9v-2h2v-1H9v-2h2v-1H9V6h14
				V26z"/>
			<circle fill="#FFFFFF" cx="16" cy="11" r="1.5"/>
			<path fill="#FFFFFF" d="M16,15c-0.6,0-1,0.4-1,1v6c0,0.6,0.4,1,1,1s1-0.4,1-1v-6C17,15.4,16.6,15,16,15z"/>
		</g>
	</g>
</g>
</svg>
