<?xml version="1.0" encoding="utf-8"?>
<!-- Generator: Adobe Illustrator 19.2.1, SVG Export Plug-In . SVG Version: 6.00 Build 0)  -->
<!DOCTYPE svg PUBLIC "-//W3C//DTD SVG 1.1//EN" "http://www.w3.org/Graphics/SVG/1.1/DTD/svg11.dtd">
<svg version="1.1" xmlns="http://www.w3.org/2000/svg" xmlns:xlink="http://www.w3.org/1999/xlink" x="0px" y="0px"
	 viewBox="0 0 18 18" enable-background="new 0 0 18 18" xml:space="preserve">
<g id="Layer_1">
	<path d="M0,5v8h5l5,5V0L5,5H0z M8,4.8v8.3L5.8,11H2V7h3.8L8,4.8z M18,10h-2v2h-2v-2h-2V8h2V6h2v2h2V10z"/>
</g>
<g id="Layer_2" display="none">
	<g display="inline">
		<g>
			<path fill="#ED1C24" d="M8,4.8v8.3l-1.6-1.6L5.8,11H5H2V7h3h0.8l0.6-0.6L8,4.8 M10,0L5,5H0v8h5l5,5V0L10,0z"/>
		</g>
		<line fill="none" stroke="#ED1C24" stroke-width="2" stroke-miterlimit="10" x1="12" y1="9" x2="18" y2="9"/>
		<line fill="none" stroke="#ED1C24" stroke-width="2" stroke-miterlimit="10" x1="15" y1="12" x2="15" y2="6"/>
	</g>
</g>
</svg>
