<?xml version="1.0" encoding="utf-8"?>
<!-- Generator: Adobe Illustrator 19.2.1, SVG Export Plug-In . SVG Version: 6.00 Build 0)  -->
<!DOCTYPE svg PUBLIC "-//W3C//DTD SVG 1.1//EN" "http://www.w3.org/Graphics/SVG/1.1/DTD/svg11.dtd">
<svg version="1.1" xmlns="http://www.w3.org/2000/svg" xmlns:xlink="http://www.w3.org/1999/xlink" x="0px" y="0px"
	 viewBox="0 0 18 18" enable-background="new 0 0 18 18" xml:space="preserve">
<g id="Layer_1">
	<path d="M0,5v8h5l5,5V0L5,5H0z M8,4.8v8.3L5.8,11H2V7h3.8L8,4.8z M16.4,9l1.4,1.4l-1.4,1.4L15,10.4l-1.4,1.4l-1.4-1.4L13.6,9
		l-1.4-1.4l1.4-1.4L15,7.6l1.4-1.4l1.4,1.4L16.4,9z"/>
</g>
<g id="Layer_2" display="none">
	<g display="inline">
		<g>
			<path fill="#ED1C24" d="M8,4.8v8.3l-1.6-1.6L5.8,11H5H2V7h3h0.8l0.6-0.6L8,4.8 M10,0L5,5H0v8h5l5,5V0L10,0z"/>
		</g>
		<line fill="none" stroke="#ED1C24" stroke-width="2" stroke-miterlimit="10" x1="12.9" y1="11.1" x2="17.1" y2="6.9"/>
		<line fill="none" stroke="#ED1C24" stroke-width="2" stroke-miterlimit="10" x1="17.1" y1="11.1" x2="12.9" y2="6.9"/>
	</g>
</g>
</svg>
