<?xml version="1.0" encoding="utf-8"?>
<!-- Generator: Adobe Illustrator 19.2.1, SVG Export Plug-In . SVG Version: 6.00 Build 0)  -->
<!DOCTYPE svg PUBLIC "-//W3C//DTD SVG 1.1//EN" "http://www.w3.org/Graphics/SVG/1.1/DTD/svg11.dtd">
<svg version="1.1" xmlns="http://www.w3.org/2000/svg" xmlns:xlink="http://www.w3.org/1999/xlink" x="0px" y="0px"
	 viewBox="0 0 18 18" enable-background="new 0 0 18 18" xml:space="preserve">
<g id="Layer_1">
	<path d="M18,6V4h-2V1l-1-1l-1,1v3h-4V1L9,0L8,1v3H4V1L3,0L2,1v3H0v2h2v8H0v2h2v2h2v-2h4v2h2v-2h4v2h2v-2h2v-2h-2V6H18z M4,14V6h4v8
		H4z M14,14h-4V6h4V14z"/>
</g>
<g id="Layer_2" display="none">
	<line display="inline" fill="none" stroke="#ED1C24" stroke-width="2" stroke-miterlimit="10" x1="0" y1="15" x2="18" y2="15"/>
	<line display="inline" fill="none" stroke="#ED1C24" stroke-width="2" stroke-miterlimit="10" x1="0" y1="5" x2="18" y2="5"/>
	<g display="inline">
		<polygon fill="#ED1C24" points="3,0 2,1 2,18 4,18 4,1 3,0 		"/>
	</g>
	<g display="inline">
		<polygon fill="#ED1C24" points="9,0 8,1 8,18 10,18 10,1 9,0 		"/>
	</g>
	<g display="inline">
		<polygon fill="#ED1C24" points="15,0 14,1 14,18 16,18 16,1 15,0 		"/>
	</g>
</g>
</svg>
