<?xml version="1.0" encoding="utf-8"?>
<!-- Generator: Adobe Illustrator 19.2.1, SVG Export Plug-In . SVG Version: 6.00 Build 0)  -->
<!DOCTYPE svg PUBLIC "-//W3C//DTD SVG 1.1//EN" "http://www.w3.org/Graphics/SVG/1.1/DTD/svg11.dtd">
<svg version="1.1" xmlns="http://www.w3.org/2000/svg" xmlns:xlink="http://www.w3.org/1999/xlink" x="0px" y="0px"
	 viewBox="0 0 18 18" enable-background="new 0 0 18 18" xml:space="preserve">
<g id="Layer_1">
	<path d="M18,8h-1.1c-0.5-2-2.2-3.5-4.4-3.5c-1.4,0-2.7,0.7-3.5,1.7c-0.8-1-2.1-1.7-3.5-1.7C3.4,4.5,1.6,6,1.1,8H0v2h1.1
		c0.5,2,2.2,3.5,4.4,3.5c1.4,0,2.7-0.7,3.5-1.7c0.8,1,2.1,1.7,3.5,1.7c2.1,0,3.9-1.5,4.4-3.5H18V8z M5.5,11.5C4.1,11.5,3,10.4,3,9
		s1.1-2.5,2.5-2.5S8,7.6,8,9S6.9,11.5,5.5,11.5z M12.5,11.5c-1.4,0-2.5-1.1-2.5-2.5s1.1-2.5,2.5-2.5S15,7.6,15,9
		S13.9,11.5,12.5,11.5z"/>
</g>
<g id="Layer_2" display="none">
	<g display="inline">
		<circle fill="none" stroke="#ED1C24" stroke-width="2" stroke-miterlimit="10" cx="5.5" cy="9" r="3.5"/>
		<circle fill="none" stroke="#ED1C24" stroke-width="2" stroke-miterlimit="10" cx="12.5" cy="9" r="3.5"/>
		<line fill="none" stroke="#ED1C24" stroke-width="2" stroke-miterlimit="10" x1="0" y1="9" x2="2" y2="9"/>
		<line fill="none" stroke="#ED1C24" stroke-width="2" stroke-miterlimit="10" x1="16" y1="9" x2="18" y2="9"/>
	</g>
</g>
</svg>
