<?xml version="1.0" encoding="utf-8"?>
<!-- Generator: Adobe Illustrator 21.0.0, SVG Export Plug-In . SVG Version: 6.00 Build 0)  -->
<!DOCTYPE svg PUBLIC "-//W3C//DTD SVG 1.1//EN" "http://www.w3.org/Graphics/SVG/1.1/DTD/svg11.dtd">
<svg version="1.1" xmlns="http://www.w3.org/2000/svg" xmlns:xlink="http://www.w3.org/1999/xlink" x="0px" y="0px"
	 viewBox="0 0 18 18" enable-background="new 0 0 18 18" xml:space="preserve">
<g id="Layer_1">
	<path d="M18,18h-6V8h-2V6h2V3c0-1.7,1.3-3,3-3s3,1.3,3,3V18z M14,16h2V3c0-0.6-0.4-1-1-1s-1,0.4-1,1V16z M8.4,7L1.7,0.3L0.3,1.7
		L5.6,7l-5.3,5.3l1.4,1.4L8.4,7z"/>
</g>
<g id="Layer_2" display="none">
	<path display="inline" fill="none" stroke="#ED1C24" stroke-width="2" stroke-miterlimit="10" d="M10,7l3,0V3c0-1.1,0.9-2,2-2
		s2,0.9,2,2v14h-4V7"/>
	<polyline display="inline" fill="none" stroke="#ED1C24" stroke-width="2" stroke-miterlimit="10" points="1,1 7,7 1,13 	"/>
</g>
</svg>
