<?xml version="1.0" encoding="utf-8"?>
<!-- Generator: Adobe Illustrator 19.2.1, SVG Export Plug-In . SVG Version: 6.00 Build 0)  -->
<!DOCTYPE svg PUBLIC "-//W3C//DTD SVG 1.1//EN" "http://www.w3.org/Graphics/SVG/1.1/DTD/svg11.dtd">
<svg version="1.1" xmlns="http://www.w3.org/2000/svg" xmlns:xlink="http://www.w3.org/1999/xlink" x="0px" y="0px"
	 viewBox="0 0 18 18" enable-background="new 0 0 18 18" xml:space="preserve">
<g id="Layer_1">
	<path d="M6.4,0L0.8,9l5.6,9H18V0H6.4z M16,16H7.6L3.2,9l4.4-7H16V16z M7.9,5.5L10,7.6l2.1-2.1l1.4,1.4L11.4,9l2.1,2.1l-1.4,1.4
		L10,10.4l-2.1,2.1l-1.4-1.4L8.6,9L6.5,6.9L7.9,5.5z"/>
</g>
<g id="Layer_2" display="none">
	<g display="inline">
		<polygon fill="none" stroke="#ED1C24" stroke-width="2" stroke-miterlimit="10" points="7,17 17,17 17,1 7,1 2,9 		"/>
		<line fill="none" stroke="#ED1C24" stroke-width="2" stroke-miterlimit="10" x1="7.2" y1="6.2" x2="12.8" y2="11.8"/>
		<line fill="none" stroke="#ED1C24" stroke-width="2" stroke-miterlimit="10" x1="7.2" y1="11.8" x2="12.8" y2="6.2"/>
	</g>
</g>
</svg>
