<?xml version="1.0" encoding="utf-8"?>
<!-- Generator: Adobe Illustrator 20.1.0, SVG Export Plug-In . SVG Version: 6.00 Build 0)  -->
<!DOCTYPE svg PUBLIC "-//W3C//DTD SVG 1.1//EN" "http://www.w3.org/Graphics/SVG/1.1/DTD/svg11.dtd">
<svg version="1.1" xmlns="http://www.w3.org/2000/svg" xmlns:xlink="http://www.w3.org/1999/xlink" x="0px" y="0px"
	 viewBox="0 0 18 18" enable-background="new 0 0 18 18" xml:space="preserve">
<g id="Layer_1">
	<path d="M7,10c0,0.5-0.4,1-1,1s-1-0.4-1-1s0.4-1,1-1S7,9.5,7,10z M12,9c-0.6,0-1,0.4-1,1s0.4,1,1,1s1-0.4,1-1S12.6,9,12,9z M16,3v8
		c0,1.3-0.8,2.4-2,2.8V18h-2v-4H6v4H4v-4.2c-1.2-0.4-2-1.5-2-2.8V3c0-1.7,1.3-3,3-3h8C14.7,0,16,1.3,16,3z M4,3v3h10V3
		c0-0.6-0.4-1-1-1H5C4.4,2,4,2.4,4,3z M14,11V8H4v3c0,0.6,0.4,1,1,1h8C13.6,12,14,11.6,14,11z"/>
</g>
<g id="Layer_2" display="none">
	<line display="inline" fill="none" stroke="#ED1C24" stroke-width="2" stroke-miterlimit="10" x1="3" y1="7" x2="15" y2="7"/>
	<line display="inline" fill="none" stroke="#ED1C24" stroke-width="2" stroke-miterlimit="10" x1="5" y1="18" x2="5" y2="13"/>
	<line display="inline" fill="none" stroke="#ED1C24" stroke-width="2" stroke-miterlimit="10" x1="13" y1="18" x2="13" y2="13"/>
	<g display="inline">
		<path fill="#ED1C24" d="M6,9c-0.6,0-1,0.4-1,1s0.4,1,1,1s1-0.4,1-1S6.6,9,6,9L6,9z"/>
	</g>
	<g display="inline">
		<path fill="#ED1C24" d="M12,9c-0.6,0-1,0.4-1,1s0.4,1,1,1s1-0.4,1-1S12.6,9,12,9L12,9z"/>
	</g>
	<path display="inline" fill="none" stroke="#ED1C24" stroke-width="2" stroke-miterlimit="10" d="M13,13H5c-1.1,0-2-0.9-2-2V3
		c0-1.1,0.9-2,2-2h8c1.1,0,2,0.9,2,2v8C15,12.1,14.1,13,13,13z"/>
</g>
</svg>
