<?xml version="1.0" encoding="utf-8"?>
<!-- Generator: Adobe Illustrator 20.1.0, SVG Export Plug-In . SVG Version: 6.00 Build 0)  -->
<!DOCTYPE svg PUBLIC "-//W3C//DTD SVG 1.1//EN" "http://www.w3.org/Graphics/SVG/1.1/DTD/svg11.dtd">
<svg version="1.1" xmlns="http://www.w3.org/2000/svg" xmlns:xlink="http://www.w3.org/1999/xlink" x="0px" y="0px"
	 viewBox="0 0 18 18" enable-background="new 0 0 18 18" xml:space="preserve">
<g id="Layer_1">
	<path d="M8,14h2v4H8V14z M8,11h2V7H8V11z M8,4h2V0H8V4z M3.2,0.3L1.8,1.7L3.1,3l-3,3l3,3l-3,3l3,3l-1.3,1.3l1.4,1.4L5.9,15l-3-3
		l3-3l-3-3l3-3L3.2,0.3z M15.2,0.3l-1.4,1.4L15.1,3l-3,3l3,3l-3,3l3,3l-1.3,1.3l1.4,1.4l2.7-2.7l-3-3l3-3l-3-3l3-3L15.2,0.3z"/>
</g>
<g id="Layer_2" display="none">
	<line display="inline" fill="none" stroke="#ED1C24" stroke-width="2" stroke-miterlimit="10" x1="9" y1="14" x2="9" y2="18"/>
	<line display="inline" fill="none" stroke="#ED1C24" stroke-width="2" stroke-miterlimit="10" x1="9" y1="7" x2="9" y2="11"/>
	<line display="inline" fill="none" stroke="#ED1C24" stroke-width="2" stroke-miterlimit="10" x1="9" y1="0" x2="9" y2="4"/>
	<polyline display="inline" fill="none" stroke="#ED1C24" stroke-width="2" stroke-miterlimit="10" points="2.5,1 4.5,3 1.5,6 
		4.5,9 1.5,12 4.5,15 2.5,17 	"/>
	<polyline display="inline" fill="none" stroke="#ED1C24" stroke-width="2" stroke-miterlimit="10" points="14.5,1 16.5,3 13.5,6 
		16.5,9 13.5,12 16.5,15 14.5,17 	"/>
</g>
</svg>
