<?xml version="1.0" encoding="utf-8"?>
<!-- Generator: Adobe Illustrator 19.2.1, SVG Export Plug-In . SVG Version: 6.00 Build 0)  -->
<!DOCTYPE svg PUBLIC "-//W3C//DTD SVG 1.1//EN" "http://www.w3.org/Graphics/SVG/1.1/DTD/svg11.dtd">
<svg version="1.1" xmlns="http://www.w3.org/2000/svg" xmlns:xlink="http://www.w3.org/1999/xlink" x="0px" y="0px"
	 viewBox="0 0 18 18" enable-background="new 0 0 18 18" xml:space="preserve">
<g id="Layer_1">
	<path d="M3,8.9l-3,3V9.1l3-3L5.9,9l-1.4,1.4L3,8.9z M10.6,10.5l1.4,1.4l3-3l3,3V9.1l-3-3L10.6,10.5z M16.3,0.3l-16,16l1.4,1.4
		l16-16L16.3,0.3z"/>
</g>
<g id="Layer_2" display="none">
	<g display="inline">
		<polygon fill="#ED1C24" points="4.5,10.4 5.9,9 3,6.1 0,9.1 0,11.9 3,8.9 		"/>
		<polygon fill="#ED1C24" points="10.6,10.5 12,11.9 15,8.9 18,11.9 18,9.1 15,6.1 		"/>
	</g>
	<line display="inline" fill="none" stroke="#ED1C24" stroke-width="2" stroke-miterlimit="10" x1="1" y1="17" x2="17" y2="1"/>
</g>
</svg>
