<?xml version="1.0" encoding="utf-8"?>
<!-- Generator: Adobe Illustrator 20.0.0, SVG Export Plug-In . SVG Version: 6.00 Build 0)  -->
<!DOCTYPE svg PUBLIC "-//W3C//DTD SVG 1.1//EN" "http://www.w3.org/Graphics/SVG/1.1/DTD/svg11.dtd">
<svg version="1.1" xmlns="http://www.w3.org/2000/svg" xmlns:xlink="http://www.w3.org/1999/xlink" x="0px" y="0px"
	 viewBox="0 0 18 18" enable-background="new 0 0 18 18" xml:space="preserve">
<g id="Layer_1">
	<path d="M0,2V0h2C2,1.1,1.1,2,0,2z M6,0H4c0,2.2-1.8,4-4,4v2C3.3,6,6,3.3,6,0z M10,0H8c0,4.4-3.6,8-8,8v2C5.5,10,10,5.5,10,0z
		 M14,0h-2c0,6.6-5.4,12-12,12v2C7.7,14,14,7.7,14,0z"/>
</g>
<g id="Layer_2" display="none">
	<path display="inline" fill="#ED1C24" d="M0,2V0h2C2,1.1,1.1,2,0,2z M6,0H4c0,2.2-1.8,4-4,4v2C3.3,6,6,3.3,6,0z M10,0H8
		c0,4.4-3.6,8-8,8v2C5.5,10,10,5.5,10,0z M14,0h-2c0,6.6-5.4,12-12,12v2C7.7,14,14,7.7,14,0z"/>
</g>
</svg>
