<?xml version="1.0" encoding="utf-8"?>
<!-- Generator: Adobe Illustrator 21.0.2, SVG Export Plug-In . SVG Version: 6.00 Build 0)  -->
<!DOCTYPE svg PUBLIC "-//W3C//DTD SVG 1.1//EN" "http://www.w3.org/Graphics/SVG/1.1/DTD/svg11.dtd">
<svg version="1.1" xmlns="http://www.w3.org/2000/svg" xmlns:xlink="http://www.w3.org/1999/xlink" x="0px" y="0px"
	 viewBox="0 0 18 18" enable-background="new 0 0 18 18" xml:space="preserve">
<g id="Layer_1">
	<path d="M10,2H8V0h2V2z M4.8,3.3L3.3,1.9L1.9,3.3l1.4,1.4L4.8,3.3z M18,8h-2v2h2V8z M2,8H0v2h2V8z M16.1,3.3l-1.4-1.4l-1.4,1.4
		l1.4,1.4L16.1,3.3z M16,16v2H2v-2h2V9c0-2.8,2.2-5,5-5s5,2.2,5,5v7H16z M12,9c0-1.7-1.3-3-3-3S6,7.3,6,9v7h6V9z"/>
</g>
<g id="Layer_2" display="none">
	<line display="inline" fill="none" stroke="#ED1C24" stroke-width="2" stroke-miterlimit="10" x1="9" y1="0" x2="9" y2="2"/>
	
		<line display="inline" fill="none" stroke="#ED1C24" stroke-width="2" stroke-miterlimit="10" x1="2.6" y1="2.6" x2="4.1" y2="4.1"/>
	<line display="inline" fill="none" stroke="#ED1C24" stroke-width="2" stroke-miterlimit="10" x1="16" y1="9" x2="18" y2="9"/>
	<line display="inline" fill="none" stroke="#ED1C24" stroke-width="2" stroke-miterlimit="10" x1="0" y1="9" x2="2" y2="9"/>
	<line display="inline" fill="none" stroke="#ED1C24" stroke-width="2" stroke-miterlimit="10" x1="14" y1="17" x2="16" y2="17"/>
	<line display="inline" fill="none" stroke="#ED1C24" stroke-width="2" stroke-miterlimit="10" x1="2" y1="17" x2="4" y2="17"/>
	
		<line display="inline" fill="none" stroke="#ED1C24" stroke-width="2" stroke-miterlimit="10" x1="13.9" y1="4.1" x2="15.4" y2="2.6"/>
	<path display="inline" fill="none" stroke="#ED1C24" stroke-width="2" stroke-miterlimit="10" d="M9,5C6.8,5,5,6.8,5,9v8h8V9
		C13,6.8,11.2,5,9,5z"/>
</g>
</svg>
