<?xml version="1.0" encoding="utf-8"?>
<!-- Generator: Adobe Illustrator 20.1.0, SVG Export Plug-In . SVG Version: 6.00 Build 0)  -->
<!DOCTYPE svg PUBLIC "-//W3C//DTD SVG 1.1//EN" "http://www.w3.org/Graphics/SVG/1.1/DTD/svg11.dtd">
<svg version="1.1" xmlns="http://www.w3.org/2000/svg" xmlns:xlink="http://www.w3.org/1999/xlink" x="0px" y="0px"
	 viewBox="0 0 18 18" enable-background="new 0 0 18 18" xml:space="preserve">
<g id="Layer_1">
	<path d="M14,9c0,0.6-0.4,1-1,1s-1-0.4-1-1V8h-2v1c0,0.6-0.4,1-1,1S8,9.6,8,9V8H6v1c0,0.6-0.4,1-1,1S4,9.6,4,9V8H0v2h2.2
		c0.4,1.2,1.5,2,2.8,2c0.8,0,1.5-0.3,2-0.8C7.5,11.7,8.2,12,9,12s1.5-0.3,2-0.8c0.5,0.5,1.2,0.8,2,0.8c1.3,0,2.4-0.8,2.8-2H18V8h-4
		V9z"/>
</g>
<g id="Layer_2" display="none">
	<path display="inline" fill="none" stroke="#ED1C24" stroke-width="2" stroke-miterlimit="10" d="M0,9h3c0,1.1,0.9,2,2,2s2-0.9,2-2
		V8v1c0,1.1,0.9,2,2,2s2-0.9,2-2V8v1c0,1.1,0.9,2,2,2s2-0.9,2-2h3"/>
</g>
</svg>
