<?xml version="1.0" encoding="utf-8"?>
<!-- Generator: Adobe Illustrator 21.0.0, SVG Export Plug-In . SVG Version: 6.00 Build 0)  -->
<!DOCTYPE svg PUBLIC "-//W3C//DTD SVG 1.1//EN" "http://www.w3.org/Graphics/SVG/1.1/DTD/svg11.dtd">
<svg version="1.1" xmlns="http://www.w3.org/2000/svg" xmlns:xlink="http://www.w3.org/1999/xlink" x="0px" y="0px"
	 viewBox="0 0 18 18" enable-background="new 0 0 18 18" xml:space="preserve">
<g id="Layer_1">
	<path d="M0,8h4v2H0V8z M7,10h4V8H7V10z M14,10h4V8h-4V10z M2,18h2v-6H2V18z M8,18h2v-6H8V18z M14,18h2v-6h-2V18z M8.7,1.7L7.3,0.3
		l-5,5l1.4,1.4L8.7,1.7z M9.7,6.7l5-5l-1.4-1.4l-5,5L9.7,6.7z M15.7,6.7l2-2l-1.4-1.4l-2,2L15.7,6.7z"/>
</g>
<g id="Layer_2" display="none">
	<rect y="8" display="inline" fill="#ED1C24" width="4" height="2"/>
	<rect x="7" y="8" display="inline" fill="#ED1C24" width="4" height="2"/>
	<rect x="14" y="8" display="inline" fill="#ED1C24" width="4" height="2"/>
	<rect x="2" y="12" display="inline" fill="#ED1C24" width="2" height="6"/>
	<rect x="8" y="12" display="inline" fill="#ED1C24" width="2" height="6"/>
	<rect x="14" y="12" display="inline" fill="#ED1C24" width="2" height="6"/>
	<line display="inline" fill="none" stroke="#ED1C24" stroke-width="2" stroke-miterlimit="10" x1="3" y1="6" x2="8" y2="1"/>
	<line display="inline" fill="none" stroke="#ED1C24" stroke-width="2" stroke-miterlimit="10" x1="9" y1="6" x2="14" y2="1"/>
	<line display="inline" fill="none" stroke="#ED1C24" stroke-width="2" stroke-miterlimit="10" x1="15" y1="6" x2="17" y2="4"/>
</g>
</svg>
