<?xml version="1.0" encoding="utf-8"?>
<!-- Generator: Adobe Illustrator 21.0.0, SVG Export Plug-In . SVG Version: 6.00 Build 0)  -->
<!DOCTYPE svg PUBLIC "-//W3C//DTD SVG 1.1//EN" "http://www.w3.org/Graphics/SVG/1.1/DTD/svg11.dtd">
<svg version="1.1" xmlns="http://www.w3.org/2000/svg" xmlns:xlink="http://www.w3.org/1999/xlink" x="0px" y="0px"
	 viewBox="0 0 18 18" enable-background="new 0 0 18 18" xml:space="preserve">
<g id="Layer_1">
	<path d="M2,12h2v6H2V12z M8,18h2v-6H8V18z M14,18h2v-6h-2V18z M9,4C7.9,4,7,4.9,7,6s0.9,2,2,2c1.1,0,2-0.9,2-2S10.1,4,9,4z M9,0
		C7.5,0,5.9,0.6,4.8,1.8L0.5,6l4,4H9c-1.1,0-2.1-0.4-2.8-1.2L3.3,6l2.8-2.8C6.9,2.4,7.9,2,9,2s2.1,0.4,2.8,1.2L14.7,6l-2.8,2.8
		C11.1,9.6,10.1,10,9,10h4.5l4-4l-4.2-4.2C12.1,0.6,10.5,0,9,0z"/>
</g>
<g id="Layer_2" display="none">
	<rect x="2" y="12" display="inline" fill="#ED1C24" width="2" height="6"/>
	<rect x="8" y="12" display="inline" fill="#ED1C24" width="2" height="6"/>
	<rect x="14" y="12" display="inline" fill="#ED1C24" width="2" height="6"/>
	<path display="inline" fill="#ED1C24" d="M9,4C7.9,4,7,4.9,7,6s0.9,2,2,2s2-0.9,2-2S10.1,4,9,4L9,4z"/>
	<path display="inline" fill="#ED1C24" d="M9,10c-1.1,0-2.1-0.4-2.8-1.2L3.3,6l2.8-2.8C6.9,2.4,7.9,2,9,2s2.1,0.4,2.8,1.2L14.7,6
		l-2.8,2.8C11.1,9.6,10.1,10,9,10h4.5l4-4l-4.2-4.2C12.1,0.6,10.5,0,9,0C7.5,0,5.9,0.6,4.8,1.8L0.5,6l4,4H9z"/>
</g>
</svg>
