<?xml version="1.0" encoding="utf-8"?>
<!-- Generator: Adobe Illustrator 19.2.1, SVG Export Plug-In . SVG Version: 6.00 Build 0)  -->
<!DOCTYPE svg PUBLIC "-//W3C//DTD SVG 1.1//EN" "http://www.w3.org/Graphics/SVG/1.1/DTD/svg11.dtd">
<svg version="1.1" xmlns="http://www.w3.org/2000/svg" xmlns:xlink="http://www.w3.org/1999/xlink" x="0px" y="0px"
	 viewBox="0 0 18 18" enable-background="new 0 0 18 18" xml:space="preserve">
<g id="Layer_1">
	<path d="M12.5,9.7c1.2-1,2-2.5,2-4.2C14.5,2.5,12,0,9,0C6,0,3.5,2.5,3.5,5.5c0,1.7,0.8,3.2,2,4.2C2.3,11.1,0,14.3,0,18h18
		C18,14.3,15.7,11.1,12.5,9.7z M5.5,5.5C5.5,3.6,7.1,2,9,2s3.5,1.6,3.5,3.5C12.5,7.4,10.9,9,9,9S5.5,7.4,5.5,5.5z M9,11
		c3.2,0,5.8,2.1,6.7,5H2.3C3.2,13.1,5.8,11,9,11z"/>
</g>
<g id="Layer_2" display="none">
	<g display="inline">
		<g>
			<path fill="#ED1C24" d="M9,2c1.9,0,3.5,1.6,3.5,3.5S10.9,9,9,9S5.5,7.4,5.5,5.5S7.1,2,9,2 M9,0C6,0,3.5,2.5,3.5,5.5S6,11,9,11
				s5.5-2.5,5.5-5.5S12,0,9,0L9,0z"/>
		</g>
		<g>
			<path fill="#ED1C24" d="M9,11c3.2,0,5.8,2.1,6.7,5H2.3C3.2,13.1,5.8,11,9,11 M9,9c-5,0-9,4-9,9h18C18,13,14,9,9,9L9,9z"/>
		</g>
	</g>
</g>
</svg>
