<?xml version="1.0" encoding="utf-8"?>
<!-- Generator: Adobe Illustrator 19.2.1, SVG Export Plug-In . SVG Version: 6.00 Build 0)  -->
<!DOCTYPE svg PUBLIC "-//W3C//DTD SVG 1.1//EN" "http://www.w3.org/Graphics/SVG/1.1/DTD/svg11.dtd">
<svg version="1.1" xmlns="http://www.w3.org/2000/svg" xmlns:xlink="http://www.w3.org/1999/xlink" x="0px" y="0px"
	 viewBox="0 0 18 18" enable-background="new 0 0 18 18" xml:space="preserve">
<g id="Layer_1">
	<path d="M9,9l9-9H0L9,9z M9,6.2L4.8,2h8.3L9,6.2z M10,11c0,0.6-0.4,1-1,1c-0.6,0-1-0.4-1-1s0.4-1,1-1C9.6,10,10,10.4,10,11z M10,15
		c0,0.6-0.4,1-1,1c-0.6,0-1-0.4-1-1c0-0.6,0.4-1,1-1C9.6,14,10,14.4,10,15z M6,15c0,0.6-0.4,1-1,1c-0.6,0-1-0.4-1-1c0-0.6,0.4-1,1-1
		C5.6,14,6,14.4,6,15z M14,15c0,0.6-0.4,1-1,1c-0.6,0-1-0.4-1-1c0-0.6,0.4-1,1-1C13.6,14,14,14.4,14,15z M6,13c0-0.6,0.4-1,1-1
		c0.6,0,1,0.4,1,1c0,0.6-0.4,1-1,1C6.4,14,6,13.6,6,13z M10,13c0-0.6,0.4-1,1-1c0.6,0,1,0.4,1,1c0,0.6-0.4,1-1,1
		C10.4,14,10,13.6,10,13z M8,17c0,0.6-0.4,1-1,1c-0.6,0-1-0.4-1-1c0-0.6,0.4-1,1-1C7.6,16,8,16.4,8,17z M4,17c0,0.6-0.4,1-1,1
		c-0.6,0-1-0.4-1-1c0-0.6,0.4-1,1-1C3.6,16,4,16.4,4,17z M12,17c0,0.6-0.4,1-1,1c-0.6,0-1-0.4-1-1c0-0.6,0.4-1,1-1
		C11.6,16,12,16.4,12,17z M16,17c0,0.6-0.4,1-1,1c-0.6,0-1-0.4-1-1c0-0.6,0.4-1,1-1C15.6,16,16,16.4,16,17z"/>
</g>
<g id="Layer_2" display="none">
	<g display="inline">
		<path fill="#ED1C24" d="M13.2,2L9,6.2L4.8,2H13.2 M18,0H0l9,9L18,0L18,0z"/>
	</g>
	<g display="inline">
		<path fill="#ED1C24" d="M9,10c-0.6,0-1,0.4-1,1c0,0.6,0.4,1,1,1s1-0.4,1-1C10,10.4,9.6,10,9,10L9,10z"/>
	</g>
	<g display="inline">
		<path fill="#ED1C24" d="M9,14c-0.6,0-1,0.4-1,1s0.4,1,1,1s1-0.4,1-1S9.6,14,9,14L9,14z"/>
	</g>
	<g display="inline">
		<path fill="#ED1C24" d="M5,14c-0.6,0-1,0.4-1,1s0.4,1,1,1s1-0.4,1-1S5.6,14,5,14L5,14z"/>
	</g>
	<g display="inline">
		<path fill="#ED1C24" d="M13,14c-0.6,0-1,0.4-1,1s0.4,1,1,1s1-0.4,1-1S13.6,14,13,14L13,14z"/>
	</g>
	<g display="inline">
		<path fill="#ED1C24" d="M7,12c-0.6,0-1,0.4-1,1s0.4,1,1,1s1-0.4,1-1S7.6,12,7,12L7,12z"/>
	</g>
	<g display="inline">
		<path fill="#ED1C24" d="M11,12c-0.6,0-1,0.4-1,1s0.4,1,1,1s1-0.4,1-1S11.6,12,11,12L11,12z"/>
	</g>
	<g display="inline">
		<path fill="#ED1C24" d="M7,16c-0.6,0-1,0.4-1,1s0.4,1,1,1s1-0.4,1-1S7.6,16,7,16L7,16z"/>
	</g>
	<g display="inline">
		<path fill="#ED1C24" d="M3,16c-0.6,0-1,0.4-1,1s0.4,1,1,1s1-0.4,1-1S3.6,16,3,16L3,16z"/>
	</g>
	<g display="inline">
		<path fill="#ED1C24" d="M11,16c-0.6,0-1,0.4-1,1s0.4,1,1,1s1-0.4,1-1S11.6,16,11,16L11,16z"/>
	</g>
	<g display="inline">
		<path fill="#ED1C24" d="M15,16c-0.6,0-1,0.4-1,1s0.4,1,1,1s1-0.4,1-1S15.6,16,15,16L15,16z"/>
	</g>
</g>
</svg>
