<?xml version="1.0" encoding="utf-8"?>
<!-- Generator: Adobe Illustrator 19.2.1, SVG Export Plug-In . SVG Version: 6.00 Build 0)  -->
<!DOCTYPE svg PUBLIC "-//W3C//DTD SVG 1.1//EN" "http://www.w3.org/Graphics/SVG/1.1/DTD/svg11.dtd">
<svg version="1.1" xmlns="http://www.w3.org/2000/svg" xmlns:xlink="http://www.w3.org/1999/xlink" x="0px" y="0px"
	 viewBox="0 0 18 18" enable-background="new 0 0 18 18" xml:space="preserve">
<g id="Layer_1">
	<path d="M0,16h4v2h2v-2h6v2h2v-2h4V0H0V16z M2,2h14v12H2V2z M10.5,5c0,0.8-0.7,1.5-1.5,1.5S7.5,5.8,7.5,5S8.2,3.5,9,3.5
		S10.5,4.2,10.5,5z M8,8h2v4H8V8z"/>
</g>
<g id="Layer_2" display="none">
	
		<rect x="1" y="1" display="inline" fill="none" stroke="#ED1C24" stroke-width="2" stroke-miterlimit="10" width="16" height="14"/>
	<line display="inline" fill="none" stroke="#ED1C24" stroke-width="2" stroke-miterlimit="10" x1="5" y1="16" x2="5" y2="18"/>
	<line display="inline" fill="none" stroke="#ED1C24" stroke-width="2" stroke-miterlimit="10" x1="13" y1="16" x2="13" y2="18"/>
	<g display="inline">
		<path fill="#ED1C24" d="M9,3.5C8.2,3.5,7.5,4.2,7.5,5S8.2,6.5,9,6.5s1.5-0.7,1.5-1.5S9.8,3.5,9,3.5L9,3.5z"/>
	</g>
	<line display="inline" fill="none" stroke="#ED1C24" stroke-width="2" stroke-miterlimit="10" x1="9" y1="8" x2="9" y2="12"/>
</g>
</svg>
