<?xml version="1.0" encoding="utf-8"?>
<!-- Generator: Adobe Illustrator 19.2.1, SVG Export Plug-In . SVG Version: 6.00 Build 0)  -->
<!DOCTYPE svg PUBLIC "-//W3C//DTD SVG 1.1//EN" "http://www.w3.org/Graphics/SVG/1.1/DTD/svg11.dtd">
<svg version="1.1" xmlns="http://www.w3.org/2000/svg" xmlns:xlink="http://www.w3.org/1999/xlink" x="0px" y="0px"
	 viewBox="0 0 18 18" enable-background="new 0 0 18 18" xml:space="preserve">
<g id="Layer_1">
	<path d="M9,0.5c0.8,0,1.5,0.7,1.5,1.5c0,0.8-0.7,1.5-1.5,1.5S7.5,2.8,7.5,2C7.5,1.2,8.2,0.5,9,0.5L9,0.5z M10,5H8v13h2V5z"/>
</g>
<g id="Layer_2" display="none">
	<g display="inline">
		<g>
			<path fill="#ED1C24" d="M9,0.5C8.2,0.5,7.5,1.2,7.5,2c0,0.8,0.7,1.5,1.5,1.5s1.5-0.7,1.5-1.5C10.5,1.2,9.8,0.5,9,0.5L9,0.5z"/>
		</g>
		<line fill="none" stroke="#ED1C24" stroke-width="2" stroke-miterlimit="10" x1="9" y1="5" x2="9" y2="18"/>
	</g>
</g>
</svg>
