<?xml version="1.0" encoding="utf-8"?>
<!-- Generator: Adobe Illustrator 19.2.1, SVG Export Plug-In . SVG Version: 6.00 Build 0)  -->
<!DOCTYPE svg PUBLIC "-//W3C//DTD SVG 1.1//EN" "http://www.w3.org/Graphics/SVG/1.1/DTD/svg11.dtd">
<svg version="1.1" xmlns="http://www.w3.org/2000/svg" xmlns:xlink="http://www.w3.org/1999/xlink" x="0px" y="0px"
	 viewBox="0 0 18 18" enable-background="new 0 0 18 18" xml:space="preserve">
<g id="Layer_1">
	<path d="M17.7,16.3L9.2,7.8C9.7,7,10,6,10,5c0-2.8-2.2-5-5-5v2c1.7,0,3,1.3,3,3S6.7,8,5,8S2,6.7,2,5H0c0,2.8,2.2,5,5,5
		c1,0,2-0.3,2.8-0.8l8.5,8.5L17.7,16.3z"/>
</g>
<g id="Layer_2" display="none">
	<g display="inline">
		<line fill="none" stroke="#ED1C24" stroke-width="2" stroke-miterlimit="10" x1="17" y1="17" x2="8" y2="8"/>
		<path fill="none" stroke="#ED1C24" stroke-width="2" stroke-miterlimit="10" d="M5,1c2.2,0,4,1.8,4,4S7.2,9,5,9S1,7.2,1,5"/>
	</g>
</g>
</svg>
