<?xml version="1.0" encoding="utf-8"?>
<!-- Generator: Adobe Illustrator 19.2.1, SVG Export Plug-In . SVG Version: 6.00 Build 0)  -->
<!DOCTYPE svg PUBLIC "-//W3C//DTD SVG 1.1//EN" "http://www.w3.org/Graphics/SVG/1.1/DTD/svg11.dtd">
<svg version="1.1" xmlns="http://www.w3.org/2000/svg" xmlns:xlink="http://www.w3.org/1999/xlink" x="0px" y="0px"
	 viewBox="0 0 18 18" enable-background="new 0 0 18 18" xml:space="preserve">
<g id="Layer_1">
	<path d="M17.2,6.8c1.1,2.7,1.1,5.7,0,8.4l-1.8-0.8c0.9-2.2,0.9-4.7,0-6.9L17.2,6.8z M12.6,6.8C13.5,8,14,9.4,14,11c0,3.9-3.1,7-7,7
		s-7-3.1-7-7s3.1-7,7-7c1.6,0,3,0.5,4.2,1.4l5.1-5.1l1.4,1.4L12.6,6.8z M11.2,8.2L7,12.4L4.1,9.5l1.4-1.4L7,9.6l2.8-2.8
		C9,6.3,8,6,7,6c-2.8,0-5,2.2-5,5s2.2,5,5,5s5-2.2,5-5C12,10,11.7,9,11.2,8.2z"/>
</g>
<g id="Layer_2" display="none">
	<circle display="inline" fill="none" stroke="#ED1C24" stroke-width="2" stroke-miterlimit="10" cx="7" cy="11" r="6"/>
	<path display="inline" fill="none" stroke="#ED1C24" stroke-width="2" stroke-miterlimit="10" d="M16.2,14.8c1-2.4,1.1-5.1,0-7.7"
		/>
	<polyline display="inline" fill="none" stroke="#ED1C24" stroke-width="2" stroke-miterlimit="10" points="17,1 7,11 4.8,8.8 	"/>
</g>
</svg>
