<?xml version="1.0" encoding="utf-8"?>
<!-- Generator: Adobe Illustrator 20.0.0, SVG Export Plug-In . SVG Version: 6.00 Build 0)  -->
<!DOCTYPE svg PUBLIC "-//W3C//DTD SVG 1.1//EN" "http://www.w3.org/Graphics/SVG/1.1/DTD/svg11.dtd">
<svg version="1.1" xmlns="http://www.w3.org/2000/svg" xmlns:xlink="http://www.w3.org/1999/xlink" x="0px" y="0px"
	 viewBox="0 0 18 18" enable-background="new 0 0 18 18" xml:space="preserve">
<g id="Layer_1">
	<g>
		<rect x="4" y="16" width="10" height="2"/>
		<ellipse cx="6" cy="10" rx="1" ry="1"/>
		<ellipse cx="12" cy="10" rx="1" ry="1"/>
		<path d="M13,0H5C3.3,0,2,1.3,2,3v8c0,1.7,1.3,3,3,3h8c1.7,0,3-1.3,3-3V3C16,1.3,14.7,0,13,0z M5,2h8c0.6,0,1,0.4,1,1v3H4V3
			C4,2.4,4.4,2,5,2z M13,12H5c-0.6,0-1-0.4-1-1V8h10v3C14,11.6,13.6,12,13,12z"/>
	</g>
</g>
<g id="Layer_2" display="none">
	<line display="inline" fill="none" stroke="#ED1C24" stroke-width="2" stroke-miterlimit="10" x1="3" y1="7" x2="15" y2="7"/>
	<line display="inline" fill="none" stroke="#ED1C24" stroke-width="2" stroke-miterlimit="10" x1="14" y1="17" x2="4" y2="17"/>
	<g display="inline">
		<path fill="#ED1C24" d="M6,9c-0.6,0-1,0.4-1,1s0.4,1,1,1s1-0.4,1-1S6.6,9,6,9L6,9z"/>
	</g>
	<g display="inline">
		<path fill="#ED1C24" d="M12,9c-0.6,0-1,0.4-1,1s0.4,1,1,1s1-0.4,1-1S12.6,9,12,9L12,9z"/>
	</g>
	<path display="inline" fill="none" stroke="#ED1C24" stroke-width="2" stroke-miterlimit="10" d="M13,13H5c-1.1,0-2-0.9-2-2V3
		c0-1.1,0.9-2,2-2h8c1.1,0,2,0.9,2,2v8C15,12.1,14.1,13,13,13z"/>
</g>
</svg>
