<?xml version="1.0" encoding="utf-8"?>
<!-- Generator: Adobe Illustrator 20.1.0, SVG Export Plug-In . SVG Version: 6.00 Build 0)  -->
<!DOCTYPE svg PUBLIC "-//W3C//DTD SVG 1.1//EN" "http://www.w3.org/Graphics/SVG/1.1/DTD/svg11.dtd">
<svg version="1.1" xmlns="http://www.w3.org/2000/svg" xmlns:xlink="http://www.w3.org/1999/xlink" x="0px" y="0px"
	 viewBox="0 0 18 18" enable-background="new 0 0 18 18" xml:space="preserve">
<g id="Layer_1">
	<path d="M8,14h10v2h-8v2H0v-2h8V14z M14.9,5H18v2h-3.1C14.4,9.8,12,12,9,12S3.6,9.8,3.1,7H0V5h3.1C3.6,2.2,6,0,9,0S14.4,2.2,14.9,5
		z M12.9,7H10V5h2.9c-0.4-1.7-2-3-3.9-3S5.6,3.3,5.1,5H8v2H5.1c0.4,1.7,2,3,3.9,3S12.4,8.7,12.9,7z"/>
</g>
<g id="Layer_2" display="none">
	<polyline display="inline" fill="none" stroke="#ED1C24" stroke-width="2" stroke-miterlimit="10" points="0,17 9,17 9,15 18,15 	
		"/>
	<circle display="inline" fill="none" stroke="#ED1C24" stroke-width="2" stroke-miterlimit="10" cx="9" cy="6" r="5"/>
	<line display="inline" fill="none" stroke="#ED1C24" stroke-width="2" stroke-miterlimit="10" x1="10" y1="6" x2="18" y2="6"/>
	<line display="inline" fill="none" stroke="#ED1C24" stroke-width="2" stroke-miterlimit="10" x1="0" y1="6" x2="8" y2="6"/>
</g>
</svg>
