<?xml version="1.0" encoding="utf-8"?>
<!-- Generator: Adobe Illustrator 21.0.0, SVG Export Plug-In . SVG Version: 6.00 Build 0)  -->
<!DOCTYPE svg PUBLIC "-//W3C//DTD SVG 1.1//EN" "http://www.w3.org/Graphics/SVG/1.1/DTD/svg11.dtd">
<svg version="1.1" xmlns="http://www.w3.org/2000/svg" xmlns:xlink="http://www.w3.org/1999/xlink" x="0px" y="0px"
	 viewBox="0 0 18 18" enable-background="new 0 0 18 18" xml:space="preserve">
<g id="Layer_1">
	<path d="M9,14c2.8,0,5-2.2,5-5c0-1-0.3-2-0.8-2.8l4.5-4.5l-1.4-1.4l-4.5,4.5C11,4.3,10,4,9,4C6.2,4,4,6.2,4,9S6.2,14,9,14z M12,9
		c0,1.7-1.3,3-3,3c-0.5,0-0.9-0.1-1.3-0.3l4-4C11.9,8.1,12,8.5,12,9z M9,6c0.5,0,0.9,0.1,1.3,0.3l-4,4C6.1,9.9,6,9.5,6,9
		C6,7.3,7.3,6,9,6z M18,9c0,5-4,9-9,9s-9-4-9-9h2c0,3.9,3.1,7,7,7s7-3.1,7-7H18z"/>
</g>
<g id="Layer_2" display="none">
	<circle display="inline" fill="none" stroke="#ED1C24" stroke-width="2" stroke-miterlimit="10" cx="9" cy="9" r="4"/>
	<path display="inline" fill="none" stroke="#ED1C24" stroke-width="2" stroke-miterlimit="10" d="M17,9c0,4.4-3.6,8-8,8s-8-3.6-8-8
		"/>
	<line display="inline" fill="none" stroke="#ED1C24" stroke-width="2" stroke-miterlimit="10" x1="17" y1="1" x2="6" y2="12"/>
</g>
</svg>
