<?xml version="1.0" encoding="utf-8"?>
<!-- Generator: Adobe Illustrator 20.0.0, SVG Export Plug-In . SVG Version: 6.00 Build 0)  -->
<!DOCTYPE svg PUBLIC "-//W3C//DTD SVG 1.1//EN" "http://www.w3.org/Graphics/SVG/1.1/DTD/svg11.dtd">
<svg version="1.1" xmlns="http://www.w3.org/2000/svg" xmlns:xlink="http://www.w3.org/1999/xlink" x="0px" y="0px"
	 viewBox="0 0 18 18" enable-background="new 0 0 18 18" xml:space="preserve">
<g id="Layer_1">
	<path d="M12,2l4,4V12l-4,4H6l-4-4V6l4-4H12 M12.8,0H5.2L0,5.2v7.6L5.2,18h7.6l5.2-5.2V5.2L12.8,0L12.8,0z"/>
</g>
<g id="Layer_2" display="none">
	<path display="inline" fill="#ED1C24" d="M12,2l4,4V12l-4,4H6l-4-4V6l4-4H12 M12.8,0H5.2L0,5.2v7.6L5.2,18h7.6l5.2-5.2V5.2L12.8,0
		L12.8,0z"/>
</g>
</svg>
