<?xml version="1.0" encoding="utf-8"?>
<!-- Generator: Adobe Illustrator 20.1.0, SVG Export Plug-In . SVG Version: 6.00 Build 0)  -->
<!DOCTYPE svg PUBLIC "-//W3C//DTD SVG 1.1//EN" "http://www.w3.org/Graphics/SVG/1.1/DTD/svg11.dtd">
<svg version="1.1" xmlns="http://www.w3.org/2000/svg" xmlns:xlink="http://www.w3.org/1999/xlink" x="0px" y="0px"
	 viewBox="0 0 18 18" enable-background="new 0 0 18 18" xml:space="preserve">
<g id="Layer_1">
	<path d="M14,7c0-1.7-2.1-3-5-3S4,5.3,4,7v5H0v2h18v-2h-4V7z M9,6c1.9,0,3,0.8,3,1s-1.1,1-3,1S6,7.2,6,7S7.1,6,9,6z M6,9.4
		C6.8,9.8,7.9,10,9,10s2.2-0.2,3-0.6V12H6V9.4z"/>
</g>
<g id="Layer_2" display="none">
	<ellipse display="inline" fill="none" stroke="#ED1C24" stroke-width="2" stroke-miterlimit="10" cx="9" cy="7" rx="4" ry="2"/>
	<line display="inline" fill="none" stroke="#ED1C24" stroke-width="2" stroke-miterlimit="10" x1="0" y1="13" x2="18" y2="13"/>
	<line display="inline" fill="none" stroke="#ED1C24" stroke-width="2" stroke-miterlimit="10" x1="5" y1="7" x2="5" y2="13"/>
	<line display="inline" fill="none" stroke="#ED1C24" stroke-width="2" stroke-miterlimit="10" x1="13" y1="7" x2="13" y2="13"/>
</g>
</svg>
