<?xml version="1.0" encoding="utf-8"?>
<!-- Generator: Adobe Illustrator 19.2.1, SVG Export Plug-In . SVG Version: 6.00 Build 0)  -->
<!DOCTYPE svg PUBLIC "-//W3C//DTD SVG 1.1//EN" "http://www.w3.org/Graphics/SVG/1.1/DTD/svg11.dtd">
<svg version="1.1" xmlns="http://www.w3.org/2000/svg" xmlns:xlink="http://www.w3.org/1999/xlink" x="0px" y="0px"
	 viewBox="0 0 18 18" enable-background="new 0 0 18 18" xml:space="preserve">
<g id="Layer_1">
	<path d="M14,4V0h-2v4H6V0H4v4H0v14h18V4H14z M16,6v2h-2V6H16z M6,10h2v2H6V10z M4,12H2v-2h2V12z M8,14v2H6v-2H8z M10,14h2v2h-2V14z
		 M10,12v-2h2v2H10z M14,10h2v2h-2V10z M12,8h-2V6h2V8z M8,6v2H6V6H8z M4,6v2H2V6H4z M2,14h2v2H2V14z M14,16v-2h2v2H14z"/>
</g>
<g id="Layer_2" display="none">
	<g display="inline">
		<rect x="1" y="5" fill="none" stroke="#ED1C24" stroke-width="2" stroke-miterlimit="10" width="16" height="12"/>
		<line fill="none" stroke="#ED1C24" stroke-width="2" stroke-miterlimit="10" x1="5" y1="0" x2="5" y2="17"/>
		<line fill="none" stroke="#ED1C24" stroke-width="2" stroke-miterlimit="10" x1="9" y1="5" x2="9" y2="17"/>
		<line fill="none" stroke="#ED1C24" stroke-width="2" stroke-miterlimit="10" x1="13" y1="0" x2="13" y2="17"/>
		<line fill="none" stroke="#ED1C24" stroke-width="2" stroke-miterlimit="10" x1="1" y1="9" x2="17" y2="9"/>
		<line fill="none" stroke="#ED1C24" stroke-width="2" stroke-miterlimit="10" x1="1" y1="13" x2="17" y2="13"/>
	</g>
</g>
</svg>
