<?xml version="1.0" encoding="utf-8"?>
<!-- Generator: Adobe Illustrator 19.2.1, SVG Export Plug-In . SVG Version: 6.00 Build 0)  -->
<!DOCTYPE svg PUBLIC "-//W3C//DTD SVG 1.1//EN" "http://www.w3.org/Graphics/SVG/1.1/DTD/svg11.dtd">
<svg version="1.1" xmlns="http://www.w3.org/2000/svg" xmlns:xlink="http://www.w3.org/1999/xlink" x="0px" y="0px"
	 viewBox="0 0 18 18" enable-background="new 0 0 18 18" xml:space="preserve">
<g id="Layer_1">
	<path d="M9,4C6.2,4,4,6.2,4,9s2.2,5,5,5s5-2.2,5-5S11.8,4,9,4z M9,12c-1.7,0-3-1.3-3-3s1.3-3,3-3s3,1.3,3,3S10.7,12,9,12z M12.4,0
		H5.6l-2,2H0v16h18V2h-3.6L12.4,0z M16,16H2V4h2.4l2-2h5.2l2,2H16V16z"/>
</g>
<g id="Layer_2" display="none">
	<circle display="inline" fill="none" stroke="#ED1C24" stroke-width="2" stroke-miterlimit="10" cx="9" cy="9" r="4"/>
	<polygon display="inline" fill="none" stroke="#ED1C24" stroke-width="2" stroke-miterlimit="10" points="1,17 17,17 17,3 14,3 
		12,1 6,1 4,3 1,3 	"/>
</g>
</svg>
