<?xml version="1.0" encoding="utf-8"?>
<!-- Generator: Adobe Illustrator 19.2.1, SVG Export Plug-In . SVG Version: 6.00 Build 0)  -->
<!DOCTYPE svg PUBLIC "-//W3C//DTD SVG 1.1//EN" "http://www.w3.org/Graphics/SVG/1.1/DTD/svg11.dtd">
<svg version="1.1" xmlns="http://www.w3.org/2000/svg" xmlns:xlink="http://www.w3.org/1999/xlink" x="0px" y="0px"
	 viewBox="0 0 18 18" enable-background="new 0 0 18 18" xml:space="preserve">
<g id="Layer_1">
	<path d="M9,7.5c0.8,0,1.5,0.7,1.5,1.5S9.8,10.5,9,10.5S7.5,9.8,7.5,9S8.2,7.5,9,7.5L9,7.5z M10,3H8v4h2V3z M14.8,2H3.2L9,13.5
		L14.8,2 M18,0L9,18L0,0H18L18,0z"/>
</g>
<g id="Layer_2" display="none">
	<g display="inline">
		<g>
			<path fill="#ED1C24" d="M9,7.5C8.2,7.5,7.5,8.2,7.5,9s0.7,1.5,1.5,1.5s1.5-0.7,1.5-1.5S9.8,7.5,9,7.5L9,7.5z"/>
		</g>
		<line fill="none" stroke="#ED1C24" stroke-width="2" stroke-miterlimit="10" x1="9" y1="7" x2="9" y2="3"/>
		<g>
			<path fill="#ED1C24" d="M14.8,2L9,13.5L3.2,2H14.8 M18,0H0l9,18L18,0L18,0z"/>
		</g>
	</g>
</g>
</svg>
