<?xml version="1.0" encoding="utf-8"?>
<!-- Generator: Adobe Illustrator 21.0.2, SVG Export Plug-In . SVG Version: 6.00 Build 0)  -->
<!DOCTYPE svg PUBLIC "-//W3C//DTD SVG 1.1//EN" "http://www.w3.org/Graphics/SVG/1.1/DTD/svg11.dtd">
<svg version="1.1" xmlns="http://www.w3.org/2000/svg" xmlns:xlink="http://www.w3.org/1999/xlink" x="0px" y="0px"
	 viewBox="0 0 18 18" enable-background="new 0 0 18 18" xml:space="preserve">
<g id="Layer_1">
	<path d="M12,0L6,3L0,0v15l6,3l6-3l6,3V3L12,0z M7,4.7l4-2v10.5l-4,2V4.7z M2,3.2l3,1.5v10.5l-3-1.5V3.2z M16,14.8l-3-1.5V2.7l3,1.5
		V14.8z"/>
</g>
<g id="Layer_2" display="none">
	<g display="inline">
		<path fill="#ED1C24" d="M12,2.2l4,2v10.5l-3.1-1.6L12,12.8l-0.9,0.4L6,15.8l-4-2V3.2l3.1,1.6L6,5.2l0.9-0.4L12,2.2 M12,0L6,3L0,0
			v15l6,3l6-3l6,3V3L12,0L12,0z"/>
	</g>
	<g display="inline">
		<line fill="none" stroke="#ED1C24" stroke-width="2" stroke-miterlimit="10" x1="6" y1="4" x2="6" y2="17"/>
	</g>
	<g display="inline">
		<line fill="none" stroke="#ED1C24" stroke-width="2" stroke-miterlimit="10" x1="12" y1="1" x2="12" y2="14"/>
	</g>
</g>
</svg>
