<?xml version="1.0" encoding="utf-8"?>
<!-- Generator: Adobe Illustrator 21.0.2, SVG Export Plug-In . SVG Version: 6.00 Build 0)  -->
<!DOCTYPE svg PUBLIC "-//W3C//DTD SVG 1.1//EN" "http://www.w3.org/Graphics/SVG/1.1/DTD/svg11.dtd">
<svg version="1.1" xmlns="http://www.w3.org/2000/svg" xmlns:xlink="http://www.w3.org/1999/xlink" x="0px" y="0px"
	 viewBox="0 0 18 18" enable-background="new 0 0 18 18" xml:space="preserve">
<g id="Layer_1">
	<path d="M14,1c0,0.6-0.4,1-1,1s-1-0.4-1-1V0H6.6L5,1.6L3.4,0H0v2h2.6L5,4.4l1.5-1.5L7.6,4l-3,3l4,4l-4.3,4.3l1.4,1.4L8,14.4
		l3.3,3.3l1.4-1.4L9.4,13l2-2l-4-4l3-3l-2-2h1.8c0.4,1.2,1.5,2,2.8,2s2.4-0.8,2.8-2H18V0h-4V1z"/>
</g>
<g id="Layer_2" display="none">
	<path display="inline" fill="none" stroke="#ED1C24" stroke-width="2" stroke-miterlimit="10" d="M0,1h3l2,2l2-2h4c0,1.1,0.9,2,2,2
		s2-0.9,2-2h3"/>
	<polyline display="inline" fill="none" stroke="#ED1C24" stroke-width="2" stroke-miterlimit="10" points="5,16 10,11 6,7 9,4 7,2 
			"/>
	<line display="inline" fill="none" stroke="#ED1C24" stroke-width="2" stroke-miterlimit="10" x1="8" y1="13" x2="12" y2="17"/>
</g>
</svg>
