<?xml version="1.0" encoding="utf-8"?>
<!-- Generator: Adobe Illustrator 19.2.1, SVG Export Plug-In . SVG Version: 6.00 Build 0)  -->
<!DOCTYPE svg PUBLIC "-//W3C//DTD SVG 1.1//EN" "http://www.w3.org/Graphics/SVG/1.1/DTD/svg11.dtd">
<svg version="1.1" xmlns="http://www.w3.org/2000/svg" xmlns:xlink="http://www.w3.org/1999/xlink" x="0px" y="0px"
	 viewBox="0 0 18 18" enable-background="new 0 0 18 18" xml:space="preserve">
<g id="Layer_1">
	<path d="M9,0C6.2,0,3.7,1.3,2,3.3V1H0v6h6V5H3.3C4.6,3.1,6.7,2,9,2c3.9,0,7,3.1,7,7s-3.1,7-7,7s-7-3.1-7-7H0c0,5,4,9,9,9s9-4,9-9
		S14,0,9,0z"/>
</g>
<g id="Layer_2" display="none">
	<g display="inline">
		<polyline fill="none" stroke="#ED1C24" stroke-width="2" stroke-miterlimit="10" points="1,1 1,6 6,6 		"/>
		<path fill="none" stroke="#ED1C24" stroke-width="2" stroke-miterlimit="10" d="M1,9c0,4.4,3.6,8,8,8s8-3.6,8-8s-3.6-8-8-8
			C5.6,1,2.8,3.1,1.6,6"/>
	</g>
</g>
</svg>
