<?xml version="1.0" encoding="utf-8"?>
<!-- Generator: Adobe Illustrator 19.2.1, SVG Export Plug-In . SVG Version: 6.00 Build 0)  -->
<!DOCTYPE svg PUBLIC "-//W3C//DTD SVG 1.1//EN" "http://www.w3.org/Graphics/SVG/1.1/DTD/svg11.dtd">
<svg version="1.1" xmlns="http://www.w3.org/2000/svg" xmlns:xlink="http://www.w3.org/1999/xlink" x="0px" y="0px"
	 viewBox="0 0 18 18" enable-background="new 0 0 18 18" xml:space="preserve">
<g id="Layer_1">
	<path d="M12,7h6V1h-2v2.3C14.3,1.3,11.8,0,9,0C4,0,0,4,0,9s4,9,9,9s9-4,9-9h-2c0,3.9-3.1,7-7,7s-7-3.1-7-7s3.1-7,7-7
		c2.3,0,4.4,1.1,5.7,3H12V7z"/>
</g>
<g id="Layer_2" display="none">
	<g display="inline">
		<polyline fill="none" stroke="#ED1C24" stroke-width="2" stroke-miterlimit="10" points="17,1 17,6 12,6 		"/>
		<path fill="none" stroke="#ED1C24" stroke-width="2" stroke-miterlimit="10" d="M17,9c0,4.4-3.6,8-8,8s-8-3.6-8-8s3.6-8,8-8
			c3.4,0,6.2,2.1,7.4,5"/>
	</g>
</g>
</svg>
