<?xml version="1.0" encoding="utf-8"?>
<!-- Generator: Adobe Illustrator 21.0.0, SVG Export Plug-In . SVG Version: 6.00 Build 0)  -->
<!DOCTYPE svg PUBLIC "-//W3C//DTD SVG 1.1//EN" "http://www.w3.org/Graphics/SVG/1.1/DTD/svg11.dtd">
<svg version="1.1" xmlns="http://www.w3.org/2000/svg" xmlns:xlink="http://www.w3.org/1999/xlink" x="0px" y="0px"
	 viewBox="0 0 18 18" enable-background="new 0 0 18 18" xml:space="preserve">
<g id="Layer_1">
	<path d="M9,6.8l3,3V12H6V9.8L9,6.8 M9,4L4,9v5h10V9L9,4L9,4z M18,15h-2v1h-1v2h3V15z M11,16H7v2h4V16z M3,16H2v-1H0v3h3V16z M2,7H0
		v4h2V7z M2,2h1V0H0v3h2V2z M11,0H7v2h4V0z M18,0h-3v2h1v1h2V0z M18,7h-2v4h2V7z"/>
</g>
<g id="Layer_2" display="none">
	<g display="inline">
		<path fill="#00A651" d="M9,6.8l3,3V12H6V9.8L9,6.8 M9,4L4,9v5h10V9L9,4L9,4z"/>
	</g>
	<g display="inline">
		<g>
			<polyline fill="none" stroke="#00A651" stroke-width="2" stroke-miterlimit="10" points="17,15 17,17 15,17 			"/>
			
				<line fill="none" stroke="#00A651" stroke-width="2" stroke-miterlimit="10" stroke-dasharray="4,4" x1="11" y1="17" x2="5" y2="17"/>
			<polyline fill="none" stroke="#00A651" stroke-width="2" stroke-miterlimit="10" points="3,17 1,17 1,15 			"/>
			
				<line fill="none" stroke="#00A651" stroke-width="2" stroke-miterlimit="10" stroke-dasharray="4,4" x1="1" y1="11" x2="1" y2="5"/>
			<polyline fill="none" stroke="#00A651" stroke-width="2" stroke-miterlimit="10" points="1,3 1,1 3,1 			"/>
			
				<line fill="none" stroke="#00A651" stroke-width="2" stroke-miterlimit="10" stroke-dasharray="4,4" x1="7" y1="1" x2="13" y2="1"/>
			<polyline fill="none" stroke="#00A651" stroke-width="2" stroke-miterlimit="10" points="15,1 17,1 17,3 			"/>
			
				<line fill="none" stroke="#00A651" stroke-width="2" stroke-miterlimit="10" stroke-dasharray="4,4" x1="17" y1="7" x2="17" y2="13"/>
		</g>
	</g>
</g>
</svg>
