<?xml version="1.0" encoding="utf-8"?>
<!-- Generator: Adobe Illustrator 19.2.1, SVG Export Plug-In . SVG Version: 6.00 Build 0)  -->
<!DOCTYPE svg PUBLIC "-//W3C//DTD SVG 1.1//EN" "http://www.w3.org/Graphics/SVG/1.1/DTD/svg11.dtd">
<svg version="1.1" xmlns="http://www.w3.org/2000/svg" xmlns:xlink="http://www.w3.org/1999/xlink" x="0px" y="0px"
	 viewBox="0 0 18 18" enable-background="new 0 0 18 18" xml:space="preserve">
<g id="Layer_1">
	<path d="M4.3,9.7L5.6,11l-1.3,1.3l0,0C3.9,12.1,3.5,12,3,12c-1.7,0-3,1.3-3,3s1.3,3,3,3s3-1.3,3-3c0-0.5-0.1-0.9-0.3-1.3l0,0
		L7,12.4l1.3,1.3l1.4-1.4l-4-4L4.3,9.7z M3,16c-0.6,0-1-0.4-1-1s0.4-1,1-1s1,0.4,1,1S3.6,16,3,16z M13.7,8.3L12.4,7l1.3-1.3l0,0
		C14.1,5.9,14.5,6,15,6c1.7,0,3-1.3,3-3s-1.3-3-3-3s-3,1.3-3,3c0,0.5,0.1,0.9,0.3,1.3l0,0L11,5.6L9.7,4.3L8.3,5.7l4,4L13.7,8.3z
		 M15,2c0.6,0,1,0.4,1,1s-0.4,1-1,1s-1-0.4-1-1S14.4,2,15,2z M12,14h6v2h-6V14z"/>
</g>
<g id="Layer_2" display="none">
	<circle display="inline" fill="none" stroke="#ED1C24" stroke-width="2" stroke-miterlimit="10" cx="3" cy="15" r="2"/>
	<circle display="inline" fill="none" stroke="#ED1C24" stroke-width="2" stroke-miterlimit="10" cx="15" cy="3" r="2"/>
	<line display="inline" fill="none" stroke="#ED1C24" stroke-width="2" stroke-miterlimit="10" x1="11" y1="7" x2="13" y2="5"/>
	<line display="inline" fill="none" stroke="#ED1C24" stroke-width="2" stroke-miterlimit="10" x1="5" y1="13" x2="7" y2="11"/>
	<line display="inline" fill="none" stroke="#ED1C24" stroke-width="2" stroke-miterlimit="10" x1="5" y1="9" x2="9" y2="13"/>
	<line display="inline" fill="none" stroke="#ED1C24" stroke-width="2" stroke-miterlimit="10" x1="9" y1="5" x2="13" y2="9"/>
	<line display="inline" fill="none" stroke="#ED1C24" stroke-width="2" stroke-miterlimit="10" x1="18" y1="15" x2="12" y2="15"/>
</g>
</svg>
