<?xml version="1.0" encoding="utf-8"?>
<!-- Generator: Adobe Illustrator 21.0.0, SVG Export Plug-In . SVG Version: 6.00 Build 0)  -->
<!DOCTYPE svg PUBLIC "-//W3C//DTD SVG 1.1//EN" "http://www.w3.org/Graphics/SVG/1.1/DTD/svg11.dtd">
<svg version="1.1" xmlns="http://www.w3.org/2000/svg" xmlns:xlink="http://www.w3.org/1999/xlink" x="0px" y="0px"
	 viewBox="0 0 18 18" enable-background="new 0 0 18 18" xml:space="preserve">
<g id="Layer_1">
	<path d="M16,8c-1.1,0-2-0.9-2-2c0,1.1-0.9,2-2,2s-2-0.9-2-2H6C4.9,6,4,6.9,4,8c0-1.1-0.9-2-2-2H0v2h2v2H0v2h2c1.1,0,2-0.9,2-2
		c0,1.1,0.9,2,2,2h10c1.1,0,2-0.9,2-2V8c0-0.4-0.1-0.7-0.3-1C17.4,7.6,16.7,8,16,8z M12,10H6V8h2.5C9.2,9.2,10.5,10,12,10
		c0.7,0,1.4-0.2,2-0.5c0.6,0.3,1.3,0.5,2,0.5H12z"/>
</g>
<g id="Layer_2" display="none">
	<path display="inline" fill="#ED1C24" d="M8.5,8c0.7,1.2,2,2,3.5,2H6V8H8.5 M14,9.5c0.6,0.3,1.3,0.5,2,0.5h-4
		C12.7,10,13.4,9.8,14,9.5 M14,6c0,1.1-0.9,2-2,2s-2-0.9-2-2H6C4.9,6,4,6.9,4,8v2c0,1.1,0.9,2,2,2h10c1.1,0,2-0.9,2-2V8
		c0-0.4-0.1-0.7-0.3-1c-0.3,0.6-1,1-1.7,1C14.9,8,14,7.1,14,6L14,6z"/>
	<path display="inline" fill="#ED1C24" d="M2,6H0v2h2v2H0v2h2c1.1,0,2-0.9,2-2V8C4,6.9,3.1,6,2,6z"/>
</g>
</svg>
