<?xml version="1.0" encoding="utf-8"?>
<!-- Generator: Adobe Illustrator 21.0.0, SVG Export Plug-In . SVG Version: 6.00 Build 0)  -->
<!DOCTYPE svg PUBLIC "-//W3C//DTD SVG 1.1//EN" "http://www.w3.org/Graphics/SVG/1.1/DTD/svg11.dtd">
<svg version="1.1" xmlns="http://www.w3.org/2000/svg" xmlns:xlink="http://www.w3.org/1999/xlink" x="0px" y="0px"
	 viewBox="0 0 18 18" enable-background="new 0 0 18 18" xml:space="preserve">
<g id="Layer_1">
	<path d="M12.9,17.9c-1.3,0-2.6-0.5-3.5-1.5l1.4-1.4c1.1,1.1,3.1,1.1,4.2,0c0.6-0.6,0.9-1.3,0.9-2.1c0-0.8-0.3-1.6-0.9-2.1L7.2,3
		C6.1,1.9,4.1,1.9,3,3C2.4,3.6,2.1,4.3,2.1,5.1c0,0.8,0.3,1.6,0.9,2.1l4.2,4.2c0.4,0.4,1,0.4,1.4,0c0.4-0.4,0.4-1,0-1.4L5.2,6.6
		l1.4-1.4l3.4,3.4c1.2,1.2,1.2,3.1,0,4.2c-1.2,1.2-3.1,1.2-4.2,0L1.6,8.6C0.6,7.7,0.1,6.4,0.1,5.1c0-1.3,0.5-2.6,1.5-3.5
		c0.9-0.9,2.2-1.5,3.5-1.5c1.3,0,2.6,0.5,3.5,1.5l7.8,7.8c0.9,0.9,1.5,2.2,1.5,3.5c0,1.3-0.5,2.6-1.5,3.5
		C15.5,17.4,14.2,17.9,12.9,17.9z"/>
</g>
<g id="Layer_2" display="none">
	<path display="inline" fill="none" stroke="#ED1C24" stroke-width="2" stroke-miterlimit="10" d="M10.1,15.7c1.6,1.6,4.1,1.6,5.7,0
		s1.6-4.1,0-5.7L7.9,2.3c-1.6-1.6-4.1-1.6-5.7,0s-1.6,4.1,0,5.7l4.2,4.2c0.8,0.8,2,0.8,2.8,0c0.8-0.8,0.8-2,0-2.8L5.9,5.9"/>
</g>
</svg>
