<?xml version="1.0" encoding="utf-8"?>
<!-- Generator: Adobe Illustrator 19.2.1, SVG Export Plug-In . SVG Version: 6.00 Build 0)  -->
<!DOCTYPE svg PUBLIC "-//W3C//DTD SVG 1.1//EN" "http://www.w3.org/Graphics/SVG/1.1/DTD/svg11.dtd">
<svg version="1.1" xmlns="http://www.w3.org/2000/svg" xmlns:xlink="http://www.w3.org/1999/xlink" x="0px" y="0px"
	 viewBox="0 0 18 18" enable-background="new 0 0 18 18" xml:space="preserve">
<g id="Layer_1">
	<path d="M9,9V2C5.1,2,2,5.1,2,9H9v9c-5,0-9-4-9-9s4-9,9-9s9,4,9,9H9z M16,12h-2v2h-2v2h2v2h2v-2h2v-2h-2V12z"/>
</g>
<g id="Layer_2" display="none">
	<path display="inline" fill="none" stroke="#ED1C24" stroke-width="2" stroke-miterlimit="10" d="M9,17c-4.4,0-8-3.6-8-8s3.6-8,8-8
		s8,3.6,8,8"/>
	<g display="inline">
		<path fill="#ED1C24" d="M9,1v8h8C17,4.6,13.4,1,9,1L9,1z"/>
	</g>
	<g display="inline">
		<path fill="#ED1C24" d="M9,9H1c0,4.4,3.6,8,8,8V9L9,9z"/>
	</g>
	<line display="inline" fill="none" stroke="#ED1C24" stroke-width="2" stroke-miterlimit="10" x1="15" y1="12" x2="15" y2="18"/>
	<line display="inline" fill="none" stroke="#ED1C24" stroke-width="2" stroke-miterlimit="10" x1="12" y1="15" x2="18" y2="15"/>
</g>
</svg>
