<?xml version="1.0" encoding="utf-8"?>
<!-- Generator: Adobe Illustrator 21.0.2, SVG Export Plug-In . SVG Version: 6.00 Build 0)  -->
<!DOCTYPE svg PUBLIC "-//W3C//DTD SVG 1.1//EN" "http://www.w3.org/Graphics/SVG/1.1/DTD/svg11.dtd">
<svg version="1.1" xmlns="http://www.w3.org/2000/svg" xmlns:xlink="http://www.w3.org/1999/xlink" x="0px" y="0px"
	 viewBox="0 0 18 18" enable-background="new 0 0 18 18" xml:space="preserve">
<g id="Layer_1">
	<path d="M9,0L4.4,8h9.2L9,0z M9,4l1.2,2H7.8L9,4z M18,16v2c-2,0-3.8-0.8-5.2-2.2c-2.1-2.1-5.5-2.1-7.6,0C3.8,17.2,2,18,0,18v-2
		c1.4,0,2.8-0.6,3.8-1.6c2.9-2.9,7.5-2.9,10.4,0C15.2,15.4,16.6,16,18,16z"/>
</g>
<g id="Layer_2" display="none">
	<g display="inline">
		<path fill="#ED1C24" d="M9,4l1.2,2H7.8L9,4 M9,0L4.4,8h9.2L9,0L9,0z"/>
	</g>
	<path display="inline" fill="none" stroke="#ED1C24" stroke-width="2" stroke-miterlimit="10" d="M0,17c1.8,0,3.3-0.7,4.5-1.9
		c2.5-2.5,6.5-2.5,9,0c1.2,1.2,2.9,1.9,4.5,1.9"/>
</g>
</svg>
