<?xml version="1.0" encoding="utf-8"?>
<!-- Generator: Adobe Illustrator 21.0.2, SVG Export Plug-In . SVG Version: 6.00 Build 0)  -->
<!DOCTYPE svg PUBLIC "-//W3C//DTD SVG 1.1//EN" "http://www.w3.org/Graphics/SVG/1.1/DTD/svg11.dtd">
<svg version="1.1" xmlns="http://www.w3.org/2000/svg" xmlns:xlink="http://www.w3.org/1999/xlink" x="0px" y="0px"
	 viewBox="0 0 18 18" enable-background="new 0 0 18 18" xml:space="preserve">
<g id="Layer_1">
	<path d="M14.2,2.4c1,1,2.4,1.6,3.8,1.6v2c-2,0-3.8-0.8-5.2-2.2c-2.1-2.1-5.5-2.1-7.6,0C3.8,5.2,2,6,0,6V4c1.4,0,2.8-0.6,3.8-1.6
		C6.7-0.4,11.3-0.4,14.2,2.4z M4.3,13.3l1.4,1.4L8,12.4V18h2v-5.6l2.3,2.3l1.4-1.4L9,8.6L4.3,13.3z"/>
</g>
<g id="Layer_2" display="none">
	<path display="inline" fill="none" stroke="#ED1C24" stroke-width="2" stroke-miterlimit="10" d="M0,5c1.8,0,3.3-0.7,4.5-1.9
		c2.5-2.5,6.5-2.5,9,0C14.7,4.4,16.4,5,18,5"/>
	<line display="inline" fill="none" stroke="#ED1C24" stroke-width="2" stroke-miterlimit="10" x1="9" y1="18" x2="9" y2="10"/>
	<polyline display="inline" fill="none" stroke="#ED1C24" stroke-width="2" stroke-miterlimit="10" points="5,14 9,10 13,14 	"/>
</g>
</svg>
