<?xml version="1.0" encoding="utf-8"?>
<!-- Generator: Adobe Illustrator 19.2.1, SVG Export Plug-In . SVG Version: 6.00 Build 0)  -->
<!DOCTYPE svg PUBLIC "-//W3C//DTD SVG 1.1//EN" "http://www.w3.org/Graphics/SVG/1.1/DTD/svg11.dtd">
<svg version="1.1" xmlns="http://www.w3.org/2000/svg" xmlns:xlink="http://www.w3.org/1999/xlink" x="0px" y="0px"
	 viewBox="0 0 18 18" enable-background="new 0 0 18 18" xml:space="preserve">
<g id="Layer_1">
	<path d="M9,12.5c0.8,0,1.5,0.7,1.5,1.5S9.8,15.5,9,15.5S7.5,14.8,7.5,14S8.2,12.5,9,12.5L9,12.5z M10,8H8v4h2V8z M9,4.5L3.2,16
		h11.5L9,4.5 M9,0l9,18H0L9,0L9,0z"/>
</g>
<g id="Layer_2" display="none">
	<g display="inline">
		<g>
			<path fill="#ED1C24" d="M9,12.5c-0.8,0-1.5,0.7-1.5,1.5s0.7,1.5,1.5,1.5s1.5-0.7,1.5-1.5S9.8,12.5,9,12.5L9,12.5z"/>
		</g>
		<line fill="none" stroke="#ED1C24" stroke-width="2" stroke-miterlimit="10" x1="9" y1="12" x2="9" y2="8"/>
		<g>
			<path fill="#ED1C24" d="M9,4.5L14.8,16H3.2L9,4.5 M9,0L0,18h18L9,0L9,0z"/>
		</g>
	</g>
</g>
</svg>
