<?xml version="1.0" encoding="utf-8"?>
<!-- Generator: Adobe Illustrator 19.2.1, SVG Export Plug-In . SVG Version: 6.00 Build 0)  -->
<!DOCTYPE svg PUBLIC "-//W3C//DTD SVG 1.1//EN" "http://www.w3.org/Graphics/SVG/1.1/DTD/svg11.dtd">
<svg version="1.1" xmlns="http://www.w3.org/2000/svg" xmlns:xlink="http://www.w3.org/1999/xlink" x="0px" y="0px"
	 viewBox="0 0 18 18" enable-background="new 0 0 18 18" xml:space="preserve">
<g id="Layer_1">
	<path d="M18,9c0-5-4-9-9-9C4,0,0,4,0,9c0,2.1,0.7,4.1,2,5.6l-1.7,1.7l1.4,1.4L3.4,16c1.5,1.2,3.5,2,5.6,2s4.1-0.7,5.6-2l1.7,1.7
		l1.4-1.4L16,14.6C17.3,13.1,18,11.1,18,9z M2,9c0-3.9,3.1-7,7-7s7,3.1,7,7c0,1.6-0.5,3-1.4,4.2L9,7.6l-5.6,5.6C2.5,12,2,10.6,2,9z
		 M9,16c-1.6,0-3-0.5-4.2-1.4L9,10.4l4.2,4.2C12,15.5,10.6,16,9,16z"/>
</g>
<g id="Layer_2" display="none">
	<g display="inline">
		<path fill="#ED1C24" d="M9,2c3.9,0,7,3.1,7,7s-3.1,7-7,7s-7-3.1-7-7S5.1,2,9,2 M9,0C4,0,0,4,0,9s4,9,9,9s9-4,9-9S14,0,9,0L9,0z"/>
	</g>
	<polyline display="inline" fill="none" stroke="#ED1C24" stroke-width="2" stroke-miterlimit="10" points="1,17 9,9 17,17 	"/>
</g>
</svg>
