<?xml version="1.0" encoding="utf-8"?>
<!-- Generator: Adobe Illustrator 21.0.0, SVG Export Plug-In . SVG Version: 6.00 Build 0)  -->
<!DOCTYPE svg PUBLIC "-//W3C//DTD SVG 1.1//EN" "http://www.w3.org/Graphics/SVG/1.1/DTD/svg11.dtd">
<svg version="1.1" xmlns="http://www.w3.org/2000/svg" xmlns:xlink="http://www.w3.org/1999/xlink" x="0px" y="0px"
	 viewBox="0 0 18 18" enable-background="new 0 0 18 18" xml:space="preserve">
<g id="Layer_1">
	<path d="M18,4c0-2.2-1.8-4-4-4c-3,0-5.5,2.2-5.9,5C3.5,5.5,0,9.3,0,14v4h2v-4c0-0.2,0-0.4,0-0.7C2.2,15.9,4.4,18,7,18h1v-1
		c0-2.8-2.2-5-5-5H2.3c0.8-2.6,3-4.6,5.8-4.9c0.5,2.8,3,4.9,5.9,4.9c2.2,0,4-1.8,4-4c0-0.7-0.2-1.4-0.5-2C17.8,5.4,18,4.7,18,4z
		 M5.7,15.7c-0.6-0.3-1.1-0.8-1.4-1.4C4.9,14.6,5.4,15.1,5.7,15.7z M16,8c0,1.1-0.9,2-2,2c-2.2,0-4-1.8-4-4c0-2.2,1.8-4,4-4
		c1.1,0,2,0.9,2,2s-0.9,2-2,2C15.1,6,16,6.9,16,8z"/>
</g>
<g id="Layer_2" display="none">
	<g display="inline">
		<path fill="#ED1C24" d="M14,2c1.1,0,2,0.9,2,2s-0.9,2-2,2c1.1,0,2,0.9,2,2s-0.9,2-2,2c-2.2,0-4-1.8-4-4S11.8,2,14,2 M14,0
			c-3.3,0-6,2.7-6,6s2.7,6,6,6c2.2,0,4-1.8,4-4c0-0.7-0.2-1.4-0.5-2C17.8,5.4,18,4.7,18,4C18,1.8,16.2,0,14,0L14,0z"/>
	</g>
	
		<path display="inline" fill-rule="evenodd" clip-rule="evenodd" fill="none" stroke="#ED1C24" stroke-width="2" stroke-miterlimit="10" d="
		M7,17c0-2.2-1.8-4-4-4C3,15.2,4.8,17,7,17z"/>
	
		<path display="inline" fill-rule="evenodd" clip-rule="evenodd" fill="none" stroke="#ED1C24" stroke-width="2" stroke-miterlimit="10" d="
		M9,6c-4.4,0-8,3.6-8,8v4"/>
</g>
</svg>
