<?xml version="1.0" encoding="utf-8"?>
<!-- Generator: Adobe Illustrator 20.0.0, SVG Export Plug-In . SVG Version: 6.00 Build 0)  -->
<!DOCTYPE svg PUBLIC "-//W3C//DTD SVG 1.1//EN" "http://www.w3.org/Graphics/SVG/1.1/DTD/svg11.dtd">
<svg version="1.1" xmlns="http://www.w3.org/2000/svg" xmlns:xlink="http://www.w3.org/1999/xlink" x="0px" y="0px"
	 viewBox="0 0 18 18" enable-background="new 0 0 18 18" xml:space="preserve">
<g id="Layer_1">
	<path d="M14.2,4.1c2.4,2.8,2.3,7.1-0.4,9.8s-7,2.8-9.8,0.4c2.5-0.2,5-1.4,6.9-3.3S14,6.6,14.2,4.1 M15.3,2.2c-1-1-2.3-1.8-3.6-2.2
		c1.1,3.2,0.3,6.9-2.2,9.5S3.2,12.8,0,11.7c0.4,1.3,1.2,2.5,2.2,3.6c3.6,3.6,9.5,3.6,13.1,0S18.9,5.8,15.3,2.2L15.3,2.2z"/>
</g>
<g id="Layer_2" display="none">
	<path display="inline" fill="#ED1C24" d="M14.2,4.1c2.4,2.8,2.3,7.1-0.4,9.8s-7,2.8-9.8,0.4c2.5-0.2,5-1.4,6.9-3.3S14,6.6,14.2,4.1
		 M15.3,2.2c-1-1-2.3-1.8-3.6-2.2c1.1,3.2,0.3,6.9-2.2,9.5S3.2,12.8,0,11.7c0.4,1.3,1.2,2.5,2.2,3.6c3.6,3.6,9.5,3.6,13.1,0
		S18.9,5.8,15.3,2.2L15.3,2.2z"/>
</g>
</svg>
