<?xml version="1.0" encoding="utf-8"?>
<!-- Generator: Adobe Illustrator 19.2.1, SVG Export Plug-In . SVG Version: 6.00 Build 0)  -->
<!DOCTYPE svg PUBLIC "-//W3C//DTD SVG 1.1//EN" "http://www.w3.org/Graphics/SVG/1.1/DTD/svg11.dtd">
<svg version="1.1" xmlns="http://www.w3.org/2000/svg" xmlns:xlink="http://www.w3.org/1999/xlink" x="0px" y="0px"
	 viewBox="0 0 18 18" enable-background="new 0 0 18 18" xml:space="preserve">
<g id="Layer_1">
	<path d="M10,13H8v-0.7C8,11,8.5,9.7,9.5,8.8l1.7-1.7C11.7,6.6,12,5.8,12,5c0-1.7-1.3-3-3-3S6,3.3,6,5H4c0-2.8,2.2-5,5-5s5,2.2,5,5
		c0,1.3-0.5,2.6-1.5,3.5l-1.7,1.7c-0.6,0.6-0.9,1.3-0.9,2.1V13z M9,14.5c-0.8,0-1.5,0.7-1.5,1.5s0.7,1.5,1.5,1.5s1.5-0.7,1.5-1.5
		S9.8,14.5,9,14.5L9,14.5z"/>
</g>
<g id="Layer_2" display="none">
	<g display="inline">
		<path fill="none" stroke="#ED1C24" stroke-width="2" stroke-miterlimit="10" d="M5,5c0-2.2,1.8-4,4-4s4,1.8,4,4
			c0,1.1-0.4,2.1-1.2,2.8l-1.7,1.7C9.4,10.2,9,11.2,9,12.3V13"/>
		<g>
			<path fill="#ED1C24" d="M9,14.5c-0.8,0-1.5,0.7-1.5,1.5s0.7,1.5,1.5,1.5s1.5-0.7,1.5-1.5S9.8,14.5,9,14.5L9,14.5z"/>
		</g>
	</g>
</g>
</svg>
