<?xml version="1.0" encoding="utf-8"?>
<!-- Generator: Adobe Illustrator 21.0.0, SVG Export Plug-In . SVG Version: 6.00 Build 0)  -->
<!DOCTYPE svg PUBLIC "-//W3C//DTD SVG 1.1//EN" "http://www.w3.org/Graphics/SVG/1.1/DTD/svg11.dtd">
<svg version="1.1" xmlns="http://www.w3.org/2000/svg" xmlns:xlink="http://www.w3.org/1999/xlink" x="0px" y="0px"
	 viewBox="0 0 18 18" enable-background="new 0 0 18 18" xml:space="preserve">
<g id="Layer_1">
	<path d="M17.7,6.7l-1.4-1.4L13.6,8h-1.8C11.4,6.8,10.3,6,9,6S6.6,6.8,6.2,8H3.6l-3.3,3.3l1.4,1.4L4.4,10h1.8c0.4,1.2,1.5,2,2.8,2
		s2.4-0.8,2.8-2h2.6L17.7,6.7z M9,10c-0.6,0-1-0.4-1-1s0.4-1,1-1s1,0.4,1,1S9.6,10,9,10z"/>
</g>
<g id="Layer_2" display="none">
	<polyline display="inline" fill="none" stroke="#ED1C24" stroke-width="2" stroke-miterlimit="10" points="17,6 14,9 11,9 	"/>
	<polyline display="inline" fill="none" stroke="#ED1C24" stroke-width="2" stroke-miterlimit="10" points="1,12 4,9 7,9 	"/>
	<circle display="inline" fill="none" stroke="#ED1C24" stroke-width="2" stroke-miterlimit="10" cx="9" cy="9" r="2"/>
</g>
</svg>
