<?xml version="1.0" encoding="utf-8"?>
<!-- Generator: Adobe Illustrator 20.1.0, SVG Export Plug-In . SVG Version: 6.00 Build 0)  -->
<!DOCTYPE svg PUBLIC "-//W3C//DTD SVG 1.1//EN" "http://www.w3.org/Graphics/SVG/1.1/DTD/svg11.dtd">
<svg version="1.1" xmlns="http://www.w3.org/2000/svg" xmlns:xlink="http://www.w3.org/1999/xlink" x="0px" y="0px"
	 viewBox="0 0 18 18" enable-background="new 0 0 18 18" xml:space="preserve">
<g id="Layer_1">
	<path d="M15,12c-1.7,0-3,1.3-3,3s1.3,3,3,3s3-1.3,3-3S16.7,12,15,12z M15,16c-0.6,0-1-0.4-1-1s0.4-1,1-1s1,0.4,1,1S15.6,16,15,16z
		 M15.6,8.6c0.9-1.3,0.8-3.3-0.2-5.5C15.4,3,14,0,9,0C4,0,0,4,0,9c0,5,3,6.4,3.1,6.5c1.2,0.5,2.3,0.8,3.3,0.8c0.9,0,1.6-0.2,2.3-0.6
		C9.5,15.1,10,14.1,10,13c0-1.7,1.3-3,3-3C14.1,10,15.1,9.5,15.6,8.6z M8,13c0,0.6-0.3,0.8-0.5,1c-0.5,0.4-1.8,0.5-3.6-0.3
		C3.9,13.6,2,12.6,2,9c0-3.9,3.1-7,7-7c3.6,0,4.6,1.9,4.6,1.9C14.4,5.7,14.3,7,14,7.5C13.8,7.7,13.6,8,13,8C10.2,8,8,10.2,8,13z"/>
</g>
<g id="Layer_2" display="none">
	<circle display="inline" fill="none" stroke="#ED1C24" stroke-width="2" stroke-miterlimit="10" cx="15" cy="15" r="2"/>
	<g display="inline">
		<path fill="none" stroke="#ED1C24" stroke-width="2" stroke-miterlimit="10" d="M9,13c0-2.2,1.8-4,4-4s2.9-2.5,1.5-5.5
			c0,0-1.1-2.5-5.5-2.5S1,4.6,1,9s2.5,5.5,2.5,5.5C6.5,15.9,9,15.2,9,13z"/>
	</g>
</g>
</svg>
