<?xml version="1.0" encoding="utf-8"?>
<!-- Generator: Adobe Illustrator 21.0.0, SVG Export Plug-In . SVG Version: 6.00 Build 0)  -->
<!DOCTYPE svg PUBLIC "-//W3C//DTD SVG 1.1//EN" "http://www.w3.org/Graphics/SVG/1.1/DTD/svg11.dtd">
<svg version="1.1" xmlns="http://www.w3.org/2000/svg" xmlns:xlink="http://www.w3.org/1999/xlink" x="0px" y="0px"
	 viewBox="0 0 18 18" enable-background="new 0 0 18 18" xml:space="preserve">
<g id="Layer_1">
	<path d="M15,7l-2.8,4.8C12.1,12.2,12,12.6,12,13c0,1.7,1.3,3,3,3s3-1.3,3-3c0-0.4-0.1-0.8-0.2-1.2L15,7z M15,14c-0.6,0-1-0.4-1-1
		c0-0.1,0-0.2,0-0.3l1-1.7l1,1.7c0,0.1,0,0.2,0,0.3C16,13.6,15.6,14,15,14z M4,0H2v8H0v2h2v8h2v-1.5l4-3V5.6l-4-4V0z M6,6.4v6.1
		L4,14V4.4L6,6.4z M18,0v2c-1.1,0-2,0.9-2,2h-2C14,1.8,15.8,0,18,0z"/>
</g>
<g id="Layer_2" display="none">
	<g display="inline">
		<g>
			<path fill="#ED1C24" d="M15,11l1,1.7c0,0.1,0,0.2,0,0.3c0,0.6-0.4,1-1,1s-1-0.4-1-1c0-0.1,0-0.2,0-0.3L15,11 M15,7l-2.8,4.8
				C12.1,12.2,12,12.6,12,13c0,1.7,1.3,3,3,3s3-1.3,3-3c0-0.4-0.1-0.8-0.2-1.2L15,7L15,7z"/>
		</g>
	</g>
	<line display="inline" fill="none" stroke="#ED1C24" stroke-width="2" stroke-miterlimit="10" x1="3" y1="0" x2="3" y2="18"/>
	<path display="inline" fill="none" stroke="#ED1C24" stroke-width="2" stroke-miterlimit="10" d="M15,4c0-1.7,1.3-3,3-3"/>
	<polyline display="inline" fill="none" stroke="#ED1C24" stroke-width="2" stroke-miterlimit="10" points="3,2 7,6 7,13 3,16 	"/>
	<line display="inline" fill="none" stroke="#ED1C24" stroke-width="2" stroke-miterlimit="10" x1="0" y1="9" x2="3" y2="9"/>
</g>
</svg>
