<?xml version="1.0" encoding="utf-8"?>
<!-- Generator: Adobe Illustrator 20.1.0, SVG Export Plug-In . SVG Version: 6.00 Build 0)  -->
<!DOCTYPE svg PUBLIC "-//W3C//DTD SVG 1.1//EN" "http://www.w3.org/Graphics/SVG/1.1/DTD/svg11.dtd">
<svg version="1.1" xmlns="http://www.w3.org/2000/svg" xmlns:xlink="http://www.w3.org/1999/xlink" x="0px" y="0px"
	 viewBox="0 0 18 18" enable-background="new 0 0 18 18" xml:space="preserve">
<g id="Layer_1">
	<path d="M9,8c2.2,0,4-1.8,4-4s-1.8-4-4-4S5,1.8,5,4S6.8,8,9,8z M9,2c1.1,0,2,0.9,2,2s-0.9,2-2,2S7,5.1,7,4S7.9,2,9,2z M5,14
		c1.7,0,3-1.3,3-3S6.7,8,5,8s-3,1.3-3,3S3.3,14,5,14z M5,10c0.6,0,1,0.4,1,1s-0.4,1-1,1s-1-0.4-1-1S4.4,10,5,10z M10,11
		c0,1.7,1.3,3,3,3s3-1.3,3-3s-1.3-3-3-3S10,9.3,10,11z M14,11c0,0.6-0.4,1-1,1s-1-0.4-1-1s0.4-1,1-1S14,10.4,14,11z M18,16
		c0,1.1-0.9,2-2,2s-2-0.9-2-2s0.9-2,2-2S18,14.9,18,16z M11,16c0,1.1-0.9,2-2,2s-2-0.9-2-2s0.9-2,2-2S11,14.9,11,16z M2,18
		c-1.1,0-2-0.9-2-2s0.9-2,2-2s2,0.9,2,2S3.1,18,2,18z"/>
</g>
<g id="Layer_2" display="none">
	<circle display="inline" fill="none" stroke="#ED1C24" stroke-width="2" stroke-miterlimit="10" cx="9" cy="4" r="3"/>
	<circle display="inline" fill="none" stroke="#ED1C24" stroke-width="2" stroke-miterlimit="10" cx="5" cy="11" r="2"/>
	<circle display="inline" fill="none" stroke="#ED1C24" stroke-width="2" stroke-miterlimit="10" cx="13" cy="11" r="2"/>
	<circle display="inline" fill="none" stroke="#ED1C24" stroke-width="2" stroke-miterlimit="10" cx="16" cy="16" r="1"/>
	<circle display="inline" fill="none" stroke="#ED1C24" stroke-width="2" stroke-miterlimit="10" cx="9" cy="16" r="1"/>
	<circle display="inline" fill="none" stroke="#ED1C24" stroke-width="2" stroke-miterlimit="10" cx="2" cy="16" r="1"/>
</g>
</svg>
