<?xml version="1.0" encoding="utf-8"?>
<!-- Generator: Adobe Illustrator 19.2.1, SVG Export Plug-In . SVG Version: 6.00 Build 0)  -->
<!DOCTYPE svg PUBLIC "-//W3C//DTD SVG 1.1//EN" "http://www.w3.org/Graphics/SVG/1.1/DTD/svg11.dtd">
<svg version="1.1" xmlns="http://www.w3.org/2000/svg" xmlns:xlink="http://www.w3.org/1999/xlink" x="0px" y="0px"
	 viewBox="0 0 18 18" enable-background="new 0 0 18 18" xml:space="preserve">
<g id="Layer_1">
	<path d="M4,16h4v2H2v-8h2V16z M16,13c0,1.7-1.3,3-3,3l-1,0v2h-2v-8h3C14.7,10,16,11.3,16,13z M14,13c0-0.6-0.4-1-1-1h-1v2l1,0
		C13.6,14,14,13.6,14,13z M16,2h2v2h-2v2h2v2h-2v2c-2.4,0-4.4-1.7-4.9-4H0V4h11.1c0.5-2.3,2.5-4,4.9-4V2z M14,2.8
		c-0.6,0.5-1,1.3-1,2.2c0,0.9,0.4,1.7,1,2.2V2.8z"/>
</g>
<g id="Layer_2" display="none">
	<polyline display="inline" fill="none" stroke="#ED1C24" stroke-width="2" stroke-miterlimit="10" points="8,17 3,17 3,10 	"/>
	<path display="inline" fill="none" stroke="#ED1C24" stroke-width="2" stroke-miterlimit="10" d="M11,18v-7h2c1.1,0,2,0.9,2,2
		s-0.9,2-2,2l-2-0.1"/>
	<g display="inline">
		<path fill="#ED1C24" d="M14,2.8v4.5c-0.6-0.5-1-1.3-1-2.2S13.4,3.3,14,2.8 M16,0c-2.8,0-5,2.2-5,5s2.2,5,5,5V0L16,0z"/>
	</g>
	<line display="inline" fill="none" stroke="#ED1C24" stroke-width="2" stroke-miterlimit="10" x1="18" y1="3" x2="15" y2="3"/>
	<line display="inline" fill="none" stroke="#ED1C24" stroke-width="2" stroke-miterlimit="10" x1="12" y1="5" x2="0" y2="5"/>
	<line display="inline" fill="none" stroke="#ED1C24" stroke-width="2" stroke-miterlimit="10" x1="18" y1="7" x2="15" y2="7"/>
</g>
</svg>
