<?xml version="1.0" encoding="utf-8"?>
<!-- Generator: Adobe Illustrator 19.2.1, SVG Export Plug-In . SVG Version: 6.00 Build 0)  -->
<!DOCTYPE svg PUBLIC "-//W3C//DTD SVG 1.1//EN" "http://www.w3.org/Graphics/SVG/1.1/DTD/svg11.dtd">
<svg version="1.1" xmlns="http://www.w3.org/2000/svg" xmlns:xlink="http://www.w3.org/1999/xlink" x="0px" y="0px"
	 viewBox="0 0 18 18" enable-background="new 0 0 18 18" xml:space="preserve">
<g id="Layer_1">
	<path d="M8,4H6c0-0.6-0.4-1-1-1C3.3,3,2,1.7,2,0h2c0,0.6,0.4,1,1,1C6.7,1,8,2.3,8,4z M13,1c-0.6,0-1-0.4-1-1h-2c0,1.7,1.3,3,3,3
		c0.6,0,1,0.4,1,1h2C16,2.3,14.7,1,13,1z M9,11c-0.6,0-1-0.4-1-1H6c0,1.7,1.3,3,3,3c0.6,0,1,0.4,1,1h2C12,12.3,10.7,11,9,11z M18,6
		H0v12h18V6z M2,8h14v8H2V8z"/>
</g>
<g id="Layer_2" display="none">
	<path display="inline" fill="none" stroke="#ED1C24" stroke-width="2" stroke-miterlimit="10" d="M7,4c0-1.1-0.9-2-2-2S3,1.1,3,0"
		/>
	<path display="inline" fill="none" stroke="#ED1C24" stroke-width="2" stroke-miterlimit="10" d="M15,4c0-1.1-0.9-2-2-2s-2-0.9-2-2
		"/>
	<path display="inline" fill="none" stroke="#ED1C24" stroke-width="2" stroke-miterlimit="10" d="M7,10c0,1.1,0.9,2,2,2s2,0.9,2,2"
		/>
	
		<rect x="1" y="7" display="inline" fill="none" stroke="#ED1C24" stroke-width="2" stroke-miterlimit="10" width="16" height="10"/>
</g>
</svg>
