<?xml version="1.0" encoding="utf-8"?>
<!-- Generator: Adobe Illustrator 19.2.1, SVG Export Plug-In . SVG Version: 6.00 Build 0)  -->
<!DOCTYPE svg PUBLIC "-//W3C//DTD SVG 1.1//EN" "http://www.w3.org/Graphics/SVG/1.1/DTD/svg11.dtd">
<svg version="1.1" xmlns="http://www.w3.org/2000/svg" xmlns:xlink="http://www.w3.org/1999/xlink" x="0px" y="0px"
	 viewBox="0 0 18 18" enable-background="new 0 0 18 18" xml:space="preserve">
<g id="Layer_1">
	<path d="M18,4V2h-2V0c-2.4,0-4.4,1.7-4.9,4H0v2h11.1c0.5,2.3,2.5,4,4.9,4V8h2V6h-2V4H18z M14,7.2c-0.6-0.5-1-1.3-1-2.2
		c0-0.9,0.4-1.7,1-2.2V7.2z M4.2,16L6,16v2l-6.6,0l4.3-4.3C3.9,13.5,4,13.3,4,13c0-0.6-0.4-1-1-1s-1,0.4-1,1H0c0-1.7,1.3-3,3-3
		s3,1.3,3,3c0,0.8-0.3,1.6-0.9,2.1L4.2,16z M15,10c-1.7,0-3,1.3-3,3v-3h-2v4H8v-4H6v3v3h4v2h2v-3c0,1.7,1.3,3,3,3s3-1.3,3-3v-2
		C18,11.3,16.7,10,15,10z M16,15c0,0.6-0.4,1-1,1s-1-0.4-1-1v-2c0-0.6,0.4-1,1-1s1,0.4,1,1V15z"/>
</g>
<g id="Layer_2" display="none">
	<g display="inline">
		<path fill="#ED1C24" d="M14,2.8v4.5c-0.6-0.5-1-1.3-1-2.2S13.4,3.3,14,2.8 M16,0c-2.8,0-5,2.2-5,5s2.2,5,5,5V0L16,0z"/>
	</g>
	<line display="inline" fill="none" stroke="#ED1C24" stroke-width="2" stroke-miterlimit="10" x1="18" y1="3" x2="15" y2="3"/>
	<line display="inline" fill="none" stroke="#ED1C24" stroke-width="2" stroke-miterlimit="10" x1="12" y1="5" x2="0" y2="5"/>
	<line display="inline" fill="none" stroke="#ED1C24" stroke-width="2" stroke-miterlimit="10" x1="18" y1="7" x2="15" y2="7"/>
	<polyline display="inline" fill="none" stroke="#ED1C24" stroke-width="2" stroke-miterlimit="10" points="11,15 7,15 7,10 	"/>
	<line display="inline" fill="none" stroke="#ED1C24" stroke-width="2" stroke-miterlimit="10" x1="11" y1="10" x2="11" y2="18"/>
	<path display="inline" fill="none" stroke="#ED1C24" stroke-width="2" stroke-miterlimit="10" d="M1,13c0-1.1,0.9-2,2-2s2,0.9,2,2
		c0,0.6-0.2,1.1-0.6,1.4L1.8,17L6,17"/>
	<path display="inline" fill="none" stroke="#ED1C24" stroke-width="2" stroke-miterlimit="10" d="M13,15c0,1.1,0.9,2,2,2s2-0.9,2-2
		v-2c0-1.1-0.9-2-2-2s-2,0.9-2,2V15z"/>
</g>
</svg>
