<?xml version="1.0" encoding="utf-8"?>
<!-- Generator: Adobe Illustrator 19.2.1, SVG Export Plug-In . SVG Version: 6.00 Build 0)  -->
<!DOCTYPE svg PUBLIC "-//W3C//DTD SVG 1.1//EN" "http://www.w3.org/Graphics/SVG/1.1/DTD/svg11.dtd">
<svg version="1.1" xmlns="http://www.w3.org/2000/svg" xmlns:xlink="http://www.w3.org/1999/xlink" x="0px" y="0px"
	 viewBox="0 0 18 18" enable-background="new 0 0 18 18" xml:space="preserve">
<g id="Layer_1">
	<path d="M17.7,1.7l-1.4-1.4L13.6,3h-3.2l1.3-1.3l-1.4-1.4L7.6,3H0v6h1.6l-1.3,1.3l1.4,1.4L4.4,9h3.2l-1.3,1.3l1.4,1.4L10.4,9H18V3
		h-1.6L17.7,1.7z M2,7V5h3.6l-2,2H2z M6.4,7l2-2h3.2l-2,2H6.4z M16,5v2h-3.6l2-2H16z M1.2,12l16,4L16.8,18l-16-4L1.2,12z"/>
</g>
<g id="Layer_2" display="none">
	<rect x="1" y="4" display="inline" fill="none" stroke="#ED1C24" stroke-width="2" stroke-miterlimit="10" width="16" height="4"/>
	<line display="inline" fill="none" stroke="#ED1C24" stroke-width="2" stroke-miterlimit="10" x1="1" y1="11" x2="11" y2="1"/>
	<line display="inline" fill="none" stroke="#ED1C24" stroke-width="2" stroke-miterlimit="10" x1="7" y1="11" x2="17" y2="1"/>
	<line display="inline" fill="none" stroke="#ED1C24" stroke-width="2" stroke-miterlimit="10" x1="1" y1="13" x2="17" y2="17"/>
</g>
</svg>
