<?xml version="1.0" encoding="utf-8"?>
<!-- Generator: Adobe Illustrator 21.0.0, SVG Export Plug-In . SVG Version: 6.00 Build 0)  -->
<!DOCTYPE svg PUBLIC "-//W3C//DTD SVG 1.1//EN" "http://www.w3.org/Graphics/SVG/1.1/DTD/svg11.dtd">
<svg version="1.1" xmlns="http://www.w3.org/2000/svg" xmlns:xlink="http://www.w3.org/1999/xlink" x="0px" y="0px"
	 viewBox="0 0 18 18" enable-background="new 0 0 18 18" xml:space="preserve">
<g id="Layer_1">
	<path d="M17.1,14H10v4H8v-4H0.9l2.7-4.6c0.5,0.5,1.1,0.8,1.8,1l-1,1.7h9.2l-1-1.7c0.6-0.2,1.2-0.5,1.8-1L17.1,14z M3.8,6.2
		c0-0.1-0.9-2.4,1.3-4.6c2.1-2.1,5.6-2.1,7.8,0c2.2,2.2,1.3,4.5,1.3,4.6c-0.5,1.2-1.3,2-2.2,2.2c-0.1,0-0.3,0-0.4,0
		c-0.6,0-1.2-0.2-1.6-0.7c-0.5-0.5-1.3-0.5-1.8,0C7.5,8.4,6.8,8.6,6,8.5C5.1,8.3,4.3,7.4,3.8,6.2z M5.7,5.5c0.3,0.7,0.6,0.9,0.8,1
		c0,0,0.1,0,0.2-0.1c0.6-0.6,1.5-1,2.3-1s1.7,0.3,2.3,1c0.1,0.1,0.2,0.1,0.2,0.1c0.1,0,0.5-0.3,0.8-1c0-0.1,0.4-1.3-0.8-2.5
		c-1.4-1.4-3.6-1.4-5,0C5.3,4.3,5.7,5.5,5.7,5.5z"/>
</g>
<g id="Layer_2" display="none">
	<path display="inline" fill="#ED1C24" d="M14.4,9.4c-0.5,0.5-1.1,0.8-1.8,1l1,1.7H4.4l1-1.7c-0.6-0.2-1.2-0.5-1.8-1L0.9,14h16.2
		L14.4,9.4z"/>
	<g display="inline">
		<line fill="none" stroke="#ED1C24" stroke-width="2" stroke-miterlimit="10" x1="9" y1="18" x2="9" y2="13"/>
	</g>
	<g display="inline">
		<path fill="none" stroke="#ED1C24" stroke-width="2" stroke-miterlimit="10" d="M7.4,7.1c0.9-0.9,2.3-0.9,3.2,0s2.1,0.3,2.7-1.2
			c0,0,0.7-1.8-1.1-3.6s-4.6-1.8-6.4,0S4.7,5.9,4.7,5.9C5.3,7.4,6.5,8,7.4,7.1z"/>
	</g>
</g>
</svg>
