<?xml version="1.0" encoding="utf-8"?>
<!-- Generator: Adobe Illustrator 21.0.0, SVG Export Plug-In . SVG Version: 6.00 Build 0)  -->
<!DOCTYPE svg PUBLIC "-//W3C//DTD SVG 1.1//EN" "http://www.w3.org/Graphics/SVG/1.1/DTD/svg11.dtd">
<svg version="1.1" xmlns="http://www.w3.org/2000/svg" xmlns:xlink="http://www.w3.org/1999/xlink" x="0px" y="0px"
	 viewBox="0 0 18 18" enable-background="new 0 0 18 18" xml:space="preserve">
<g id="Layer_1">
	<path d="M17.1,14H10v4H8v-4H0.9l2.7-4.7l1.7,1l-1,1.7h9.2l-1-1.7l1.7-1L17.1,14z M15.9,6.2l1.4-0.8l-1-1.7l-1.4,0.8l0.5-1.8
		l-1.9-0.5l-1,3.7L10,7.3V4.4l2.7-2.7l-1.4-1.4L10,1.6V0H8v1.6L6.7,0.3L5.3,1.7L8,4.4v2.9L5.5,5.8l-1-3.7L2.6,2.7l0.5,1.8L1.7,3.6
		l-1,1.7l1.4,0.8L0.3,6.6l0.5,1.9l3.7-1L9,10.2l4.5-2.6l3.7,1l0.5-1.9L15.9,6.2z"/>
</g>
<g id="Layer_2" display="none">
	<polygon display="inline" fill="#ED1C24" points="12.7,10.3 13.6,12 4.4,12 5.3,10.3 3.6,9.3 0.9,14 17.1,14 14.4,9.3 	"/>
	<g display="inline">
		<line fill="none" stroke="#ED1C24" stroke-width="2" stroke-miterlimit="10" x1="9" y1="18" x2="9" y2="13"/>
	</g>
	<line display="inline" fill="none" stroke="#ED1C24" stroke-width="2" stroke-miterlimit="10" x1="9" y1="9" x2="9" y2="0"/>
	<polyline display="inline" fill="none" stroke="#ED1C24" stroke-width="2" stroke-miterlimit="10" points="6,1 9,4 12,1 	"/>
	<polyline display="inline" fill="none" stroke="#ED1C24" stroke-width="2" stroke-miterlimit="10" points="14.4,2.4 13.3,6.5 
		17.4,7.6 	"/>
	<polyline display="inline" fill="none" stroke="#ED1C24" stroke-width="2" stroke-miterlimit="10" points="1.2,4.5 9,9 16.8,4.5 	
		"/>
	<polyline display="inline" fill="none" stroke="#ED1C24" stroke-width="2" stroke-miterlimit="10" points="3.6,2.4 4.7,6.5 
		0.6,7.6 	"/>
</g>
</svg>
