<?xml version="1.0" encoding="utf-8"?>
<!-- Generator: Adobe Illustrator 19.2.1, SVG Export Plug-In . SVG Version: 6.00 Build 0)  -->
<!DOCTYPE svg PUBLIC "-//W3C//DTD SVG 1.1//EN" "http://www.w3.org/Graphics/SVG/1.1/DTD/svg11.dtd">
<svg version="1.1" xmlns="http://www.w3.org/2000/svg" xmlns:xlink="http://www.w3.org/1999/xlink" x="0px" y="0px"
	 viewBox="0 0 18 18" enable-background="new 0 0 18 18" xml:space="preserve">
<g id="Layer_1">
	<path d="M9,14c0,0.5-0.4,1-1,1c-0.6,0-1-0.4-1-1s0.4-1,1-1C8.6,13,9,13.5,9,14z M14,13c-0.6,0-1,0.4-1,1s0.4,1,1,1c0.6,0,1-0.4,1-1
		S14.6,13,14,13z M18,7v8c0,1.7-1.3,3-3,3H7c-1.7,0-3-1.3-3-3V7c0-1.7,1.3-3,3-3h8C16.7,4,18,5.3,18,7z M6,7v3h10V7c0-0.6-0.4-1-1-1
		H7C6.4,6,6,6.4,6,7z M16,15v-3H6v3c0,0.6,0.4,1,1,1h8C15.6,16,16,15.6,16,15z M7,0C3.1,0,0,3.1,0,7v11h2V7c0-2.8,2.2-5,5-5h11V0H7z
		"/>
</g>
<g id="Layer_2" display="none">
	<g display="inline">
		<line fill="none" stroke="#ED1C24" stroke-width="2" stroke-miterlimit="10" x1="5" y1="11" x2="17" y2="11"/>
		<g>
			<path fill="#ED1C24" d="M8,13c-0.6,0-1,0.4-1,1s0.4,1,1,1s1-0.4,1-1S8.6,13,8,13L8,13z"/>
		</g>
		<g>
			<path fill="#ED1C24" d="M14,13c-0.6,0-1,0.4-1,1s0.4,1,1,1s1-0.4,1-1S14.6,13,14,13L14,13z"/>
		</g>
		<path fill="none" stroke="#ED1C24" stroke-width="2" stroke-miterlimit="10" d="M15,17H7c-1.1,0-2-0.9-2-2V7c0-1.1,0.9-2,2-2h8
			c1.1,0,2,0.9,2,2v8C17,16.1,16.1,17,15,17z"/>
		<path fill="none" stroke="#ED1C24" stroke-width="2" stroke-miterlimit="10" d="M1,18V7c0-3.3,2.7-6,6-6h11"/>
	</g>
</g>
</svg>
