<?xml version="1.0" encoding="utf-8"?>
<!-- Generator: Adobe Illustrator 19.2.1, SVG Export Plug-In . SVG Version: 6.00 Build 0)  -->
<!DOCTYPE svg PUBLIC "-//W3C//DTD SVG 1.1//EN" "http://www.w3.org/Graphics/SVG/1.1/DTD/svg11.dtd">
<svg version="1.1" xmlns="http://www.w3.org/2000/svg" xmlns:xlink="http://www.w3.org/1999/xlink" x="0px" y="0px"
	 viewBox="0 0 18 18" enable-background="new 0 0 18 18" xml:space="preserve">
<g id="Layer_1">
	<path d="M11.7,3.1L10.6,2l1.9-1.9l0.7,2.6L11.7,3.1z M5.9,9.5L4.5,8.1L3.2,9.4l1.4,1.4L5.9,9.5z M8.3,7.1L6.9,5.7L5.7,6.9l1.4,1.4
		L8.3,7.1z M10.8,4.6L9.4,3.2L8.1,4.5l1.4,1.4L10.8,4.6z M3.1,11.7L2,10.6l-1.9,1.9l2.6,0.7L3.1,11.7z M13.6,14.3l-1.7-0.5l-0.5,1.9
		l1.7,0.5L13.6,14.3z M10.1,13.3l-1.7-0.5l-0.5,1.9l1.7,0.5L10.1,13.3z M6.7,12.3L5,11.8l-0.5,1.9l1.7,0.5L6.7,12.3z M16.7,14.8
		l-1.5,0.4l-0.4,1.5l2.7,0.8L16.7,14.8z M16.2,13l-0.5-1.7l-1.9,0.5l0.5,1.7L16.2,13z M15.2,9.6l-0.5-1.7l-1.9,0.5l0.5,1.7L15.2,9.6
		z M14.2,6.1l-0.5-1.7L11.8,5l0.5,1.7L14.2,6.1z"/>
</g>
<g id="Layer_2" display="none">
	<g display="inline">
		<g>
			<polyline fill="none" stroke="#ED1C24" stroke-width="2" stroke-miterlimit="10" points="12.3,3 12,2 11.3,2.7 			"/>
			
				<line fill="none" stroke="#ED1C24" stroke-width="2" stroke-miterlimit="10" stroke-dasharray="1.7346,1.7346" x1="10.1" y1="3.9" x2="3.3" y2="10.7"/>
			<polyline fill="none" stroke="#ED1C24" stroke-width="2" stroke-miterlimit="10" points="2.7,11.3 2,12 3,12.3 			"/>
			
				<line fill="none" stroke="#ED1C24" stroke-width="2" stroke-miterlimit="10" stroke-dasharray="1.7943,1.7943" x1="4.7" y1="12.8" x2="14.2" y2="15.5"/>
			<polyline fill="none" stroke="#ED1C24" stroke-width="2" stroke-miterlimit="10" points="15,15.7 16,16 15.7,15 			"/>
			
				<line fill="none" stroke="#ED1C24" stroke-width="2" stroke-miterlimit="10" stroke-dasharray="1.7943,1.7943" x1="15.2" y1="13.3" x2="12.5" y2="3.8"/>
		</g>
	</g>
</g>
</svg>
