<?xml version="1.0" encoding="utf-8"?>
<!-- Generator: Adobe Illustrator 21.0.0, SVG Export Plug-In . SVG Version: 6.00 Build 0)  -->
<!DOCTYPE svg PUBLIC "-//W3C//DTD SVG 1.1//EN" "http://www.w3.org/Graphics/SVG/1.1/DTD/svg11.dtd">
<svg version="1.1" xmlns="http://www.w3.org/2000/svg" xmlns:xlink="http://www.w3.org/1999/xlink" x="0px" y="0px"
	 viewBox="0 0 18 18" enable-background="new 0 0 18 18" xml:space="preserve">
<g id="Layer_1">
	<path d="M13.3,7.5c-0.4,0.1-0.8,0.2-1.2,0.2C11,7.7,9.9,7.2,9,6.4C8.1,7.2,7,7.7,5.8,7.7C5.4,7.7,5,7.6,4.7,7.5L0.9,14H8v4h2v-4
		h7.1L13.3,7.5z M5.7,9.7c0,0,0.1,0,0.1,0C7,9.7,8,9.4,9,8.8c1,0.5,2,0.8,3.2,0.8c0,0,0.1,0,0.1,0l1.3,2.3H4.4L5.7,9.7z"/>
</g>
<g id="Layer_2" display="none">
	<g display="inline">
		<line fill="none" stroke="#ED1C24" stroke-width="2" stroke-miterlimit="10" x1="9" y1="18" x2="9" y2="13"/>
	</g>
	<g display="inline">
		<path fill="#ED1C24" d="M9,8.8c1,0.5,2,0.8,3.2,0.8c0,0,0.1,0,0.1,0l1.3,2.3H4.4l1.3-2.3c0,0,0.1,0,0.1,0C7,9.7,8,9.4,9,8.8
			 M9,6.4C8.1,7.2,7,7.7,5.8,7.7C5.4,7.7,5,7.6,4.7,7.5L0.9,14h16.2l-3.7-6.5c-0.4,0.1-0.8,0.2-1.2,0.2C11,7.7,9.9,7.2,9,6.4L9,6.4z
			"/>
	</g>
</g>
</svg>
