<?xml version="1.0" encoding="utf-8"?>
<!-- Generator: Adobe Illustrator 21.0.0, SVG Export Plug-In . SVG Version: 6.00 Build 0)  -->
<!DOCTYPE svg PUBLIC "-//W3C//DTD SVG 1.1//EN" "http://www.w3.org/Graphics/SVG/1.1/DTD/svg11.dtd">
<svg version="1.1" xmlns="http://www.w3.org/2000/svg" xmlns:xlink="http://www.w3.org/1999/xlink" x="0px" y="0px"
	 viewBox="0 0 18 18" enable-background="new 0 0 18 18" xml:space="preserve">
<g id="Layer_1">
	<path d="M16,7c0-3.9-3.1-7-7-7S2,3.1,2,7c0,3.5,2.6,6.4,6,6.9V18h2v-4.1C13.4,13.4,16,10.5,16,7z M4,7c0-2.8,2.2-5,5-5
		c1,0,2,0.3,2.8,0.8L4.8,9.8C4.3,9,4,8,4,7z M9,12c-1,0-2-0.3-2.8-0.8l6.9-6.9C13.7,5,14,6,14,7C14,9.8,11.8,12,9,12z"/>
</g>
<g id="Layer_2" display="none">
	<circle display="inline" fill="none" stroke="#ED1C24" stroke-width="2" stroke-miterlimit="10" cx="9" cy="7" r="6"/>
	<line display="inline" fill="none" stroke="#ED1C24" stroke-width="2" stroke-miterlimit="10" x1="9" y1="18" x2="9" y2="13"/>
	<line display="inline" fill="none" stroke="#ED1C24" stroke-width="2" stroke-miterlimit="10" x1="13" y1="3" x2="5" y2="11"/>
</g>
</svg>
