<?xml version="1.0" encoding="utf-8"?>
<!-- Generator: Adobe Illustrator 21.0.0, SVG Export Plug-In . SVG Version: 6.00 Build 0)  -->
<!DOCTYPE svg PUBLIC "-//W3C//DTD SVG 1.1//EN" "http://www.w3.org/Graphics/SVG/1.1/DTD/svg11.dtd">
<svg version="1.1" xmlns="http://www.w3.org/2000/svg" xmlns:xlink="http://www.w3.org/1999/xlink" x="0px" y="0px"
	 viewBox="0 0 18 18" enable-background="new 0 0 18 18" xml:space="preserve">
<g id="Layer_1">
	<path d="M9,6C7.3,6,6,4.7,6,3V0H4H0v6h0.5c1.3,3.6,4.6,6,8.5,6c1.7,0,3,1.3,3,3v3h2v-3c0-2.8-2.2-5-5-5c-2.7,0-5.2-1.6-6.3-4H5
		c0.9,1.2,2.3,2,4,2c3.9,0,7,3.1,7,7v3h2v-3C18,10,14,6,9,6z M4,4H2V2h2v1V4z"/>
</g>
<g id="Layer_2" display="none">
	<rect x="1" y="1" display="inline" fill="none" stroke="#ED1C24" stroke-width="2" stroke-miterlimit="10" width="4" height="4"/>
	<path display="inline" fill="none" stroke="#ED1C24" stroke-width="2" stroke-miterlimit="10" d="M9,11c-3.7,0-6.9-2.5-7.7-6"/>
	<path display="inline" fill="none" stroke="#ED1C24" stroke-width="2" stroke-miterlimit="10" d="M9,7C6.8,7,5,5.2,5,3V0"/>
	<path display="inline" fill="none" stroke="#ED1C24" stroke-width="2" stroke-miterlimit="10" d="M9,7c4.4,0,8,3.6,8,8v3"/>
	<path display="inline" fill="none" stroke="#ED1C24" stroke-width="2" stroke-miterlimit="10" d="M9,11c2.2,0,4,1.8,4,4v3"/>
</g>
</svg>
