<?xml version="1.0" encoding="utf-8"?>
<!-- Generator: Adobe Illustrator 21.0.0, SVG Export Plug-In . SVG Version: 6.00 Build 0)  -->
<!DOCTYPE svg PUBLIC "-//W3C//DTD SVG 1.1//EN" "http://www.w3.org/Graphics/SVG/1.1/DTD/svg11.dtd">
<svg version="1.1" xmlns="http://www.w3.org/2000/svg" xmlns:xlink="http://www.w3.org/1999/xlink" x="0px" y="0px"
	 viewBox="0 0 18 18" enable-background="new 0 0 18 18" xml:space="preserve">
<g id="Layer_1">
	<path d="M14,15v3h-2v-3c0-1.3-0.8-2.4-2-2.8l1.5-1.5C13,11.6,14,13.2,14,15z M14.4,7.8L13,9.3c1.8,1.3,3,3.4,3,5.7v3h2v-3
		C18,12.1,16.6,9.5,14.4,7.8z M16.3,0.3l-16,16l1.4,1.4l16-16L16.3,0.3z M0.5,6H0V0h4h2v3c0,1.3,0.8,2.4,2,2.8L6.5,7.3
		C5.9,7,5.4,6.5,5,6H2.7C3.2,7.1,4,8.1,5,8.7l-1.4,1.4C2.2,9.1,1.1,7.7,0.5,6z M2,4h2V3V2H2V4z"/>
</g>
<g id="Layer_2" display="none">
	<path display="inline" fill="#ED1C24" d="M6.5,7.3L8,5.8C6.8,5.4,6,4.3,6,3V0H4v3C4,4.8,5,6.4,6.5,7.3z"/>
	<path display="inline" fill="#ED1C24" d="M11.5,10.7L10,12.2c1.1,0.4,2,1.5,2,2.8v3h2v-3C14,13.2,13,11.6,11.5,10.7z"/>
	<path display="inline" fill="#ED1C24" d="M14.4,7.8L13,9.3c1.8,1.3,3,3.4,3,5.7v3h2v-3C18,12.1,16.6,9.5,14.4,7.8z"/>
	<line display="inline" fill="none" stroke="#ED1C24" stroke-width="2" stroke-miterlimit="10" x1="1" y1="17" x2="17" y2="1"/>
	<rect x="1" y="1" display="inline" fill="none" stroke="#ED1C24" stroke-width="2" stroke-miterlimit="10" width="4" height="4"/>
	<path display="inline" fill="#ED1C24" d="M2.3,5H0.2c0.5,2.1,1.7,3.9,3.4,5.2L5,8.7C3.7,7.9,2.8,6.5,2.3,5z"/>
</g>
</svg>
