<?xml version="1.0" encoding="utf-8"?>
<!-- Generator: Adobe Illustrator 19.2.1, SVG Export Plug-In . SVG Version: 6.00 Build 0)  -->
<!DOCTYPE svg PUBLIC "-//W3C//DTD SVG 1.1//EN" "http://www.w3.org/Graphics/SVG/1.1/DTD/svg11.dtd">
<svg version="1.1" xmlns="http://www.w3.org/2000/svg" xmlns:xlink="http://www.w3.org/1999/xlink" x="0px" y="0px"
	 viewBox="0 0 18 18" enable-background="new 0 0 18 18" xml:space="preserve">
<g id="Layer_1">
	<path d="M4,6h6v2H4V6z M16.3,17.7l-5.1-5.1C10,13.5,8.6,14,7,14c-3.9,0-7-3.1-7-7s3.1-7,7-7s7,3.1,7,7c0,1.6-0.5,3-1.4,4.2l5.1,5.1
		L16.3,17.7z M7,12c2.8,0,5-2.2,5-5S9.8,2,7,2S2,4.2,2,7S4.2,12,7,12z"/>
</g>
<g id="Layer_2" display="none">
	<g display="inline">
		<line fill="none" stroke="#ED1C24" stroke-width="2" stroke-miterlimit="10" x1="4" y1="7" x2="10" y2="7"/>
		<g>
			<circle fill="none" stroke="#ED1C24" stroke-width="2" stroke-miterlimit="10" cx="7" cy="7" r="6"/>
			<line fill="none" stroke="#ED1C24" stroke-width="2" stroke-miterlimit="10" x1="17" y1="17" x2="11" y2="11"/>
		</g>
	</g>
</g>
</svg>
