<?xml version="1.0" encoding="utf-8"?>
<!-- Generator: Adobe Illustrator 19.2.1, SVG Export Plug-In . SVG Version: 6.00 Build 0)  -->
<!DOCTYPE svg PUBLIC "-//W3C//DTD SVG 1.1//EN" "http://www.w3.org/Graphics/SVG/1.1/DTD/svg11.dtd">
<svg version="1.1" xmlns="http://www.w3.org/2000/svg" xmlns:xlink="http://www.w3.org/1999/xlink" x="0px" y="0px"
	 viewBox="0 0 18 18" enable-background="new 0 0 18 18" xml:space="preserve">
<g id="Layer_1">
	<polygon points="13.5,7.6 17.2,8.6 17.7,6.6 15.9,6.2 17.3,5.4 16.3,3.6 14.9,4.4 15.4,2.7 13.5,2.1 12.5,5.8 10,7.3 10,4.4 
		12.7,1.7 11.3,0.3 10,1.6 10,0 8,0 8,1.6 6.7,0.3 5.3,1.7 8,4.4 8,7.3 5.5,5.8 4.5,2.1 2.6,2.7 3.1,4.4 1.7,3.6 0.7,5.4 2.1,6.2 
		0.3,6.6 0.8,8.6 4.5,7.6 7,9 4.5,10.4 0.8,9.4 0.3,11.4 2.1,11.8 0.7,12.6 1.7,14.4 3.1,13.6 2.6,15.3 4.5,15.9 5.5,12.2 8,10.7 
		8,13.6 5.3,16.3 6.7,17.7 8,16.4 8,18 10,18 10,16.4 11.3,17.7 12.7,16.3 10,13.6 10,10.7 12.5,12.2 13.5,15.9 15.4,15.3 
		14.9,13.6 16.3,14.4 17.3,12.6 15.9,11.8 17.7,11.4 17.2,9.4 13.5,10.4 11,9 	"/>
</g>
<g id="Layer_2" display="none">
	<line display="inline" fill="none" stroke="#ED1C24" stroke-width="2" stroke-miterlimit="10" x1="9" y1="0" x2="9" y2="18"/>
	<polyline display="inline" fill="none" stroke="#ED1C24" stroke-width="2" stroke-miterlimit="10" points="6,1 9,4 12,1 	"/>
	<polyline display="inline" fill="none" stroke="#ED1C24" stroke-width="2" stroke-miterlimit="10" points="6,17 9,14 12,17 	"/>
	
		<line display="inline" fill="none" stroke="#ED1C24" stroke-width="2" stroke-miterlimit="10" x1="1.2" y1="4.5" x2="16.8" y2="13.5"/>
	<polyline display="inline" fill="none" stroke="#ED1C24" stroke-width="2" stroke-miterlimit="10" points="0.6,7.6 4.7,6.5 
		3.6,2.4 	"/>
	<polyline display="inline" fill="none" stroke="#ED1C24" stroke-width="2" stroke-miterlimit="10" points="14.4,15.6 13.3,11.5 
		17.4,10.4 	"/>
	
		<line display="inline" fill="none" stroke="#ED1C24" stroke-width="2" stroke-miterlimit="10" x1="1.2" y1="13.5" x2="16.8" y2="4.5"/>
	<polyline display="inline" fill="none" stroke="#ED1C24" stroke-width="2" stroke-miterlimit="10" points="3.6,15.6 4.7,11.5 
		0.6,10.4 	"/>
	<polyline display="inline" fill="none" stroke="#ED1C24" stroke-width="2" stroke-miterlimit="10" points="17.4,7.6 13.3,6.5 
		14.4,2.4 	"/>
</g>
</svg>
