<?xml version="1.0" encoding="utf-8"?>
<!-- Generator: Adobe Illustrator 19.2.1, SVG Export Plug-In . SVG Version: 6.00 Build 0)  -->
<!DOCTYPE svg PUBLIC "-//W3C//DTD SVG 1.1//EN" "http://www.w3.org/Graphics/SVG/1.1/DTD/svg11.dtd">
<svg version="1.1" xmlns="http://www.w3.org/2000/svg" xmlns:xlink="http://www.w3.org/1999/xlink" x="0px" y="0px"
	 viewBox="0 0 18 18" enable-background="new 0 0 18 18" xml:space="preserve">
<g id="Layer_1">
	<path d="M8,4.4L5.3,1.7l1.4-1.4L8,1.6V0h2v1.6l1.3-1.3l1.4,1.4L8,6.4V4.4z M0.8,8.6l3.7-1L6,8.4l1.5-1.5L5.5,5.8l-1-3.7L2.6,2.7
		l0.5,1.8L1.7,3.6l-1,1.7l1.4,0.8L0.3,6.6L0.8,8.6z M10,18v-1.6l1.3,1.3l1.4-1.4L10,13.6v-2l-4.7,4.7l1.4,1.4L8,16.4V18H10z
		 M17.2,9.4l-3.7,1L12,9.6l-1.5,1.5l1.9,1.1l1,3.7l1.9-0.5l-0.5-1.8l1.4,0.8l1-1.7l-1.4-0.8l1.8-0.5L17.2,9.4z M17.7,1.7l-1.4-1.4
		l-16,16l1.4,1.4L17.7,1.7z"/>
</g>
<g id="Layer_2" display="none">
	<g display="inline">
		<polygon fill="#ED1C24" points="8,6.4 12.7,1.7 11.3,0.3 10,1.6 10,0 8,0 8,1.6 6.7,0.3 5.3,1.7 8,4.4 		"/>
		<polygon fill="#ED1C24" points="0.8,8.6 4.5,7.6 6,8.4 7.4,6.9 5.5,5.8 4.5,2.1 2.6,2.7 3.1,4.4 1.7,3.6 0.7,5.4 2.1,6.2 0.3,6.6 
					"/>
		<polygon fill="#ED1C24" points="10,11.6 5.3,16.3 6.7,17.7 8,16.4 8,18 10,18 10,16.4 11.3,17.7 12.7,16.3 10,13.6 		"/>
		<polygon fill="#ED1C24" points="17.2,9.4 13.5,10.4 12,9.6 10.6,11.1 12.5,12.2 13.5,15.9 15.4,15.3 14.9,13.6 16.3,14.4 
			17.3,12.6 15.9,11.8 17.7,11.4 		"/>
	</g>
	<line display="inline" fill="none" stroke="#ED1C24" stroke-width="2" stroke-miterlimit="10" x1="1" y1="17" x2="17" y2="1"/>
</g>
</svg>
