<?xml version="1.0" encoding="utf-8"?>
<!-- Generator: Adobe Illustrator 21.0.0, SVG Export Plug-In . SVG Version: 6.00 Build 0)  -->
<!DOCTYPE svg PUBLIC "-//W3C//DTD SVG 1.1//EN" "http://www.w3.org/Graphics/SVG/1.1/DTD/svg11.dtd">
<svg version="1.1" xmlns="http://www.w3.org/2000/svg" xmlns:xlink="http://www.w3.org/1999/xlink" x="0px" y="0px"
	 viewBox="0 0 18 18" enable-background="new 0 0 18 18" xml:space="preserve">
<g id="Layer_1">
	<path d="M7,8h4v2H7V8z M18,8h-1.5C14.9,5.6,12.1,4,9,4S3.1,5.6,1.5,8H0v2h0.5C0.2,10.9,0,11.9,0,13h2c0-1.1,0.3-2.1,0.7-3H4V8.1
		C5.3,6.8,7,6,9,6s3.7,0.8,5,2.1V10h1.3c0.4,0.9,0.7,1.9,0.7,3h2c0-1.1-0.2-2.1-0.5-3H18V8z"/>
</g>
<g id="Layer_2" display="none">
	<path display="inline" fill="none" stroke="#ED1C24" stroke-width="2" stroke-miterlimit="10" d="M1,13c0-4.4,3.6-8,8-8s8,3.6,8,8"
		/>
	
		<line display="inline" fill="none" stroke="#ED1C24" stroke-width="2" stroke-miterlimit="10" stroke-dasharray="4,3" x1="0" y1="9" x2="18" y2="9"/>
</g>
</svg>
