<?xml version="1.0" encoding="utf-8"?>
<!-- Generator: Adobe Illustrator 19.2.1, SVG Export Plug-In . SVG Version: 6.00 Build 0)  -->
<!DOCTYPE svg PUBLIC "-//W3C//DTD SVG 1.1//EN" "http://www.w3.org/Graphics/SVG/1.1/DTD/svg11.dtd">
<svg version="1.1" xmlns="http://www.w3.org/2000/svg" xmlns:xlink="http://www.w3.org/1999/xlink" x="0px" y="0px"
	 viewBox="0 0 18 18" enable-background="new 0 0 18 18" xml:space="preserve">
<g id="Layer_1">
	<path d="M9,18c-5,0-9-4-9-9s4-9,9-9s9,4,9,9S14,18,9,18z M9,2C5.1,2,2,5.1,2,9s3.1,7,7,7s7-3.1,7-7S12.9,2,9,2z M9,14
		c-2.8,0-5-2.2-5-5s2.2-5,5-5s5,2.2,5,5S11.8,14,9,14z M9,6C7.3,6,6,7.3,6,9s1.3,3,3,3s3-1.3,3-3S10.7,6,9,6z M9,8C8.4,8,8,8.4,8,9
		s0.4,1,1,1s1-0.4,1-1S9.6,8,9,8L9,8z"/>
</g>
<g id="Layer_2" display="none">
	<g display="inline">
		<circle fill="none" stroke="#ED1C24" stroke-width="2" stroke-miterlimit="10" cx="9" cy="9" r="8"/>
		<circle fill="none" stroke="#ED1C24" stroke-width="2" stroke-miterlimit="10" cx="9" cy="9" r="4"/>
		<g>
			<path fill="#ED1C24" d="M9,8C8.4,8,8,8.4,8,9s0.4,1,1,1s1-0.4,1-1S9.6,8,9,8L9,8z"/>
		</g>
	</g>
</g>
</svg>
