<?xml version="1.0" encoding="utf-8"?>
<!-- Generator: Adobe Illustrator 21.0.0, SVG Export Plug-In . SVG Version: 6.00 Build 0)  -->
<!DOCTYPE svg PUBLIC "-//W3C//DTD SVG 1.1//EN" "http://www.w3.org/Graphics/SVG/1.1/DTD/svg11.dtd">
<svg version="1.1" xmlns="http://www.w3.org/2000/svg" xmlns:xlink="http://www.w3.org/1999/xlink" x="0px" y="0px"
	 viewBox="0 0 18 18" enable-background="new 0 0 18 18" xml:space="preserve">
<g id="Layer_1">
	<path d="M16.3,8.7L11,3.4L9.7,4.7L8.3,3.3L11,0.6l6.7,6.7L16.3,8.7z M9.7,7.3L5,2.6L0.3,7.3l1.4,1.4L5,5.4l3.3,3.3L9.7,7.3z M12,8
		c0,1.1-0.9,2-2,2c-4.4,0-8,3.6-8,8h2c0-3.3,2.7-6,6-6c0.7,0,1.4-0.2,1.9-0.5c-0.2,0.9-1,1.5-1.9,1.5c-1.7,0-3,1.3-3,3v2h2v-2
		c0-0.6,0.4-1,1-1c2.2,0,4-1.8,4-4V8H12z"/>
</g>
<g id="Layer_2" display="none">
	<polyline display="inline" fill="none" stroke="#00A651" stroke-width="2" stroke-miterlimit="10" points="17,8 11,2 9,4 	"/>
	<polyline display="inline" fill="none" stroke="#00A651" stroke-width="2" stroke-miterlimit="10" points="9,8 5,4 1,8 	"/>
	<path display="inline" fill="none" stroke="#00A651" stroke-width="2" stroke-miterlimit="10" d="M3,18c0-3.9,3.1-7,7-7"/>
	<path display="inline" fill="none" stroke="#00A651" stroke-width="2" stroke-miterlimit="10" d="M10,14c-1.1,0-2,0.9-2,2v2"/>
	<path display="inline" fill="none" stroke="#00A651" stroke-width="2" stroke-miterlimit="10" d="M13,8c0,1.7-1.3,3-3,3"/>
	<path display="inline" fill="none" stroke="#00A651" stroke-width="2" stroke-miterlimit="10" d="M10,14c1.7,0,3-1.3,3-3V8"/>
</g>
</svg>
