<?xml version="1.0" encoding="utf-8"?>
<!-- Generator: Adobe Illustrator 20.0.0, SVG Export Plug-In . SVG Version: 6.00 Build 0)  -->
<!DOCTYPE svg PUBLIC "-//W3C//DTD SVG 1.1//EN" "http://www.w3.org/Graphics/SVG/1.1/DTD/svg11.dtd">
<svg version="1.1" xmlns="http://www.w3.org/2000/svg" xmlns:xlink="http://www.w3.org/1999/xlink" x="0px" y="0px"
	 viewBox="0 0 18 18" enable-background="new 0 0 18 18" xml:space="preserve">
<g id="Layer_1">
	<path d="M16.8,4.5C17.6,5.8,18,7.4,18,9c0,5-4,9-9,9s-9-4-9-9s4-9,9-9c1.6,0,3.2,0.4,4.5,1.2l-1.8,1.4C10.9,2.2,10,2,9,2
		C5.1,2,2,5.1,2,9s3.1,7,7,7s7-3.1,7-7c0-1-0.2-1.9-0.5-2.7L16.8,4.5z M7.9,7.9c-0.6,0.6-0.6,1.5,0,2.1c0.6,0.6,1.5,0.6,2.1,0L17,1
		L7.9,7.9z"/>
</g>
<g id="Layer_2" display="none">
	<path display="inline" fill="#ED1C24" d="M16.8,4.5C17.6,5.8,18,7.4,18,9c0,5-4,9-9,9s-9-4-9-9s4-9,9-9c1.6,0,3.2,0.4,4.5,1.2
		l-1.8,1.4C10.9,2.2,10,2,9,2C5.1,2,2,5.1,2,9s3.1,7,7,7s7-3.1,7-7c0-1-0.2-1.9-0.5-2.7L16.8,4.5z M7.9,7.9c-0.6,0.6-0.6,1.5,0,2.1
		c0.6,0.6,1.5,0.6,2.1,0L17,1L7.9,7.9z"/>
</g>
</svg>
