<?xml version="1.0" encoding="utf-8"?>
<!-- Generator: Adobe Illustrator 19.2.1, SVG Export Plug-In . SVG Version: 6.00 Build 0)  -->
<!DOCTYPE svg PUBLIC "-//W3C//DTD SVG 1.1//EN" "http://www.w3.org/Graphics/SVG/1.1/DTD/svg11.dtd">
<svg version="1.1" xmlns="http://www.w3.org/2000/svg" xmlns:xlink="http://www.w3.org/1999/xlink" x="0px" y="0px"
	 viewBox="0 0 18 18" enable-background="new 0 0 18 18" xml:space="preserve">
<g id="Layer_1">
	<path d="M9,0C4,0,0,4,0,9s4,9,9,9s9-4,9-9S14,0,9,0z M9,16c-3.9,0-7-3.1-7-7s3.1-7,7-7s7,3.1,7,7S12.9,16,9,16z M9,4
		C7.3,4,6,5.3,6,7c0,0.8,0.3,1.5,0.8,2C6.3,9.5,6,10.2,6,11c0,1.7,1.3,3,3,3s3-1.3,3-3c0-0.8-0.3-1.5-0.8-2C11.7,8.5,12,7.8,12,7
		C12,5.3,10.7,4,9,4z M9,6c0.6,0,1,0.4,1,1S9.6,8,9,8S8,7.5,8,7S8.4,6,9,6z M9,12c-0.6,0-1-0.4-1-1s0.4-1,1-1s1,0.4,1,1S9.6,12,9,12
		z"/>
</g>
<g id="Layer_2" display="none">
	<circle display="inline" fill="none" stroke="#ED1C24" stroke-width="2" stroke-miterlimit="10" cx="9" cy="9" r="8"/>
	<circle display="inline" fill="none" stroke="#ED1C24" stroke-width="2" stroke-miterlimit="10" cx="9" cy="11" r="2"/>
	<circle display="inline" fill="none" stroke="#ED1C24" stroke-width="2" stroke-miterlimit="10" cx="9" cy="7" r="2"/>
</g>
</svg>
