<?xml version="1.0" encoding="utf-8"?>
<!-- Generator: Adobe Illustrator 19.2.1, SVG Export Plug-In . SVG Version: 6.00 Build 0)  -->
<!DOCTYPE svg PUBLIC "-//W3C//DTD SVG 1.1//EN" "http://www.w3.org/Graphics/SVG/1.1/DTD/svg11.dtd">
<svg version="1.1" xmlns="http://www.w3.org/2000/svg" xmlns:xlink="http://www.w3.org/1999/xlink" x="0px" y="0px"
	 viewBox="0 0 18 18" enable-background="new 0 0 18 18" xml:space="preserve">
<g id="Layer_1">
	<path d="M2,12c0-2.2,1.8-4,4-4h7.6l-3.9,4l1.4,1.4L17.4,7l-6.4-6.4L9.6,2l3.9,4H6c-3.3,0-6,2.7-6,6s2.7,6,6,6h8v-2H6
		C3.8,16,2,14.2,2,12z"/>
</g>
<g id="Layer_2" display="none">
	<g display="inline">
		<polyline fill="none" stroke="#ED1C24" stroke-width="2" stroke-miterlimit="10" points="10.3,1.3 16,7 10.3,12.7 		"/>
		<path fill="none" stroke="#ED1C24" stroke-width="2" stroke-miterlimit="10" d="M16,7L6,7c-2.8,0-5,2.2-5,5s2.2,5,5,5l8,0"/>
	</g>
</g>
</svg>
