<?xml version="1.0" encoding="utf-8"?>
<!-- Generator: Adobe Illustrator 19.2.1, SVG Export Plug-In . SVG Version: 6.00 Build 0)  -->
<!DOCTYPE svg PUBLIC "-//W3C//DTD SVG 1.1//EN" "http://www.w3.org/Graphics/SVG/1.1/DTD/svg11.dtd">
<svg version="1.1" xmlns="http://www.w3.org/2000/svg" xmlns:xlink="http://www.w3.org/1999/xlink" x="0px" y="0px"
	 viewBox="0 0 18 18" enable-background="new 0 0 18 18" xml:space="preserve">
<g id="Layer_1">
	<polygon points="13.9,12.5 17.4,9 13.9,5.5 12.5,6.9 13.6,8 10,8 10,4.4 11.1,5.5 12.5,4.1 9,0.6 5.5,4.1 6.9,5.5 8,4.4 8,8 4.4,8 
		5.5,6.9 4.1,5.5 0.6,9 4.1,12.5 5.5,11.1 4.4,10 8,10 8,13.6 6.9,12.5 5.5,13.9 9,17.4 12.5,13.9 11.1,12.5 10,13.6 10,10 13.6,10 
		12.5,11.1 	"/>
</g>
<g id="Layer_2" display="none">
	<line display="inline" fill="none" stroke="#ED1C24" stroke-width="2" stroke-miterlimit="10" x1="9" y1="2" x2="9" y2="16"/>
	<polyline display="inline" fill="none" stroke="#ED1C24" stroke-width="2" stroke-miterlimit="10" points="11.8,13.2 9,16 
		6.2,13.2 	"/>
	<polyline display="inline" fill="none" stroke="#ED1C24" stroke-width="2" stroke-miterlimit="10" points="6.2,4.8 9,2 11.8,4.8 	
		"/>
	<line display="inline" fill="none" stroke="#ED1C24" stroke-width="2" stroke-miterlimit="10" x1="2" y1="9" x2="16" y2="9"/>
	<polyline display="inline" fill="none" stroke="#ED1C24" stroke-width="2" stroke-miterlimit="10" points="13.2,6.2 16,9 
		13.2,11.8 	"/>
	<polyline display="inline" fill="none" stroke="#ED1C24" stroke-width="2" stroke-miterlimit="10" points="4.8,11.8 2,9 4.8,6.2 	
		"/>
</g>
</svg>
