<?xml version="1.0" encoding="utf-8"?>
<!-- Generator: Adobe Illustrator 19.2.1, SVG Export Plug-In . SVG Version: 6.00 Build 0)  -->
<!DOCTYPE svg PUBLIC "-//W3C//DTD SVG 1.1//EN" "http://www.w3.org/Graphics/SVG/1.1/DTD/svg11.dtd">
<svg version="1.1" xmlns="http://www.w3.org/2000/svg" xmlns:xlink="http://www.w3.org/1999/xlink" x="0px" y="0px"
	 viewBox="0 0 18 18" enable-background="new 0 0 18 18" xml:space="preserve">
<g id="Layer_1">
	<path d="M12,6H4.4l3.9-4L6.9,0.6L0.6,7l6.4,6.4L8.4,12L4.4,8H12c2.2,0,4,1.8,4,4s-1.8,4-4,4H4v2h8c3.3,0,6-2.7,6-6S15.3,6,12,6z"/>
</g>
<g id="Layer_2" display="none">
	<g display="inline">
		<polyline fill="none" stroke="#ED1C24" stroke-width="2" stroke-miterlimit="10" points="7.7,1.3 2,7 7.7,12.7 		"/>
		<path fill="none" stroke="#ED1C24" stroke-width="2" stroke-miterlimit="10" d="M2,7l10,0c2.8,0,5,2.2,5,5s-2.2,5-5,5l-8,0"/>
	</g>
</g>
</svg>
