<?xml version="1.0" encoding="utf-8"?>
<!-- Generator: Adobe Illustrator 20.0.0, SVG Export Plug-In . SVG Version: 6.00 Build 0)  -->
<!DOCTYPE svg PUBLIC "-//W3C//DTD SVG 1.1//EN" "http://www.w3.org/Graphics/SVG/1.1/DTD/svg11.dtd">
<svg version="1.1" xmlns="http://www.w3.org/2000/svg" xmlns:xlink="http://www.w3.org/1999/xlink" x="0px" y="0px"
	 viewBox="0 0 18 18" enable-background="new 0 0 18 18" xml:space="preserve">
<g id="Layer_1">
	<path d="M18,16v2H0v-2H18z M9,2c1.1,0,2.1,0.4,3,1h-2v2h5V0h-2v1.3C11.8,0.4,10.5,0,9,0C5.1,0,2,3.1,2,7h2C4,4.2,6.2,2,9,2z M8,9H3
		v5h2v-1.3C6.2,13.5,7.5,14,9,14c3.9,0,7-3.1,7-7h-2c0,2.8-2.2,5-5,5c-1.1,0-2.1-0.4-3-1h2V9z"/>
</g>
<g id="Layer_2" display="none">
	<line display="inline" fill="none" stroke="#ED1C24" stroke-width="2" stroke-miterlimit="10" x1="0" y1="17" x2="18" y2="17"/>
	<polyline display="inline" fill="none" stroke="#ED1C24" stroke-width="2" stroke-miterlimit="10" points="14,0 14,4 10,4 	"/>
	<path display="inline" fill="none" stroke="#ED1C24" stroke-width="2" stroke-miterlimit="10" d="M3,7c0-3.3,2.7-6,6-6
		c2.1,0,3.9,1.1,5,2.7"/>
	<polyline display="inline" fill="none" stroke="#ED1C24" stroke-width="2" stroke-miterlimit="10" points="4,14 4,10 8,10 	"/>
	<path display="inline" fill="none" stroke="#ED1C24" stroke-width="2" stroke-miterlimit="10" d="M15,7c0,3.3-2.7,6-6,6
		c-2.1,0-3.9-1.1-5-2.7"/>
</g>
</svg>
