<?xml version="1.0" encoding="utf-8"?>
<!-- Generator: Adobe Illustrator 21.0.0, SVG Export Plug-In . SVG Version: 6.00 Build 0)  -->
<!DOCTYPE svg PUBLIC "-//W3C//DTD SVG 1.1//EN" "http://www.w3.org/Graphics/SVG/1.1/DTD/svg11.dtd">
<svg version="1.1" xmlns="http://www.w3.org/2000/svg" xmlns:xlink="http://www.w3.org/1999/xlink" x="0px" y="0px"
	 viewBox="0 0 18 18" enable-background="new 0 0 18 18" xml:space="preserve">
<g id="Layer_1">
	<path d="M6.2,9.4L7.6,8L6.2,6.6l1.4-1.4L9,6.6l1.4-1.4l1.4,1.4L10.4,8l1.4,1.4l-1.4,1.4L9,9.4l-1.4,1.4L6.2,9.4z M14,8
		c0,2.8-2.2,5-5,5s-5-2.2-5-5V6H0v2h2c0,3.9,3.1,7,7,7s7-3.1,7-7h2V6h-4V8z"/>
</g>
<g id="Layer_2" display="none">
	<path display="inline" fill="none" stroke="#ED1C24" stroke-width="2" stroke-miterlimit="10" d="M3,8c0,3.3,2.7,6,6,6s6-2.7,6-6"
		/>
	
		<line display="inline" fill="none" stroke="#ED1C24" stroke-width="2" stroke-miterlimit="10" x1="11.1" y1="10.1" x2="6.9" y2="5.9"/>
	
		<line display="inline" fill="none" stroke="#ED1C24" stroke-width="2" stroke-miterlimit="10" x1="11.1" y1="5.9" x2="6.9" y2="10.1"/>
	<line display="inline" fill="none" stroke="#ED1C24" stroke-width="2" stroke-miterlimit="10" x1="0" y1="7" x2="4" y2="7"/>
	<line display="inline" fill="none" stroke="#ED1C24" stroke-width="2" stroke-miterlimit="10" x1="14" y1="7" x2="18" y2="7"/>
</g>
</svg>
