<?xml version="1.0" encoding="utf-8"?>
<!-- Generator: Adobe Illustrator 19.2.1, SVG Export Plug-In . SVG Version: 6.00 Build 0)  -->
<!DOCTYPE svg PUBLIC "-//W3C//DTD SVG 1.1//EN" "http://www.w3.org/Graphics/SVG/1.1/DTD/svg11.dtd">
<svg version="1.1" xmlns="http://www.w3.org/2000/svg" xmlns:xlink="http://www.w3.org/1999/xlink" x="0px" y="0px"
	 viewBox="0 0 18 18" enable-background="new 0 0 18 18" xml:space="preserve">
<g id="Layer_1">
	<path d="M0,4v14h18V4L9,0L0,4z M16,16H2V5.3l7-3.1l7,3.1V16z M10,14v-2c0.6,0,1-0.4,1-1s-0.4-1-1-1V8c0.6,0,1-0.4,1-1s-0.4-1-1-1V4
		c1.7,0,3,1.3,3,3c0,0.8-0.3,1.5-0.8,2c0.5,0.5,0.8,1.2,0.8,2C13,12.7,11.7,14,10,14z M6,8h2v2H6V8z"/>
</g>
<g id="Layer_2" display="none">
	<g display="inline">
		<path fill="#ED1C24" d="M9,2.2l7,3.1V16H2V5.3L9,2.2 M9,0L0,4v14h18V4L9,0L9,0z"/>
	</g>
	<path display="inline" fill="none" stroke="#ED1C24" stroke-width="2" stroke-miterlimit="10" d="M10,5c1.1,0,2,0.9,2,2s-0.9,2-2,2
		"/>
	<path display="inline" fill="none" stroke="#ED1C24" stroke-width="2" stroke-miterlimit="10" d="M10,9c1.1,0,2,0.9,2,2s-0.9,2-2,2
		"/>
	<line display="inline" fill="none" stroke="#ED1C24" stroke-width="2" stroke-miterlimit="10" x1="8" y1="9" x2="6" y2="9"/>
</g>
</svg>
