<?xml version="1.0" encoding="utf-8"?>
<!-- Generator: Adobe Illustrator 19.2.1, SVG Export Plug-In . SVG Version: 6.00 Build 0)  -->
<!DOCTYPE svg PUBLIC "-//W3C//DTD SVG 1.1//EN" "http://www.w3.org/Graphics/SVG/1.1/DTD/svg11.dtd">
<svg version="1.1" xmlns="http://www.w3.org/2000/svg" xmlns:xlink="http://www.w3.org/1999/xlink" x="0px" y="0px"
	 viewBox="0 0 18 18" enable-background="new 0 0 18 18" xml:space="preserve">
<g id="Layer_1">
	<path d="M18,10c0,2.2-1.8,4-4,4v-2c1.1,0,2-0.9,2-2s-0.9-2-2-2V6c1.1,0,2-0.9,2-2s-0.9-2-2-2V0c2.2,0,4,1.8,4,4
		c0,1.2-0.5,2.3-1.4,3C17.5,7.7,18,8.8,18,10z M10,8h2V6h-2V8z M6,6h2v2H6v10H0V3c0-1.7,1.3-3,3-3s3,1.3,3,3V6z M4,3
		c0-0.6-0.4-1-1-1S2,2.4,2,3v13h2V3z"/>
</g>
<g id="Layer_2" display="none">
	<path display="inline" fill="none" stroke="#ED1C24" stroke-width="2" stroke-miterlimit="10" d="M14,1c1.7,0,3,1.3,3,3s-1.3,3-3,3
		"/>
	<path display="inline" fill="none" stroke="#ED1C24" stroke-width="2" stroke-miterlimit="10" d="M14,7c1.7,0,3,1.3,3,3s-1.3,3-3,3
		"/>
	<line display="inline" fill="none" stroke="#ED1C24" stroke-width="2" stroke-miterlimit="10" x1="12" y1="7" x2="10" y2="7"/>
	<path display="inline" fill="none" stroke="#ED1C24" stroke-width="2" stroke-miterlimit="10" d="M8,7L5,7V3c0-1.1-0.9-2-2-2
		S1,1.9,1,3v14h4V7"/>
</g>
</svg>
