<?xml version="1.0" encoding="utf-8"?>
<!-- Generator: Adobe Illustrator 19.2.1, SVG Export Plug-In . SVG Version: 6.00 Build 0)  -->
<!DOCTYPE svg PUBLIC "-//W3C//DTD SVG 1.1//EN" "http://www.w3.org/Graphics/SVG/1.1/DTD/svg11.dtd">
<svg version="1.1" xmlns="http://www.w3.org/2000/svg" xmlns:xlink="http://www.w3.org/1999/xlink" x="0px" y="0px"
	 viewBox="0 0 18 18" enable-background="new 0 0 18 18" xml:space="preserve">
<g id="Layer_1">
	<path d="M18,1v6h-6V5h2.7C13.4,3.1,11.3,2,9,2C5.1,2,2,5.1,2,9H0c0-5,4-9,9-9c2.8,0,5.3,1.3,7,3.3V1H18z M9,16
		c-2.3,0-4.4-1.1-5.7-3H6v-2H0v6h2v-2.3C3.7,16.7,6.2,18,9,18c5,0,9-4,9-9h-2C16,12.9,12.9,16,9,16z"/>
</g>
<g id="Layer_2" display="none">
	<g display="inline">
		<polyline fill="none" stroke="#ED1C24" stroke-width="2" stroke-miterlimit="10" points="17,1 17,6 12,6 		"/>
		<path fill="none" stroke="#ED1C24" stroke-width="2" stroke-miterlimit="10" d="M1,9c0-4.4,3.6-8,8-8c3.4,0,6.2,2.1,7.4,5"/>
		<polyline fill="none" stroke="#ED1C24" stroke-width="2" stroke-miterlimit="10" points="1,17 1,12 6,12 		"/>
		<path fill="none" stroke="#ED1C24" stroke-width="2" stroke-miterlimit="10" d="M17,9c0,4.4-3.6,8-8,8c-3.4,0-6.2-2.1-7.4-5"/>
	</g>
</g>
</svg>
