<?xml version="1.0" encoding="utf-8"?>
<!-- Generator: Adobe Illustrator 19.2.1, SVG Export Plug-In . SVG Version: 6.00 Build 0)  -->
<!DOCTYPE svg PUBLIC "-//W3C//DTD SVG 1.1//EN" "http://www.w3.org/Graphics/SVG/1.1/DTD/svg11.dtd">
<svg version="1.1" xmlns="http://www.w3.org/2000/svg" xmlns:xlink="http://www.w3.org/1999/xlink" x="0px" y="0px"
	 viewBox="0 0 18 18" enable-background="new 0 0 18 18" xml:space="preserve">
<g id="Layer_1">
	<path d="M9,0L4.4,8H0v2h3.3C3.1,10.6,3,11.3,3,12c0,3.3,2.7,6,6,6s6-2.7,6-6c0-0.7-0.1-1.4-0.3-2H18V8h-4.4L9,0z M9,16
		c-2.2,0-4-1.8-4-4c0-0.5,0.1-1,0.3-1.5L9,4l3.7,6.5c0.2,0.5,0.3,1,0.3,1.5C13,14.2,11.2,16,9,16z M9,12h2c0,1.1-0.9,2-2,2V12z"/>
</g>
<g id="Layer_2" display="none">
	<g display="inline">
		<g>
			<path fill="#ED1C24" d="M9,4l3.7,6.5c0.2,0.5,0.3,1,0.3,1.5c0,2.2-1.8,4-4,4s-4-1.8-4-4c0-0.5,0.1-1,0.3-1.5L9,4 M9,0L3.5,9.7
				C3.2,10.4,3,11.2,3,12c0,3.3,2.7,6,6,6s6-2.7,6-6c0-0.8-0.2-1.6-0.5-2.3L9,0L9,0z"/>
		</g>
	</g>
	<line display="inline" fill="none" stroke="#ED1C24" stroke-width="2" stroke-miterlimit="10" x1="5" y1="9" x2="0" y2="9"/>
	<line display="inline" fill="none" stroke="#ED1C24" stroke-width="2" stroke-miterlimit="10" x1="18" y1="9" x2="13" y2="9"/>
	<path display="inline" fill="none" stroke="#ED1C24" stroke-width="2" stroke-miterlimit="10" d="M10,12c0,0.6-0.4,1-1,1"/>
</g>
</svg>
