<?xml version="1.0" encoding="utf-8"?>
<!-- Generator: Adobe Illustrator 21.0.0, SVG Export Plug-In . SVG Version: 6.00 Build 0)  -->
<!DOCTYPE svg PUBLIC "-//W3C//DTD SVG 1.1//EN" "http://www.w3.org/Graphics/SVG/1.1/DTD/svg11.dtd">
<svg version="1.1" xmlns="http://www.w3.org/2000/svg" xmlns:xlink="http://www.w3.org/1999/xlink" x="0px" y="0px"
	 viewBox="0 0 18 18" enable-background="new 0 0 18 18" xml:space="preserve">
<g id="Layer_1">
	<path d="M6,6.5C5.2,6.5,4.5,5.8,4.5,5S5.2,3.5,6,3.5S7.5,4.2,7.5,5S6.8,6.5,6,6.5z M15,10.5c-0.8,0-1.5-0.7-1.5-1.5
		s0.7-1.5,1.5-1.5s1.5,0.7,1.5,1.5S15.8,10.5,15,10.5z M3,10.5c-0.8,0-1.5-0.7-1.5-1.5S2.2,7.5,3,7.5S4.5,8.2,4.5,9S3.8,10.5,3,10.5
		z M17.7,1.7l-1.4-1.4l-16,16l1.4,1.4L17.7,1.7z M8.2,14H18v-2h-7.8L8.2,14z M1.8,12H0v1.8L1.8,12z"/>
</g>
<g id="Layer_2" display="none">
	<circle display="inline" fill="none" stroke="#ED1C24" stroke-width="2" stroke-miterlimit="10" cx="6" cy="5" r="0.5"/>
	<circle display="inline" fill="none" stroke="#ED1C24" stroke-width="2" stroke-miterlimit="10" cx="15" cy="9" r="0.5"/>
	<circle display="inline" fill="none" stroke="#ED1C24" stroke-width="2" stroke-miterlimit="10" cx="3" cy="9" r="0.5"/>
	<line display="inline" fill="none" stroke="#ED1C24" stroke-width="2" stroke-miterlimit="10" x1="17" y1="1" x2="1" y2="17"/>
	<g display="inline">
		<polygon fill="#ED1C24" points="8.2,14 18,14 18,12 10.2,12 		"/>
		<polygon fill="#ED1C24" points="1.8,12 0,12 0,13.8 		"/>
	</g>
</g>
</svg>
