<?xml version="1.0" encoding="utf-8"?>
<!-- Generator: Adobe Illustrator 21.0.0, SVG Export Plug-In . SVG Version: 6.00 Build 0)  -->
<!DOCTYPE svg PUBLIC "-//W3C//DTD SVG 1.1//EN" "http://www.w3.org/Graphics/SVG/1.1/DTD/svg11.dtd">
<svg version="1.1" xmlns="http://www.w3.org/2000/svg" xmlns:xlink="http://www.w3.org/1999/xlink" x="0px" y="0px"
	 viewBox="0 0 18 18" enable-background="new 0 0 18 18" xml:space="preserve">
<g id="Layer_1">
	<path d="M18,14H0v-2h18V14z M13.5,5c0-0.8-0.7-1.5-1.5-1.5S10.5,4.2,10.5,5s0.7,1.5,1.5,1.5S13.5,5.8,13.5,5z M7.5,5
		c0-0.8-0.7-1.5-1.5-1.5S4.5,4.2,4.5,5S5.2,6.5,6,6.5S7.5,5.8,7.5,5z M16.5,9c0-0.8-0.7-1.5-1.5-1.5S13.5,8.2,13.5,9
		s0.7,1.5,1.5,1.5S16.5,9.8,16.5,9z M10.5,9c0-0.8-0.7-1.5-1.5-1.5S7.5,8.2,7.5,9s0.7,1.5,1.5,1.5S10.5,9.8,10.5,9z M4.5,9
		c0-0.8-0.7-1.5-1.5-1.5S1.5,8.2,1.5,9s0.7,1.5,1.5,1.5S4.5,9.8,4.5,9z"/>
</g>
<g id="Layer_2" display="none">
	<line display="inline" fill="none" stroke="#ED1C24" stroke-width="2" stroke-miterlimit="10" x1="0" y1="13" x2="18" y2="13"/>
	<circle display="inline" fill="none" stroke="#ED1C24" stroke-width="2" stroke-miterlimit="10" cx="12" cy="5" r="0.5"/>
	<circle display="inline" fill="none" stroke="#ED1C24" stroke-width="2" stroke-miterlimit="10" cx="6" cy="5" r="0.5"/>
	<circle display="inline" fill="none" stroke="#ED1C24" stroke-width="2" stroke-miterlimit="10" cx="15" cy="9" r="0.5"/>
	<circle display="inline" fill="none" stroke="#ED1C24" stroke-width="2" stroke-miterlimit="10" cx="9" cy="9" r="0.5"/>
	<circle display="inline" fill="none" stroke="#ED1C24" stroke-width="2" stroke-miterlimit="10" cx="3" cy="9" r="0.5"/>
</g>
</svg>
