<?xml version="1.0" encoding="utf-8"?>
<!-- Generator: Adobe Illustrator 20.1.0, SVG Export Plug-In . SVG Version: 6.00 Build 0)  -->
<!DOCTYPE svg PUBLIC "-//W3C//DTD SVG 1.1//EN" "http://www.w3.org/Graphics/SVG/1.1/DTD/svg11.dtd">
<svg version="1.1" xmlns="http://www.w3.org/2000/svg" xmlns:xlink="http://www.w3.org/1999/xlink" x="0px" y="0px"
	 viewBox="0 0 18 18" enable-background="new 0 0 18 18" xml:space="preserve">
<g id="Layer_1">
	<path d="M9,14c2.6,0,4.7-2.1,4.7-4.7c0-0.6-0.1-1.3-0.4-1.8L9,0L4.7,7.5C4.5,8.1,4.3,8.7,4.3,9.3C4.3,11.9,6.4,14,9,14z M6.5,8.4
		L9,4l2.5,4.4c0.1,0.3,0.2,0.6,0.2,0.9c0,1.5-1.2,2.7-2.7,2.7s-2.7-1.2-2.7-2.7C6.3,9,6.4,8.7,6.5,8.4z M16.7,14l0.5,1.9l-7.1,2
		l-2.4,0l-7-2L1.3,14l6.9,2h1.7L16.7,14z"/>
</g>
<g id="Layer_2" display="none">
	<g display="inline">
		<g>
			<path fill="#ED1C24" d="M9,4l2.5,4.4c0.1,0.3,0.2,0.6,0.2,0.9c0,1.5-1.2,2.7-2.7,2.7s-2.7-1.2-2.7-2.7c0-0.3,0.1-0.6,0.2-0.9L9,4
				 M9,0L4.7,7.5C4.5,8.1,4.3,8.7,4.3,9.3C4.3,11.9,6.4,14,9,14s4.7-2.1,4.7-4.7c0-0.6-0.1-1.3-0.4-1.8L9,0L9,0z"/>
		</g>
	</g>
	<polyline display="inline" fill="none" stroke="#ED1C24" stroke-width="2" stroke-miterlimit="10" points="1,15 8,17 10,17 17,15 	
		"/>
</g>
</svg>
