<?xml version="1.0" encoding="utf-8"?>
<!-- Generator: Adobe Illustrator 21.0.0, SVG Export Plug-In . SVG Version: 6.00 Build 0)  -->
<!DOCTYPE svg PUBLIC "-//W3C//DTD SVG 1.1//EN" "http://www.w3.org/Graphics/SVG/1.1/DTD/svg11.dtd">
<svg version="1.1" xmlns="http://www.w3.org/2000/svg" xmlns:xlink="http://www.w3.org/1999/xlink" x="0px" y="0px"
	 viewBox="0 0 18 18" enable-background="new 0 0 18 18" xml:space="preserve">
<g id="Layer_1">
	<path d="M0.3,6.6l1.8-0.5L0.7,5.4l1-1.7l1.4,0.8L2.6,2.7l1.9-0.5l1,3.7L8,7.3V4.4L5.3,1.7l1.4-1.4L8,1.6V0h2v1.6l1.3-1.3l1.4,1.4
		L10,4.4v2.9l2.5-1.4l1-3.7l1.9,0.5l-0.5,1.8l1.4-0.8l1,1.7l-1.4,0.8l1.8,0.5l-0.5,1.9l-3.7-1L9,10.2L4.5,7.6l-3.7,1L0.3,6.6z M0,12
		v2h18v-2H0z"/>
</g>
<g id="Layer_2" display="none">
	<line display="inline" fill="none" stroke="#ED1C24" stroke-width="2" stroke-miterlimit="10" x1="9" y1="9" x2="9" y2="0"/>
	<polyline display="inline" fill="none" stroke="#ED1C24" stroke-width="2" stroke-miterlimit="10" points="6,1 9,4 12,1 	"/>
	<polyline display="inline" fill="none" stroke="#ED1C24" stroke-width="2" stroke-miterlimit="10" points="14.4,2.4 13.3,6.5 
		17.4,7.6 	"/>
	<polyline display="inline" fill="none" stroke="#ED1C24" stroke-width="2" stroke-miterlimit="10" points="1.2,4.5 9,9 16.8,4.5 	
		"/>
	<polyline display="inline" fill="none" stroke="#ED1C24" stroke-width="2" stroke-miterlimit="10" points="3.6,2.4 4.7,6.5 
		0.6,7.6 	"/>
	<line display="inline" fill="none" stroke="#ED1C24" stroke-width="2" stroke-miterlimit="10" x1="0" y1="13" x2="18" y2="13"/>
</g>
</svg>
