<?xml version="1.0" encoding="utf-8"?>
<!-- Generator: Adobe Illustrator 19.2.1, SVG Export Plug-In . SVG Version: 6.00 Build 0)  -->
<!DOCTYPE svg PUBLIC "-//W3C//DTD SVG 1.1//EN" "http://www.w3.org/Graphics/SVG/1.1/DTD/svg11.dtd">
<svg version="1.1" xmlns="http://www.w3.org/2000/svg" xmlns:xlink="http://www.w3.org/1999/xlink" x="0px" y="0px"
	 viewBox="0 0 18 18" enable-background="new 0 0 18 18" xml:space="preserve">
<g id="Layer_1">
	<path d="M16,2H2C0.9,2,0,2.9,0,4v10c0,1.1,0.9,2,2,2h14c1.1,0,2-0.9,2-2V4C18,2.9,17.1,2,16,2z M16,14H2V4h14L16,14z M5,12H3V6h3
		c1.1,0,2,0.9,2,2c0,1.1-0.9,2-2,2H5V12z M11,12H9V5.6l3,3l3-3V12h-2v-1.6l-1,1l-1-1V12z"/>
</g>
<g id="Layer_2" display="none">
	<path display="inline" fill="none" stroke="#ED1C24" stroke-width="2" stroke-miterlimit="10" d="M16,15H2c-0.5,0-1-0.4-1-1V4
		c0-0.5,0.5-1,1-1h14c0.5,0,1,0.5,1,1v10C17,14.6,16.5,15,16,15z"/>
	
		<line display="inline" fill="none" stroke="#ED1C24" stroke-width="2" stroke-linejoin="bevel" stroke-miterlimit="10" x1="4" y1="6" x2="4" y2="12"/>
	<polyline display="inline" fill="none" stroke="#ED1C24" stroke-width="2" stroke-miterlimit="10" points="10,12 10,8 12,10 14,8 
		14,12 	"/>
	<g display="inline">
		<path fill="#ED1C24" d="M6,6H4v4h2c1.1,0,2-0.9,2-2C8,6.9,7.1,6,6,6L6,6z"/>
	</g>
</g>
</svg>
