<?xml version="1.0" encoding="utf-8"?>
<!-- Generator: Adobe Illustrator 19.2.1, SVG Export Plug-In . SVG Version: 6.00 Build 0)  -->
<!DOCTYPE svg PUBLIC "-//W3C//DTD SVG 1.1//EN" "http://www.w3.org/Graphics/SVG/1.1/DTD/svg11.dtd">
<svg version="1.1" xmlns="http://www.w3.org/2000/svg" xmlns:xlink="http://www.w3.org/1999/xlink" x="0px" y="0px"
	 viewBox="0 0 18 18" enable-background="new 0 0 18 18" xml:space="preserve">
<g id="Layer_1">
	<path d="M9,2c3.8,0,7,2.3,7,5s-3.2,5-7,5c-0.4,0-0.9,0-1.4-0.1l-0.7-0.1l-2.7,1.5l0.9-2l-1.2-1C2.7,9.4,2,8.2,2,7C2,4.3,5.2,2,9,2
		 M9,0C4,0,0,3.1,0,7c0,1.9,1,3.7,2.6,5L0,18l7.3-4.1C7.9,14,8.4,14,9,14c5,0,9-3.1,9-7S14,0,9,0L9,0z"/>
</g>
<g id="Layer_2" display="none">
	<g display="inline">
		<g>
			<path fill="#ED1C24" d="M9,2c3.8,0,7,2.3,7,5s-3.2,5-7,5c-0.4,0-0.9,0-1.4-0.1l-0.7-0.1l-0.6,0.3l-2.1,1.2l0.2-0.6l0.6-1.4
				l-1.2-1C2.7,9.4,2,8.2,2,7C2,4.3,5.2,2,9,2 M9,0C4,0,0,3.1,0,7c0,1.9,1,3.7,2.6,5L0,18l7.3-4.1C7.9,14,8.4,14,9,14c5,0,9-3.1,9-7
				S14,0,9,0L9,0z"/>
		</g>
	</g>
</g>
</svg>
