<?xml version="1.0" encoding="utf-8"?>
<!-- Generator: Adobe Illustrator 19.2.1, SVG Export Plug-In . SVG Version: 6.00 Build 0)  -->
<!DOCTYPE svg PUBLIC "-//W3C//DTD SVG 1.1//EN" "http://www.w3.org/Graphics/SVG/1.1/DTD/svg11.dtd">
<svg version="1.1" xmlns="http://www.w3.org/2000/svg" xmlns:xlink="http://www.w3.org/1999/xlink" x="0px" y="0px"
	 viewBox="0 0 18 18" enable-background="new 0 0 18 18" xml:space="preserve">
<g id="Layer_1">
	<path d="M14,10c-2.2,0-4,1.8-4,4c0,0.5,0.1,1,0.3,1.4c-3.6-1.2-6.5-4-7.7-7.7C3,7.9,3.5,8,4,8c2.2,0,4-1.8,4-4L4,0C1.8,0,0,1.8,0,4
		c0,7.7,6.3,14,14,14c2.2,0,4-1.8,4-4L14,10z M3.3,2.1l2.6,2.6C5.6,5.5,4.9,6,4,6C2.9,6,2,5.1,2,4C2,3.1,2.5,2.4,3.3,2.1z M14,16
		c-1.1,0-2-0.9-2-2c0-0.9,0.5-1.6,1.3-1.9l2.6,2.6C15.6,15.5,14.9,16,14,16z"/>
</g>
<g id="Layer_2" display="none">
	<g display="inline">
		<path fill="none" stroke="#ED1C24" stroke-width="2" stroke-miterlimit="10" d="M1,4c0,7.2,5.8,13,13,13"/>
		<g>
			<path fill="#ED1C24" d="M3.3,2.1l2.6,2.6C5.6,5.5,4.9,6,4,6C2.9,6,2,5.1,2,4C2,3.1,2.5,2.4,3.3,2.1 M4,0C1.8,0,0,1.8,0,4
				s1.8,4,4,4s4-1.8,4-4L4,0L4,0z"/>
		</g>
		<g>
			<path fill="#ED1C24" d="M13.3,12.1l2.6,2.6c-0.3,0.8-1,1.3-1.9,1.3c-1.1,0-2-0.9-2-2C12,13.1,12.5,12.4,13.3,12.1 M14,10
				c-2.2,0-4,1.8-4,4s1.8,4,4,4s4-1.8,4-4L14,10L14,10z"/>
		</g>
	</g>
</g>
</svg>
