<?xml version="1.0" encoding="utf-8"?>
<!-- Generator: Adobe Illustrator 21.0.0, SVG Export Plug-In . SVG Version: 6.00 Build 0)  -->
<!DOCTYPE svg PUBLIC "-//W3C//DTD SVG 1.1//EN" "http://www.w3.org/Graphics/SVG/1.1/DTD/svg11.dtd">
<svg version="1.1" xmlns="http://www.w3.org/2000/svg" xmlns:xlink="http://www.w3.org/1999/xlink" x="0px" y="0px"
	 viewBox="0 0 18 18" enable-background="new 0 0 18 18" xml:space="preserve">
<g id="Layer_1">
	<path d="M0,0v18h8h1h1c0-1.9,1.6-3.5,3.5-3.5h1v-1c0-1.9,1.6-3.5,3.5-3.5V9V8V0H0z M12.6,12.6c-1.9,0.3-3.5,1.7-4.2,3.4H2V2h14v6.4
		C14.2,9.1,12.9,10.7,12.6,12.6z M10,4H6v10h2v-4h2c1.7,0,3-1.3,3-3S11.7,4,10,4z M10,8H8V6h2c0.6,0,1,0.4,1,1S10.6,8,10,8z"/>
</g>
<g id="Layer_2" display="none">
	<polyline display="inline" fill="none" stroke="#ED1C24" stroke-width="2" stroke-miterlimit="10" points="9,17 1,17 1,1 17,1 
		17,9 	"/>
	<path display="inline" fill="none" stroke="#ED1C24" stroke-width="2" stroke-miterlimit="10" d="M7,14V5h3c1.1,0,2,0.9,2,2
		s-0.9,2-2,2H7"/>
	<path display="inline" fill="none" stroke="#ED1C24" stroke-width="2" stroke-miterlimit="10" d="M9,18c0-2.5,2-4.5,4.5-4.5
		c0-2.5,2-4.5,4.5-4.5"/>
</g>
</svg>
