<?xml version="1.0" encoding="utf-8"?>
<!-- Generator: Adobe Illustrator 19.2.1, SVG Export Plug-In . SVG Version: 6.00 Build 0)  -->
<!DOCTYPE svg PUBLIC "-//W3C//DTD SVG 1.1//EN" "http://www.w3.org/Graphics/SVG/1.1/DTD/svg11.dtd">
<svg version="1.1" xmlns="http://www.w3.org/2000/svg" xmlns:xlink="http://www.w3.org/1999/xlink" x="0px" y="0px"
	 viewBox="0 0 18 18" enable-background="new 0 0 18 18" xml:space="preserve">
<g id="Layer_1">
	<path d="M2,9v1v8h2v-8h12V0H2V9z M4,2h10v6H4V2z M6,4h6v2c0,0.6-0.4,1-1,1s-1-0.4-1-1H8c0,0.6-0.4,1-1,1S6,6.6,6,6V4z"/>
</g>
<g id="Layer_2" display="none">
	<line display="inline" fill="none" stroke="#ED1C24" stroke-width="2" stroke-miterlimit="10" x1="3" y1="9" x2="3" y2="18"/>
	<rect x="3" y="1" display="inline" fill="none" stroke="#ED1C24" stroke-width="2" stroke-miterlimit="10" width="12" height="8"/>
	<line display="inline" fill="none" stroke="#ED1C24" stroke-width="2" stroke-miterlimit="10" x1="6" y1="5" x2="12" y2="5"/>
	<g display="inline">
		<path fill="#ED1C24" d="M7,5C6.4,5,6,5.4,6,6c0,0.6,0.4,1,1,1s1-0.4,1-1C8,5.4,7.6,5,7,5L7,5z"/>
	</g>
	<g display="inline">
		<path fill="#ED1C24" d="M11,5c-0.6,0-1,0.4-1,1c0,0.6,0.4,1,1,1s1-0.4,1-1C12,5.4,11.6,5,11,5L11,5z"/>
	</g>
</g>
</svg>
