<?xml version="1.0" encoding="utf-8"?>
<!-- Generator: Adobe Illustrator 19.2.1, SVG Export Plug-In . SVG Version: 6.00 Build 0)  -->
<!DOCTYPE svg PUBLIC "-//W3C//DTD SVG 1.1//EN" "http://www.w3.org/Graphics/SVG/1.1/DTD/svg11.dtd">
<svg version="1.1" xmlns="http://www.w3.org/2000/svg" xmlns:xlink="http://www.w3.org/1999/xlink" x="0px" y="0px"
	 viewBox="0 0 18 18" enable-background="new 0 0 18 18" xml:space="preserve">
<g id="Layer_1">
	<path d="M12,2V0h-2v2H6C4.9,2,4,2.9,4,4v12c0,1.1,0.9,2,2,2h6c1.1,0,2-0.9,2-2V4C14,2.9,13.1,2,12,2z M12,4l0,4H6V4H12z M10,10h2
		l0,2h-2V10z M8,12H6v-2h2V12z M6,14h2v2H6V14z M10,16v-2h2l0,2H10z"/>
</g>
<g id="Layer_2" display="none">
	<path display="inline" fill="none" stroke="#ED1C24" stroke-width="2" stroke-miterlimit="10" d="M12,17H6c-0.6,0-1-0.5-1-1V4
		c0-0.5,0.4-1,1-1h6c0.6,0,1,0.5,1,1v12C13,16.5,12.6,17,12,17z"/>
	<line display="inline" fill="none" stroke="#ED1C24" stroke-width="2" stroke-miterlimit="10" x1="5" y1="13" x2="13" y2="13"/>
	<line display="inline" fill="none" stroke="#ED1C24" stroke-width="2" stroke-miterlimit="10" x1="9" y1="17" x2="9" y2="9"/>
	<line display="inline" fill="none" stroke="#ED1C24" stroke-width="2" stroke-miterlimit="10" x1="11" y1="3" x2="11" y2="0"/>
	<line display="inline" fill="none" stroke="#ED1C24" stroke-width="2" stroke-miterlimit="10" x1="5" y1="9" x2="13" y2="9"/>
</g>
</svg>
