<?xml version="1.0" encoding="utf-8"?>
<!-- Generator: Adobe Illustrator 19.2.1, SVG Export Plug-In . SVG Version: 6.00 Build 0)  -->
<!DOCTYPE svg PUBLIC "-//W3C//DTD SVG 1.1//EN" "http://www.w3.org/Graphics/SVG/1.1/DTD/svg11.dtd">
<svg version="1.1" xmlns="http://www.w3.org/2000/svg" xmlns:xlink="http://www.w3.org/1999/xlink" x="0px" y="0px"
	 viewBox="0 0 18 18" enable-background="new 0 0 18 18" xml:space="preserve">
<g id="Layer_1">
	<path d="M15,0c-1.7,0-3,1.3-3,3c0,0.5,0.1,0.9,0.3,1.3l0,0l-8,8l0,0C3.9,12.1,3.5,12,3,12c-1.7,0-3,1.3-3,3s1.3,3,3,3s3-1.3,3-3
		c0-0.5-0.1-0.9-0.3-1.3l0,0l8-8l0,0C14.1,5.9,14.5,6,15,6c1.7,0,3-1.3,3-3S16.7,0,15,0z M3,16c-0.6,0-1-0.4-1-1s0.4-1,1-1
		s1,0.4,1,1S3.6,16,3,16z M15,4c-0.6,0-1-0.4-1-1s0.4-1,1-1s1,0.4,1,1S15.6,4,15,4z"/>
</g>
<g id="Layer_2" display="none">
	<circle display="inline" fill="none" stroke="#ED1C24" stroke-width="2" stroke-miterlimit="10" cx="15" cy="3" r="2"/>
	<circle display="inline" fill="none" stroke="#ED1C24" stroke-width="2" stroke-miterlimit="10" cx="3" cy="15" r="2"/>
	<line display="inline" fill="none" stroke="#ED1C24" stroke-width="2" stroke-miterlimit="10" x1="13" y1="5" x2="5" y2="13"/>
</g>
</svg>
