<?xml version="1.0" encoding="utf-8"?>
<!-- Generator: Adobe Illustrator 19.2.1, SVG Export Plug-In . SVG Version: 6.00 Build 0)  -->
<!DOCTYPE svg PUBLIC "-//W3C//DTD SVG 1.1//EN" "http://www.w3.org/Graphics/SVG/1.1/DTD/svg11.dtd">
<svg version="1.1" xmlns="http://www.w3.org/2000/svg" xmlns:xlink="http://www.w3.org/1999/xlink" x="0px" y="0px"
	 viewBox="0 0 18 18" enable-background="new 0 0 18 18" xml:space="preserve">
<g id="Layer_1">
	<path d="M18,12V6h-8V5.8c1.2-0.4,2-1.5,2-2.8c0-1.7-1.3-3-3-3S6,1.3,6,3c0,1.3,0.8,2.4,2,2.8V6H0v6h4v0.2c-1.2,0.4-2,1.5-2,2.8
		c0,1.7,1.3,3,3,3s3-1.3,3-3c0-1.3-0.8-2.4-2-2.8V12h6v0.2c-1.2,0.4-2,1.5-2,2.8c0,1.7,1.3,3,3,3s3-1.3,3-3c0-1.3-0.8-2.4-2-2.8V12
		H18z M9,2c0.6,0,1,0.4,1,1S9.6,4,9,4S8,3.6,8,3S8.4,2,9,2z M2,8h14v2H2V8z M5,16c-0.6,0-1-0.4-1-1s0.4-1,1-1s1,0.4,1,1S5.6,16,5,16
		z M13,16c-0.6,0-1-0.4-1-1s0.4-1,1-1s1,0.4,1,1S13.6,16,13,16z"/>
</g>
<g id="Layer_2" display="none">
	<circle display="inline" fill="none" stroke="#ED1C24" stroke-width="2" stroke-miterlimit="10" cx="9" cy="3" r="2"/>
	<circle display="inline" fill="none" stroke="#ED1C24" stroke-width="2" stroke-miterlimit="10" cx="13" cy="15" r="2"/>
	<circle display="inline" fill="none" stroke="#ED1C24" stroke-width="2" stroke-miterlimit="10" cx="5" cy="15" r="2"/>
	<line display="inline" fill="none" stroke="#ED1C24" stroke-width="2" stroke-miterlimit="10" x1="9" y1="5" x2="9" y2="7"/>
	<line display="inline" fill="none" stroke="#ED1C24" stroke-width="2" stroke-miterlimit="10" x1="5" y1="11" x2="5" y2="13"/>
	<line display="inline" fill="none" stroke="#ED1C24" stroke-width="2" stroke-miterlimit="10" x1="13" y1="11" x2="13" y2="13"/>
	<rect x="1" y="7" display="inline" fill="none" stroke="#ED1C24" stroke-width="2" stroke-miterlimit="10" width="16" height="4"/>
</g>
</svg>
