<?xml version="1.0" encoding="utf-8"?>
<!-- Generator: Adobe Illustrator 20.1.0, SVG Export Plug-In . SVG Version: 6.00 Build 0)  -->
<!DOCTYPE svg PUBLIC "-//W3C//DTD SVG 1.1//EN" "http://www.w3.org/Graphics/SVG/1.1/DTD/svg11.dtd">
<svg version="1.1" xmlns="http://www.w3.org/2000/svg" xmlns:xlink="http://www.w3.org/1999/xlink" x="0px" y="0px"
	 viewBox="0 0 18 18" enable-background="new 0 0 18 18" xml:space="preserve">
<g id="Layer_1">
	<path d="M6.3,10.3l-2,2C3.9,12.1,3.5,12,3,12c-1.7,0-3,1.3-3,3s1.3,3,3,3s3-1.3,3-3c0-0.5-0.1-0.9-0.3-1.3l2-2L6.3,10.3z M3,16
		c-0.6,0-1-0.4-1-1s0.4-1,1-1s1,0.4,1,1S3.6,16,3,16z M11.7,7.7l2-2C14.1,5.9,14.5,6,15,6c1.7,0,3-1.3,3-3s-1.3-3-3-3s-3,1.3-3,3
		c0,0.5,0.1,0.9,0.3,1.3l-2,2L11.7,7.7z M15,2c0.6,0,1,0.4,1,1s-0.4,1-1,1s-1-0.4-1-1S14.4,2,15,2z M15,10.8l-1.4,1.4L4.4,3l1.4-1.4
		L4.4,0.2L0.2,4.4l1.4,1.4L3,4.4l9.2,9.2L10.8,15l2.1,2.1c0.6,0.6,1.4,0.9,2.1,0.9s1.5-0.3,2.1-0.9c0.6-0.6,0.9-1.3,0.9-2.1
		s-0.3-1.6-0.9-2.1L15,10.8z M15.7,15.7c-0.4,0.4-1,0.4-1.4,0L13.6,15l1.4-1.4l0.7,0.7v0c0.2,0.2,0.3,0.4,0.3,0.7
		S15.9,15.5,15.7,15.7z"/>
</g>
<g id="Layer_2" display="none">
	<circle display="inline" fill="none" stroke="#ED1C24" stroke-width="2" stroke-miterlimit="10" cx="15" cy="3" r="2"/>
	<circle display="inline" fill="none" stroke="#ED1C24" stroke-width="2" stroke-miterlimit="10" cx="3" cy="15" r="2"/>
	<line display="inline" fill="none" stroke="#ED1C24" stroke-width="2" stroke-miterlimit="10" x1="7" y1="11" x2="4" y2="14"/>
	<line display="inline" fill="none" stroke="#ED1C24" stroke-width="2" stroke-miterlimit="10" x1="14" y1="4" x2="11" y2="7"/>
	<path display="inline" fill="none" stroke="#ED1C24" stroke-width="2" stroke-miterlimit="10" d="M16.4,13.6c0.8,0.8,0.8,2,0,2.8
		c-0.8,0.8-2,0.8-2.8,0L12.2,15l2.8-2.8L16.4,13.6z"/>
	<line display="inline" fill="none" stroke="#ED1C24" stroke-width="2" stroke-miterlimit="10" x1="14" y1="14" x2="3" y2="3"/>
	
		<line display="inline" fill="none" stroke="#ED1C24" stroke-width="2" stroke-miterlimit="10" x1="5.1" y1="0.9" x2="0.9" y2="5.1"/>
</g>
</svg>
