<?xml version="1.0" encoding="utf-8"?>
<!-- Generator: Adobe Illustrator 19.2.1, SVG Export Plug-In . SVG Version: 6.00 Build 0)  -->
<!DOCTYPE svg PUBLIC "-//W3C//DTD SVG 1.1//EN" "http://www.w3.org/Graphics/SVG/1.1/DTD/svg11.dtd">
<svg version="1.1" xmlns="http://www.w3.org/2000/svg" xmlns:xlink="http://www.w3.org/1999/xlink" x="0px" y="0px"
	 viewBox="0 0 18 18" enable-background="new 0 0 18 18" xml:space="preserve">
<g id="Layer_1">
	<path d="M18,10V8h-2.1c-0.2-1.2-0.6-2.3-1.3-3.2l1.5-1.5l-1.4-1.4l-1.5,1.5c-0.9-0.7-2-1.2-3.2-1.3V0H8v2.1
		C6.8,2.3,5.7,2.7,4.8,3.4L3.3,1.9L1.9,3.3l1.5,1.5C2.7,5.7,2.3,6.8,2.1,8H0v2h2.1c0.2,1.2,0.6,2.3,1.3,3.2l-1.5,1.5l1.4,1.4
		l1.5-1.5c0.9,0.7,2,1.2,3.2,1.3V18h2v-2.1c1.2-0.2,2.3-0.6,3.2-1.3l1.5,1.5l1.4-1.4l-1.5-1.5c0.7-0.9,1.2-2,1.3-3.2H18z M9,14
		c-2.8,0-5-2.2-5-5s2.2-5,5-5s5,2.2,5,5S11.8,14,9,14z"/>
</g>
<g id="Layer_2" display="none">
	<g display="inline">
		<circle fill="none" stroke="#ED1C24" stroke-width="2" stroke-miterlimit="10" cx="9" cy="9" r="6"/>
		<line fill="none" stroke="#ED1C24" stroke-width="2" stroke-miterlimit="10" x1="9" y1="0" x2="9" y2="3"/>
		<line fill="none" stroke="#ED1C24" stroke-width="2" stroke-miterlimit="10" x1="9" y1="15" x2="9" y2="18"/>
		<line fill="none" stroke="#ED1C24" stroke-width="2" stroke-miterlimit="10" x1="2.6" y1="2.6" x2="4.8" y2="4.8"/>
		<line fill="none" stroke="#ED1C24" stroke-width="2" stroke-miterlimit="10" x1="13.2" y1="13.2" x2="15.4" y2="15.4"/>
		<line fill="none" stroke="#ED1C24" stroke-width="2" stroke-miterlimit="10" x1="0" y1="9" x2="3" y2="9"/>
		<line fill="none" stroke="#ED1C24" stroke-width="2" stroke-miterlimit="10" x1="15" y1="9" x2="18" y2="9"/>
		<line fill="none" stroke="#ED1C24" stroke-width="2" stroke-miterlimit="10" x1="2.6" y1="15.4" x2="4.8" y2="13.2"/>
		<line fill="none" stroke="#ED1C24" stroke-width="2" stroke-miterlimit="10" x1="13.2" y1="4.8" x2="15.4" y2="2.6"/>
	</g>
</g>
</svg>
