<?xml version="1.0" encoding="utf-8"?>
<!-- Generator: Adobe Illustrator 21.0.2, SVG Export Plug-In . SVG Version: 6.00 Build 0)  -->
<!DOCTYPE svg PUBLIC "-//W3C//DTD SVG 1.1//EN" "http://www.w3.org/Graphics/SVG/1.1/DTD/svg11.dtd">
<svg version="1.1" xmlns="http://www.w3.org/2000/svg" xmlns:xlink="http://www.w3.org/1999/xlink" x="0px" y="0px"
	 viewBox="0 0 18 18" enable-background="new 0 0 18 18" xml:space="preserve">
<g id="Layer_1">
	<path d="M9,3.4L3.4,0.4l1.1,6.2L0,11l9,6.5l2.8-5.6L18,11L14.6,0.4L9,3.4z M11.5,9.9l-1,0.2L10,11l-1.7,3.5l-5.2-3.8l2.8-2.7
		l0.8-0.7l-0.2-1L6.1,4.1l2,1L9,5.6l0.9-0.5l3.5-1.8l2,6.1L11.5,9.9z"/>
</g>
<g id="Layer_2" display="none">
	<g display="inline">
		<path fill="#ED1C24" d="M13.4,3.3l2,6.1l-3.9,0.6l-1,0.2L10,11l-1.7,3.5l-5.2-3.8l2.8-2.7l0.8-0.7l-0.2-1L6.1,4.1l2,1L9,5.6
			l0.9-0.5L13.4,3.3 M14.6,0.4L9,3.4L3.4,0.4l1.1,6.2L0,11l9,6.5l2.8-5.6L18,11L14.6,0.4L14.6,0.4z"/>
	</g>
</g>
</svg>
