<?xml version="1.0" encoding="utf-8"?>
<!-- Generator: Adobe Illustrator 21.0.2, SVG Export Plug-In . SVG Version: 6.00 Build 0)  -->
<!DOCTYPE svg PUBLIC "-//W3C//DTD SVG 1.1//EN" "http://www.w3.org/Graphics/SVG/1.1/DTD/svg11.dtd">
<svg version="1.1" xmlns="http://www.w3.org/2000/svg" xmlns:xlink="http://www.w3.org/1999/xlink" x="0px" y="0px"
	 viewBox="0 0 18 18" enable-background="new 0 0 18 18" xml:space="preserve">
<g id="Layer_1">
	<path d="M12,9.7l-3,2.2L8.1,10L6,9.7l1.1-3.5l1.9,1l1.9-1l-0.4,2.1L12,9.7z M15,12.3l-0.9,1.9L12,14.5l1.5,1.5L13.1,18h3.7
		l-0.4-2.1l1.5-1.5L15,12.3z M4.5,2.1L4.9,0H1.1l0.4,2.1L0,3.5l3,2.2l0.9-1.9L6,3.5L4.5,2.1z"/>
</g>
<g id="Layer_2" display="none">
	<g display="inline">
		<polygon fill="#ED1C24" points="10.9,6.1 9,7.1 7.1,6.1 6,9.7 8.1,10 9,11.9 12,9.7 10.5,8.2 10.9,6.1 		"/>
	</g>
	<g display="inline">
		<polygon fill="#ED1C24" points="15,12.3 14.1,14.2 12,14.5 13.5,15.9 13.1,18 16.9,18 16.5,15.9 18,14.5 15,12.3 		"/>
	</g>
	<g display="inline">
		<polygon fill="#ED1C24" points="4.9,0 1.1,0 1.5,2.1 0,3.5 3,5.7 3.9,3.8 6,3.5 4.5,2.1 4.9,0 		"/>
	</g>
</g>
</svg>
