<?xml version="1.0" encoding="utf-8"?>
<!-- Generator: Adobe Illustrator 21.0.0, SVG Export Plug-In . SVG Version: 6.00 Build 0)  -->
<!DOCTYPE svg PUBLIC "-//W3C//DTD SVG 1.1//EN" "http://www.w3.org/Graphics/SVG/1.1/DTD/svg11.dtd">
<svg version="1.1" xmlns="http://www.w3.org/2000/svg" xmlns:xlink="http://www.w3.org/1999/xlink" x="0px" y="0px"
	 viewBox="0 0 18 18" enable-background="new 0 0 18 18" xml:space="preserve">
<g id="Layer_1">
	<path d="M10,10h2v8H6v-8h2v6h2V10z M12.9,1.6c2.2,2.2,1.3,4.5,1.3,4.6c-0.5,1.2-1.3,2-2.2,2.2c-0.1,0-0.3,0-0.4,0
		c-0.6,0-1.2-0.2-1.6-0.7c-0.5-0.5-1.3-0.5-1.8,0C7.5,8.4,6.8,8.6,6,8.5c-0.9-0.2-1.8-1-2.2-2.2c0-0.1-0.9-2.4,1.3-4.6
		C7.3-0.5,10.7-0.5,12.9,1.6z M11.5,3c-1.4-1.4-3.6-1.4-5,0C5.3,4.3,5.7,5.5,5.7,5.5c0.3,0.7,0.6,0.9,0.8,1c0,0,0.1,0,0.2-0.1
		c0.6-0.6,1.5-1,2.3-1s1.7,0.3,2.3,1c0.1,0.1,0.2,0.1,0.2,0.1c0.1,0,0.5-0.3,0.8-1C12.4,5.4,12.7,4.3,11.5,3z"/>
</g>
<g id="Layer_2" display="none">
	<polyline display="inline" fill="none" stroke="#ED1C24" stroke-width="2" stroke-miterlimit="10" points="11,10 11,17 7,17 7,10 	
		"/>
	<g display="inline">
		<path fill="none" stroke="#ED1C24" stroke-width="2" stroke-miterlimit="10" d="M7.4,7.1c0.9-0.9,2.3-0.9,3.2,0s2.1,0.3,2.7-1.2
			c0,0,0.7-1.8-1.1-3.6s-4.6-1.8-6.4,0S4.7,5.9,4.7,5.9C5.3,7.4,6.5,8,7.4,7.1z"/>
	</g>
</g>
</svg>
