<?xml version="1.0" encoding="utf-8"?>
<!-- Generator: Adobe Illustrator 21.0.0, SVG Export Plug-In . SVG Version: 6.00 Build 0)  -->
<!DOCTYPE svg PUBLIC "-//W3C//DTD SVG 1.1//EN" "http://www.w3.org/Graphics/SVG/1.1/DTD/svg11.dtd">
<svg version="1.1" xmlns="http://www.w3.org/2000/svg" xmlns:xlink="http://www.w3.org/1999/xlink" x="0px" y="0px"
	 viewBox="0 0 18 18" enable-background="new 0 0 18 18" xml:space="preserve">
<g id="Layer_1">
	<path d="M9,4c-3.9,0-7,3.1-7,7s3.1,7,7,7s7-3.1,7-7S12.9,4,9,4z M9,16c-2.8,0-5-2.2-5-5s2.2-5,5-5s5,2.2,5,5S11.8,16,9,16z
		 M11.8,9.6L10.4,11l1.4,1.4l-1.4,1.4L9,12.4l-1.4,1.4l-1.4-1.4L7.6,11L6.2,9.6l1.4-1.4L9,9.6l1.4-1.4L11.8,9.6z M0,0h18v2H0V0z"/>
</g>
<g id="Layer_2" display="none">
	<circle display="inline" fill="none" stroke="#ED1C24" stroke-width="2" stroke-miterlimit="10" cx="9" cy="11" r="6"/>
	
		<line display="inline" fill="none" stroke="#ED1C24" stroke-width="2" stroke-miterlimit="10" x1="11.1" y1="8.9" x2="6.9" y2="13.1"/>
	
		<line display="inline" fill="none" stroke="#ED1C24" stroke-width="2" stroke-miterlimit="10" x1="11.1" y1="13.1" x2="6.9" y2="8.9"/>
	<line display="inline" fill="none" stroke="#ED1C24" stroke-width="2" stroke-miterlimit="10" x1="0" y1="1" x2="18" y2="1"/>
</g>
</svg>
