<?xml version="1.0" encoding="utf-8"?>
<!-- Generator: Adobe Illustrator 19.2.1, SVG Export Plug-In . SVG Version: 6.00 Build 0)  -->
<!DOCTYPE svg PUBLIC "-//W3C//DTD SVG 1.1//EN" "http://www.w3.org/Graphics/SVG/1.1/DTD/svg11.dtd">
<svg version="1.1" xmlns="http://www.w3.org/2000/svg" xmlns:xlink="http://www.w3.org/1999/xlink" x="0px" y="0px"
	 viewBox="0 0 18 18" enable-background="new 0 0 18 18" xml:space="preserve">
<g id="Layer_1">
	<path d="M18,9c0-5-4-9-9-9S0,4,0,9s4,9,9,9v-2c-3.9,0-7-3.1-7-7s3.1-7,7-7s7,3.1,7,7c0,1.6-0.5,3.1-1.5,4.3C13.6,12.1,13,10.6,13,9
		c0-0.8,0.1-1.6,0.4-2.3C13.1,6,12.6,5.4,12,5c-0.2,0.3-0.3,0.6-0.4,0.9C10.9,5.4,10,5,9,5C6.8,5,5,6.8,5,9s1.8,4,4,4
		c1,0,1.8-0.4,2.5-0.9c0.6,1.6,1.6,3,3,4c0.3-0.2,0.6-0.5,0.9-0.8l0,0C17.1,13.7,18,11.4,18,9z M9,11c-1.1,0-2-0.9-2-2s0.9-2,2-2
		s2,0.9,2,2S10.1,11,9,11z"/>
</g>
<g id="Layer_2" display="none">
	<g display="inline">
		<path fill="none" stroke="#ED1C24" stroke-width="2" stroke-miterlimit="10" d="M9,17c-4.4,0-8-3.6-8-8s3.6-8,8-8s8,3.6,8,8"/>
		<path fill="none" stroke="#ED1C24" stroke-width="2" stroke-miterlimit="10" d="M17,9c0,2-0.8,4.1-2.3,5.7"/>
		<circle fill="none" stroke="#ED1C24" stroke-width="2" stroke-miterlimit="10" cx="9" cy="9" r="3"/>
		<g>
			<path fill="#ED1C24" d="M12,5c-0.6,1.2-1,2.6-1,4c0,2.9,1.4,5.5,3.5,7.1c0.5-0.4,1-0.9,1.5-1.4c-1.8-1.3-3-3.4-3-5.7
				c0-0.8,0.1-1.6,0.4-2.3C13.1,6,12.6,5.4,12,5L12,5z"/>
		</g>
	</g>
</g>
</svg>
