<?xml version="1.0" encoding="utf-8"?>
<!-- Generator: Adobe Illustrator 21.0.2, SVG Export Plug-In . SVG Version: 6.00 Build 0)  -->
<!DOCTYPE svg PUBLIC "-//W3C//DTD SVG 1.1//EN" "http://www.w3.org/Graphics/SVG/1.1/DTD/svg11.dtd">
<svg version="1.1" xmlns="http://www.w3.org/2000/svg" xmlns:xlink="http://www.w3.org/1999/xlink" x="0px" y="0px"
	 viewBox="0 0 18 18" enable-background="new 0 0 18 18" xml:space="preserve">
<g id="Layer_1">
	<path d="M11,9.6l6.7,6.7l-1.4,1.4L11,12.4l-1.3,1.3l-1.4-1.4L11,9.6z M0.3,16.3l1.4,1.4L5,14.4l3.3,3.3l1.4-1.4L5,11.6L0.3,16.3z
		 M2,0H0v2C1.1,2,2,1.1,2,0z M6,0H4c0,2.2-1.8,4-4,4v2C3.3,6,6,3.3,6,0z M10,0H8c0,4.4-3.6,8-8,8v2C5.5,10,10,5.5,10,0z"/>
</g>
<g id="Layer_2" display="none">
	<polyline display="inline" fill="none" stroke="#ED1C24" stroke-width="2" stroke-miterlimit="10" points="17,17 11,11 9,13 	"/>
	<polyline display="inline" fill="none" stroke="#ED1C24" stroke-width="2" stroke-miterlimit="10" points="9,17 5,13 1,17 	"/>
	<path display="inline" fill="none" stroke="#ED1C24" stroke-width="2" stroke-miterlimit="10" d="M1,0c0,0.6-0.4,1-1,1"/>
	<path display="inline" fill="none" stroke="#ED1C24" stroke-width="2" stroke-miterlimit="10" d="M5,0c0,2.8-2.2,5-5,5"/>
	<path display="inline" fill="none" stroke="#ED1C24" stroke-width="2" stroke-miterlimit="10" d="M9,0c0,5-4,9-9,9"/>
</g>
</svg>
