<?xml version="1.0" encoding="utf-8"?>
<!-- Generator: Adobe Illustrator 20.1.0, SVG Export Plug-In . SVG Version: 6.00 Build 0)  -->
<!DOCTYPE svg PUBLIC "-//W3C//DTD SVG 1.1//EN" "http://www.w3.org/Graphics/SVG/1.1/DTD/svg11.dtd">
<svg version="1.1" xmlns="http://www.w3.org/2000/svg" xmlns:xlink="http://www.w3.org/1999/xlink" x="0px" y="0px"
	 viewBox="0 0 18 18" enable-background="new 0 0 18 18" xml:space="preserve">
<g id="Layer_1">
	<path d="M16,0.6L8.6,8H6c-3.3,0-6,2.7-6,6v4h2v-0.6L9.4,10H12c3.3,0,6-2.7,6-6V0h-2V0.6z M2,14.6V14c0-2.2,1.8-4,4-4h0.6L2,14.6z
		 M12,8h-0.6L16,3.4V4C16,6.2,14.2,8,12,8z"/>
</g>
<g id="Layer_2" display="none">
	<path display="inline" fill="none" stroke="#ED1C24" stroke-width="2" stroke-miterlimit="10" d="M17,0v4c0,2.8-2.2,5-5,5H6
		c-2.8,0-5,2.2-5,5v4"/>
	<line display="inline" fill="none" stroke="#ED1C24" stroke-width="2" stroke-miterlimit="10" x1="17" y1="1" x2="1" y2="17"/>
</g>
</svg>
