<?xml version="1.0" encoding="utf-8"?>
<!-- Generator: Adobe Illustrator 19.2.1, SVG Export Plug-In . SVG Version: 6.00 Build 0)  -->
<!DOCTYPE svg PUBLIC "-//W3C//DTD SVG 1.1//EN" "http://www.w3.org/Graphics/SVG/1.1/DTD/svg11.dtd">
<svg version="1.1" xmlns="http://www.w3.org/2000/svg" xmlns:xlink="http://www.w3.org/1999/xlink" x="0px" y="0px"
	 viewBox="0 0 18 18" enable-background="new 0 0 18 18" xml:space="preserve">
<g id="Layer_1">
	<path d="M9,5c1.1,0,2.1,0.4,2.8,1.2L14.7,9l-2.8,2.8C11.1,12.6,10.1,13,9,13c-1.1,0-2.1-0.4-2.8-1.2L3.3,9l2.8-2.8
		C6.9,5.4,7.9,5,9,5 M9,3C7.5,3,5.9,3.6,4.8,4.8L0.5,9l4.2,4.2C5.9,14.4,7.5,15,9,15s3.1-0.6,4.2-1.8L17.5,9l-4.2-4.2
		C12.1,3.6,10.5,3,9,3L9,3z M9,7C7.9,7,7,7.9,7,9c0,1.1,0.9,2,2,2s2-0.9,2-2C11,7.9,10.1,7,9,7L9,7z"/>
</g>
<g id="Layer_2" display="none">
	<g display="inline">
		<g>
			<path fill="#ED1C24" d="M9,5c1.1,0,2.1,0.4,2.8,1.2L14.7,9l-2.8,2.8C11.1,12.6,10.1,13,9,13c-1.1,0-2.1-0.4-2.8-1.2L3.3,9
				l2.8-2.8C6.9,5.4,7.9,5,9,5 M9,3C7.5,3,5.9,3.6,4.8,4.8L0.5,9l4.2,4.2C5.9,14.4,7.5,15,9,15s3.1-0.6,4.2-1.8L17.5,9l-4.2-4.2
				C12.1,3.6,10.5,3,9,3L9,3z"/>
		</g>
		<g>
			<path fill="#ED1C24" d="M9,7C7.9,7,7,7.9,7,9c0,1.1,0.9,2,2,2s2-0.9,2-2C11,7.9,10.1,7,9,7L9,7z"/>
		</g>
	</g>
</g>
</svg>
