<?xml version="1.0" encoding="utf-8"?>
<!-- Generator: Adobe Illustrator 19.2.1, SVG Export Plug-In . SVG Version: 6.00 Build 0)  -->
<!DOCTYPE svg PUBLIC "-//W3C//DTD SVG 1.1//EN" "http://www.w3.org/Graphics/SVG/1.1/DTD/svg11.dtd">
<svg version="1.1" xmlns="http://www.w3.org/2000/svg" xmlns:xlink="http://www.w3.org/1999/xlink" x="0px" y="0px"
	 viewBox="0 0 18 18" enable-background="new 0 0 18 18" xml:space="preserve">
<g id="Layer_1">
	<path d="M15,10V6c0-3.3-2.7-6-6-6S3,2.7,3,6v4c0,1.7-1.3,3-3,3v2h6c0,1.7,1.3,3,3,3s3-1.3,3-3h6v-2C16.3,13,15,11.7,15,10z M9,16
		c-0.6,0-1-0.4-1-1h2C10,15.6,9.6,16,9,16z M4,13c0.6-0.8,1-1.9,1-3V6c0-2.2,1.8-4,4-4s4,1.8,4,4v4c0,1.1,0.4,2.2,1,3H4z"/>
</g>
<g id="Layer_2" display="none">
	<g display="inline">
		<path fill="none" stroke="#ED1C24" stroke-width="2" stroke-miterlimit="10" d="M14,6c0-2.8-2.2-5-5-5S4,3.2,4,6v4
			c0,2.2-1.8,4-4,4h18c-2.2,0-4-1.8-4-4V6z"/>
		<path fill="none" stroke="#ED1C24" stroke-width="2" stroke-miterlimit="10" d="M7,15c0,1.1,0.9,2,2,2s2-0.9,2-2"/>
	</g>
</g>
</svg>
