<?xml version="1.0" encoding="utf-8"?>
<!-- Generator: Adobe Illustrator 19.2.1, SVG Export Plug-In . SVG Version: 6.00 Build 0)  -->
<!DOCTYPE svg PUBLIC "-//W3C//DTD SVG 1.1//EN" "http://www.w3.org/Graphics/SVG/1.1/DTD/svg11.dtd">
<svg version="1.1" xmlns="http://www.w3.org/2000/svg" xmlns:xlink="http://www.w3.org/1999/xlink" x="0px" y="0px"
	 viewBox="0 0 18 18" enable-background="new 0 0 18 18" xml:space="preserve">
<g id="Layer_1">
	<path d="M17.7,16.3l-5.1-5.1C13.5,10,14,8.6,14,7c0-3.9-3.1-7-7-7S0,3.1,0,7s3.1,7,7,7c1.6,0,3-0.5,4.2-1.4l5.1,5.1L17.7,16.3z
		 M2,7c0-2.8,2.2-5,5-5s5,2.2,5,5s-2.2,5-5,5S2,9.8,2,7z"/>
</g>
<g id="Layer_2" display="none">
	<g display="inline">
		<circle fill="none" stroke="#ED1C24" stroke-width="2" stroke-miterlimit="10" cx="7" cy="7" r="6"/>
		<line fill="none" stroke="#ED1C24" stroke-width="2" stroke-miterlimit="10" x1="17" y1="17" x2="11" y2="11"/>
	</g>
</g>
</svg>
