<?xml version="1.0" encoding="utf-8"?>
<!-- Generator: Adobe Illustrator 19.2.1, SVG Export Plug-In . SVG Version: 6.00 Build 0)  -->
<!DOCTYPE svg PUBLIC "-//W3C//DTD SVG 1.1//EN" "http://www.w3.org/Graphics/SVG/1.1/DTD/svg11.dtd">
<svg version="1.1" xmlns="http://www.w3.org/2000/svg" xmlns:xlink="http://www.w3.org/1999/xlink" x="0px" y="0px"
	 viewBox="0 0 18 18" enable-background="new 0 0 18 18" xml:space="preserve">
<g id="Layer_1">
	<path d="M9,7l0.7,2l2.1,0l-1.7,1.3l0.7,2L9,11l-1.7,1.3l0.7-2L6.2,9l2.1,0L9,7 M9,0.4L6.9,7L0,7l5.6,4l-2.1,6.5L9,13.5l5.6,4.1
		L12.4,11L18,7l-6.9,0L9,0.4L9,0.4z"/>
</g>
<g id="Layer_2" display="none">
	<g display="inline">
		<g>
			<path fill="#ED1C24" d="M9,7l0.2,0.7L9.7,9l1.5,0l0.7,0l-0.6,0.4l-1.2,0.9l0.5,1.4l0.2,0.7l-0.6-0.4L9,11l-1.2,0.9l-0.6,0.4
				l0.2-0.7l0.5-1.4L6.8,9.4L6.2,9l0.7,0l1.5,0l0.4-1.4L9,7 M9,0.4L6.9,7L0,7l5.6,4l-2.1,6.5L9,13.5l5.6,4.1L12.4,11L18,7l-6.9,0
				L9,0.4L9,0.4z"/>
		</g>
	</g>
</g>
</svg>
