<?xml version="1.0" encoding="utf-8"?>
<!-- Generator: Adobe Illustrator 19.2.1, SVG Export Plug-In . SVG Version: 6.00 Build 0)  -->
<!DOCTYPE svg PUBLIC "-//W3C//DTD SVG 1.1//EN" "http://www.w3.org/Graphics/SVG/1.1/DTD/svg11.dtd">
<svg version="1.1" xmlns="http://www.w3.org/2000/svg" xmlns:xlink="http://www.w3.org/1999/xlink" x="0px" y="0px"
	 viewBox="0 0 18 18" enable-background="new 0 0 18 18" xml:space="preserve">
<g id="Layer_1">
	<path d="M18,8h-1.1c-0.5-3.6-3.3-6.5-6.9-6.9V0H8v1.1C4.4,1.5,1.5,4.4,1.1,8H0v2h1.1c0.5,3.6,3.3,6.5,6.9,6.9V18h2v-1.1
		c3.6-0.5,6.5-3.3,6.9-6.9H18V8z M10,14.9L9,11l-1,3.9c-2.5-0.4-4.5-2.4-4.9-4.9L7,9L3.1,8C3.5,5.5,5.5,3.5,8,3.1L9,7l1-3.9
		c2.5,0.4,4.5,2.4,4.9,4.9L11,9l3.9,1C14.5,12.5,12.5,14.5,10,14.9z"/>
</g>
<g id="Layer_2" display="none">
	<g display="inline">
		<circle fill="none" stroke="#ED1C24" stroke-width="2" stroke-miterlimit="10" cx="9" cy="9" r="7"/>
		<line fill="none" stroke="#ED1C24" stroke-width="2" stroke-miterlimit="10" x1="9" y1="0" x2="9" y2="2"/>
		<line fill="none" stroke="#ED1C24" stroke-width="2" stroke-miterlimit="10" x1="9" y1="16" x2="9" y2="18"/>
		<line fill="none" stroke="#ED1C24" stroke-width="2" stroke-miterlimit="10" x1="0" y1="9" x2="2" y2="9"/>
		<line fill="none" stroke="#ED1C24" stroke-width="2" stroke-miterlimit="10" x1="16" y1="9" x2="18" y2="9"/>
		<g>
			<polygon fill="#ED1C24" points="15,8 11,9 15,10 15,8 			"/>
		</g>
		<g>
			<polygon fill="#ED1C24" points="10,3 8,3 9,7 10,3 			"/>
		</g>
		<g>
			<polygon fill="#ED1C24" points="3,8 3,10 7,9 3,8 			"/>
		</g>
		<g>
			<polygon fill="#ED1C24" points="9,11 8,15 10,15 9,11 			"/>
		</g>
	</g>
</g>
</svg>
