<?xml version="1.0" encoding="utf-8"?>
<!-- Generator: Adobe Illustrator 19.2.1, SVG Export Plug-In . SVG Version: 6.00 Build 0)  -->
<!DOCTYPE svg PUBLIC "-//W3C//DTD SVG 1.1//EN" "http://www.w3.org/Graphics/SVG/1.1/DTD/svg11.dtd">
<svg version="1.1" xmlns="http://www.w3.org/2000/svg" xmlns:xlink="http://www.w3.org/1999/xlink" x="0px" y="0px"
	 viewBox="0 0 18 18" enable-background="new 0 0 18 18" xml:space="preserve">
<g id="Layer_1">
	<path d="M9,2.8l7,7V16h-4v-6H6v6H2V9.8L9,2.8 M9,0L0,9v9h8v-6h2v6h8V9L9,0L9,0z"/>
</g>
<g id="Layer_2" display="none">
	<g display="inline">
		<g>
			<path fill="#ED1C24" d="M9,2.8l7,7V16h-4v-4v-2h-2H8H6v2v4H2V9.8L9,2.8 M9,0L0,9v9h8v-6h2v6h8V9L9,0L9,0z"/>
		</g>
	</g>
</g>
</svg>
