<?xml version="1.0" encoding="utf-8"?>
<!-- Generator: Adobe Illustrator 19.2.1, SVG Export Plug-In . SVG Version: 6.00 Build 0)  -->
<!DOCTYPE svg PUBLIC "-//W3C//DTD SVG 1.1//EN" "http://www.w3.org/Graphics/SVG/1.1/DTD/svg11.dtd">
<svg version="1.1" xmlns="http://www.w3.org/2000/svg" xmlns:xlink="http://www.w3.org/1999/xlink" x="0px" y="0px"
	 viewBox="0 0 18 18" enable-background="new 0 0 18 18" xml:space="preserve">
<g id="Layer_1">
	<path d="M14,0h-2v2h2c1.1,0,2,0.9,2,2h-2c-1.1,0-2,0.9-2,2v4c0,1.1,0.9,2,2,2h2c0,2.2-1.8,4-4,4s-4-1.8-4-4V8h2V0H0v8h2v10h6v-1.5
		c1.1,1,2.5,1.5,4,1.5c3.3,0,6-2.7,6-6V4C18,1.8,16.2,0,14,0z M6,16H4V8h2V16z M2,6V2h6v4H2z M16,10h-2v0V6h0h2V10z"/>
</g>
<g id="Layer_2" display="none">
	<path display="inline" fill="none" stroke="#ED1C24" stroke-width="2" stroke-miterlimit="10" d="M17,4c0-1.7-1.3-3-3-3"/>
	<path display="inline" fill="none" stroke="#ED1C24" stroke-width="2" stroke-miterlimit="10" d="M14,5c-0.6,0-1,0.4-1,1"/>
	<path display="inline" fill="none" stroke="#ED1C24" stroke-width="2" stroke-miterlimit="10" d="M13,10c0,0.6,0.4,1,1,1"/>
	<path display="inline" fill="none" stroke="#ED1C24" stroke-width="2" stroke-miterlimit="10" d="M17,12c0,2.8-2.2,5-5,5
		s-5-2.2-5-5"/>
	<line display="inline" fill="none" stroke="#ED1C24" stroke-width="2" stroke-miterlimit="10" x1="17" y1="4" x2="17" y2="12"/>
	<rect x="1" y="1" display="inline" fill="none" stroke="#ED1C24" stroke-width="2" stroke-miterlimit="10" width="8" height="6"/>
	<rect x="3" y="7" display="inline" fill="none" stroke="#ED1C24" stroke-width="2" stroke-miterlimit="10" width="4" height="10"/>
	<line display="inline" fill="none" stroke="#ED1C24" stroke-width="2" stroke-miterlimit="10" x1="12" y1="1" x2="14" y2="1"/>
	<line display="inline" fill="none" stroke="#ED1C24" stroke-width="2" stroke-miterlimit="10" x1="14" y1="5" x2="16" y2="5"/>
	<line display="inline" fill="none" stroke="#ED1C24" stroke-width="2" stroke-miterlimit="10" x1="14" y1="11" x2="16" y2="11"/>
	<line display="inline" fill="none" stroke="#ED1C24" stroke-width="2" stroke-miterlimit="10" x1="13" y1="10" x2="13" y2="6"/>
</g>
</svg>
