<?xml version="1.0" encoding="utf-8"?>
<!-- Generator: Adobe Illustrator 21.0.2, SVG Export Plug-In . SVG Version: 6.00 Build 0)  -->
<!DOCTYPE svg PUBLIC "-//W3C//DTD SVG 1.1//EN" "http://www.w3.org/Graphics/SVG/1.1/DTD/svg11.dtd">
<svg version="1.1" xmlns="http://www.w3.org/2000/svg" xmlns:xlink="http://www.w3.org/1999/xlink" x="0px" y="0px"
	 viewBox="0 0 18 18" enable-background="new 0 0 18 18" xml:space="preserve">
<g id="Layer_1">
	<path d="M16.2,12l1.8,1l-9,5l-9-5l1.8-1L9,16L16.2,12z M9,12L1.8,8L0,9l9,5l9-5l-1.8-1L9,12z M9,2.3L4.1,5L9,7.7L13.9,5L9,2.3 M9,0
		l9,5l-9,5L0,5L9,0L9,0z"/>
</g>
<g id="Layer_2" display="none">
	<g display="inline">
		<path fill="#ED1C24" d="M9,10.3l4.9,2.7L9,15.7L4.1,13L9,10.3 M9,8l-9,5l9,5l9-5L9,8L9,8z"/>
	</g>
	<g display="inline">
		<polygon fill="#FFFFFF" points="9,16 0,11 9,6 18,11 		"/>
	</g>
	<g display="inline">
		<path fill="#ED1C24" d="M9,6.3L13.9,9L9,11.7L4.1,9L9,6.3 M9,4L0,9l9,5l9-5L9,4L9,4z"/>
	</g>
	<g display="inline">
		<polygon fill="#FFFFFF" points="9,12 0,7 9,2 18,7 		"/>
	</g>
	<g display="inline">
		<path fill="#ED1C24" d="M9,2.3L13.9,5L9,7.7L4.1,5L9,2.3 M9,0L0,5l9,5l9-5L9,0L9,0z"/>
	</g>
</g>
</svg>
