<?xml version="1.0" encoding="utf-8"?>
<!-- Generator: Adobe Illustrator 20.0.0, SVG Export Plug-In . SVG Version: 6.00 Build 0)  -->
<!DOCTYPE svg PUBLIC "-//W3C//DTD SVG 1.1//EN" "http://www.w3.org/Graphics/SVG/1.1/DTD/svg11.dtd">
<svg version="1.1" xmlns="http://www.w3.org/2000/svg" xmlns:xlink="http://www.w3.org/1999/xlink" x="0px" y="0px"
	 viewBox="0 0 18 18" enable-background="new 0 0 18 18" xml:space="preserve">
<g id="Layer_1">
	<path d="M17,18H1V0h11.4L17,4.6V18z M3,16h12V5.4L11.6,2H3V16z M9,3.5C8.2,3.5,7.5,4.2,7.5,5S8.2,6.5,9,6.5s1.5-0.7,1.5-1.5
		S9.8,3.5,9,3.5L9,3.5z M10,8H8v6h2V8z"/>
</g>
<g id="Layer_2" display="none">
	<g display="inline">
		<polygon fill="none" stroke="#ED1C24" stroke-width="2" stroke-miterlimit="10" points="12,1 16,5 16,17 2,17 2,1 		"/>
	</g>
	<g display="inline">
		<path fill="#ED1C24" d="M9,3.5C8.2,3.5,7.5,4.2,7.5,5S8.2,6.5,9,6.5s1.5-0.7,1.5-1.5S9.8,3.5,9,3.5L9,3.5z"/>
	</g>
	<line display="inline" fill="none" stroke="#ED1C24" stroke-width="2" stroke-miterlimit="10" x1="9" y1="8" x2="9" y2="14"/>
</g>
</svg>
