<?xml version="1.0" encoding="utf-8"?>
<!-- Generator: Adobe Illustrator 19.2.1, SVG Export Plug-In . SVG Version: 6.00 Build 0)  -->
<!DOCTYPE svg PUBLIC "-//W3C//DTD SVG 1.1//EN" "http://www.w3.org/Graphics/SVG/1.1/DTD/svg11.dtd">
<svg version="1.1" xmlns="http://www.w3.org/2000/svg" xmlns:xlink="http://www.w3.org/1999/xlink" x="0px" y="0px"
	 viewBox="0 0 18 18" enable-background="new 0 0 18 18" xml:space="preserve">
<g id="Layer_1">
	<path d="M11,4l2,2H5V4H11L11,4z M17,4.6L12.4,0H1v18h16V4.6z M3,2h8.6L15,5.4V16H3V2z M13,8H5v2h8V8z"/>
	<rect x="5" y="12" width="8" height="2"/>
</g>
<g id="Layer_2" display="none">
	<g display="inline">
		<g>
			<polygon fill="#ED1C24" points="11,4 5,4 5,6 13,6 11,4 			"/>
		</g>
		<polygon fill="none" stroke="#ED1C24" stroke-width="2" stroke-miterlimit="10" points="12,1 16,5 16,17 2,17 2,1 		"/>
		<line fill="none" stroke="#ED1C24" stroke-width="2" stroke-miterlimit="10" x1="5" y1="9" x2="13" y2="9"/>
		<line fill="none" stroke="#ED1C24" stroke-width="2" stroke-miterlimit="10" x1="5" y1="13" x2="13" y2="13"/>
	</g>
</g>
</svg>
