<?xml version="1.0" encoding="utf-8"?>
<!-- Generator: Adobe Illustrator 19.2.1, SVG Export Plug-In . SVG Version: 6.00 Build 0)  -->
<!DOCTYPE svg PUBLIC "-//W3C//DTD SVG 1.1//EN" "http://www.w3.org/Graphics/SVG/1.1/DTD/svg11.dtd">
<svg version="1.1" xmlns="http://www.w3.org/2000/svg" xmlns:xlink="http://www.w3.org/1999/xlink" x="0px" y="0px"
	 viewBox="0 0 18 18" enable-background="new 0 0 18 18" xml:space="preserve">
<g id="Layer_1">
	<path d="M9,2c4.2,0,7,1.8,7,3s-2.8,3-7,3S2,6.2,2,5S4.8,2,9,2 M9,0C4,0,0,2.2,0,5s4,5,9,5s9-2.2,9-5S14,0,9,0L9,0z M18,7
		c0,2.8-4,5-9,5S0,9.8,0,7c0,0.3,0,1.7,0,2c0,2.8,4,5,9,5s9-2.2,9-5C18,8.7,18,7.3,18,7L18,7z M18,11c0,2.8-4,5-9,5s-9-2.2-9-5
		c0,0.3,0,1.7,0,2c0,2.8,4,5,9,5s9-2.2,9-5C18,12.7,18,11.3,18,11L18,11z"/>
</g>
<g id="Layer_2" display="none">
	<g display="inline">
		<g>
			<path fill="#ED1C24" d="M9,2c4.2,0,7,1.8,7,3s-2.8,3-7,3S2,6.2,2,5S4.8,2,9,2 M9,0C4,0,0,2.2,0,5s4,5,9,5s9-2.2,9-5S14,0,9,0L9,0
				z M18,7c0,2.8-4,5-9,5S0,9.8,0,7c0,0.3,0,1.7,0,2c0,2.8,4,5,9,5s9-2.2,9-5C18,8.7,18,7.3,18,7L18,7z M18,11c0,2.8-4,5-9,5
				s-9-2.2-9-5c0,0.3,0,1.7,0,2c0,2.8,4,5,9,5s9-2.2,9-5C18,12.7,18,11.3,18,11L18,11z"/>
		</g>
	</g>
</g>
</svg>
