<?xml version="1.0" encoding="utf-8"?>
<!-- Generator: Adobe Illustrator 21.1.0, SVG Export Plug-In . SVG Version: 6.00 Build 0)  -->
<!DOCTYPE svg PUBLIC "-//W3C//DTD SVG 1.1//EN" "http://www.w3.org/Graphics/SVG/1.1/DTD/svg11.dtd">
<svg version="1.1" xmlns="http://www.w3.org/2000/svg" xmlns:xlink="http://www.w3.org/1999/xlink" x="0px" y="0px"
	 viewBox="0 0 18 18" enable-background="new 0 0 18 18" xml:space="preserve">
<g id="Layer_1">
	<path d="M12.9,2l0-2h-2.1l-0.1,0C8.1,0.3,5.8,2.1,5,4.6L4,5.4c-1.5,1.3-2.4,3.1-2.4,5.1C1.6,14.7,4.9,18,9,18
		c4.1,0,7.4-3.3,7.4-7.4c0-2.2-0.8-4.2-2.4-5.7C13.3,4.1,12.9,3.1,12.9,2z M13,14.2c-0.3-0.4-0.6-0.8-1-1.2c0,1.7-1.3,3-3,3
		c-3,0-5.4-2.4-5.4-5.4c0-1.4,0.7-2.7,1.7-3.6l0,0c0.4,1.6,1.7,3,3.3,3.4C7.4,9.5,6.7,8.2,6.7,6.7c0-2.4,1.9-4.4,4.2-4.7l0,0
		c0,1.7,0.7,3.2,1.8,4.3c1.1,1.1,1.8,2.6,1.8,4.3C14.4,12,13.9,13.3,13,14.2z"/>
</g>
<g id="Layer_2" display="none">
	<g display="inline">
		<path fill="#ED1C24" d="M10.9,2L10.9,2c0,1.7,0.7,3.2,1.8,4.3c1.1,1.1,1.8,2.6,1.8,4.3c0,3-2.4,5.4-5.4,5.4s-5.4-2.4-5.4-5.4
			c0-1.4,0.7-2.7,1.7-3.6l0,0c0.4,1.6,1.7,3,3.3,3.4C7.4,9.5,6.7,8.2,6.7,6.7C6.7,4.2,8.5,2.2,10.9,2 M12.9-0.2L10.7,0
			C8.1,0.3,5.8,2.1,5,4.6L4,5.4c-1.5,1.3-2.4,3.1-2.4,5.1C1.6,14.7,4.9,18,9,18s7.4-3.3,7.4-7.4c0-2.2-0.8-4.2-2.4-5.7
			c-0.8-0.8-1.2-1.8-1.2-2.9L12.9-0.2L12.9-0.2z"/>
	</g>
	<g display="inline">
		<path fill="#ED1C24" d="M12,13c0,1.7-1.3,3-3,3c1.6,0,3.1-0.4,4.4-1.2C13,14.2,12.6,13.6,12,13L12,13z"/>
	</g>
</g>
</svg>
