<?xml version="1.0" encoding="utf-8"?>
<!-- Generator: Adobe Illustrator 19.2.1, SVG Export Plug-In . SVG Version: 6.00 Build 0)  -->
<!DOCTYPE svg PUBLIC "-//W3C//DTD SVG 1.1//EN" "http://www.w3.org/Graphics/SVG/1.1/DTD/svg11.dtd">
<svg version="1.1" xmlns="http://www.w3.org/2000/svg" xmlns:xlink="http://www.w3.org/1999/xlink" x="0px" y="0px"
	 viewBox="0 0 18 18" enable-background="new 0 0 18 18" xml:space="preserve">
<g id="Layer_1">
	<path d="M6,6H4V0h10v6h-2V2H6V6z M18,16h-4v2H4v-2H0v-4c0-2.2,1.8-4,4-4h10c2.2,0,4,1.8,4,4V16z M12,14H6v2h6V14z M16,12
		c0-1.1-0.9-2-2-2H4c-1.1,0-2,0.9-2,2v2h2v-2h10v2h2V12z"/>
</g>
<g id="Layer_2" display="none">
	<g display="inline">
		<polyline fill="none" stroke="#ED1C24" stroke-width="2" stroke-miterlimit="10" points="5,6 5,1 13,1 13,6 		"/>
		<rect x="5" y="13" fill="none" stroke="#ED1C24" stroke-width="2" stroke-miterlimit="10" width="8" height="4"/>
		<path fill="none" stroke="#ED1C24" stroke-width="2" stroke-miterlimit="10" d="M13,15h4v-3c0-1.7-1.3-3-3-3H4c-1.7,0-3,1.3-3,3v3
			h4"/>
	</g>
</g>
</svg>
