<?xml version="1.0" encoding="utf-8"?>
<!-- Generator: Adobe Illustrator 19.2.1, SVG Export Plug-In . SVG Version: 6.00 Build 0)  -->
<!DOCTYPE svg PUBLIC "-//W3C//DTD SVG 1.1//EN" "http://www.w3.org/Graphics/SVG/1.1/DTD/svg11.dtd">
<svg version="1.1" xmlns="http://www.w3.org/2000/svg" xmlns:xlink="http://www.w3.org/1999/xlink" x="0px" y="0px"
	 viewBox="0 0 18 18" enable-background="new 0 0 18 18" xml:space="preserve">
<g id="Layer_1">
	<path d="M1.7,17.7l-1.4-1.4L2,14.6V3.4L0.3,1.7l1.4-1.4L4,2.6v12.8L1.7,17.7z M17.7,16.3L16,14.6V3.4l1.7-1.7l-1.4-1.4L14,2.6v12.8
		l2.3,2.3L17.7,16.3z M8,4H6v2h2V4L8,4z M12,4h-2v2h2V4L12,4z M8,12H6v2h2V12L8,12z M12,12h-2v2h2V12L12,12z"/>
</g>
<g id="Layer_2" display="none">
	<polyline display="inline" fill="none" stroke="#ED1C24" stroke-width="2" stroke-miterlimit="10" points="1,1 3,3 3,15 1,17 	"/>
	<polyline display="inline" fill="none" stroke="#ED1C24" stroke-width="2" stroke-miterlimit="10" points="17,1 15,3 15,15 17,17 	
		"/>
	<g display="inline">
		<polygon fill="#ED1C24" points="8,4 6,4 6,6 8,6 8,4 		"/>
	</g>
	<g display="inline">
		<polygon fill="#ED1C24" points="12,4 10,4 10,6 12,6 12,4 		"/>
	</g>
	<g display="inline">
		<polygon fill="#ED1C24" points="8,12 6,12 6,14 8,14 8,12 		"/>
	</g>
	<g display="inline">
		<polygon fill="#ED1C24" points="12,12 10,12 10,14 12,14 12,12 		"/>
	</g>
</g>
</svg>
