<?xml version="1.0" encoding="utf-8"?>
<!-- Generator: Adobe Illustrator 19.2.1, SVG Export Plug-In . SVG Version: 6.00 Build 0)  -->
<!DOCTYPE svg PUBLIC "-//W3C//DTD SVG 1.1//EN" "http://www.w3.org/Graphics/SVG/1.1/DTD/svg11.dtd">
<svg version="1.1" xmlns="http://www.w3.org/2000/svg" xmlns:xlink="http://www.w3.org/1999/xlink" x="0px" y="0px"
	 viewBox="0 0 18 18" enable-background="new 0 0 18 18" xml:space="preserve">
<g id="Layer_1">
	<path d="M0,4v14h18V4L9,0L0,4z M16,16H2V5.3l7-3.1l7,3.1V16z M9,11.5c0.8,0,1.5,0.7,1.5,1.5S9.8,14.5,9,14.5S7.5,13.8,7.5,13
		S8.2,11.5,9,11.5z M8,5h2v5H8V5z"/>
</g>
<g id="Layer_2" display="none">
	<g display="inline">
		<path fill="#ED1C24" d="M9,2.2l7,3.1V16H2V5.3L9,2.2 M9,0L0,4v14h18V4L9,0L9,0z"/>
	</g>
	<g display="inline">
		<path fill="#ED1C24" d="M9,11.5c-0.8,0-1.5,0.7-1.5,1.5s0.7,1.5,1.5,1.5s1.5-0.7,1.5-1.5S9.8,11.5,9,11.5L9,11.5z"/>
	</g>
	<line display="inline" fill="none" stroke="#ED1C24" stroke-width="2" stroke-miterlimit="10" x1="9" y1="10" x2="9" y2="5"/>
</g>
</svg>
