<?xml version="1.0" encoding="utf-8"?>
<!-- Generator: Adobe Illustrator 21.0.0, SVG Export Plug-In . SVG Version: 6.00 Build 0)  -->
<!DOCTYPE svg PUBLIC "-//W3C//DTD SVG 1.1//EN" "http://www.w3.org/Graphics/SVG/1.1/DTD/svg11.dtd">
<svg version="1.1" xmlns="http://www.w3.org/2000/svg" xmlns:xlink="http://www.w3.org/1999/xlink" x="0px" y="0px"
	 viewBox="0 0 18 18" enable-background="new 0 0 18 18" xml:space="preserve">
<g id="Layer_1">
	<path d="M18,7h-2c0-3.9-3.1-7-7-7S2,3.1,2,7H0v2h0.6C0.2,9.6,0,10.3,0,11c0,2.1,1.7,3.9,3.8,4c1,1.8,3,3,5.2,3s4.2-1.2,5.2-3
		c2.1-0.1,3.8-1.8,3.8-4c0-0.7-0.2-1.4-0.6-2H18V7z M8,2.1V4h2V2.1c2.3,0.5,4,2.5,4,4.9h-1H5H4C4,4.6,5.7,2.6,8,2.1z M3,12.7
		c-0.6-0.3-1-1-1-1.7s0.4-1.4,1-1.7V12V12.7z M9,16c-2.2,0-4-1.8-4-4V9h8v3C13,14.2,11.2,16,9,16z M15,12.7V12V9.3
		c0.6,0.3,1,1,1,1.7S15.6,12.4,15,12.7z M8,11c0,0.6-0.4,1-1,1c-0.6,0-1-0.4-1-1c0-0.6,0.4-1,1-1C7.6,10,8,10.4,8,11z M12,11
		c0,0.6-0.4,1-1,1c-0.6,0-1-0.4-1-1c0-0.6,0.4-1,1-1C11.6,10,12,10.4,12,11z"/>
</g>
<g id="Layer_2" display="none">
	<path display="inline" fill="none" stroke="#ED1C24" stroke-width="2" stroke-miterlimit="10" d="M14,14c1.7,0,3-1.3,3-3
		s-1.3-3-3-3V14z"/>
	<path display="inline" fill="none" stroke="#ED1C24" stroke-width="2" stroke-miterlimit="10" d="M4,14c-1.7,0-3-1.3-3-3s1.3-3,3-3
		V14z"/>
	<path display="inline" fill="none" stroke="#ED1C24" stroke-width="2" stroke-miterlimit="10" d="M3,7c0-3.3,2.7-6,6-6s6,2.7,6,6"
		/>
	<path display="inline" fill="none" stroke="#ED1C24" stroke-width="2" stroke-miterlimit="10" d="M4,8.5V12c0,2.8,2.2,5,5,5
		s5-2.2,5-5V8.4"/>
	<line display="inline" fill="none" stroke="#ED1C24" stroke-width="2" stroke-miterlimit="10" x1="0" y1="8" x2="18" y2="8"/>
	<g display="inline">
		<path fill="#ED1C24" d="M7,10c-0.6,0-1,0.4-1,1s0.4,1,1,1s1-0.4,1-1S7.6,10,7,10L7,10z"/>
	</g>
	<g display="inline">
		<path fill="#ED1C24" d="M11,10c-0.6,0-1,0.4-1,1s0.4,1,1,1s1-0.4,1-1S11.6,10,11,10L11,10z"/>
	</g>
	<line display="inline" fill="none" stroke="#ED1C24" stroke-width="2" stroke-miterlimit="10" x1="9" y1="1" x2="9" y2="4"/>
</g>
</svg>
