<?xml version="1.0" encoding="utf-8"?>
<!-- Generator: Adobe Illustrator 21.0.0, SVG Export Plug-In . SVG Version: 6.00 Build 0)  -->
<!DOCTYPE svg PUBLIC "-//W3C//DTD SVG 1.1//EN" "http://www.w3.org/Graphics/SVG/1.1/DTD/svg11.dtd">
<svg version="1.1" xmlns="http://www.w3.org/2000/svg" xmlns:xlink="http://www.w3.org/1999/xlink" x="0px" y="0px"
	 viewBox="0 0 18 18" enable-background="new 0 0 18 18" xml:space="preserve">
<g id="Layer_1">
	<path d="M2,14c1.1,0,2,0.9,2,2s-0.9,2-2,2s-2-0.9-2-2S0.9,14,2,14z M6,16c0,1.1,0.9,2,2,2s2-0.9,2-2s-0.9-2-2-2S6,14.9,6,16z
		 M18,14c0,2.2-1.8,4-4,4h-1v-8h1V4h-2.6L8.9,6.5L10,8.8V14H8H2H0V8h4V4h3.6l0.3,0.6L10.6,2H14V0h2v10.6C17.2,11.2,18,12.5,18,14z
		 M8,9.2L6.4,6H6v4H2v2h6V9.2z M16,14c0-0.7-0.4-1.4-1-1.7v3.5C15.6,15.4,16,14.7,16,14z"/>
</g>
<g id="Layer_2" display="none">
	<polygon display="inline" fill="none" stroke="#ED1C24" stroke-width="2" stroke-miterlimit="10" points="7,5 5,5 5,9 1,9 1,13 
		9,13 9,9 	"/>
	<circle display="inline" fill="none" stroke="#ED1C24" stroke-width="2" stroke-miterlimit="10" cx="2" cy="16" r="1"/>
	<circle display="inline" fill="none" stroke="#ED1C24" stroke-width="2" stroke-miterlimit="10" cx="8" cy="16" r="1"/>
	<path display="inline" fill="none" stroke="#ED1C24" stroke-width="2" stroke-miterlimit="10" d="M14,17c1.7,0,3-1.3,3-3
		s-1.3-3-3-3V17z"/>
	<line display="inline" fill="none" stroke="#ED1C24" stroke-width="2" stroke-miterlimit="10" x1="15" y1="0" x2="15" y2="11"/>
	<polyline display="inline" fill="none" stroke="#ED1C24" stroke-width="2" stroke-miterlimit="10" points="15,3 11,3 8,6 	"/>
</g>
</svg>
