<?xml version="1.0" encoding="utf-8"?>
<!-- Generator: Adobe Illustrator 19.2.1, SVG Export Plug-In . SVG Version: 6.00 Build 0)  -->
<!DOCTYPE svg PUBLIC "-//W3C//DTD SVG 1.1//EN" "http://www.w3.org/Graphics/SVG/1.1/DTD/svg11.dtd">
<svg version="1.1" xmlns="http://www.w3.org/2000/svg" xmlns:xlink="http://www.w3.org/1999/xlink" x="0px" y="0px"
	 viewBox="0 0 18 18" enable-background="new 0 0 18 18" xml:space="preserve">
<g id="Layer_1">
	<path d="M0,4v14h18V4L9,0L0,4z M16,16H2V5.3l7-3.1l7,3.1V16z M10,12h2c0,1.7-1.3,3-3,3s-3-1.3-3-3h2c0,0.6,0.4,1,1,1S10,12.6,10,12
		z M6,6h6v2h-2v4H8V8H6V6z"/>
</g>
<g id="Layer_2" display="none">
	<g display="inline">
		<path fill="#ED1C24" d="M9,2.2l7,3.1V16H2V5.3L9,2.2 M9,0L0,4v14h18V4L9,0L9,0z"/>
	</g>
	<path display="inline" fill="none" stroke="#ED1C24" stroke-width="2" stroke-miterlimit="10" d="M7,12c0,1.1,0.9,2,2,2s2-0.9,2-2"
		/>
	<line display="inline" fill="none" stroke="#ED1C24" stroke-width="2" stroke-miterlimit="10" x1="9" y1="12" x2="9" y2="7"/>
	<line display="inline" fill="none" stroke="#ED1C24" stroke-width="2" stroke-miterlimit="10" x1="12" y1="7" x2="6" y2="7"/>
</g>
</svg>
