<?xml version="1.0" encoding="utf-8"?>
<!-- Generator: Adobe Illustrator 19.2.1, SVG Export Plug-In . SVG Version: 6.00 Build 0)  -->
<!DOCTYPE svg PUBLIC "-//W3C//DTD SVG 1.1//EN" "http://www.w3.org/Graphics/SVG/1.1/DTD/svg11.dtd">
<svg version="1.1" xmlns="http://www.w3.org/2000/svg" xmlns:xlink="http://www.w3.org/1999/xlink" x="0px" y="0px"
	 viewBox="0 0 18 18" enable-background="new 0 0 18 18" xml:space="preserve">
<g id="Layer_1">
	<path d="M12,10l2-2v10H0V4h10L8,6H2v10h10V10z M8,0v2h6.6l-8.3,8.3l1.4,1.4L16,3.4V10h2V0H8z"/>
</g>
<g id="Layer_2" display="none">
	<g display="inline">
		<g>
			<polygon fill="#ED1C24" points="10,4 0,4 0,18 14,18 14,8 12,10 12,16 2,16 2,6 8,6 10,4 			"/>
		</g>
		<line fill="none" stroke="#ED1C24" stroke-width="2" stroke-miterlimit="10" x1="7" y1="11" x2="17" y2="1"/>
		<polyline fill="none" stroke="#ED1C24" stroke-width="2" stroke-miterlimit="10" points="8,1 17,1 17,10 		"/>
	</g>
</g>
</svg>
