<?xml version="1.0" encoding="utf-8"?>
<!-- Generator: Adobe Illustrator 21.0.2, SVG Export Plug-In . SVG Version: 6.00 Build 0)  -->
<!DOCTYPE svg PUBLIC "-//W3C//DTD SVG 1.1//EN" "http://www.w3.org/Graphics/SVG/1.1/DTD/svg11.dtd">
<svg version="1.1" xmlns="http://www.w3.org/2000/svg" xmlns:xlink="http://www.w3.org/1999/xlink" x="0px" y="0px"
	 viewBox="0 0 18 18" enable-background="new 0 0 18 18" xml:space="preserve">
<g id="Layer_1">
	<path d="M14,8c0,0.6-0.4,1-1,1s-1-0.4-1-1V7H6v1c0,0.6-0.4,1-1,1S4,8.6,4,8V7H0v2h2.2c0.4,1.2,1.5,2,2.8,2s2.4-0.8,2.8-2h2.3
		c0.4,1.2,1.5,2,2.8,2s2.4-0.8,2.8-2H18V7h-4V8z"/>
</g>
<g id="Layer_2" display="none">
	<path display="inline" fill="none" stroke="#ED1C24" stroke-width="2" stroke-miterlimit="10" d="M0,8h3c0,1.1,0.9,2,2,2s2-0.9,2-2
		h4c0,1.1,0.9,2,2,2s2-0.9,2-2h3"/>
</g>
</svg>
