<?xml version="1.0" encoding="utf-8"?>
<!-- Generator: Adobe Illustrator 20.1.0, SVG Export Plug-In . SVG Version: 6.00 Build 0)  -->
<!DOCTYPE svg PUBLIC "-//W3C//DTD SVG 1.1//EN" "http://www.w3.org/Graphics/SVG/1.1/DTD/svg11.dtd">
<svg version="1.1" xmlns="http://www.w3.org/2000/svg" xmlns:xlink="http://www.w3.org/1999/xlink" x="0px" y="0px"
	 viewBox="0 0 18 18" enable-background="new 0 0 18 18" xml:space="preserve">
<g id="Layer_1">
	<path d="M14,14h4v2h-4V14z M7,16h4v-2H7V16z M0,16h4v-2H0V16z M13.9,1.5l-1.4-1.4L9,3.6L5.5,0.1L4.1,1.5L6.6,4H0v2h6.6L4.1,8.5
		l1.4,1.4L9,6.4l3.5,3.5l1.4-1.4L11.4,6H18V4h-6.6L13.9,1.5z"/>
</g>
<g id="Layer_2" display="none">
	
		<line display="inline" fill="none" stroke="#ED1C24" stroke-width="2" stroke-miterlimit="10" stroke-dasharray="4,3" x1="0" y1="15" x2="18" y2="15"/>
	<line display="inline" fill="none" stroke="#ED1C24" stroke-width="2" stroke-miterlimit="10" x1="0" y1="5" x2="18" y2="5"/>
	
		<line display="inline" fill="none" stroke="#ED1C24" stroke-width="2" stroke-miterlimit="10" x1="4.8" y1="9.2" x2="13.2" y2="0.8"/>
	
		<line display="inline" fill="none" stroke="#ED1C24" stroke-width="2" stroke-miterlimit="10" x1="4.8" y1="0.8" x2="13.2" y2="9.2"/>
</g>
</svg>
