<?xml version="1.0" encoding="utf-8"?>
<!-- Generator: Adobe Illustrator 21.0.0, SVG Export Plug-In . SVG Version: 6.00 Build 0)  -->
<!DOCTYPE svg PUBLIC "-//W3C//DTD SVG 1.1//EN" "http://www.w3.org/Graphics/SVG/1.1/DTD/svg11.dtd">
<svg version="1.1" xmlns="http://www.w3.org/2000/svg" xmlns:xlink="http://www.w3.org/1999/xlink" x="0px" y="0px"
	 viewBox="0 0 18 18" enable-background="new 0 0 18 18" xml:space="preserve">
<g id="Layer_1">
	<path d="M17.7,7.7l-1.4-1.4L6.6,16H5v-4h3V0H0v12h3v4H0v2h18v-2H9.4L17.7,7.7z M2,2h4v8H2V2z M5,4c0,0.6-0.4,1-1,1C3.4,5,3,4.6,3,4
		s0.4-1,1-1C4.6,3,5,3.4,5,4z M5,8c0,0.6-0.4,1-1,1C3.4,9,3,8.6,3,8s0.4-1,1-1C4.6,7,5,7.4,5,8z"/>
</g>
<g id="Layer_2" display="none">
	<line display="inline" fill="none" stroke="#ED1C24" stroke-width="2" stroke-miterlimit="10" x1="0" y1="17" x2="18" y2="17"/>
	<line display="inline" fill="none" stroke="#ED1C24" stroke-width="2" stroke-miterlimit="10" x1="7" y1="17" x2="17" y2="7"/>
	<rect x="1" y="1" display="inline" fill="none" stroke="#ED1C24" stroke-width="2" stroke-miterlimit="10" width="6" height="10"/>
	<line display="inline" fill="none" stroke="#ED1C24" stroke-width="2" stroke-miterlimit="10" x1="4" y1="11" x2="4" y2="17"/>
	<g display="inline">
		<path fill="#ED1C24" d="M4,3C3.4,3,3,3.4,3,4s0.4,1,1,1s1-0.4,1-1S4.6,3,4,3L4,3z"/>
	</g>
	<g display="inline">
		<path fill="#ED1C24" d="M4,7C3.4,7,3,7.4,3,8s0.4,1,1,1s1-0.4,1-1S4.6,7,4,7L4,7z"/>
	</g>
</g>
</svg>
