<?xml version="1.0" encoding="utf-8"?>
<!-- Generator: Adobe Illustrator 20.0.0, SVG Export Plug-In . SVG Version: 6.00 Build 0)  -->
<!DOCTYPE svg PUBLIC "-//W3C//DTD SVG 1.1//EN" "http://www.w3.org/Graphics/SVG/1.1/DTD/svg11.dtd">
<svg version="1.1" xmlns="http://www.w3.org/2000/svg" xmlns:xlink="http://www.w3.org/1999/xlink" x="0px" y="0px"
	 viewBox="0 0 18 18" enable-background="new 0 0 18 18" xml:space="preserve">
<g id="Layer_1">
	<path d="M9,12c-1.7,0-3-1.3-3-3s1.3-3,3-3s3,1.3,3,3S10.7,12,9,12z M9,8C8.4,8,8,8.4,8,9s0.4,1,1,1s1-0.4,1-1S9.6,8,9,8z M10,14H8
		v2h2V14z M10,2H8v2h2V2z M10,14H8v2h2V14z M10,2H8v2h2V2z M14.7,13.2l-1.4-1.4l-1.4,1.4l1.4,1.4L14.7,13.2z M6.2,4.8L4.8,3.3
		L3.3,4.8l1.4,1.4L6.2,4.8z M16,8h-2v2h2V8z M4,8H2v2h2V8z M14.7,4.8l-1.4-1.4l-1.4,1.4l1.4,1.4L14.7,4.8z M6.2,13.2l-1.4-1.4
		l-1.4,1.4l1.4,1.4L6.2,13.2z"/>
</g>
<g id="Layer_2" display="none">
	<circle display="inline" fill="none" stroke="#ED1C24" stroke-width="2" stroke-miterlimit="10" cx="9" cy="9" r="2"/>
	<line display="inline" fill="none" stroke="#ED1C24" stroke-width="2" stroke-miterlimit="10" x1="9" y1="16" x2="9" y2="14"/>
	<line display="inline" fill="none" stroke="#ED1C24" stroke-width="2" stroke-miterlimit="10" x1="9" y1="4" x2="9" y2="2"/>
	<line display="inline" fill="none" stroke="#ED1C24" stroke-width="2" stroke-miterlimit="10" x1="9" y1="16" x2="9" y2="14"/>
	<line display="inline" fill="none" stroke="#ED1C24" stroke-width="2" stroke-miterlimit="10" x1="9" y1="4" x2="9" y2="2"/>
	
		<line display="inline" fill="none" stroke="#ED1C24" stroke-width="2" stroke-miterlimit="10" x1="13.9" y1="13.9" x2="12.5" y2="12.5"/>
	
		<line display="inline" fill="none" stroke="#ED1C24" stroke-width="2" stroke-miterlimit="10" x1="5.5" y1="5.5" x2="4.1" y2="4.1"/>
	<line display="inline" fill="none" stroke="#ED1C24" stroke-width="2" stroke-miterlimit="10" x1="16" y1="9" x2="14" y2="9"/>
	<line display="inline" fill="none" stroke="#ED1C24" stroke-width="2" stroke-miterlimit="10" x1="4" y1="9" x2="2" y2="9"/>
	
		<line display="inline" fill="none" stroke="#ED1C24" stroke-width="2" stroke-miterlimit="10" x1="13.9" y1="4.1" x2="12.5" y2="5.5"/>
	
		<line display="inline" fill="none" stroke="#ED1C24" stroke-width="2" stroke-miterlimit="10" x1="5.5" y1="12.5" x2="4.1" y2="13.9"/>
</g>
</svg>
