<?xml version="1.0" encoding="utf-8"?>
<!-- Generator: Adobe Illustrator 19.2.1, SVG Export Plug-In . SVG Version: 6.00 Build 0)  -->
<!DOCTYPE svg PUBLIC "-//W3C//DTD SVG 1.1//EN" "http://www.w3.org/Graphics/SVG/1.1/DTD/svg11.dtd">
<svg version="1.1" xmlns="http://www.w3.org/2000/svg" xmlns:xlink="http://www.w3.org/1999/xlink" x="0px" y="0px"
	 viewBox="0 0 18 18" enable-background="new 0 0 18 18" xml:space="preserve">
<g id="Layer_1">
	<path d="M2,10H0V8h2V10z M16,10h2V8h-2V10z M8,18h2v-2H8V18z M10,0H8v2h2V0z M13.2,14.7l1.4,1.4l1.4-1.4l-1.4-1.4L13.2,14.7z
		 M4.8,3.3L3.3,1.9L1.9,3.3l1.4,1.4L4.8,3.3z M4.1,9.7l5.6-5.6C9.5,4,9.2,4,9,4C6.2,4,4,6.2,4,9C4,9.2,4,9.5,4.1,9.7z M13.9,8.3
		l-5.6,5.6C8.5,14,8.8,14,9,14c2.8,0,5-2.2,5-5C14,8.8,14,8.5,13.9,8.3z M16.3,0.3l-16,16l1.4,1.4l16-16L16.3,0.3z"/>
</g>
<g id="Layer_2" display="none">
	<line display="inline" fill="none" stroke="#ED1C24" stroke-width="2" stroke-miterlimit="10" x1="0" y1="9" x2="2" y2="9"/>
	<line display="inline" fill="none" stroke="#ED1C24" stroke-width="2" stroke-miterlimit="10" x1="16" y1="9" x2="18" y2="9"/>
	<line display="inline" fill="none" stroke="#ED1C24" stroke-width="2" stroke-miterlimit="10" x1="9" y1="18" x2="9" y2="16"/>
	<line display="inline" fill="none" stroke="#ED1C24" stroke-width="2" stroke-miterlimit="10" x1="9" y1="2" x2="9" y2="0"/>
	
		<line display="inline" fill="none" stroke="#ED1C24" stroke-width="2" stroke-miterlimit="10" x1="15.4" y1="15.4" x2="13.9" y2="13.9"/>
	
		<line display="inline" fill="none" stroke="#ED1C24" stroke-width="2" stroke-miterlimit="10" x1="4.1" y1="4.1" x2="2.6" y2="2.6"/>
	<g display="inline">
		<path fill="#ED1C24" d="M9.7,4.1C9.5,4,9.2,4,9,4C6.2,4,4,6.2,4,9c0,0.2,0,0.5,0.1,0.7L9.7,4.1z"/>
		<path fill="#ED1C24" d="M8.3,13.9C8.5,14,8.8,14,9,14c2.8,0,5-2.2,5-5c0-0.2,0-0.5-0.1-0.7L8.3,13.9z"/>
	</g>
	<line display="inline" fill="none" stroke="#ED1C24" stroke-width="2" stroke-miterlimit="10" x1="1" y1="17" x2="17" y2="1"/>
</g>
</svg>
