<?xml version="1.0" encoding="utf-8"?>
<!-- Generator: Adobe Illustrator 19.2.1, SVG Export Plug-In . SVG Version: 6.00 Build 0)  -->
<!DOCTYPE svg PUBLIC "-//W3C//DTD SVG 1.1//EN" "http://www.w3.org/Graphics/SVG/1.1/DTD/svg11.dtd">
<svg version="1.1" xmlns="http://www.w3.org/2000/svg" xmlns:xlink="http://www.w3.org/1999/xlink" x="0px" y="0px"
	 viewBox="0 0 18 18" enable-background="new 0 0 18 18" xml:space="preserve">
<g id="Layer_1">
	<path d="M9,4C6.2,4,4,6.2,4,9s2.2,5,5,5s5-2.2,5-5S11.8,4,9,4z M9,12c-1.7,0-3-1.3-3-3s1.3-3,3-3s3,1.3,3,3S10.7,12,9,12z M2,10H0
		V8h2V10z M16,8h2v2h-2V8z M3.3,13.2l1.4,1.4l-1.4,1.4l-1.4-1.4L3.3,13.2z M14.7,4.8l-1.4-1.4l1.4-1.4l1.4,1.4L14.7,4.8z M8,16h2v2
		H8V16z M10,2H8V0h2V2z M14.7,13.2l1.4,1.4l-1.4,1.4l-1.4-1.4L14.7,13.2z M3.3,4.8L1.9,3.3l1.4-1.4l1.4,1.4L3.3,4.8z"/>
</g>
<g id="Layer_2" display="none">
	<circle display="inline" fill="none" stroke="#ED1C24" stroke-width="2" stroke-miterlimit="10" cx="9" cy="9" r="4"/>
	<line display="inline" fill="none" stroke="#ED1C24" stroke-width="2" stroke-miterlimit="10" x1="0" y1="9" x2="2" y2="9"/>
	<line display="inline" fill="none" stroke="#ED1C24" stroke-width="2" stroke-miterlimit="10" x1="16" y1="9" x2="18" y2="9"/>
	
		<line display="inline" fill="none" stroke="#ED1C24" stroke-width="2" stroke-miterlimit="10" x1="2.6" y1="15.4" x2="4.1" y2="13.9"/>
	
		<line display="inline" fill="none" stroke="#ED1C24" stroke-width="2" stroke-miterlimit="10" x1="13.9" y1="4.1" x2="15.4" y2="2.6"/>
	<line display="inline" fill="none" stroke="#ED1C24" stroke-width="2" stroke-miterlimit="10" x1="9" y1="18" x2="9" y2="16"/>
	<line display="inline" fill="none" stroke="#ED1C24" stroke-width="2" stroke-miterlimit="10" x1="9" y1="2" x2="9" y2="0"/>
	
		<line display="inline" fill="none" stroke="#ED1C24" stroke-width="2" stroke-miterlimit="10" x1="15.4" y1="15.4" x2="13.9" y2="13.9"/>
	
		<line display="inline" fill="none" stroke="#ED1C24" stroke-width="2" stroke-miterlimit="10" x1="4.1" y1="4.1" x2="2.6" y2="2.6"/>
</g>
</svg>
