<?xml version="1.0" encoding="utf-8"?>
<!-- Generator: Adobe Illustrator 19.2.1, SVG Export Plug-In . SVG Version: 6.00 Build 0)  -->
<!DOCTYPE svg PUBLIC "-//W3C//DTD SVG 1.1//EN" "http://www.w3.org/Graphics/SVG/1.1/DTD/svg11.dtd">
<svg version="1.1" xmlns="http://www.w3.org/2000/svg" xmlns:xlink="http://www.w3.org/1999/xlink" x="0px" y="0px"
	 viewBox="0 0 18 18" enable-background="new 0 0 18 18" xml:space="preserve">
<g id="Layer_1">
	<path d="M15,5c-1.7,0-3-1.3-3-3c0,1.7-1.3,3-3,3S6,3.7,6,2c0,1.7-1.3,3-3,3S0,3.7,0,2v5c0,5,4,9,9,9c5,0,9-4,9-9V2
		C18,3.7,16.7,5,15,5z M16,7c0,3.9-3.1,7-7,7s-7-3.1-7-7V6.9C2.3,7,2.7,7,3,7c1.1,0,2.2-0.4,3-1c0.8,0.6,1.9,1,3,1s2.2-0.4,3-1
		c0.8,0.6,1.9,1,3,1c0.3,0,0.7,0,1-0.1V7z"/>
</g>
<g id="Layer_2" display="none">
	<g display="inline">
		<path fill="#ED1C24" d="M12,6c0.8,0.6,1.9,1,3,1c0.3,0,0.7,0,1-0.1V7c0,3.9-3.1,7-7,7s-7-3.1-7-7V6.9C2.3,7,2.7,7,3,7
			c1.1,0,2.2-0.4,3-1c0.8,0.6,1.9,1,3,1S11.2,6.6,12,6 M18,2c0,1.7-1.3,3-3,3s-3-1.3-3-3c0,1.7-1.3,3-3,3S6,3.7,6,2c0,1.7-1.3,3-3,3
			S0,3.7,0,2v5c0,5,4,9,9,9s9-4,9-9V2L18,2z"/>
	</g>
</g>
</svg>
