<?xml version="1.0" encoding="utf-8"?>
<!-- Generator: Adobe Illustrator 19.2.1, SVG Export Plug-In . SVG Version: 6.00 Build 0)  -->
<!DOCTYPE svg PUBLIC "-//W3C//DTD SVG 1.1//EN" "http://www.w3.org/Graphics/SVG/1.1/DTD/svg11.dtd">
<svg version="1.1" xmlns="http://www.w3.org/2000/svg" xmlns:xlink="http://www.w3.org/1999/xlink" x="0px" y="0px"
	 viewBox="0 0 18 18" enable-background="new 0 0 18 18" xml:space="preserve">
<g id="Layer_1">
	<path d="M0,8h1.9C0.9,8,0,8.9,0,10c0,1.1,0.9,2,2,2c1.1,0,2-0.9,2-2c0,1.1,0.9,2,2,2c1.1,0,2-0.9,2-2C8,8.9,7.2,8,6.1,8h5.8
		C10.9,8,10,8.9,10,10c0,1.1,0.9,2,2,2c1.1,0,2-0.9,2-2c0,1.1,0.9,2,2,2c1.1,0,2-0.9,2-2c0-1.1-0.9-1.9-1.9-2H18V0H0V8z M4,10
		C4,8.9,3.1,8,2.1,8h3.8C4.9,8,4,8.9,4,10z M14,10c0-1.1-0.9-1.9-1.9-2h3.8C14.9,8,14,8.9,14,10z M2,2h14v4H2V2z M0,12h18v2h-6v4h-2
		v-4H8v4H6v-4H0V12z"/>
</g>
<g id="Layer_2" display="none">
	<rect x="1" y="1" display="inline" fill="none" stroke="#ED1C24" stroke-width="2" stroke-miterlimit="10" width="16" height="6"/>
	<g display="inline">
		<path fill="#ED1C24" d="M2,8c-1.1,0-2,0.9-2,2s0.9,2,2,2c1.1,0,2-0.9,2-2S3.1,8,2,8L2,8z"/>
	</g>
	<g display="inline">
		<path fill="#ED1C24" d="M6,8c-1.1,0-2,0.9-2,2s0.9,2,2,2c1.1,0,2-0.9,2-2S7.1,8,6,8L6,8z"/>
	</g>
	<g display="inline">
		<path fill="#ED1C24" d="M12,8c-1.1,0-2,0.9-2,2s0.9,2,2,2c1.1,0,2-0.9,2-2S13.1,8,12,8L12,8z"/>
	</g>
	<g display="inline">
		<path fill="#ED1C24" d="M16,8c-1.1,0-2,0.9-2,2s0.9,2,2,2c1.1,0,2-0.9,2-2S17.1,8,16,8L16,8z"/>
	</g>
	<line display="inline" fill="none" stroke="#ED1C24" stroke-width="2" stroke-miterlimit="10" x1="0" y1="13" x2="18" y2="13"/>
	<line display="inline" fill="none" stroke="#ED1C24" stroke-width="2" stroke-miterlimit="10" x1="7" y1="18" x2="7" y2="14"/>
	<line display="inline" fill="none" stroke="#ED1C24" stroke-width="2" stroke-miterlimit="10" x1="11" y1="18" x2="11" y2="14"/>
</g>
</svg>
