<?xml version="1.0" encoding="utf-8"?>
<!-- Generator: Adobe Illustrator 21.0.0, SVG Export Plug-In . SVG Version: 6.00 Build 0)  -->
<!DOCTYPE svg PUBLIC "-//W3C//DTD SVG 1.1//EN" "http://www.w3.org/Graphics/SVG/1.1/DTD/svg11.dtd">
<svg version="1.1" xmlns="http://www.w3.org/2000/svg" xmlns:xlink="http://www.w3.org/1999/xlink" x="0px" y="0px"
	 viewBox="0 0 18 18" enable-background="new 0 0 18 18" xml:space="preserve">
<g id="Layer_1">
	<path d="M0,15c0,1.7,1.3,3,3,3s3-1.3,3-3s-1.3-3-3-3S0,13.3,0,15z M3,14c0.6,0,1,0.4,1,1s-0.4,1-1,1s-1-0.4-1-1S2.4,14,3,14z M8,2
		L6,2v0H0V0h6C7.1,0,8,0.9,8,2z M12.7,4.3L17.4,9l-4.7,4.7l-1.4-1.4l2.3-2.3H10V8h3.6l-2.3-2.3L12.7,4.3z M6,10v2H3H0v-2H6z M6,2h2
		v8c0,1.1-0.9,2-2,2l0-2h0V2z"/>
</g>
<g id="Layer_2" display="none">
	<circle display="inline" fill="none" stroke="#ED1C24" stroke-width="2" stroke-miterlimit="10" cx="3" cy="15" r="2"/>
	<path display="inline" fill="none" stroke="#ED1C24" stroke-width="2" stroke-miterlimit="10" d="M7,2c0-0.6-0.4-1-1-1"/>
	<path display="inline" fill="none" stroke="#ED1C24" stroke-width="2" stroke-miterlimit="10" d="M6,11c0.6,0,1-0.4,1-1"/>
	<line display="inline" fill="none" stroke="#ED1C24" stroke-width="2" stroke-miterlimit="10" x1="10" y1="9" x2="16" y2="9"/>
	<polyline display="inline" fill="none" stroke="#ED1C24" stroke-width="2" stroke-miterlimit="10" points="12,5 16,9 12,13 	"/>
	<line display="inline" fill="none" stroke="#ED1C24" stroke-width="2" stroke-miterlimit="10" x1="0" y1="1" x2="6" y2="1"/>
	<line display="inline" fill="none" stroke="#ED1C24" stroke-width="2" stroke-miterlimit="10" x1="0" y1="11" x2="6" y2="11"/>
	<line display="inline" fill="none" stroke="#ED1C24" stroke-width="2" stroke-miterlimit="10" x1="7" y1="2" x2="7" y2="10"/>
</g>
</svg>
