<?xml version="1.0" encoding="utf-8"?>
<!-- Generator: Adobe Illustrator 21.0.0, SVG Export Plug-In . SVG Version: 6.00 Build 0)  -->
<!DOCTYPE svg PUBLIC "-//W3C//DTD SVG 1.1//EN" "http://www.w3.org/Graphics/SVG/1.1/DTD/svg11.dtd">
<svg version="1.1" xmlns="http://www.w3.org/2000/svg" xmlns:xlink="http://www.w3.org/1999/xlink" x="0px" y="0px"
	 viewBox="0 0 18 18" enable-background="new 0 0 18 18" xml:space="preserve">
<g id="Layer_1">
	<path d="M11.7,6H9.2l1.2-1.2L11.7,6z M3.5,6h2.8L9,3.3L7.6,1.9L6.2,3.3L3.3,0.5L1.9,1.9l2.8,2.8L3.5,6z M12,6h2.8l2.7-2.7l-1.4-1.4
		l-1.4,1.4l-2.8-2.8l-1.4,1.4l2.8,2.8L12,6z M14.5,12H9.2l5.5,5.5l1.4-1.4l-2.8-2.8L14.5,12z M6,12H0.7l5.5,5.5l1.4-1.4l-2.8-2.8
		L6,12z M1.9,4.8L0.7,6h2.5L1.9,4.8z M4,8H0v2h4V8z M7,10h4V8H7V10z M14,10h4V8h-4V10z"/>
</g>
<g id="Layer_2" display="none">
	<g display="inline">
		<polygon fill="#ED1C24" points="11.7,6 10.4,4.8 9.2,6 		"/>
		<polygon fill="#ED1C24" points="3.5,6 6.3,6 9,3.3 7.6,1.9 6.2,3.3 3.3,0.5 1.9,1.9 4.8,4.8 		"/>
		<polygon fill="#ED1C24" points="12,6 14.8,6 17.5,3.3 16.1,1.9 14.7,3.3 11.8,0.5 10.4,1.9 13.2,4.8 		"/>
		<polygon fill="#ED1C24" points="14.5,12 9.2,12 14.7,17.5 16.1,16.1 13.2,13.2 		"/>
		<polygon fill="#ED1C24" points="6,12 0.7,12 6.2,17.5 7.6,16.1 4.8,13.2 		"/>
		<polygon fill="#ED1C24" points="3.2,6 1.9,4.8 0.7,6 		"/>
	</g>
	<rect y="8" display="inline" fill="#ED1C24" width="4" height="2"/>
	<rect x="7" y="8" display="inline" fill="#ED1C24" width="4" height="2"/>
	<rect x="14" y="8" display="inline" fill="#ED1C24" width="4" height="2"/>
</g>
</svg>
