<?xml version="1.0" encoding="utf-8"?>
<!-- Generator: Adobe Illustrator 21.0.0, SVG Export Plug-In . SVG Version: 6.00 Build 0)  -->
<!DOCTYPE svg PUBLIC "-//W3C//DTD SVG 1.1//EN" "http://www.w3.org/Graphics/SVG/1.1/DTD/svg11.dtd">
<svg version="1.1" xmlns="http://www.w3.org/2000/svg" xmlns:xlink="http://www.w3.org/1999/xlink" x="0px" y="0px"
	 viewBox="0 0 18 18" enable-background="new 0 0 18 18" xml:space="preserve">
<g id="Layer_1">
	<path d="M17.8,13.8L15,9l-2.8,4.8C12.1,14.2,12,14.6,12,15c0,1.7,1.3,3,3,3s3-1.3,3-3C18,14.6,17.9,14.2,17.8,13.8z M15,16
		c-0.6,0-1-0.4-1-1c0-0.1,0-0.2,0-0.3l1-1.7l1,1.7c0,0.1,0,0.2,0,0.3C16,15.6,15.6,16,15,16z M10,2C7.8,2,6,3.8,6,6v12H4v-6H2v2H0V8
		h2v2h2V6c0-3.3,2.7-6,6-6s6,2.7,6,6h-2C14,3.8,12.2,2,10,2z"/>
</g>
<g id="Layer_2" display="none">
	<g display="inline">
		<g>
			<path fill="#ED1C24" d="M15,13l1,1.7c0,0.1,0,0.2,0,0.3c0,0.6-0.4,1-1,1s-1-0.4-1-1c0-0.1,0-0.2,0-0.3L15,13 M15,9l-2.8,4.8
				C12.1,14.2,12,14.6,12,15c0,1.7,1.3,3,3,3s3-1.3,3-3c0-0.4-0.1-0.8-0.2-1.2L15,9L15,9z"/>
		</g>
	</g>
	<path display="inline" fill="none" stroke="#ED1C24" stroke-width="2" stroke-miterlimit="10" d="M15,6c0-2.8-2.2-5-5-5"/>
	<path display="inline" fill="none" stroke="#ED1C24" stroke-width="2" stroke-miterlimit="10" d="M10,1C7.2,1,5,3.2,5,6"/>
	<path display="inline" fill="none" stroke="#ED1C24" stroke-width="2" stroke-miterlimit="10" d="M5,6v12"/>
	<line display="inline" fill="none" stroke="#ED1C24" stroke-width="2" stroke-miterlimit="10" x1="1" y1="11" x2="5" y2="11"/>
	<line display="inline" fill="none" stroke="#ED1C24" stroke-width="2" stroke-miterlimit="10" x1="1" y1="14" x2="1" y2="8"/>
</g>
</svg>
