<?xml version="1.0" encoding="utf-8"?>
<!-- Generator: Adobe Illustrator 20.1.0, SVG Export Plug-In . SVG Version: 6.00 Build 0)  -->
<!DOCTYPE svg PUBLIC "-//W3C//DTD SVG 1.1//EN" "http://www.w3.org/Graphics/SVG/1.1/DTD/svg11.dtd">
<svg version="1.1" xmlns="http://www.w3.org/2000/svg" xmlns:xlink="http://www.w3.org/1999/xlink" x="0px" y="0px"
	 viewBox="0 0 18 18" enable-background="new 0 0 18 18" xml:space="preserve">
<g id="Layer_1">
	<path d="M13.6,8.7c-0.1-0.4-0.1-0.8-0.3-1.2L9,0L4.7,7.5C4.5,7.9,4.5,8.3,4.4,8.7C1.6,9.6,0,11.2,0,13c0,2.9,3.9,5,9,5s9-2.1,9-5
		C18,11.2,16.4,9.6,13.6,8.7z M6.5,8.4L9,4l2.5,4.4c0.1,0.3,0.2,0.6,0.2,0.9c0,1.5-1.2,2.7-2.7,2.7s-2.7-1.2-2.7-2.7
		C6.3,9,6.4,8.7,6.5,8.4z M9,16c-4,0-7-1.6-7-3c0-0.8,1-1.7,2.6-2.3C5.2,12.6,6.9,14,9,14s3.8-1.4,4.4-3.3C15,11.3,16,12.2,16,13
		C16,14.4,13,16,9,16z"/>
</g>
<g id="Layer_2" display="none">
	<g display="inline">
		<g>
			<path fill="#ED1C24" d="M9,4l2.5,4.4c0.1,0.3,0.2,0.6,0.2,0.9c0,1.5-1.2,2.7-2.7,2.7s-2.7-1.2-2.7-2.7c0-0.3,0.1-0.6,0.2-0.9L9,4
				 M9,0L4.7,7.5C4.5,8.1,4.3,8.7,4.3,9.3C4.3,11.9,6.4,14,9,14s4.7-2.1,4.7-4.7c0-0.6-0.1-1.3-0.4-1.8L9,0L9,0z"/>
		</g>
	</g>
	<path display="inline" fill="none" stroke="#ED1C24" stroke-width="2" stroke-miterlimit="10" d="M5,9.5c-2.4,0.7-4,2-4,3.5
		c0,2.2,3.6,4,8,4s8-1.8,8-4c0-1.5-1.6-2.8-4-3.5"/>
</g>
</svg>
