<?xml version="1.0" encoding="utf-8"?>
<!-- Generator: Adobe Illustrator 19.2.1, SVG Export Plug-In . SVG Version: 6.00 Build 0)  -->
<!DOCTYPE svg PUBLIC "-//W3C//DTD SVG 1.1//EN" "http://www.w3.org/Graphics/SVG/1.1/DTD/svg11.dtd">
<svg version="1.1" xmlns="http://www.w3.org/2000/svg" xmlns:xlink="http://www.w3.org/1999/xlink" x="0px" y="0px"
	 viewBox="0 0 18 18" enable-background="new 0 0 18 18" xml:space="preserve">
<g id="Layer_1">
	<path d="M12,2H8V0h6v6h-2V2z M6,12H4v6h6v-2H6V12z M10.4,5l1.3-1.3l-1.4-1.4L9,3.6L10.4,5z M9,6.4L7.6,5L6.3,6.3l1.4,1.4L9,6.4z
		 M6,8.6l-1-1L2.6,10H6V8.6z M8,10h2V8H8V10z M12,8v1.4l1,1L15.4,8H12z M6.3,14.3l1.4,1.4L9,14.4L7.6,13L6.3,14.3z M9,11.6l1.4,1.4
		l1.3-1.3l-1.4-1.4L9,11.6z"/>
</g>
<g id="Layer_2" display="none">
	<g display="inline">
		<polyline fill="none" stroke="#ED1C24" stroke-width="2" stroke-miterlimit="10" points="8,1 13,1 13,6 		"/>
		<polyline fill="none" stroke="#ED1C24" stroke-width="2" stroke-miterlimit="10" points="10,17 5,17 5,12 		"/>
		<g>
			<g>
				<line fill="none" stroke="#ED1C24" stroke-width="2" stroke-miterlimit="10" x1="13" y1="1" x2="12.3" y2="1.7"/>
				
					<line fill="none" stroke="#ED1C24" stroke-width="2" stroke-miterlimit="10" stroke-dasharray="1.8627,1.8627" x1="11" y1="3" x2="6.4" y2="7.6"/>
				<polyline fill="none" stroke="#ED1C24" stroke-width="2" stroke-miterlimit="10" points="5.7,8.3 5,9 6,9 				"/>
				
					<line fill="none" stroke="#ED1C24" stroke-width="2" stroke-miterlimit="10" stroke-dasharray="2,2" x1="8" y1="9" x2="11" y2="9"/>
				<polyline fill="none" stroke="#ED1C24" stroke-width="2" stroke-miterlimit="10" points="12,9 13,9 12.3,9.7 				"/>
				
					<line fill="none" stroke="#ED1C24" stroke-width="2" stroke-miterlimit="10" stroke-dasharray="1.8627,1.8627" x1="11" y1="11" x2="6.4" y2="15.6"/>
				<line fill="none" stroke="#ED1C24" stroke-width="2" stroke-miterlimit="10" x1="5.7" y1="16.3" x2="5" y2="17"/>
			</g>
		</g>
	</g>
</g>
</svg>
