<?xml version="1.0" encoding="utf-8"?>
<!-- Generator: Adobe Illustrator 20.1.0, SVG Export Plug-In . SVG Version: 6.00 Build 0)  -->
<!DOCTYPE svg PUBLIC "-//W3C//DTD SVG 1.1//EN" "http://www.w3.org/Graphics/SVG/1.1/DTD/svg11.dtd">
<svg version="1.1" xmlns="http://www.w3.org/2000/svg" xmlns:xlink="http://www.w3.org/1999/xlink" x="0px" y="0px"
	 viewBox="0 0 18 18" enable-background="new 0 0 18 18" xml:space="preserve">
<g id="Layer_1">
	<path d="M3.3,15.9c0.8,0,1.5-0.3,2.1-0.9l2.1-2.1l-1.4-1.4L9,8.7l4.2,4.2l1.4-1.4l-4.2-4.2l2.8-2.8l1.4,1.4l1.4-1.4l-4.2-4.2
		l-1.4,1.4l1.4,1.4L9,5.9L3.3,0.2L1.9,1.6l5.7,5.7l-2.8,2.8L3.3,8.7l-2.1,2.1c-0.6,0.6-0.9,1.3-0.9,2.1s0.3,1.6,0.9,2.1
		C1.8,15.7,2.6,15.9,3.3,15.9z M2.6,12.2l0.7-0.7l1.4,1.4l-0.7,0.7c-0.4,0.4-1,0.4-1.4,0C2.2,13.3,2.2,12.6,2.6,12.2z M14.7,8.7
		l2.8,2.8l-1.4,1.4l-2.8-2.8L14.7,8.7z M11.8,11.5l2.8,2.8l-1.4,1.4l-2.8-2.8L11.8,11.5z"/>
</g>
<g id="Layer_2" display="none">
	<path display="inline" fill="none" stroke="#ED1C24" stroke-width="2" stroke-miterlimit="10" d="M4.8,14.4c-0.8,0.8-2,0.8-2.8,0
		s-0.8-2,0-2.8l1.4-1.4l2.8,2.8L4.8,14.4z"/>
	
		<line display="inline" fill="none" stroke="#ED1C24" stroke-width="2" stroke-miterlimit="10" x1="4.4" y1="11.9" x2="13.2" y2="3.1"/>
	
		<line display="inline" fill="none" stroke="#ED1C24" stroke-width="2" stroke-miterlimit="10" x1="13.9" y1="12.2" x2="2.6" y2="0.9"/>
	
		<line display="inline" fill="none" stroke="#ED1C24" stroke-width="2" stroke-miterlimit="10" x1="15.4" y1="5.2" x2="11.1" y2="0.9"/>
	
		<line display="inline" fill="none" stroke="#ED1C24" stroke-width="2" stroke-miterlimit="10" x1="16.8" y1="12.2" x2="13.9" y2="9.4"/>
	
		<line display="inline" fill="none" stroke="#ED1C24" stroke-width="2" stroke-miterlimit="10" x1="13.9" y1="15.1" x2="11.1" y2="12.2"/>
</g>
</svg>
