<?xml version="1.0" encoding="utf-8"?>
<!-- Generator: Adobe Illustrator 19.2.1, SVG Export Plug-In . SVG Version: 6.00 Build 0)  -->
<!DOCTYPE svg PUBLIC "-//W3C//DTD SVG 1.1//EN" "http://www.w3.org/Graphics/SVG/1.1/DTD/svg11.dtd">
<svg version="1.1" xmlns="http://www.w3.org/2000/svg" xmlns:xlink="http://www.w3.org/1999/xlink" x="0px" y="0px"
	 viewBox="0 0 18 18" enable-background="new 0 0 18 18" xml:space="preserve">
<g id="Layer_1">
	<path d="M10,11H8v-0.3c0-0.8,0.3-1.6,0.9-2.1l0.8-0.8C9.9,7.5,10,7.3,10,7c0-0.6-0.4-1-1-1S8,6.4,8,7H6c0-1.7,1.3-3,3-3s3,1.3,3,3
		c0,0.8-0.3,1.6-0.9,2.1l-0.8,0.8c-0.2,0.2-0.3,0.4-0.3,0.7V11z M9,11.5c-0.8,0-1.5,0.7-1.5,1.5c0,0.8,0.7,1.5,1.5,1.5
		s1.5-0.7,1.5-1.5C10.5,12.2,9.8,11.5,9,11.5L9,11.5z M18,9c0-5-4-9-9-9S0,4,0,9s4,9,9,9S18,14,18,9z M16,9c0,3.9-3.1,7-7,7
		s-7-3.1-7-7s3.1-7,7-7S16,5.1,16,9z"/>
</g>
<g id="Layer_2" display="none">
	<g display="inline">
		<path fill="none" stroke="#ED1C24" stroke-width="2" stroke-miterlimit="10" d="M7,7c0-1.1,0.9-2,2-2s2,0.9,2,2
			c0,0.6-0.2,1.1-0.6,1.4L9.6,9.2C9.2,9.6,9,10.1,9,10.7V11"/>
		<g>
			<path fill="#ED1C24" d="M9,11.5c-0.8,0-1.5,0.7-1.5,1.5c0,0.8,0.7,1.5,1.5,1.5s1.5-0.7,1.5-1.5C10.5,12.2,9.8,11.5,9,11.5L9,11.5
				z"/>
		</g>
		<circle fill="none" stroke="#ED1C24" stroke-width="2" stroke-miterlimit="10" cx="9" cy="9" r="8"/>
	</g>
</g>
</svg>
