<?xml version="1.0" encoding="utf-8"?>
<!-- Generator: Adobe Illustrator 20.0.0, SVG Export Plug-In . SVG Version: 6.00 Build 0)  -->
<!DOCTYPE svg PUBLIC "-//W3C//DTD SVG 1.1//EN" "http://www.w3.org/Graphics/SVG/1.1/DTD/svg11.dtd">
<svg version="1.1" xmlns="http://www.w3.org/2000/svg" xmlns:xlink="http://www.w3.org/1999/xlink" x="0px" y="0px"
	 viewBox="0 0 18 18" enable-background="new 0 0 18 18" xml:space="preserve">
<g id="Layer_1">
	<path d="M9,0C4,0,0,4,0,9s4,9,9,9s9-4,9-9S14,0,9,0z M9,2c2.6,0,4.9,1.4,6.1,3.5L11,9.6l-4-4l-4.9,4.9C2.1,10,2,9.5,2,9
		C2,5.1,5.1,2,9,2z M9,16c-2.6,0-4.9-1.4-6.1-3.5L7,8.4l4,4l4.9-4.9C15.9,8,16,8.5,16,9C16,12.9,12.9,16,9,16z"/>
</g>
<g id="Layer_2" display="none">
	<circle display="inline" fill="none" stroke="#ED1C24" stroke-width="2" stroke-miterlimit="10" cx="9" cy="9" r="8"/>
	<polyline display="inline" fill="none" stroke="#ED1C24" stroke-width="2" stroke-miterlimit="2" points="2,12 7,7 11,11 16,6 	"/>
</g>
</svg>
