<?xml version="1.0" encoding="utf-8"?>
<!-- Generator: Adobe Illustrator 19.2.1, SVG Export Plug-In . SVG Version: 6.00 Build 0)  -->
<!DOCTYPE svg PUBLIC "-//W3C//DTD SVG 1.1//EN" "http://www.w3.org/Graphics/SVG/1.1/DTD/svg11.dtd">
<svg version="1.1" xmlns="http://www.w3.org/2000/svg" xmlns:xlink="http://www.w3.org/1999/xlink" x="0px" y="0px"
	 viewBox="0 0 18 18" enable-background="new 0 0 18 18" xml:space="preserve">
<g id="Layer_1">
	<path d="M9,3.5c0.8,0,1.5,0.7,1.5,1.5S9.8,6.5,9,6.5S7.5,5.8,7.5,5S8.2,3.5,9,3.5L9,3.5z M10,8H8v6h2V8z M18,9c0-5-4-9-9-9S0,4,0,9
		s4,9,9,9S18,14,18,9z M16,9c0,3.9-3.1,7-7,7s-7-3.1-7-7s3.1-7,7-7S16,5.1,16,9z"/>
</g>
<g id="Layer_2" display="none">
	<g display="inline">
		<g>
			<path fill="#ED1C24" d="M9,3.5C8.2,3.5,7.5,4.2,7.5,5S8.2,6.5,9,6.5s1.5-0.7,1.5-1.5S9.8,3.5,9,3.5L9,3.5z"/>
		</g>
		<line fill="none" stroke="#ED1C24" stroke-width="2" stroke-miterlimit="10" x1="9" y1="8" x2="9" y2="14"/>
		<circle fill="none" stroke="#ED1C24" stroke-width="2" stroke-miterlimit="10" cx="9" cy="9" r="8"/>
	</g>
</g>
</svg>
